<?xml version="1.0" standalone="no"?>
<!DOCTYPE svg PUBLIC "-//W3C//DTD SVG 1.1//EN" "http://www.w3.org/Graphics/SVG/1.1/DTD/svg11.dtd" >
<svg xmlns="http://www.w3.org/2000/svg" xmlns:xlink="http://www.w3.org/1999/xlink" version="1.1">
<metadata>
Created by FontForge 20161116 at Fri Aug  3 19:17:28 2012
 By Jimmy Wärting
Copyright 2012 Dalton Maag Ltd. Modification of this file requires prior written permission from Dalton Maag Ltd.
</metadata>
<defs>
<font id="HTCHand-Regular" horiz-adv-x="350" >
  <font-face 
    font-family="HTC Hand"
    font-weight="500"
    font-stretch="normal"
    units-per-em="1000"
    panose-1="3 8 7 6 2 2 2 3 2 2"
    ascent="677"
    descent="-323"
    x-height="298"
    cap-height="577"
    bbox="-924 -479 1150 1006"
    underline-thickness="84"
    underline-position="-97"
    unicode-range="U+0008-FB04"
  />
<missing-glyph horiz-adv-x="500" 
d="M50 0v750h400v-750h-400zM400 50v650h-300v-650h300z" />
    <glyph glyph-name="f_f" unicode="ff" horiz-adv-x="681" 
d="M154 150l-11 -2q-6 -2 -16 -4t-19.5 -3.5t-17.5 -3t-10 -1.5t-4 -0.5t-2 -2.5q-1 2 -5 2h-7q-20 2 -28 11t-10 20q-2 6 -2 8v4q1 2 2 2.5t1 2.5t1 3t1 3q1 14 12 23.5t31 12.5q3 0 11.5 1t18 2.5t18.5 3t15 3.5q8 2 31 4q3 26 7 50.5t9 47.5q5 27 16 65.5t27 70.5
q16 34 35 56.5t45 46.5q27 26 55.5 40.5t63.5 14.5q10 0 15.5 -4t12.5 -14q3 -5 3 -9t4 -5q0 -1 -0.5 -1.5t-0.5 -2.5q2 -2 2 -8.5t1 -8.5q0 -6 -5 -13t-12 -13t-15.5 -10t-15.5 -4q-5 0 -11.5 1t-11.5 1q-6 0 -16 -7t-22 -19t-24.5 -27.5t-22.5 -31.5q-12 -20 -17.5 -34
t-10.5 -28q-8 -24 -15 -64t-13 -81q26 3 57.5 5.5t57.5 4.5q17 2 33.5 3t34.5 2q2 10 2 9l22 88q6 23 19 55.5t33 62t46 50.5t59 21q23 0 40 -13t17 -32q0 -17 -9.5 -29.5t-23.5 -12.5q-8 0 -12.5 1.5l-7.5 2.5q-6 2 -8 2q-9 0 -19 -8t-19.5 -20t-17 -26.5t-12.5 -27.5
q-10 -27 -17.5 -56.5t-13.5 -61.5l67 4q22 1 34.5 2t21 2t15 1.5t16.5 0.5q3 0 6.5 -0.5t5.5 -0.5q8 -1 13.5 -2.5t9.5 -1.5q3 -1 5 -4t4 -7q1 -4 2 -6.5t1 -6.5q0 -5 -1 -8q-1 -7 -5 -13t-8 -8q-5 -3 -10 -5q-3 -1 -5 -2q-28 -9 -52 -11.5t-47 -4.5q-19 -2 -42 -4t-44 -4
q-2 -17 -3.5 -34t-3.5 -33q-2 -25 -3.5 -51.5t-2.5 -51t-2 -45.5t-1 -36q0 -12 2.5 -34.5t4.5 -34.5q0 -5 1 -10t1.5 -9.5t0.5 -9.5l-1.5 -7.5t-1.5 -4.5q-1 -3 -2 -4q-11 -20 -28 -20q-14 0 -24.5 7t-12.5 11q-8 11 -10 25.5t-2 22.5l-2 29q-1 9 -1.5 21t-0.5 31
q0 53 3.5 112.5t11.5 120.5q-7 0 -13 -1t-13 -1q-9 -1 -22 -2.5t-27.5 -2.5t-27.5 -2.5t-22 -2.5q-16 -2 -30 -4l-28 -4q-5 -34 -11 -81t-13.5 -95t-15.5 -91.5t-15 -68.5t-13.5 -41t-13.5 -25.5t-14.5 -13.5t-16.5 -4q-13 0 -28 3t-22 14q-4 7 -6 19q0 2 1 3.5t1 3.5t-2 4
q0 4 2 4q0 1 -0.5 2t-0.5 2q0 11 9 17q2 2 5.5 4t8 7t9.5 14.5t10 25.5q6 19 11 45.5t10 55.5l8 21q1 2 1 5q0 2 -1 3q1 2 2.5 3.5t1.5 3.5q-2 3 -3 3q-1 2 -1 6t1 6l14 117z" />
    <glyph glyph-name="fi" unicode="fi" horiz-adv-x="611" 
d="M529 144q-2 -2 -3 -10.5t-2 -10.5q-3 -6 -4 -18t-3 -20t-4 -16.5t-2 -15.5q-2 -8 -3 -13.5t-2 -10.5t-1 -12v-17q0 -3 4 -4.5t8 -5.5q6 -6 6 -18q0 -22 -11 -31.5t-29 -9.5q-17 0 -33.5 18.5t-18.5 47.5q-1 5 -1 10.5v11.5q0 14 1.5 21.5t2.5 15.5q0 7 2 21.5t4.5 32.5
t5.5 37.5t5 35.5q-3 0 -12 0.5t-23 0.5q-11 0 -39 -3t-61 -7.5t-64.5 -10t-49.5 -10.5q-3 -29 -9 -76.5t-14 -99t-16.5 -99t-16.5 -75.5q-14 -50 -27.5 -67t-31.5 -17q-13 0 -28 3t-22 14q-4 7 -6 19q0 2 1 3.5t1 3.5t-2 4q0 4 2 4q0 1 -0.5 2t-0.5 2q0 11 9 17q2 2 5.5 4
t8 7t9.5 14.5t10 25.5q6 19 11 45.5t10 55.5l6 16q1 2 2 4.5t1 4.5t-1 3q1 2 2.5 4t1.5 4q-2 3 -3 3q-1 2 -1 6t1 6q5 35 7 64.5t5 49.5l3 21q-3 0 -3.5 -0.5t-2.5 -0.5t-3 -0.5t-3 -0.5q-4 0 -5.5 -1t-5.5 -1h-7q-20 1 -29 9t-11 19q-2 6 -2 8v4q0 2 1 2.5t1 2.5t1 3.5
t1 3.5q0 14 10.5 24t30.5 14q14 2 38 8q5 35 10 71.5t12 71.5q5 27 16 65.5t27 70.5q33 70 86 118q27 26 55.5 40.5t63.5 14.5q10 0 15.5 -4t12.5 -14q3 -5 3 -9t4 -5q0 -1 -0.5 -1.5t-0.5 -2.5q2 -2 2 -8.5t1 -8.5q0 -6 -5 -13t-12 -13t-15.5 -10t-15.5 -4q-5 0 -10 1
t-13 1q-7 0 -17.5 -7t-22 -19t-23.5 -27.5t-22 -31.5q-12 -20 -19.5 -40.5t-12.5 -34.5q-10 -32 -19 -83t-16 -100l63 13q14 3 41.5 6t58 5.5t59 4.5t44.5 3q8 4 21 4q9 0 15 -3q7 -5 11 -14t16 -19v-4q0 -11 -2.5 -23.5t-4.5 -23.5zM558 493q-23 0 -38 20.5t-15 41.5
q0 18 11.5 33.5t39.5 15.5q15 0 23.5 -5t13 -13t5.5 -18.5t1 -20.5q-1 -22 -9 -38t-32 -16z" />
    <glyph glyph-name="fl" unicode="fl" horiz-adv-x="668" 
d="M93 -54q2 6 2 10l2 4t1 4q-2 3 -3 3q0 2 -0.5 3t-0.5 3t1 5q5 35 7 65t5 50l3 21q-2 0 -3 -0.5t-3 -0.5t-3 -0.5t-3 -0.5t-4 -0.5t-2 -2.5q-2 1 -5 1h-7q-20 0 -29 8.5t-11 19.5q-2 6 -2 8v4q0 2 1 2.5t1 2.5t1 3.5t1 3.5q0 14 10.5 24t30.5 14q14 2 38 8q5 35 10 71.5
t12 71.5q5 27 16 65.5t27 70.5q33 70 86 118q27 26 55.5 40.5t63.5 14.5q10 0 15.5 -4t12.5 -14q3 -5 3 -9t4 -5q0 -1 -0.5 -1.5t-0.5 -2.5q2 -2 2 -8.5t1 -8.5q0 -6 -5 -13t-12 -13t-15.5 -10t-15.5 -4q-5 0 -11.5 1t-11.5 1q-16 -4 -40.5 -28.5t-44.5 -56.5
q-12 -20 -19.5 -40.5t-12.5 -34.5q-10 -32 -19 -83t-16 -100l63 13q16 3 33.5 6t35 5.5t33 4t27.5 1.5q16 0 28.5 -10.5t16.5 -24.5q0 -2 0.5 -2.5t0.5 -2.5q0 -4 -1 -7t-2 -7q-1 -5 -2.5 -8.5t-3.5 -8.5q-2 -6 -12 -13t-44 -7h-10t-12 1q-3 0 -12 0.5t-23 0.5q-22 0 -57 -9
t-71 -20q-3 -29 -9 -76.5t-14 -99t-16.5 -99t-16.5 -75.5q-14 -50 -27.5 -67t-31.5 -17q-13 0 -28 3t-22 14q-4 7 -6 19q0 2 1 3.5t1 3.5t-2 4q0 4 2 4q0 1 -0.5 2t-0.5 2q0 11 9 17q2 2 5.5 4t8 7t9.5 14.5t10 25.5q6 19 11 45.5t10 55.5zM551 582q1 4 2 6.5t3 5.5q1 2 1 5
q0 2 -0.5 4t-0.5 4q0 3 1 5q8 13 17.5 20t17.5 7q9 0 18 -4t17 -10t14 -12t9 -10q1 -2 1 -7t-1 -9t-1 -11t-4.5 -16t-7.5 -16q-4 -8 -11 -35.5t-14 -59.5q-2 -12 -4 -22.5t-4 -23.5q0 -3 -0.5 -6.5t-1.5 -11.5t-3 -22.5t-6 -39.5q-5 -34 -9 -67.5t-7 -62.5t-4.5 -51.5
t-1.5 -34.5q0 -30 2 -50t5 -34t5 -26.5t2 -27.5t-8 -20q-4 -2 -12 -2q-4 0 -14 2q-12 4 -21 4q-4 0 -8.5 4.5t-7.5 8.5q-2 3 -4.5 8t-2.5 8q-2 2 -4 4.5t-3 6.5q-3 11 -3.5 26t-0.5 38v73q0 40 2 78t6.5 76.5t11.5 80t16 88.5q5 23 9 52t7 53z" />
    <glyph glyph-name="f_f_i" unicode="ffi" horiz-adv-x="939" 
d="M155 131l-11 -2q-9 -2 -19 -3t-19 -2t-16 -1.5t-9 -0.5q-4 0 -5.5 -0.5t-5.5 -0.5l-12 1q-20 2 -26 9t-8 18q-2 6 -2 8v4q1 2 2 2.5t1 2.5t1 3t1 3q1 14 12 23.5t31 12.5q7 0 27 1t36 3l31 3q1 13 3.5 29.5l5 33t5.5 32.5t5 27q5 27 16 65.5t27 70.5q16 34 35 56.5
t45 46.5q27 26 55.5 40.5t63.5 14.5q10 0 15.5 -4t12.5 -14q3 -5 3 -9t4 -5q0 -1 -0.5 -1.5t-0.5 -2.5q2 -2 2 -8.5t1 -8.5q0 -6 -5 -13t-12 -13t-15.5 -10t-15.5 -4q-5 0 -11.5 1t-11.5 1q-6 0 -16 -7t-22 -19t-24.5 -27.5t-22.5 -31.5q-12 -20 -17.5 -34t-10.5 -28
q-4 -12 -8 -32.5t-8.5 -44.5t-8.5 -49t-7 -45q13 1 34 3t44 4t44 3.5t34 2.5q15 2 28.5 3t29.5 2q4 32 9 63.5t11 62.5q5 27 16 65.5t27 70.5q33 70 86 118q27 26 55.5 40.5t63.5 14.5q10 0 15.5 -4t12.5 -14q3 -5 3 -9t4 -5q0 -1 -0.5 -1.5t-0.5 -2.5q2 -2 2 -8.5t1 -8.5
q0 -6 -5 -13t-12 -13t-15.5 -10t-15.5 -4q-5 0 -10 1t-13 1q-7 0 -17.5 -7t-22 -19t-23.5 -27.5t-22 -31.5q-12 -20 -19.5 -40.5t-12.5 -34.5q-10 -32 -18.5 -80t-15.5 -97l62 7q14 3 41.5 6t58 5.5t59 4.5t44.5 3q8 4 21 4q9 0 15 -3q7 -5 11 -14t16 -19v-4
q0 -11 -2.5 -23.5t-4.5 -23.5l-7 -46q-2 -2 -3 -10.5t-2 -10.5q-3 -6 -4 -18t-3 -20t-4 -16.5t-2 -15.5q-2 -8 -3 -13.5t-2 -10.5t-1 -12v-17q0 -3 4 -4.5t8 -5.5q6 -6 6 -18q0 -22 -11 -31.5t-29 -9.5q-17 0 -33.5 18.5t-18.5 47.5q-1 5 -1 10.5v11.5q0 14 1.5 21.5
t2.5 15.5q0 7 2 21.5t4.5 32.5t5.5 37.5t5 35.5q-3 0 -12 0.5t-23 0.5q-11 0 -38 -2t-59 -5t-63.5 -6.5t-51.5 -7.5q-2 -19 -5.5 -48t-8.5 -62.5t-10.5 -69.5t-11 -70t-11.5 -62.5t-11 -47.5q-14 -50 -27.5 -67t-31.5 -17q-13 0 -28 3t-22 14q-4 7 -6 19q0 2 1 3.5t1 3.5
t-2 4q0 4 2 4q0 1 -0.5 2t-0.5 2q0 11 9 17q2 2 5.5 4t8 7t9.5 14.5t10 25.5q6 19 11 45.5t10 55.5l6 16q1 2 2 4.5t1 4.5t-1 3q1 2 2.5 4t1.5 4q-2 3 -3 3q-1 2 -1 6t1 6q5 35 7.5 64.5t4.5 49.5l6 53q-5 -1 -10 -1.5t-10 -0.5q-9 -1 -28 -2.5t-40.5 -3t-40.5 -3t-28 -2.5
q-16 -2 -30 -4l-28 -4q-5 -34 -11 -77.5t-12.5 -87t-14 -83t-14.5 -64.5t-13.5 -41t-13.5 -25.5t-14.5 -13.5t-16.5 -4q-13 0 -28 3t-22 14q-4 7 -6 19q0 2 1 3.5t1 3.5t-2 4q0 4 2 4q0 1 -0.5 2t-0.5 2q0 11 9 17q2 2 5.5 4t8 7t9.5 14.5t10 25.5q6 19 11 45.5t10 55.5
l8 21q1 2 1 5q0 2 -1 3q1 2 2.5 3.5t1.5 3.5q-2 3 -3 3q-1 2 -1 6t1 6l12 97zM886 493q-23 0 -38 20.5t-15 41.5q0 18 11.5 33.5t39.5 15.5q15 0 23.5 -5t13 -13t5.5 -18.5t1 -20.5q-1 -22 -9 -38t-32 -16z" />
    <glyph glyph-name="f_f_l" unicode="ffl" horiz-adv-x="1011" 
d="M894 582q1 4 2 6.5t3 5.5q1 2 1 5q0 2 -0.5 4t-0.5 4q0 3 1 5q8 13 17.5 20t17.5 7q9 0 18 -4t17 -10t14 -12t9 -10q1 -2 1 -7t-1 -9t-1 -11t-4.5 -16t-7.5 -16q-4 -8 -11 -35.5t-14 -59.5q-2 -12 -4 -22.5t-4 -23.5q0 -3 -0.5 -6.5t-1.5 -11.5t-3 -22.5t-6 -39.5
q-5 -34 -9 -67.5t-7 -62.5t-4.5 -51.5t-1.5 -34.5q0 -30 2 -50t5 -34t5 -26.5t2 -27.5t-8 -20q-4 -2 -12 -2q-4 0 -14 2q-12 4 -21 4q-4 0 -8.5 4.5t-7.5 8.5q-2 3 -4.5 8t-2.5 8q-2 2 -4 4.5t-3 6.5q-3 11 -3.5 26t-0.5 38v73q0 40 2 78t6.5 76.5t11.5 80t16 88.5
q5 23 9 52t7 53zM611 173q-23 -2 -43.5 -5t-35.5 -5q-2 -19 -5.5 -48t-8.5 -62.5t-10.5 -69.5t-11 -70t-11.5 -62.5t-11 -47.5q-14 -50 -27.5 -67t-31.5 -17q-13 0 -28 3t-22 14q-4 7 -6 19q0 2 1 3.5t1 3.5t-2 4q0 4 2 4q0 1 -0.5 2t-0.5 2q0 11 9 17q2 2 5.5 4t8 7
t9.5 14.5t10 25.5q6 19 11 45.5t10 55.5l6 16q1 2 2 4.5t1 4.5t-1 3q1 2 2.5 4t1.5 4q-2 3 -3 3q-1 2 -1 6t1 6q5 35 7.5 64.5t4.5 49.5l6 53q-5 -1 -10 -1.5t-10 -0.5q-9 -1 -28 -2.5t-40.5 -3t-40.5 -3t-28 -2.5q-16 -2 -30 -4l-28 -4q-5 -34 -11 -77.5t-12.5 -87t-14 -83
t-14.5 -64.5t-13.5 -41t-13.5 -25.5t-14.5 -13.5t-16.5 -4q-13 0 -28 3t-22 14q-4 7 -6 19q0 2 1 3.5t1 3.5t-2 4q0 4 2 4q0 1 -0.5 2t-0.5 2q0 11 9 17q2 2 5.5 4t8 7t9.5 14.5t10 25.5q6 19 11 45.5t10 55.5l8 21q1 2 1 5q0 2 -1 3q1 2 2.5 3.5t1.5 3.5q-2 3 -3 3
q-1 2 -1 6t1 6l12 97l1 15l-11 -2q-9 -2 -19 -3t-19 -2t-16 -1.5t-9 -0.5q-4 0 -5.5 -0.5t-5.5 -0.5l-12 1q-20 2 -26 9t-8 18q-2 6 -2 8v4q1 2 2 2.5t1 2.5t1 3t1 3q1 14 12 23.5t31 12.5q7 0 27 1t36 3l31 3q1 13 3.5 29.5l5 33t5.5 32.5t5 27q5 27 16 65.5t27 70.5
q16 34 35 56.5t45 46.5q27 26 55.5 40.5t63.5 14.5q10 0 15.5 -4t12.5 -14q3 -5 3 -9t4 -5q0 -1 -0.5 -1.5t-0.5 -2.5q2 -2 2 -8.5t1 -8.5q0 -6 -5 -13t-12 -13t-15.5 -10t-15.5 -4q-5 0 -11.5 1t-11.5 1q-6 0 -16 -7t-22 -19t-24.5 -27.5t-22.5 -31.5q-12 -20 -17.5 -34
t-10.5 -28q-4 -12 -8 -32.5t-8.5 -44.5t-8.5 -49t-7 -45q13 1 34 3t44 4t44 3.5t34 2.5q15 2 28.5 3t29.5 2q4 32 9 63.5t11 62.5q5 27 16 65.5t27 70.5q33 70 86 118q27 26 55.5 40.5t63.5 14.5q10 0 15.5 -4t12.5 -14q3 -5 3 -9t4 -5q0 -1 -0.5 -1.5t-0.5 -2.5
q2 -2 2 -8.5t1 -8.5q0 -6 -5 -13t-12 -13t-15.5 -10t-15.5 -4q-5 0 -10 1t-13 1q-7 0 -17.5 -7t-22 -19t-23.5 -27.5t-22 -31.5q-12 -20 -19.5 -40.5t-12.5 -34.5q-10 -32 -18.5 -80t-15.5 -97l62 7q38 5 70 8.5t65 3.5q16 0 28.5 -10.5t16.5 -24.5q0 -2 0.5 -2.5t0.5 -2.5
q0 -4 -1 -7t-2 -7q-1 -5 -2.5 -8.5t-3.5 -8.5q-2 -6 -12 -13t-44 -7h-10t-12 1q-3 0 -12 0.5t-23 0.5q-11 -1 -20 -1t-17 -1q-9 -1 -16 -2z" />
    <glyph glyph-name="f_t" unicode="ft" horiz-adv-x="668" 
d="M522 213q-2 -9 -3.5 -18t-3.5 -19l-19 -124q-1 -7 -2.5 -18t-3 -23t-2.5 -22.5t-2 -17.5q-2 -14 -3 -27t-6 -17q-5 -14 -12 -16.5t-16 -2.5q-8 0 -12 2.5t-8 6.5q-2 2 -5.5 8t-5.5 20q-1 7 -1 13v12q0 9 0.5 16.5t1.5 12.5q1 10 3 26t4 25l13 99q1 9 3.5 25t6.5 36
q-11 -2 -25 -4.5t-25 -2.5l-19 -2q-7 -1 -9.5 -1.5t-11.5 -0.5q-3 0 -16.5 -1.5t-27.5 -3.5q-48 -4 -122 -26q-3 -29 -9 -76.5t-14 -99t-16.5 -99t-16.5 -75.5q-14 -50 -27.5 -67t-31.5 -17q-13 0 -28 3t-22 14q-4 7 -6 19q0 2 1 3.5t1 3.5t-2 4q0 4 2 4q0 1 -0.5 2t-0.5 2
q0 11 9 17q2 2 5.5 4t8 7t9.5 14.5t10 25.5q6 19 11 45.5t10 55.5l7 19q2 4 2 6l-1 2v2q1 2 2.5 3.5t1.5 3.5q-2 3 -3 3q-1 2 -1 6t1 6q5 35 7 64.5t5 49.5l3 21l-6 -1q-2 0 -3 -0.5t-3 -0.5t-4 -0.5t-2 -2.5q-2 1 -5 1h-7q-20 1 -29 9t-11 19q-2 6 -2 8v4q0 2 1 2.5t1 2.5
t1 3.5t1 3.5q0 14 10.5 24t30.5 14q14 2 38 8q5 35 10 71.5t12 71.5q5 27 16 65.5t27 70.5q33 70 86 118q27 26 55.5 40.5t63.5 14.5q10 0 15.5 -4t12.5 -14q3 -5 3 -9t4 -5q0 -1 -0.5 -1.5t-0.5 -2.5q2 -2 2 -8.5t1 -8.5q0 -6 -5 -13t-12 -13t-15.5 -10t-15.5 -4
q-5 0 -11.5 1t-11.5 1q-6 0 -16.5 -7t-22.5 -19t-24 -27.5t-22 -31.5q-12 -20 -19.5 -40.5t-12.5 -34.5q-10 -32 -19 -83t-16 -100l55 8q16 2 37 4.5t42.5 5t40.5 5t30 4.5h5q9 2 23 4l28 4l4 16q4 18 13.5 50.5t20 66.5t19.5 63t11 41q3 12 10.5 19.5t12.5 7.5t12.5 -1
t10.5 -3q5 -1 10.5 -8t7.5 -15q3 -8 5 -16t2 -16q0 -14 -1.5 -23t-3.5 -16t-8.5 -26t-14.5 -33q-9 -20 -17.5 -42t-17.5 -57h4q8 0 15.5 1t13.5 3q7 1 16 2t15 1q8 0 19.5 -4t19.5 -12q7 -6 13 -14t6 -16q0 -26 -13 -34q-5 -6 -12 -8.5t-15 -3.5z" />
    <glyph glyph-name="t_t" unicode="tt" horiz-adv-x="686" 
d="M556 48q0 -17 -10.5 -27.5t-21.5 -19.5q-20 -16 -51.5 -31t-60.5 -15q-18 0 -27.5 6t-14.5 15.5t-6 22.5t-1 27q0 30 2 47t4 32q1 7 4 23.5t6 39.5q1 11 4.5 31.5t8.5 45.5h-152q-13 0 -26.5 -2t-27.5 -2q-8 -31 -13.5 -61t-9.5 -54.5t-6 -40.5t-2 -19q0 -7 0.5 -23
t2.5 -26q5 -7 8 -9.5t5 -7.5q3 -5 3 -15q0 -4 -1 -8t-3 -9q-4 -11 -17.5 -18.5t-27.5 -7.5q-10 4 -14.5 7t-11.5 11q-8 10 -13 24l-4 12q0 2 -0.5 3t-0.5 3t-1.5 3.5t-1.5 3.5l1 5q-2 10 -2 22q0 54 9 107t23 103q-5 2 -8.5 2.5t-6.5 3.5q-4 5 -5.5 14.5t-1.5 18.5v9t2 7
q2 6 4 8t4 5l9 7q4 1 6.5 1t5.5 2l8 2t7 1q5 12 11 29t11 35t9.5 34.5t7.5 28.5q6 29 13 50t15 35q13 19 25 19q6 0 15 -1.5t13 -3.5q3 -1 8 -6q3 -3 3.5 -5.5t2.5 -7.5q1 -3 1.5 -5.5t0.5 -5.5q0 -6 -1 -13t-1 -15t-7 -30t-16 -48t-17.5 -50t-11.5 -35l-4 -8h9
q11 0 20.5 -1t17.5 -1t15 0.5t12 0.5h59q6 1 13.5 1h15.5h15t15 1h2q3 0 5 1q4 18 13.5 50.5t20 66.5t19.5 63t11 41q3 12 10.5 19.5t12.5 7.5t12.5 -1t10.5 -3q5 -1 10.5 -8t7.5 -15q3 -8 5 -16t2 -16q0 -15 -1.5 -23.5t-3.5 -15.5t-8.5 -26t-14.5 -33l-16 -38t-16 -48
q5 -1 8.5 -1.5t7.5 -0.5t6 1q3 0 10.5 0.5t15.5 1t15 1t10 0.5q8 0 19.5 -1.5t19.5 -9.5q7 -6 13 -14t6 -16q0 -17 -3.5 -23.5t-9.5 -10.5q-10 -11 -27 -13h-112l-9 -50q-5 -27 -8.5 -56.5t-5.5 -41.5q-1 -5 -2 -13t-1.5 -16t-1 -15t-0.5 -11q0 -8 1 -11t7 -3q7 0 18 8
t21 15l19 12q10 13 24 13q10 0 18.5 -7t11.5 -21z" />
    <glyph glyph-name="t_f" unicode="tf" horiz-adv-x="746" 
d="M524 211q-5 -39 -13 -93.5t-16.5 -109.5t-17.5 -102.5t-16 -72.5t-13.5 -41t-13.5 -25.5t-14.5 -13.5t-16.5 -4q-13 0 -28 3t-22 14q-4 7 -6 19q0 2 1 3.5t1 3.5t-2 4q0 4 2 4q0 1 -0.5 2t-0.5 2q0 11 9 17q2 2 5.5 4t8 7t9.5 14.5t10 25.5q6 19 11 45.5t10 55.5l8 21
q1 2 1 4t-1 3q1 2 2.5 4t1.5 4q-2 3 -3 3q-1 2 -1 6t1 6l23 187h-238l-24 -158q-1 -7 -2.5 -18t-3 -23t-2.5 -22.5t-2 -17.5q-2 -14 -3 -27t-6 -17q-5 -14 -12 -16.5t-16 -2.5q-8 0 -12 2.5t-8 6.5q-2 2 -5.5 8t-5.5 20q-1 7 -1 13v12q0 9 0.5 16.5t1.5 12.5q1 10 3 26t4 25
l13 99q1 8 3.5 23l5.5 33q-11 -2 -22.5 -3.5t-21.5 -1.5q-4 0 -10 1.5t-9 3.5q-5 1 -8.5 3.5t-5.5 4.5q-3 5 -6 11.5t-3 12.5q-2 4 -2 6q0 1 0.5 1.5t0.5 1.5l3 12t9 9q6 2 20.5 7.5t37.5 10.5q8 2 16.5 2t18.5 1l4 19q4 18 13.5 50.5t20 66.5t19.5 63t11 41q3 12 10.5 19.5
t12.5 7.5t12.5 -1t10.5 -3q5 -1 10.5 -8t7.5 -15q3 -8 5 -16t2 -16q0 -16 -1.5 -24t-3.5 -15t-8.5 -26t-14.5 -33q-9 -20 -17.5 -42t-17.5 -57l-3 -9h229q3 26 6.5 53.5t8.5 51.5q5 27 16 65.5t27 70.5q33 70 86 118q27 26 55.5 40.5t63.5 14.5q10 0 15.5 -4t12.5 -14
q3 -5 3 -9t4 -5q0 -1 -0.5 -1.5t-0.5 -2.5q2 -2 2 -8.5t1 -8.5q0 -6 -5 -13t-12 -13t-15.5 -10t-15.5 -4q-5 0 -11.5 1t-11.5 1q-6 0 -16.5 -7.5t-22.5 -19.5t-24 -27t-22 -31q-12 -20 -19.5 -40.5t-12.5 -34.5q-8 -25 -16 -69.5t-14 -89.5q47 1 78.5 1t35.5 1q8 1 16 1.5
t14 2.5q7 1 16 2t15 1q8 0 19.5 -4t19.5 -12q7 -6 13 -14t6 -16q0 -17 -3.5 -23.5t-9.5 -10.5q-5 -6 -12 -8.5t-15 -3.5z" />
    <glyph glyph-name=".notdef" horiz-adv-x="500" 
d="M50 0v750h400v-750h-400zM400 50v650h-300v-650h300z" />
    <glyph glyph-name=".null" horiz-adv-x="0" 
 />
    <glyph glyph-name=".null" horiz-adv-x="0" 
 />
    <glyph glyph-name=".null" horiz-adv-x="0" 
 />
    <glyph glyph-name="nonmarkingreturn" unicode="&#x9;" horiz-adv-x="380" 
 />
    <glyph glyph-name="nonmarkingreturn" unicode="&#xd;" horiz-adv-x="380" 
 />
    <glyph glyph-name="space" unicode=" " horiz-adv-x="380" 
 />
    <glyph glyph-name="exclam" unicode="!" horiz-adv-x="374" 
d="M150 323v11t-0.5 18.5t-0.5 21.5v19q0 9 1.5 29.5t1.5 36.5q0 10 1 22.5t2.5 24.5t2.5 21t1 11q0 5 1 13t2 15.5t2 13.5t1 9v6q0 3 1 7t3 7q1 2 2 2.5t3 2.5q2 1 3 3q10 7 22 7q8 0 14 -1.5t8 -3.5q7 -3 14 -8.5t10 -11.5q5 -9 5 -17v-5q0 -5 -0.5 -11.5t-2.5 -11.5
q-1 -2 -1 -3.5t-1 -3.5l-2 -4q-2 -5 -4.5 -12t-2.5 -12q0 -3 -1.5 -15t-3 -26.5t-3.5 -27t-2 -17.5q-2 -15 -3.5 -30.5t-1.5 -20.5q0 -4 -0.5 -8t-0.5 -9v-11q0 -11 -1 -39.5t-2 -59t-2.5 -55t-1.5 -27.5q-1 -4 -2 -7t-2 -5q-1 -3 -2 -4q-3 -5 -6.5 -10t-6.5 -5
q-6 -8 -18 -8q-2 0 -3 1t-3 2q-5 3 -6 6q-6 2 -7 5q-3 4 -3 11q-1 2 -1 5.5v6.5v6q0 7 -0.5 23t-1 34t-1 34t-0.5 24v31zM209 -5q-2 -7 -7 -11t-13 -9q-5 -3 -10.5 -3.5t-8.5 -0.5q-8 0 -11 1t-4 2q-6 0 -15.5 6t-11.5 12q-2 5 -4.5 11t-2.5 15q0 26 13 42q7 7 14 8.5
t12 3.5q8 2 13 2q9 0 17 -5l10 -10t8 -13q3 -7 5 -18t2 -17q0 -4 -2 -9t-4 -7z" />
    <glyph glyph-name="quotedbl" unicode="&#x22;" horiz-adv-x="347" 
d="M130 383q-1 -8 -4 -17t-4 -14q-2 -8 -7 -15q-3 -3 -7 -6.5t-6 -4.5t-6 -2t-9 -1t-10.5 2t-10.5 7t-8 14q-3 7 -3 17v20q0 4 0.5 12t1.5 17.5t2 18.5t2 15q1 12 1 32v37q0 16 1 37t5 30q3 12 11 19q3 3 8 5t10 3t11.5 1.5t10.5 0.5q5 -2 9 -5q8 -5 13 -13q2 -2 6 -10
q2 -4 3 -7q1 -5 2 -9t1.5 -8t2.5 -7v-5q0 -7 -1 -9q-2 -11 -4 -28t-4 -28q-3 -14 -5.5 -31t-4.5 -27q-2 -7 -4 -20t-3 -21zM220 331q-1 1 -2 3t-1 10q0 4 -1 8q-2 8 -2 14q-1 14 -1.5 30t-0.5 27q0 16 1.5 35.5t1.5 36.5q0 14 2 33t13 31q12 15 35 15q14 0 32 -9q2 -2 4 -6
q1 -2 2 -3l4 -8t2.5 -8t1.5 -7v-5q0 -7 -1 -9q-2 -11 -5 -21t-8 -23q-8 -27 -9.5 -52t-3.5 -60q-1 -8 -3.5 -16.5t-6.5 -13.5q-5 -7 -14.5 -14t-19.5 -7q-6 0 -11.5 4t-8.5 15z" />
    <glyph glyph-name="numbersign" unicode="#" horiz-adv-x="685" 
d="M404 18q-4 -2 -10.5 -4.5t-14.5 -2.5q-5 0 -9 3q-3 2 -5 4l-7 8q-5 6 -6 16t-1 15q0 3 0.5 8.5t1.5 10.5q1 6 3 14l3 18t5 26t6 29.5t6 28.5h-30q-8 -1 -32 -1.5t-49 -1.5q-1 -3 -1 -6q0 -1 -1 -2q-2 -7 -4.5 -22.5t-4.5 -26.5q-1 -5 -2.5 -17t-4 -25.5t-4.5 -26
t-4 -18.5l-2 -4q-2 -4 -5 -7q-2 -2 -6.5 -3.5t-9.5 -1.5q-5 1 -9 2t-8.5 2.5t-6.5 3.5l-6 6l-5 5t-4 5q-2 5 -3 14.5t-1 14.5q0 6 2 21t4 22q1 6 4 16t5 21q3 11 6 25q-22 -1 -40.5 -2t-25.5 -3q-5 -1 -16 -3.5t-17 -2.5q-5 0 -13.5 1.5t-13.5 5.5q-5 5 -5.5 8t-3.5 10l-2 6
q-1 3 -1 10q0 6 0.5 9.5t2.5 7.5q4 5 9.5 7t12.5 5q3 0 10 2t16 4.5l18 5t15 4.5l65 10q2 14 4.5 26.5t4.5 19.5l5 38q-14 -2 -27 -3t-15 -1q-3 0 -12 -1.5t-19.5 -3.5t-19.5 -3.5t-12 -1.5l-16 -4q-5 0 -15.5 -4.5t-14.5 -4.5q-6 1 -12 0.5t-11 3.5q-2 2 -4 5.5t-4 5.5
q-4 8 -4.5 12.5t-0.5 9.5t0.5 11.5t5.5 11.5q8 10 21 16q6 3 22 8.5t25 7.5q3 1 13 2.5t21.5 3.5t22.5 3.5t17 1.5q3 0 19.5 2.5t34.5 4.5q1 5 2 10.5t2 9.5t1 9l8 31q0 3 2.5 11.5t5.5 18t6.5 18.5t5.5 14t4 13.5t7 10.5q2 6 11.5 16t16.5 10h6q3 0 6.5 0.5t6.5 0.5
q11 0 17.5 -8.5t10.5 -18.5q3 -8 4 -18l2 -20q0 -8 -3.5 -15t-8 -13.5t-8.5 -13t-6 -14.5q-2 -5 -4 -9q-4 -10 -4 -14l-4 -17q16 2 30 2.5t17 1.5l63 7l2 11q1 9 4 24l6 30t5.5 28t2.5 19t6 12t15 11q2 2 5.5 2.5t6.5 1.5q4 1 6 2q5 0 12.5 -1t9.5 -3q7 -4 13 -14
q5 -8 6 -10.5t1 -5.5v-4q0 -5 1 -7t1 -6q0 -6 -2 -12q-1 -3 -2 -5l-8 -15q-2 -9 -4 -17q-2 -7 -3 -13.5t-1 -9.5l-3 -14q30 1 48.5 3.5t27.5 3.5h14q8 0 13.5 -0.5t10.5 -3.5q7 -6 11 -17q2 -5 3 -11l2 -6q2 -6 2 -10q0 -3 -1 -7t-2 -7q-2 -4 -3 -8q-6 -9 -16.5 -13
t-15.5 -5q-3 0 -7 -0.5t-8 -0.5h-10q-6 0 -15 -1t-19.5 -1.5t-20 -1.5t-16.5 -1h-5q-2 0 -5 -0.5t-5 -0.5l-3 -15q0 -3 -2 -14t-5 -24.5t-5.5 -26t-3.5 -18.5q21 1 40.5 2t24.5 1q12 0 23.5 3t17.5 5q5 2 10.5 3t15.5 1q5 0 11 -4.5t11 -10.5q4 -4 7 -12.5t3 -14.5
q0 -21 -7 -32q-6 -6 -14.5 -9.5t-17.5 -5.5q-14 -3 -29 -4t-26 -1q-4 0 -13 -0.5t-20.5 -1.5t-24.5 -2.5t-25 -2.5q-6 -29 -12 -52.5t-14 -52.5q-2 -6 -7 -22t-9 -25l-8 -16zM402 297q0 3 1.5 9.5t3 13.5t2.5 13t1 9q0 2 2.5 11.5t4.5 22.5h-14h-21.5t-23.5 -2
q-10 -1 -25.5 -2.5t-32.5 -3.5l-6 -26q-4 -11 -8 -29.5t-8 -38.5l120 4z" />
    <glyph glyph-name="dollar" unicode="$" horiz-adv-x="481" 
d="M230 -20q-2 -9 -2.5 -23.5t-2.5 -19.5t-6.5 -12.5t-8.5 -10.5q-3 -3 -10 -5t-11 -2q-3 0 -9.5 1t-12.5 6q-7 5 -11.5 14t-4.5 29q0 3 1 19.5t3 34.5q-17 5 -37 11t-39 15q-6 2 -12 6t-11 8l-10 8q-10 8 -19.5 20.5t-9.5 29.5q0 5 2 12.5t7 10.5q3 5 6.5 8.5t9.5 4.5
q11 0 17.5 -6t17.5 -14q16 -11 42.5 -20.5t47.5 -14.5l6 39q1 9 3.5 23t5.5 28.5t5.5 27.5t4.5 21l9 41q-21 15 -40.5 33.5t-33.5 41.5q-26 39 -26 94q0 25 7 44.5t19 36.5q7 8 18 19.5t18 16.5q3 2 10.5 6t17 8.5t19.5 8.5t18 6t18.5 5.5t24.5 6.5q4 12 7.5 21t5.5 14
q1 4 3.5 11t4.5 10q0 6 4.5 8.5t6.5 3.5q2 2 6 4t6 2q6 0 9.5 -1.5t6.5 -3.5q4 -2 12.5 -5t10.5 -6q2 -2 5.5 -9.5t3.5 -13.5v-6v-7t-1 -9q0 -3 -1 -5q30 0 45 -5q8 -3 16 -10t13 -14q3 -5 6 -11.5t3 -10.5t-1 -11t-4 -14q-1 -2 -3.5 -4.5l-4.5 -4.5q-3 -3 -6 -5
q-2 -2 -6 -3q-8 -2 -12 -2q-7 0 -13 2.5t-11 3.5q-8 2 -15.5 4.5t-20.5 2.5h-8q-4 -13 -6.5 -24t-2.5 -15q0 -3 -1 -10.5t-2.5 -16.5t-2.5 -16.5t-1 -10.5t-1.5 -9.5t-3 -13.5t-2.5 -13.5t-1 -9.5q-2 -9 -4 -17q-2 -7 -3 -13t-1 -9l-5 -11q0 -7 -3 -17q53 -40 77.5 -83
t24.5 -91q0 -36 -14 -62.5t-35 -43.5q-34 -28 -80 -34q-5 -1 -16.5 -1.5t-22.5 -0.5zM252 83q27 0 50.5 15t23.5 44q0 23 -16 42.5t-37 36.5q-5 -22 -10 -42t-7 -33q-3 -14 -6 -29.5t-5 -33.5h7zM251 507q-28 -10 -44 -17q-10 -5 -17.5 -19t-7.5 -31q0 -26 11 -42t30 -30z
" />
    <glyph glyph-name="percent" unicode="%" horiz-adv-x="648" 
d="M354 304q-7 -9 -7 -11q-4 -5 -8.5 -14t-9.5 -15q-5 -7 -12 -17t-14.5 -20.5t-14.5 -21t-12 -17.5q-3 -5 -13 -20l-23 -34.5t-28 -42.5t-29.5 -45.5t-27.5 -41.5t-21 -31l-11 -11t-11 -8q-7 -3 -20 -4.5t-24 -1.5q-6 0 -10.5 6.5t-4.5 11.5q0 2 -0.5 4t-0.5 4v6q0 5 3 13
t5 13q1 3 5 9.5t8.5 14t9.5 14.5t9 12q5 7 10 11.5t8 9.5l19 30q7 12 23.5 37t35 51.5t34.5 49.5t24 33q17 20 35 48t36 54q6 8 15 20.5t16 23.5q6 8 23 29t36 44t35 42t20 23q8 10 11.5 17.5t16.5 21.5l33 36q4 3 17 5t19 3q2 0 4 -0.5t4 -0.5q2 -1 4 -1q4 0 8 -6l4 -6
q9 -8 9 -25q0 -15 -6 -21q-3 -5 -11 -13.5t-17 -18t-18 -18.5l-13 -13q-3 -4 -19.5 -23.5t-35.5 -42t-35 -42t-19 -23.5l-10 -14q-2 -3 -7 -8t-7 -9q-1 -2 -4 -6t-7.5 -9.5t-8.5 -11.5t-7 -10zM386 138q-1 4 -1 8q-1 3 -1 7v8q0 10 2.5 23.5t7.5 24.5q10 23 29.5 37.5
t46.5 14.5q3 0 3 -1q2 0 12.5 -1.5t15.5 -3.5q3 0 9 -4q3 -2 6 -3q6 0 16 -12.5t15 -18.5l8 -8q3 -4 5.5 -8t2.5 -6q6 -6 13.5 -22t9.5 -24q3 -10 5 -17t3 -15.5t1.5 -19t0.5 -28.5q0 -19 -7 -36.5t-20 -30.5t-30 -20.5t-36 -7.5q-12 0 -21.5 4t-19.5 11q-23 16 -34 37
t-19 40q-6 15 -12.5 36t-10.5 36zM290 425q-5 -5 -15 -14.5t-15 -9.5l-12 -6q-10 -8 -25.5 -11.5t-29.5 -3.5h-6.5t-9.5 1q-5 0 -11 1q-10 2 -23.5 8t-26.5 23q-6 8 -9 18t-3 17q0 5 -0.5 8.5t-0.5 8.5t2.5 17t6.5 21q2 6 8.5 18t11.5 20q2 3 5.5 7t7.5 8l9 9q19 17 36.5 29
t28.5 19q8 5 18 10.5t19 5.5q7 0 15 -3q5 0 8 -2.5t6 -5.5l3 -9q16 -3 27 -15t14 -19q8 -21 8 -42q0 -14 -3 -29q0 -2 -1.5 -6.5t-3 -9.5t-3 -9t-2.5 -5q0 -5 -8.5 -18.5t-13.5 -18.5zM270 546q-2 -2 -2 -3l-1 -1q-3 -5 -8.5 -8.5t-8.5 -4.5q-4 -1 -9 -3t-10 -2
q-9 0 -13 -0.5t-10 -0.5q-7 0 -12.5 -4t-9.5 -8q-7 -7 -13.5 -18t-6.5 -23q0 -10 12 -15t23 -5q19 0 30.5 6.5t23.5 17.5q11 10 19 21t8 28q0 9 -3.5 15t-8.5 8zM518 70q2 6 2.5 13.5t0.5 13.5v9q0 20 -11 35t-17 15q-11 0 -16 -13t-5 -23t2 -17.5t3 -10.5q2 -8 4 -11
q1 -3 3 -5q4 -6 9.5 -12.5t10.5 -6.5q8 0 10.5 5.5t3.5 7.5z" />
    <glyph glyph-name="ampersand" unicode="&#x26;" horiz-adv-x="636" 
d="M427 58l-15 -18q-8 -11 -21 -21t-27 -18q-16 -9 -39.5 -15t-38.5 -6q-51 0 -90.5 16t-65.5 43t-39.5 63t-13.5 75q0 29 4.5 45.5t9.5 24.5l13 28q5 8 12.5 16.5t14.5 16.5q10 11 17.5 17t15.5 11q5 4 18.5 12.5t26.5 16.5q-5 11 -8.5 22t-6.5 21q-6 20 -9 36.5t-3 36.5
q0 22 3.5 38t11.5 32q6 12 11.5 20t15.5 17q4 4 11.5 10.5t12.5 9.5t12 6.5t13 5.5q4 2 11.5 3.5t10.5 3.5q5 1 11 2.5t11 1.5q4 0 14 -2q4 -1 10 -1q20 -2 34 -15.5t21 -27.5q7 -15 11 -30t4 -30q0 -2 -0.5 -6t-0.5 -9q-1 -5 -1 -11q0 -8 -2 -16q-3 -14 -8 -27
q-3 -8 -7.5 -17.5t-7.5 -14.5q-2 -3 -11 -17t-20 -26q-8 -10 -20 -19.5t-23 -17.5l-7 -5q7 -12 10 -15q1 -2 6 -8.5t10 -14.5q6 -9 13 -20q2 -2 3 -2.5t3 -2.5q2 -3 5 -7q2 -3 4 -7t4 -6q4 -5 13 -17t19 -24q11 -14 25 -30q5 17 5 31v10.5t-1 9.5l-3 12l-2.5 10t-1.5 15
q0 12 7 20.5t12 10.5q16 7 26.5 8.5t23.5 2.5q5 0 5.5 -0.5t2.5 -0.5q1 0 3 0.5t4 0.5h45q9 0 19 -0.5t14 -2.5q-1 2 3.5 -1t6.5 -8q1 0 3 -4q1 -2 2 -5l2 -12q0 -2 -0.5 -3.5t-0.5 -3.5v-3q-1 -4 -2 -7q-2 -7 -4 -7q-2 -2 -3.5 -4.5t-3.5 -4.5q-3 -3 -5 -4q-5 0 -12 -2
t-15 -2q-7 0 -15.5 1t-14.5 3q-5 2 -10.5 4t-12.5 2t-7 -7q0 -5 1 -12.5t1 -15.5q0 -9 -3 -24t-3 -29q0 -11 -2.5 -20.5t-9.5 -22.5l29 -38q4 -5 13.5 -13.5t9.5 -13.5q1 -2 1.5 -4t1.5 -4q1 -3 1 -4q1 -2 2 -5q1 -2 2 -5t1 -5q0 -9 -3 -16.5t-7 -12.5q-5 -4 -11 -7.5
t-14 -3.5h-4q-4 0 -8.5 1t-12.5 5q-8 5 -14 15t-13 21zM364 133q-6 6 -15.5 19t-14.5 19q-8 9 -21.5 29.5t-24.5 35.5q-7 9 -15 21t-16 25l-12 19q-2 -2 -3 -2q-20 -11 -32 -21.5t-24 -21.5q-17 -14 -26 -36t-9 -40q0 -27 10.5 -48t28.5 -35t42.5 -21t52.5 -7q29 0 49.5 6.5
t40.5 29.5l5 8zM287 415q8 5 16 13l13 13q7 8 12 20.5t10 25.5q2 6 3.5 17.5t1.5 21.5q0 13 -7.5 21t-18.5 8q-8 0 -16.5 -1.5t-13.5 -3.5q-4 -2 -10.5 -6.5t-9.5 -9.5q-4 -5 -7.5 -10.5t-5.5 -11.5q-2 -5 -3.5 -13t-1.5 -23q0 -11 1 -20t4 -20q2 -7 5.5 -15t8.5 -18z" />
    <glyph glyph-name="quotesingle" unicode="'" horiz-adv-x="189" 
d="M72 310q-9 2 -11 23q-3 27 -3.5 51.5t-0.5 32.5q0 21 0.5 40.5t0.5 36.5q0 11 -1.5 26t-1.5 26q0 7 2 15q0 6 5.5 11.5t9.5 10.5q8 5 21 5q36 -2 48.5 -19.5t12.5 -43.5q0 -14 -2.5 -28.5t-4.5 -30.5q-2 -14 -6.5 -33.5t-7.5 -29.5q-1 -3 -1 -13q0 -6 -0.5 -12.5
t-2.5 -13.5q-5 -20 -9.5 -35.5t-18.5 -24.5q-2 -1 -6 -1q-11 0 -23 7z" />
    <glyph glyph-name="parenleft" unicode="(" horiz-adv-x="466" 
d="M351 -137q-29 7 -51.5 14t-49.5 22q-9 5 -23 15t-29 22t-28 25t-21 24q-16 22 -24.5 40.5t-15.5 36.5t-12 45t-5 59q0 36 6.5 73t20.5 72q28 73 81 135q17 20 31 34t19 20l8 8q4 3 7.5 6.5t8.5 5.5q8 6 22.5 13t31.5 11q3 0 7 1q8 2 13 2q11 0 22 -3t16 -7q6 -5 9 -14
t3 -18q0 -2 0.5 -5.5t0.5 -7.5q0 -5 -1 -7q-4 -8 -17 -16q-9 -5 -19.5 -8.5t-20.5 -7.5q-6 -2 -19 -10.5t-22 -16.5q-6 -5 -16.5 -16.5t-23 -27t-25 -32.5t-20.5 -33q-20 -37 -32 -79t-12 -77q0 -24 3 -40t7 -26q6 -16 17.5 -34.5t33.5 -37.5q14 -13 41 -33.5t59 -31.5
q5 -2 16.5 -5t16.5 -4l10 -4q4 -2 8.5 -3t6.5 -2q17 -7 25 -13.5t8 -27.5q0 -13 -4.5 -19.5t-12.5 -11.5q-5 -4 -13.5 -5t-16.5 -1t-14 0.5t-11 0.5z" />
    <glyph glyph-name="parenright" unicode=")" horiz-adv-x="489" 
d="M360 52q-5 -10 -10 -16t-10 -16q-5 -6 -14 -16.5t-18.5 -21.5t-19 -20.5t-15.5 -14.5q-5 -4 -12 -10t-12 -9q-4 -3 -12.5 -8.5t-15.5 -8.5q-7 -5 -17.5 -10.5t-14.5 -6.5q-5 -4 -19 -9.5t-25 -10.5q-10 -4 -27 -7.5t-25 -5.5q-7 -2 -22.5 -2.5t-20.5 -0.5t-12 1.5
t-12 5.5q-4 2 -8 5t-6 5l2 48q4 5 8 7t10 4l61 13q8 2 21 7t27.5 11t29 13t25.5 14q16 12 33.5 25.5t31.5 27.5q23 25 38 56.5t22 57.5q7 25 10.5 57t3.5 48q0 10 -1 30t-2 38q-2 19 -10.5 40t-21.5 37q-4 5 -15 14.5t-25.5 20t-29 19t-26.5 11.5q-3 1 -9 2t-13 2.5t-13 3.5
t-9 4q-6 5 -11.5 11t-5.5 14q0 11 2.5 20t4.5 12q2 5 6.5 9.5t9.5 7.5t9 5.5t12 2.5q10 0 23 -4.5t21 -8.5q17 -5 35 -16t34.5 -24t30 -26.5t22.5 -24.5q23 -28 34.5 -59.5t14.5 -48.5q4 -21 4.5 -47t0.5 -46q0 -30 -2.5 -50.5t-4.5 -32.5q-2 -5 -2.5 -11.5t-2.5 -11.5
q-2 -6 -3 -13q0 -3 -2 -10t-4.5 -15.5t-5.5 -17t-4 -12.5z" />
    <glyph glyph-name="asterisk" unicode="*" horiz-adv-x="489" 
d="M255 244q-1 -2 -2.5 -4t-3.5 -4q-2 -3 -4 -5q-4 0 -8 -4q-3 -2 -4 -3q-5 0 -6 1q-1 0 -2 1q-6 0 -9 3q-4 3 -6 9.5t-2 7.5v12q0 4 1 8q0 2 0.5 8.5t1.5 14t2 15.5t1 14q0 5 0.5 15t1.5 15t2 9t1 6q0 3 -2 3t-8 -5t-13 -12q-2 -2 -7.5 -6t-11.5 -8.5t-12 -8.5t-8 -4
q-3 -2 -7 -4.5t-6 -5.5q-9 -12 -14 -17q-8 -5 -13 -8.5t-11 -3.5q-26 13 -26 44q0 4 2 9.5t5 8.5q2 2 6 6.5t8 7.5q3 3 12.5 9t20 13t19 13t11.5 9q1 1 3.5 2.5t2.5 2.5q0 2 -8 3q-48 -1 -83.5 -2t-43.5 -1t-11.5 7t-4.5 12q-1 2 -1 9q-2 8 -2 12t2.5 7t3.5 5q2 2 7.5 4.5
t8.5 2.5h22.5t35.5 0.5t42.5 1t42.5 0.5l-37 46q-3 5 -6 13t-5 10q0 3 2 12.5t4 13.5l4 7l11 8l6 2q6 1 11 -2t8 -5q6 -4 8 -11q1 -2 5.5 -8.5t10.5 -14.5t11.5 -16t7.5 -12q1 -4 11 -17q3 40 4.5 74.5t6.5 44.5q1 3 3 6q4 6 4 8q1 1 3 3.5t4 4.5l11 2q7 0 15.5 -3.5
t13.5 -14.5q3 -8 3 -17q0 -8 -1 -12l-2 -11q-2 -11 -5 -24t-5 -24q-1 -7 -2 -15q-1 -7 -1.5 -15t-0.5 -16l19 14q3 2 19.5 14t37.5 26q5 3 16 12.5t16 11.5q5 5 10 9t7 4q6 0 12 -1t9 -2q5 -2 9 -10t4 -14q0 -12 -2 -17q-1 -2 -1.5 -3.5t-2.5 -3.5t-4 -3q-2 -2 -7 -6t-10 -7
q-10 -5 -30.5 -19t-40.5 -26h56.5t29.5 -1q11 0 19 -10q2 -4 5 -9t3 -13q0 -3 -0.5 -5.5t-0.5 -4.5q-1 -5 -3 -10t-5 -6q-2 -2 -6 -4.5t-12 -2.5q-11 0 -27 2t-25 4q-9 0 -31 1t-46 3l34 -41q3 -4 11.5 -15t18 -23.5t18 -23.5t11.5 -15q2 -7 8 -11q2 -2 2.5 -5.5t1.5 -5.5
q1 -3 1 -11q0 -11 -1 -14q-3 -8 -6.5 -11t-8.5 -5q-4 -1 -7 -1.5t-6 -0.5q-8 0 -15 7q-6 7 -10.5 13.5t-5.5 8.5q-4 6 -7 11.5t-4 7.5t-8 11.5t-15.5 20.5t-17 21.5t-11.5 14.5q-2 3 -4 3t-3 -1l-4.5 -13.5t-2.5 -9.5q0 -7 -3 -16q-2 -8 -4.5 -22t-3.5 -21z" />
    <glyph glyph-name="plus" unicode="+" horiz-adv-x="606" 
d="M324 109q-2 -8 -4.5 -16t-4.5 -16q-3 -9 -5 -17t-6 -24.5t-6 -23.5q-2 -4 -4.5 -10.5t-8.5 -6.5q-5 -2 -9 -4q-8 -3 -14 -3q-11 0 -24 8q-11 8 -13 17t-2 23q0 16 4 33.5t10 33.5q3 9 6.5 20t6.5 21t5 18.5t3 12.5q3 11 5 21.5t3 16.5q-5 1 -11.5 2t-10.5 1q-5 0 -10 0.5
t-13 0.5h-48q-19 0 -35.5 0.5t-21.5 0.5h-6.5t-8.5 -1h-8t-7 -1q-6 0 -16 5q-5 1 -9.5 5t-5.5 8q0 2 -1.5 6.5t-1.5 6.5q0 6 1.5 10t1.5 6q-1 2 -1 4q0 1 2 5q0 2 0.5 2.5t0.5 2.5t-0.5 3t-0.5 3q0 7 11 14q5 2 8.5 4t7.5 2q1 -1 9 -1h121h34t33 -1q4 27 9.5 54.5t5.5 42.5
v26q0 7 1 15q0 6 1.5 18.5t7.5 20.5q5 8 11 15.5t17 7.5q5 0 9 -2q2 -1 3 -1q10 -5 24 -17t14 -30q0 -6 -1 -11t-2 -9q-2 -4 -3 -8q-2 -8 -3.5 -25t-4.5 -34q-2 -10 -2 -17t-1 -18q-1 -8 -1.5 -14t-0.5 -7q0 -7 6 -8q10 -3 26 -3q20 -1 38.5 -2t32.5 -2q16 -1 30 -2
q8 0 16 -5t14 -12t10.5 -15.5t5.5 -14.5q0 -13 -2.5 -19.5t-7.5 -11.5t-7.5 -7t-6.5 -3t-10.5 -1t-18.5 -1q-11 0 -21.5 2.5t-26.5 2.5q-24 0 -45 1t-41 3q-6 0 -7.5 -1.5t-2.5 -6.5z" />
    <glyph glyph-name="comma" unicode="," horiz-adv-x="219" 
d="M-58 -223q-1 2 -1 5.5v4.5q0 14 13.5 26t24.5 26l10 14t10 15l27 40q8 12 16.5 26t13.5 28q2 3 4.5 6.5t3.5 5.5q7 23 23 42q9 10 20 10q6 0 13 -0.5t12 -3.5q6 -4 8 -6.5t7 -7.5t9 -12.5t4 -14.5q0 -3 -2 -7q-3 -9 -5.5 -14.5t-7.5 -13.5t-8 -16t-8 -16q-3 -5 -7 -10.5
t-8 -10.5q-5 -5 -7.5 -11t-7.5 -11q-6 -7 -12 -13.5t-11 -13.5q-20 -24 -42.5 -45.5t-51.5 -35.5q-8 -4 -14 -5t-16 -1q-5 0 -4.5 3.5t-2.5 10.5z" />
    <glyph glyph-name="hyphen" unicode="-" horiz-adv-x="472" 
d="M267 207q17 0 40 0.5t49 0.5q18 0 32.5 -1t22.5 -8q5 -4 7 -13t2 -14q0 -12 -4.5 -18t-15.5 -13q-8 -5 -14 -8t-11 -6q-4 -2 -17 -4t-28 -3.5t-28.5 -2.5t-19.5 -1q-7 -1 -15 -1h-30q-6 0 -20 -0.5t-30 -1.5t-30.5 -2t-20.5 -1q-11 -1 -22 -1.5t-28 -0.5q-9 0 -15.5 4.5
t-10.5 11.5t-6 14t-2 13q0 7 2 17l2 8q2 5 4.5 11.5t10.5 11.5q2 1 9 2.5t17 3t21 2t21 0.5h128z" />
    <glyph glyph-name="period" unicode="." horiz-adv-x="169" 
d="M67 -62q-5 2 -9 3.5t-7 3.5q-8 10 -15.5 17.5t-11.5 20.5q-1 5 -2.5 10.5t-1.5 11.5q0 24 17.5 44t42.5 21q24 0 38 -16q4 -3 6.5 -7t4.5 -9l6 -19q0 -7 3 -9q-3 -5 -3 -9q0 -5 4 -5q-2 -4 -5 -12.5t-3 -21.5q-4 0 -9.5 -5t-6.5 -14q-1 1 -3 1q-3 0 -5 -5t-6 -8
q-5 1 -9 1h-9z" />
    <glyph glyph-name="slash" unicode="/" horiz-adv-x="547" 
d="M319 457q16 31 35 58.5t35 59.5l14 28q5 11 18 25t25 14q15 0 22.5 -5t12.5 -11q9 -11 11.5 -17t2.5 -13q0 -8 -2.5 -14t-5.5 -14q-2 -5 -8 -15.5t-10 -15.5q-5 -7 -13 -16q-14 -23 -27 -44t-25 -41q-4 -6 -10 -17t-11 -18q-2 -3 -7 -9.5t-7 -11.5l-210 -413
q-5 -7 -7 -21q-2 -8 -8 -20t-9 -17q-2 -3 -7 -7t-8 -6q-2 -2 -8.5 -4.5t-20.5 -2.5q-17 0 -28 16.5t-11 28.5q0 10 2.5 17t9.5 17q5 8 17.5 32t26 52t25.5 53t18 36z" />
    <glyph glyph-name="zero" unicode="0" horiz-adv-x="500" 
d="M412 73q-11 -20 -33.5 -33t-41.5 -21q-5 -2 -9 -3.5t-9 -3.5q-9 -4 -18 -5q-14 -4 -28.5 -5.5t-29.5 -1.5q-51 0 -89.5 16.5t-64.5 46t-39 69t-13 86.5q0 8 0.5 16.5t1.5 16.5q0 5 0.5 8.5t1.5 7.5q2 8 2 12q4 16 9.5 30.5t10.5 28.5q3 9 7.5 18l8.5 17q2 5 5.5 13.5
t8.5 10.5l9 14l30 38q29 33 57.5 53.5t59.5 28.5q4 1 8.5 1h9.5q16 0 23 7q2 -1 5.5 -2.5t6.5 -1.5t4 1q3 3 7 3q3 0 5 -2q3 -3 4 -3q2 0 2 1.5t2 1.5t3.5 -2t3.5 -2t3 1q1 -2 4.5 -4.5t5.5 -4.5q13 -9 14 -23v-7q0 -4 -0.5 -5t-0.5 -3q-2 -4 -2 -5l-3 -7q-2 -4 -4 -4l9 -8
q4 -3 9 -9t11 -11t11 -11q5 -5 8 -11t8 -11l18 -26q3 -4 5.5 -9t4.5 -10l4.5 -9t4.5 -10t3.5 -9.5l3.5 -10.5l5 -20q2 -7 4 -20q1 -6 1.5 -10.5t0.5 -11.5q0 -3 0.5 -5.5t0.5 -5.5v-27v-9.5t-1 -3.5v-12q-1 -11 -2.5 -22.5t-3.5 -22.5l-3 -8q0 -2 -0.5 -3.5l-1.5 -4.5
q-3 -13 -10.5 -25t-14.5 -23q-2 -2 -3.5 -4.5t-3.5 -4.5zM363 147q2 5 2.5 5t2.5 4q11 14 15.5 30.5t4.5 34.5q0 23 -4.5 46.5t-8.5 43.5q-3 17 -10.5 32.5t-17.5 29.5t-22.5 23.5t-23.5 21.5q-4 4 -7 5t-7 3l-16 6q-6 2 -16 4l-23 -8q-21 -8 -31.5 -18t-27.5 -32
q-28 -36 -40 -78t-12 -80q0 -69 33.5 -101t87.5 -32q27 0 51 7t44 23q4 3 7 6.5t7 7.5z" />
    <glyph glyph-name="one" unicode="1" horiz-adv-x="500" 
d="M234 8q-1 1 -3 5t-3 4t-1 -3l-5 14l1 -1q0 -1 1 -2q-2 11 -3.5 17t-1.5 13t1 11q1 7 1 12v16q-1 1 -1 4q0 2 1 3t1 3q-3 4 -3 12v55q0 12 2 31.5t4 41.5t4.5 44.5t4.5 39.5t5.5 44.5t7.5 51.5q-8 -4 -15.5 -8.5l-22.5 -13.5q-6 -4 -15 -8.5l-19 -9.5q-8 -4 -17.5 -9
t-17.5 -10q-7 -4 -16 -4q-16 0 -25 9l-11 12q-2 0 -2.5 6t-0.5 10q0 2 -1 3.5t-1 3.5t1 4q3 10 9 18q6 6 13.5 11.5t14.5 9.5q13 5 23.5 12t23.5 12q5 2 17.5 8.5t26.5 11.5q6 2 10 4t9.5 4t13 4.5t21.5 6.5l9 3q1 0 6 1t11 2t11 2t6 1q19 -7 26.5 -21.5t12.5 -35.5
q0 -4 -1 -6q0 -5 -3 -10.5t-5 -16.5l-11 -53q-1 -4 -1.5 -7t-0.5 -6l-2 -10l-3 -18t-1 -13q0 -2 -2 -8t-2 -10.5t-2 -14.5q-1 -9 -2 -15t-2 -14l-1 -13q-1 -12 -2 -21t-1 -14q-2 -25 -3.5 -53.5t-1.5 -45.5q0 -8 1 -12t2.5 -8.5l4 -12t6.5 -23.5q2 -8 2 -12q0 -13 -6 -23
t-14 -17t-16.5 -10.5t-13.5 -3.5q-14 0 -22 7z" />
    <glyph glyph-name="two" unicode="2" horiz-adv-x="500" 
d="M76 416q-6 16 -6 33q0 5 7 17.5t17 18.5q21 13 46.5 24.5t52 19t52.5 12t48 4.5t39.5 -7.5t28.5 -19t17 -26t6 -28.5q0 -27 -5.5 -51t-27.5 -56q-23 -33 -42.5 -57.5t-37.5 -47t-36 -47t-40 -58.5q-8 -14 -8 -24q0 -4 1 -7q13 2 33.5 4.5t42 4t42 2.5t32.5 1q45 0 77 -16
q14 -8 24 -16l6 -6t5 -7q8 -11 8 -25q0 -5 -2 -13q-3 -8 -7 -14q-12 -15 -26 -15q-8 0 -12 2t-14.5 5.5t-17.5 5.5q-6 3 -11 3.5t-12 1.5q-5 1 -8.5 1h-5.5q-13 -1 -26 -0.5t-27 -1.5q-25 -3 -42.5 -5.5t-33 -5t-31 -4t-35.5 -1.5q-11 0 -18.5 4.5t-16.5 13.5
q-10 12 -17 26.5t-8 30.5q0 10 0.5 22.5t3.5 22.5q7 20 27 52t58 80q27 33 42.5 52.5t25 31.5t15.5 19.5t12 18.5q8 14 12.5 28.5t4.5 22.5q-5 4 -11.5 5.5t-21.5 1.5q-14 0 -39.5 -4t-42.5 -13q-2 -1 -4 -2.5t-4 -3.5l-5 -5q-4 -13 -15.5 -20t-25.5 -7q-10 0 -20.5 4
t-20.5 15z" />
    <glyph glyph-name="three" unicode="3" horiz-adv-x="500" 
d="M171 207q-8 0 -20 6t-14 15q-2 5 -3 10q-3 9 -3 22q0 2 2.5 14.5t16.5 26.5t29 28q12 12 26.5 25.5t27.5 26.5q15 15 23.5 24t13 15t5.5 10t1 8q0 11 -12.5 16t-28.5 5q-28 0 -50.5 -3t-48.5 -19l-6 -4q-2 -2 -4 -3.5t-4 -2.5q-3 -3 -9.5 -6t-14.5 -3q-2 0 -5.5 0.5
t-11.5 2.5q-13 3 -21 17t-8 31q0 7 1 10q3 15 8.5 21.5t22.5 14.5q45 19 88.5 25.5t72.5 6.5q35 0 67 -8t48 -23q14 -14 18.5 -29t4.5 -30q0 -13 -2.5 -22t-14.5 -30q-8 -14 -18.5 -27.5t-28.5 -31.5q-21 -20 -41.5 -36t-31.5 -23q26 -2 53.5 -5.5t48.5 -15.5
q14 -8 26.5 -16.5t21.5 -20.5t14.5 -27.5t5.5 -37.5q0 -38 -18.5 -70t-49 -56t-70.5 -37.5t-83 -13.5q-35 0 -55 4.5t-38 4.5q-8 0 -17.5 4t-12.5 6q-6 3 -12 15q-7 12 -7 32q0 8 3 16t7 12q14 16 31 16q2 0 4 -0.5t4 -0.5h3q5 -1 15 -4t21 -8q7 -3 12 -6t11 -4.5t14 -2.5
t20 -1q24 0 47.5 6t42.5 17.5t30.5 28.5t11.5 40q0 28 -26.5 36.5t-62.5 8.5h-70z" />
    <glyph glyph-name="four" unicode="4" horiz-adv-x="500" 
d="M222 164q-22 0 -52.5 -2.5t-66.5 -2.5q-8 0 -16 0.5t-16 1.5q-9 1 -17 2q-12 13 -23 34t-15 44l-1 17q0 14 10 31q7 11 17.5 34t24.5 48q23 42 48 82.5t53 73.5q14 17 25.5 22.5t18.5 5.5q8 0 19.5 -2.5t19.5 -15.5q8 -11 10.5 -21.5t2.5 -19.5q0 -17 -10.5 -24.5
t-28.5 -12.5q-12 -6 -23.5 -21t-22 -31.5t-18.5 -32t-13 -24.5q-5 -8 -11 -21t-12 -26.5t-10 -25t-4 -16.5q0 -7 2 -12q12 0 26 1t29 1q13 0 33 2t42 4l3 21q5 32 15.5 71.5t27.5 71.5q6 11 12.5 18.5t16.5 7.5q5 0 11 -4t12 -10t11.5 -12t8.5 -9q4 -4 7 -10.5t3 -17.5
q0 -8 -3.5 -15l-6.5 -13l-20 -43q-4 -7 -7 -19.5t-5 -25.5q7 2 15 4t17 4q11 2 32 7t42 5q7 0 17 -3.5t18.5 -9.5t14.5 -14.5t6 -17.5q0 -12 -2.5 -19t-10.5 -14q-4 -4 -10 -5t-13 -1q-6 0 -11.5 0.5t-9.5 0.5q-3 0 -10.5 -1t-16 -2.5t-16.5 -3t-12 -2.5q-17 -4 -30 -7.5
t-28 -8.5q-1 -17 -2.5 -37.5t-1.5 -38.5q0 -23 1 -45.5t7 -45.5q9 -15 13.5 -23t6.5 -24q0 -20 -15.5 -30t-24.5 -10q-10 0 -22 8t-21 27q-8 17 -13 36t-7.5 37t-3.5 34t-1 28q0 20 0.5 35t0.5 33h-16z" />
    <glyph glyph-name="five" unicode="5" horiz-adv-x="500" 
d="M73 -41q-2 3 -4.5 2.5t-4.5 2.5q-2 1 -4 1.5t-4 5.5q-3 0 -5 9l-4 11q-2 4 -2 6q0 1 0.5 2t0.5 2q-1 2 -1 5q0 4 1 5q0 1 0.5 5.5t1.5 4.5q1 4 2 5.5t2 3.5q2 4 3 3.5t3 4.5l4 4l4 4t4 2t4 2q6 4 9 4l10 3q10 2 17 2q12 0 24 -3q3 -1 7 -1q3 0 5 0.5t4 0.5q6 0 9 1
q29 2 51 6q62 12 101.5 46.5t39.5 82.5q0 17 -9.5 27t-35.5 10q-20 0 -45 -1.5t-50.5 -4t-47.5 -4t-36 -1.5q-17 0 -28 8t-17 19q-5 10 -7.5 22t-2.5 31q0 3 1.5 14t3.5 24.5t5 28.5t5 26q3 17 5.5 31.5t4.5 32.5q1 8 1 16.5t2 16.5q3 8 7.5 14t12.5 10q11 5 31.5 10.5
t37.5 8.5q21 4 37 6.5t30 4t28 2t29 0.5q17 0 36 -4t30 -12q10 -7 17.5 -15.5t7.5 -21.5q0 -7 -1.5 -15t-6.5 -14q-13 -18 -41 -18q-14 0 -25.5 4.5t-34.5 4.5q-38 0 -66.5 -7t-45.5 -12q-5 -10 -8 -26.5t-7 -33.5q-4 -18 -5 -28.5t-1 -16.5q0 -7 -0.5 -12.5t-0.5 -8.5h145
q24 0 46.5 -9t40 -24.5t27.5 -36.5t10 -45q0 -44 -15.5 -78t-42.5 -60t-63 -45t-78 -32q-20 -6 -40 -11.5t-43 -7.5q-3 -1 -10 -1q-20 -3 -44 -3q-3 0 -5.5 0.5t-5.5 0.5z" />
    <glyph glyph-name="six" unicode="6" horiz-adv-x="500" 
d="M234 478q-36 -69 -54 -139.5t-21 -147.5q10 11 22 22.5t24 19.5q21 14 45 22.5t53 8.5q30 0 55 -12.5t43 -32t28.5 -43t10.5 -45.5q0 -38 -18 -66t-46.5 -46.5t-64 -28t-70.5 -9.5q-37 0 -72 8.5t-55 34.5q-20 28 -28.5 61t-8.5 84q0 53 7 104.5t19 97.5t27.5 83.5
t32.5 63.5q13 20 30.5 39.5t40.5 19.5q14 0 21 -5t12 -13q6 -8 7.5 -15.5t1.5 -13.5q0 -8 -4.5 -18t-9.5 -15q-8 -9 -16 -12.5t-12 -6.5zM163 94q2 -6 4 -8q5 -5 30 -10t59 -5q53 0 87.5 17.5t34.5 42.5q0 26 -19.5 39t-47.5 13q-26 0 -52 -13t-46 -30q-17 -14 -29 -26
t-21 -20z" />
    <glyph glyph-name="seven" unicode="7" horiz-adv-x="500" 
d="M247 181q-19 -2 -39 -5t-41 -8q-11 -2 -28.5 -7t-36.5 -5q-20 0 -26 6.5t-10 18.5q-2 5 -3.5 9.5t-1.5 9.5v8q0 11 7 21t24 18q9 4 21.5 7t27 4.5t29.5 2.5t27 1q9 0 30 1t43 2l7 28q8 29 11.5 55t3.5 38t-9.5 17t-21.5 5q-8 0 -26 0.5t-37.5 1t-36.5 1t-23 0.5
q-13 0 -30 -0.5t-23 -3.5q-8 -2 -14 -2q-19 0 -29 9q-7 6 -12 16.5t-5 29.5q0 13 12.5 27.5t35.5 14.5q19 0 50 -1t63 -2.5t59.5 -3.5t41.5 -5q31 -6 46 -19t26 -30q8 -12 13.5 -26t5.5 -35q0 -20 -6 -49t-16 -64q26 -1 52 -1h55q21 0 35 -11t14 -29q0 -17 -17 -26t-37 -9
q-16 0 -52.5 -2.5t-72.5 -4.5q-12 -46 -22.5 -94t-15.5 -93q0 -22 -11 -38q-8 -11 -20 -14.5t-24 -3.5t-18.5 3t-9.5 7q-5 6 -5 34q0 23 5.5 50.5t12.5 54.5z" />
    <glyph glyph-name="eight" unicode="8" horiz-adv-x="500" 
d="M82 357q-8 4 -10 10q-2 4 -4 9.5t-2 13.5q0 17 4.5 25.5t11.5 19.5q10 14 28.5 30.5t44 31t58.5 24t72 9.5q38 0 64.5 -8.5t43.5 -23t24.5 -33t7.5 -37.5q0 -27 -11.5 -51t-29.5 -46.5t-40 -44t-43 -42.5q19 -14 36.5 -27.5t31 -28.5t21.5 -32.5t8 -39.5q0 -38 -16 -66.5
t-43.5 -48t-64 -29t-76.5 -9.5q-28 0 -50 8.5t-37.5 23t-23.5 33.5t-8 39q0 21 6.5 39.5t20 39t33 43.5t46.5 53q-21 16 -39.5 32.5t-32.5 32.5q-10 11 -18.5 21.5t-8.5 20.5zM232 294q42 44 73 74t31 45q0 14 -14.5 27t-47.5 13q-14 0 -37 -5t-44.5 -14t-37.5 -21t-16 -26
q0 -5 1 -6t2 -6l5 -7.5t6 -7.5q18 -20 38.5 -36t40.5 -30zM251 195l-33 -33t-29 -31t-20.5 -27.5t-7.5 -21.5q0 -13 14.5 -19.5t39.5 -6.5q21 0 41.5 4t37 12t26.5 18.5t10 24.5q0 17 -22 36t-57 44z" />
    <glyph glyph-name="nine" unicode="9" horiz-adv-x="500" 
d="M245 -4q-4 -3 -11.5 -5t-15.5 -4t-15 -3.5t-10 -1.5q-14 -2 -21.5 -3t-19.5 -1q-6 0 -14 4q-2 0 -7.5 1t-7.5 3q-14 9 -19.5 11.5t-7.5 6.5q-8 11 -8 30q0 16 9 21q4 2 8 2q7 0 17 -2.5t27 -2.5q15 0 31 4q29 7 55.5 29t47 52.5t32.5 67.5t12 75v5.5t-1 3.5q-2 0 -7 -3
t-11 -8q-31 -23 -69.5 -37.5t-81.5 -14.5q-23 0 -41.5 8.5t-31.5 21.5t-20 29.5t-7 32.5q0 28 11.5 58.5t37.5 63.5q29 37 72 65t98 28q51 0 80 -17.5t29 -39.5q0 -7 -3.5 -17t-10.5 -16q14 -5 24 -14.5t12 -16.5q6 -18 6 -43q0 -53 -4 -103.5t-20.5 -97.5t-50 -90.5
t-93.5 -81.5zM324 418q2 8 8 16q-2 2 -4 3t-4 4q-5 8 -15.5 10.5t-24.5 2.5q-27 0 -53 -15t-46.5 -35t-33 -41t-12.5 -34q0 -10 7.5 -17t27.5 -7q34 0 61 13.5t45.5 32t29.5 37.5t14 30z" />
    <glyph glyph-name="colon" unicode=":" horiz-adv-x="234" 
d="M103 69h8t8 2q10 0 19 -3.5t15 -12.5q8 -14 13.5 -24.5t5.5 -22.5q0 -14 -8 -30q-6 -11 -20 -17t-29 -6q-11 0 -21 5t-16 11q-6 8 -8 15.5t-2 13.5q0 2 0.5 4t0.5 4q-1 0 -1 1v2q0 7 3.5 16t8.5 18t11.5 15.5t11.5 8.5zM93 228q-8 5 -16.5 12.5t-9.5 19.5q0 11 2 16
q0 1 0.5 1.5t0.5 1.5q3 10 8 22t16 15q3 1 9 2t14 1q14 0 24.5 -7t14.5 -12q0 -7 4 -13.5t5 -13.5q0 -21 -9 -37q-5 -8 -14.5 -12t-20.5 -4q-15 0 -28 8z" />
    <glyph glyph-name="semicolon" unicode=";" horiz-adv-x="288" 
d="M210 -72q-3 -3 -11.5 -11t-18.5 -17.5t-18.5 -17.5t-11.5 -11q-5 -4 -12.5 -9.5t-14.5 -11t-12.5 -10t-8.5 -5.5l-22 -16q-6 -4 -14.5 -11t-18 -14t-17.5 -13t-12 -8q-7 -5 -19 -10.5t-19 -9.5q-4 -3 -10.5 -5t-10.5 -2q-5 0 -9 0.5t-9 2.5q-7 4 -11.5 9.5t-4.5 12.5
q0 4 4 11.5t4 13.5l4 4q4 4 13 10q22 15 50.5 37.5t52.5 42.5q11 9 27.5 25.5t32.5 33.5q18 19 39 41q4 4 12 8q4 2 7 2q9 0 16 -2.5t16 -7.5q4 -3 9.5 -14t5.5 -17v-15zM222 189q-7 -14 -24.5 -23t-38.5 -9q-18 0 -26 23q-4 7 -5 13q-1 3 -1 9q0 14 6 26.5t15 23.5
q14 17 32 17q5 0 13 -3q16 -8 25.5 -22.5t9.5 -31.5q0 -11 -6 -23z" />
    <glyph glyph-name="less" unicode="&#x3c;" horiz-adv-x="468" 
d="M382 42q-5 -5 -13.5 -6t-16.5 -1h-6q-11 3 -35.5 11t-51.5 18t-51.5 18t-34.5 11l-29 7q-6 3 -17 7t-23 8.5t-22.5 8.5t-16.5 7q-6 2 -12 9.5t-6 16.5q0 16 3 24q3 13 11.5 23.5t17.5 19.5l21.5 21.5l21.5 21.5q7 8 12 15q5 6 9.5 12t7.5 9l22 29l7 7q17 20 34.5 40.5
t37.5 39.5q10 10 20.5 18t23.5 8q8 0 18 -5q2 -2 6.5 -5t6.5 -5q3 -3 3.5 -6t5.5 -5q-1 0 1.5 -8t2.5 -10q1 -3 1 -9q0 -7 -2 -10q-3 -5 -10 -11.5t-12 -9.5l-16 -11q-11 -9 -21.5 -18.5t-21.5 -20.5q-11 -9 -23.5 -20t-18.5 -24q-3 -6 -12 -16t-20 -21.5t-20 -21.5t-12 -16
v-4q0 -4 7 -7l194 -59q13 -4 28 -15.5t15 -27.5v-22z" />
    <glyph glyph-name="equal" unicode="=" horiz-adv-x="589" 
d="M435 117q-21 1 -47.5 1h-52.5q-6 0 -12.5 0.5t-12.5 0.5h-22q-3 0 -5.5 0.5t-4.5 0.5t-5 -0.5t-5 -0.5h-38q-11 0 -21.5 -0.5t-21.5 -0.5h-64q-8 0 -17 1.5t-14 5.5q-3 3 -9.5 8t-8.5 8q-7 13 -7 28q0 12 6 24q2 2 7 6q2 2 7 4l8 3q3 1 10 1h26t25 -2h45h27t46 -0.5
t55.5 -0.5t56 -0.5t46.5 -0.5h28q11 0 26.5 -5.5t20.5 -16.5q3 -6 6 -8t8 -7q0 -2 0.5 -3t0.5 -3q0 -5 -1.5 -11t-3.5 -11q-1 -5 -4.5 -7.5t-5.5 -5.5q-1 -4 -3 -4t-2 1t-2 1q-4 0 -11.5 -2.5t-9.5 -2.5q-6 -1 -12 -1h-13h-19zM152 289q-5 0 -10 -0.5t-10 -0.5h-6.5t-8.5 1
q-12 2 -19.5 7t-14.5 16q-6 10 -6 25v5q1 11 10 23q5 6 8.5 7.5t8.5 1.5h12h21.5t23.5 -1q2 0 10.5 -0.5t11.5 -0.5q14 -1 25 -1.5t26 -0.5q9 0 32.5 -0.5t51.5 -1.5t56 -1.5t47 -1.5q2 0 4.5 -0.5t4.5 -0.5t3 1q18 -1 30 -5t23 -20q2 -2 3.5 -6.5t3.5 -5.5q0 -2 0.5 -4
t0.5 -4q0 -11 -4 -21.5t-15 -12.5q-7 -2 -14 -2h-14q-8 0 -16.5 0.5t-16.5 0.5q-21 1 -36 1.5t-29 0.5h-29h-36q-22 0 -43.5 0.5t-43.5 1.5h-45z" />
    <glyph glyph-name="greater" unicode="&#x3e;" horiz-adv-x="415" 
d="M358 188q0 -9 -5.5 -15t-11.5 -12q-3 -3 -14.5 -14t-26 -25t-28.5 -26.5t-22 -18.5q-20 -14 -42 -29.5t-44 -29.5q-7 -5 -14 -8.5t-12 -7.5q-4 -3 -12 -7t-13 -5q-1 0 -3 -0.5t-4 -0.5h-5q-8 0 -14 1t-12 6q-2 2 -3 4q-3 3 -3 5q-2 8 -2 16v10.5t1 9.5t2 9q0 4 6.5 10.5
t11.5 9.5l53 29q8 5 22.5 13.5t21.5 15.5q5 5 17.5 14.5t18.5 14.5q7 7 14.5 13.5t14.5 14.5q4 6 4 9q0 6 -1.5 8.5t-7.5 6.5q-11 6 -24 14.5t-21 13.5l-62 38q-13 8 -24 17t-23 17q-10 6 -12.5 14t-2.5 18q0 6 0.5 12.5t0.5 13.5l7 15q3 6 13 8.5t15 2.5q4 0 12 -4l6 -3
q4 -2 7 -3t7 -4q7 -6 14.5 -15t15.5 -15q10 -7 15.5 -11t15.5 -12q14 -11 30 -20.5t30 -20.5l44 -32q10 -8 23.5 -18t18.5 -18q1 -4 3 -8q4 -10 4 -14v-7z" />
    <glyph glyph-name="question" unicode="?" horiz-adv-x="474" 
d="M121 277v8q0 2 1 3q-1 1 -1 4t1.5 6.5t3.5 7.5q6 6 15 12l31 12q8 3 20.5 6t26 6t27 6.5t23.5 7.5q12 4 24.5 12.5t23.5 19t18.5 23.5t8.5 27q4 4 4.5 13.5t0.5 14.5q0 2 -0.5 7t-1.5 10t-2 11q-4 13 -6.5 22.5t-8.5 19.5q-5 7 -12 12t-15 10q-4 1 -8 3t-8 3.5t-8 3.5
q-5 2 -17 3t-17 1t-14 -1.5t-14 -3.5q-8 -2 -14.5 -11.5t-23.5 -9.5l-11 1q-6 0 -14 3t-14 8q-5 4 -9 10.5t-5 7.5q-4 2 -4 11q-1 4 0 9q0 5 2.5 11t4.5 9q4 8 9.5 13t10.5 9q6 5 14.5 6t13.5 2t19 4t25 3q17 0 34.5 -2t34.5 -7q22 -7 41.5 -17t34.5 -26q10 -10 16 -17
t9.5 -13t6 -11.5t5.5 -11.5q5 -10 9.5 -27t6.5 -28q2 -10 2 -20v-17q0 -3 -1 -8.5t-1.5 -12t-1.5 -12t-1 -7.5q-2 -4 -4.5 -10.5t-2.5 -11.5q-1 -2 -1.5 -4.5t-2.5 -4.5q-2 -3 -3 -5q-9 -23 -30.5 -42.5t-44.5 -33.5q-6 -3 -15.5 -7t-20 -8.5t-20 -8t-14.5 -4.5
q-4 -1 -11.5 -3t-16 -4.5t-17 -4t-13.5 -2.5q0 -8 2 -17t2 -18q0 -2 -0.5 -4.5t-0.5 -4.5v-7q0 -2 1 -3q0 -5 2.5 -18t2.5 -19q2 -5 2 -15.5t1 -18.5q0 -13 -2 -23q-1 -4 -5.5 -12t-9.5 -8q-2 -4 -7 -5t-9 -1h-5q-5 0 -9.5 1t-6.5 2q-6 2 -11 8q-2 1 -4 5l-2 4q-4 3 -5.5 7
t-3.5 8t-3 9q-2 3 -2 12.5v35.5q0 5 -0.5 16.5t-1 23.5t-0.5 22v13zM143 25h1q1 0 1.5 0.5t1.5 0.5q3 0 10 -4q0 -3 8 -3q10 -6 13.5 -12t5.5 -12q0 -4 1 -7.5t1 -7.5q0 -3 -2 -9q-1 -3 -2 -5q0 -5 -8 -15t-13 -14q-3 -4 -8.5 -4.5t-10.5 -0.5h-8q-8 0 -14 3q-6 0 -12.5 7
t-6.5 12q-2 5 -3 11t-1 11t2 13q1 4 3 7q0 5 4.5 12t6.5 9q2 3 5.5 4.5t5.5 2.5q3 1 6 1h13z" />
    <glyph glyph-name="at" unicode="@" horiz-adv-x="743" 
d="M658 -1q0 -3 -19 -14q-6 -4 -17 -8.5t-18 -6.5q-20 -8 -45.5 -11t-51.5 -8q-19 0 -38 -3.5t-38 -5.5q-15 -1 -26.5 -2t-22 -1.5t-22 -1t-27.5 -0.5q-53 0 -101 13t-85 40.5t-58.5 71t-21.5 105.5q0 74 28.5 144.5t78 125.5t116 88.5t143.5 33.5q78 0 135 -35t90 -97
q5 -8 9 -22.5t5 -19.5q4 -23 4 -52q0 -20 -1.5 -36.5t-4.5 -25.5q-10 -28 -22.5 -52.5t-33.5 -43.5q-31 -27 -58.5 -39.5t-64.5 -12.5q-29 0 -43 7t-23 15q-17 -22 -33.5 -35.5t-48.5 -13.5q-43 0 -66 32t-23 75q0 28 8.5 54t18.5 42q11 18 26 34.5t31.5 29t32.5 20t28 7.5
q11 0 23 -2.5t24 -10.5q16 -11 23.5 -27t7.5 -32q0 -5 -3.5 -16.5t-5.5 -19.5t-4 -18.5t-2 -24.5q0 -6 0.5 -12t1.5 -13q5 -4 10.5 -7t17.5 -3q27 0 50 9.5t40.5 26.5t27.5 40.5t10 52.5q0 30 -15 56.5t-40.5 46.5t-59.5 31.5t-72 11.5q-59 0 -113 -25.5t-96 -68.5t-67 -99
t-25 -116q0 -81 50 -114.5t148 -33.5q49 0 86.5 0.5t78.5 4.5q28 2 49.5 5.5t39.5 8.5q5 2 18.5 7t20.5 8q12 5 28 5q7 0 12.5 -4t10.5 -9q1 -2 3 -5q4 -6 4 -9q0 -9 -3 -13q-2 -2 -4 -3.5t-4 -3.5zM398 261q1 8 2.5 19.5t1.5 22.5q0 13 -8 13q-5 0 -16.5 -7t-17.5 -12
q-19 -20 -33.5 -41t-14.5 -51q0 -17 10 -28t25 -11q10 0 18.5 5t14.5 11t10 12t5 9z" />
    <glyph glyph-name="A" unicode="A" horiz-adv-x="543" 
d="M457 -69q-2 0 -3.5 -0.5t-4.5 -0.5q-2 0 -2.5 2.5t-2.5 4.5t-4.5 1.5t-3.5 0.5l-4 3l-3 4q-1 2 -2.5 3t-2.5 3q-4 9 -6.5 19.5t-6.5 21.5q0 2 -0.5 3l-1.5 3q0 1 -1 1.5t-1 1.5t0.5 2t0.5 2t-0.5 1.5t-0.5 2.5l-6 16q-6 15 -11.5 31.5t-10.5 33.5q-7 0 -8 2q-1 1 -3 1
t-4 -0.5t-4 -0.5q1 1 -1 1.5t-4 0.5h-10t-3 1q-2 0 -6.5 1.5t-8.5 2.5q-17 3 -38 5.5t-42.5 3.5t-42.5 2t-38 1h-11t-10 -1q-3 -29 -9 -59.5t-15 -54.5q0 -6 -2 -10l-3 -4q-9 -12 -16 -21.5t-18 -9.5q-16 0 -21 15t-5 35q0 14 1.5 29t3.5 29q0 1 1 1.5t1 2.5q0 1 -0.5 1.5
t-0.5 2.5q0 4 1.5 17.5t2.5 16.5q1 2 1 5q0 4 -2 6q1 3 3 6q2 2 2.5 4.5t1.5 2.5q-2 4 -2 6t1 4q1 1 1.5 1t1.5 1q1 0 1 1q0 2 -2.5 4.5l-3.5 3.5q3 3 4.5 9t1.5 11q0 2 -0.5 2t-0.5 2t1 3.5t1 2.5q0 5 1 8.5t1 8.5q0 8 1 13q0 2 1 5.5t2 5.5q0 4 -0.5 7t-0.5 5t2 6
q1 5 2 9.5t2 10.5q0 2 -0.5 3.5t-0.5 3.5t1 3q0 4 1 12.5t3 14.5q1 1 1 3t-0.5 4t-0.5 4t0.5 3t0.5 2q2 31 3 53t3 50q3 29 10 48.5t33 19.5q8 0 11 -1q2 -1 2.5 -2t2.5 -1q1 -1 1.5 -1t1.5 -2l5 -5q0 -2 1 -3t2 -3t1 -6q11 29 23 52.5t24 39.5q10 13 18 18t17 5
q14 0 22.5 -6t22.5 -31q27 -47 50.5 -106.5t44.5 -122.5t40.5 -124t38.5 -110q10 -24 17.5 -42.5t12.5 -32.5l2 -6q0 -1 0.5 -1.5t0.5 -1.5t0.5 -1.5t0.5 -1.5l2 -4q2 -5 2.5 -8.5t2.5 -8.5v-2q0 -1 0.5 -2t0.5 -2t-1 -2l-1 -1q-4 -3 -3 -5.5t-7 -2.5q-2 -2 -2 -3
q0 -8 -1.5 -7.5t-1.5 -1.5t-1.5 -2.5t-2.5 -2.5q-3 -1 -4.5 -2t-3.5 -1q-1 0 -1.5 0.5t-1.5 0.5q-2 0 -5.5 2t-5.5 2t-3 0.5t-3 0.5t-3 -0.5t-3 -0.5zM351 181q-11 37 -23 74.5t-24 72.5t-24 66.5t-25 56.5q-5 0 -10.5 -7.5t-11.5 -19.5q-12 -26 -24 -60t-21.5 -67.5
t-16.5 -61.5t-9 -40q25 -2 57 -3t67 -4q14 -1 31 -3z" />
    <glyph glyph-name="B" unicode="B" horiz-adv-x="561" 
d="M412 508q8 -6 10 -7t2 -2t-0.5 -1.5t-0.5 -1.5q0 -2 2 -2q1 0 3 -4.5t3 -5.5q1 -2 1 -4.5t2 -4.5q0 -1 1 -3t1 -3q0 -2 -0.5 -2.5t-0.5 -1.5q0 -2 1 -3q0 -1 1 -2v-2q0 -1 1 -1q0 -35 -19.5 -62t-52.5 -48q-26 -17 -47.5 -28.5t-47.5 -20.5q-1 -1 -1 -3v-3q0 -1 1 -1
q21 -4 37 -7t31.5 -6t31.5 -6.5t36 -9.5q36 -10 66.5 -27t39.5 -28q7 -7 15 -21t8 -46q0 -28 -4 -40t-15 -25l-14 -14q-6 -6 -13 -12t-13 -10q-11 -9 -25.5 -16.5t-28.5 -14t-26 -11t-19 -6.5q-9 -3 -22.5 -7t-29 -7.5t-30.5 -6.5t-26 -6q-4 -1 -15 -5t-20 -5q-1 -1 -1 -2
t-3 -1q-2 0 -4.5 1t-4.5 1t-5 -3t-5 -3q-5 0 -14 1.5t-19 2.5q-6 2 -8 2t-4.5 -0.5t-4.5 -0.5q-1 1 -1 2q-3 3 -2 3q-1 0 -2 -1.5t-3 -1.5q-7 0 -9 3t-7 5q-6 2 -7 7.5t-5 7.5q-4 7 -5 14.5t-1 17.5q0 4 2 12q-2 19 -3 42q-3 39 -3 100v33.5t-0.5 39t-0.5 47.5v61
q0 25 -0.5 53.5t-0.5 45.5q-3 0 -5.5 0.5t-5.5 0.5q-1 0 -1.5 -0.5t-3.5 -0.5q-2 0 -5 0.5t-6 0.5q-5 0 -7.5 -1t-7.5 -1q-17 0 -35 3q-1 8 -4 17.5t-3 20.5q0 3 1.5 5.5t1.5 4.5t-0.5 4.5t-0.5 5.5q0 10 5 18h2q1 0 3 3q1 3 3.5 4.5t2.5 6.5q11 3 19.5 4t24.5 1
q2 0 3.5 -0.5t3.5 -0.5l13 -1q3 0 7.5 0.5t8.5 0.5q3 0 8.5 1t12.5 1q2 0 5 -0.5t6 -0.5q18 1 38 1.5t38.5 1t34 1t25.5 0.5q20 0 46.5 -4t49.5 -15q2 -2 5.5 -3.5t5.5 -3.5q2 -3 5 -6zM206 42q12 2 27.5 6t30.5 8.5t28 8.5t20 6q20 6 43.5 14t38.5 16q8 4 13.5 7.5
t10.5 5.5q5 3 9 5q8 5 13.5 9.5t5.5 10.5q0 5 -6 11.5t-18 12.5q-10 5 -25.5 12t-38.5 14t-46 13t-55 12q-14 3 -28 4t-28 1l3 -71v-11v-1q0 -2 1 -2q0 -2 -0.5 -3t-0.5 -3t1 -4q-1 -2 -1 -7v-4zM191 349q23 0 67 27q9 6 20 13t20.5 14.5t16 15.5t6.5 15q0 2 -1 5t-6 5
q-8 3 -29.5 5t-50.5 2q-9 0 -17.5 -0.5t-14.5 -0.5q-7 -1 -13 -1z" />
    <glyph glyph-name="C" unicode="C" horiz-adv-x="516" 
d="M282 452l-9 -4q-8 0 -11 -1q-35 -8 -59.5 -30t-41 -53t-24 -69t-7.5 -78q0 -65 38.5 -103t109.5 -38q23 0 46.5 2.5t45 6t39.5 6t30 2.5q23 0 29.5 -9.5t6.5 -26.5q0 -1 -2 -10.5t-3 -10.5q-7 -8 -15.5 -14t-19.5 -12l-9 -4.5t-8 -4.5q-2 -2 -4.5 -2t-4.5 -2
q-3 0 -4.5 -0.5t-4.5 -0.5q-4 -2 -10.5 -3t-10.5 -1q-5 -3 -9.5 -3.5t-10.5 -1.5q-5 -2 -16 -3t-18 -2q-16 -1 -30 -1h-27q-55 0 -97 18.5t-70 50t-42.5 72.5t-14.5 86q0 63 13 119.5t39 102.5q4 4 5.5 12t6.5 10q6 4 11 14.5t9 14.5q4 1 9 6t7 9q4 0 5.5 3.5t3.5 5.5
q2 0 4.5 2t4.5 4q3 2 10 6.5t9 8.5q6 2 12 3.5t10 1.5q2 4 7.5 6.5t12.5 7.5q11 0 16 1.5t10 1.5q8 4 26 7.5t33 3.5q23 0 46 -8.5t37 -22.5q21 -21 21 -44q0 -11 -6 -27q-1 -4 -5 -12q-5 -8 -15.5 -11.5t-21.5 -3.5t-15.5 0.5t-10.5 5.5q-4 3 -7.5 4.5t-6.5 3.5
q-14 7 -25 7q-2 0 -4.5 -1t-4.5 -1z" />
    <glyph glyph-name="D" unicode="D" horiz-adv-x="469" 
d="M85 101q-2 6 -1.5 17.5t-3.5 16.5q0 5 0.5 9t0.5 9q0 19 -4 28l1 1q2 0 2 2t-1 3q-1 10 -1 23.5t-2 18.5q1 3 1 11q-3 19 -3 41q0 3 1 5q-2 2 -1.5 3.5t-0.5 4.5q0 7 0.5 14t0.5 14q0 8 -0.5 17t-1.5 16l-1 18v89q-11 0 -14 3q-2 3 -6.5 7t-4.5 12v23q0 10 5.5 15.5
l16.5 16.5q11 8 18 10.5t14 2.5q12 0 39 -5.5t53 -17.5q49 -23 90.5 -60t72 -82t47.5 -94t17 -95q0 -52 -21 -94.5t-66 -77.5q-34 -26 -70 -34t-81 -8q-27 0 -40.5 1t-17.5 2q-2 2 -8 4t-9 5q-4 1 -7.5 4t-6.5 5q-12 8 -15 16t-3 22t6 23q2 0 4.5 1t4.5 1zM161 435
q0 -11 0.5 -21.5t0.5 -15.5q-1 -19 -2 -39.5t-1 -50.5q1 -31 2.5 -57.5t5.5 -58.5v-9.5t-1 -8.5q1 -3 1 -8.5t1 -7.5v-21q0 -7 1 -15.5t1 -14.5q0 -2 -0.5 -3.5t-0.5 -2.5v-8.5t1 -8.5q0 -7 1 -11q8 0 15.5 -0.5t17.5 -0.5q24 0 47 4t40 17q23 17 35.5 43t12.5 61t-15 71
t-39.5 68.5t-55.5 58t-62 38.5z" />
    <glyph glyph-name="E" unicode="E" horiz-adv-x="476" 
d="M416 153q1 0 2 -0.5t2 -0.5t1.5 -0.5t1.5 -0.5q2 -2 4.5 -3t4.5 -3q5 -5 10 -15q4 -8 4 -17q0 -4 -0.5 -7.5t-0.5 -7.5q0 -15 -9.5 -27t-26.5 -28q-37 -35 -92 -56t-108 -21q-24 0 -44.5 7.5t-41.5 22.5q-18 13 -29.5 31.5t-17.5 39.5t-8.5 44.5t-2.5 47.5q0 39 6.5 81
t17.5 84l3 12q2 6 3.5 15.5t3.5 22.5l5 39q-1 0 -1.5 0.5t-4.5 0.5q-2 0 -3.5 1t-3.5 2q-1 0 -2.5 1t-2.5 1q0 1 -1 3t-1 5q0 4 -3 5q-2 3 -2.5 8t-3.5 5q-1 0 -1 3t-1 2q1 2 1 5q0 2 -0.5 4t-0.5 4q0 10 1 14q2 3 6.5 8.5t9.5 7.5q2 7 9 9t12 7q10 4 20.5 10t24.5 8
q6 3 10 3q22 8 45.5 13t48.5 5q8 0 16 -0.5t15 -1.5q8 -1 16 -1q11 0 26.5 -3t29.5 -9t24 -16t10 -23q0 -8 -4.5 -17t-8.5 -13q-10 -10 -20 -13.5t-18 -3.5h-10q-8 0 -18.5 2.5t-18.5 4.5q-10 2 -19 2h-23q-15 0 -29 -5t-23 -15q0 -7 -2 -27t-5 -35q-4 -17 -8.5 -29.5
t-5.5 -32.5q36 0 69.5 2t55.5 2q15 0 25 -3t16 -6q7 -4 13.5 -11.5t6.5 -18.5q0 -17 -9.5 -23.5t-17.5 -9.5q-5 -2 -13.5 -4t-18.5 -4t-19.5 -3.5t-15.5 -2.5q-5 0 -14.5 -1t-19.5 -2t-19 -2.5l-15 -2.5q-8 -2 -25 -3t-25 -1q0 -1 -1 -9.5t-2 -20t-2 -24.5t-1 -23
q0 -16 1.5 -32t7.5 -29t17.5 -21t32.5 -8q9 0 22 1.5t30 6.5q8 2 21.5 7t28 12t28.5 15t23 16l13.5 13.5t5.5 6.5q2 4 4 6q1 1 1.5 2t2.5 2q4 7 8 9q1 0 3 2t5 2q1 0 2 0.5t3 0.5h4z" />
    <glyph glyph-name="F" unicode="F" horiz-adv-x="437" 
d="M80 23q2 7 2 11.5v9.5v9.5t1 9.5q2 17 1.5 36.5t1.5 42.5l3 55h-2q-1 0 -1 1q-8 2 -21.5 12t-14.5 24q0 7 1 16t3 19q5 12 11.5 20.5t19.5 10.5q2 0 3 0.5t3 0.5t3 -1q2 37 4 74.5t4 58.5l1 10q0 3 -2 6.5t-4 8.5q-2 2 -4.5 6.5t-2.5 13.5q0 5 1 8t1 6t1 5q0 3 1 5
q3 6 3 10q5 8 9 14.5t12 12.5q11 9 20 8.5t23 1.5q7 1 20 1.5t28.5 1t33 1t33.5 1.5q21 1 41 2t36.5 2t28 1h14.5h8q5 0 9.5 -0.5t14.5 -3.5q11 -3 17.5 -12t6.5 -19q0 -4 -2 -8q-3 -12 -17 -25q-5 -4 -9 -7.5t-9 -6.5q-6 -4 -15 -4.5t-22 -0.5h-31t-38 -1q-12 -1 -28.5 -1
h-32.5t-30 -0.5t-22 -1.5l-6 -61v-11q-1 -2 -2.5 -3.5t-1.5 -0.5q0 -3 2 -4.5t2 -4.5q0 -1 -2 -1t-2 -3q0 -7 0.5 -15t0.5 -17v-9t-1 -9q-1 -3 -2.5 -7t-2.5 -10l-2 -24q4 0 7.5 -0.5t7.5 -0.5q6 0 12 0.5t12 1.5q9 1 24 4t32 7t35.5 8t35.5 8q10 2 15 2q11 0 19 -5
q6 -2 10 -4t6 -9q-1 -1 -1 -4q0 -2 1.5 -4.5t1.5 -4.5q0 -1 -0.5 -1.5t-0.5 -1.5t0.5 -1.5t0.5 -1.5q0 -3 -1 -5.5t-2 -5.5q-4 -14 -14 -27t-42 -20q-23 -5 -43.5 -10t-34.5 -7q-15 -3 -39.5 -5t-47.5 -4q-2 -20 -2 -33v-24v-21t-1 -23q-1 -2 -3 -4t-2 -4q1 -2 3 -1.5
t2 -2.5l-2 -2q-1 -1 -2 -1t-1 -1q-1 -3 -1 -10q0 -8 0.5 -16t0.5 -16q0 -10 -1.5 -17.5t-2.5 -15.5q-1 -26 -4.5 -44.5t-12.5 -39.5q-2 0 -2.5 0.5t-1.5 0.5q-4 0 -6.5 -1.5t-5.5 -3.5q-1 -1 -3.5 -3t-5.5 -2q-2 0 -4 2q-4 3 -18 10t-19 13q-4 4 -4 15q0 6 0.5 12t0.5 9
q0 2 -2 3.5t-2 4.5z" />
    <glyph glyph-name="G" unicode="G" horiz-adv-x="544" 
d="M282 -31q-3 1 -10 1q-8 0 -15.5 -1t-14.5 -3q-1 1 -6.5 2.5t-13 3t-14.5 3t-10 3.5q-35 10 -61.5 31.5t-44.5 51t-27.5 66t-9.5 75.5q0 42 9 81.5t23 77.5q0 5 2 9t2 9q1 0 3 4q0 1 3 8t6 15.5t6 15t3 8.5q1 2 3 1.5t3 2.5q2 6 4 10t7 11q1 1 3.5 4.5t4.5 8.5
q5 8 8.5 11.5t8.5 12.5q0 1 1.5 1t3.5 3q2 4 5.5 8.5t5.5 9.5q2 4 5.5 3t6.5 1q1 1 1.5 4t1.5 4q6 2 8.5 5.5t7.5 6.5q5 4 7.5 8t8.5 8q3 2 7 5t9 5q3 2 6 5t8 6q4 0 8 2q2 5 5 6q5 2 7 2.5l6 1.5q2 3 10 7.5t15 6.5q5 2 10.5 3t10.5 2q5 2 8.5 3.5t5.5 1.5q1 0 5.5 -1
t5.5 -1q0 2 3 2q1 0 2 -0.5t4 -0.5q1 0 2.5 0.5t3.5 0.5q6 0 13.5 -1t13.5 -1q5 -6 10 -18q4 -7 7.5 -15t3.5 -19q0 -16 -11 -31q-6 -9 -15.5 -13.5t-20.5 -6.5t-22.5 -3.5t-22.5 -4.5q-18 -5 -33.5 -13t-20.5 -16l-13 -6q-2 -1 -2 -4.5t-1 -2.5q-2 -2 -10.5 -6t-10.5 -9
t-8.5 -12t-11.5 -15q-31 -45 -47 -102t-16 -109q0 -30 6 -57t19.5 -48t34.5 -33t51 -12q42 0 70.5 20t28.5 60q0 32 -8.5 54t-16.5 36q-4 3 -8.5 4t-8.5 2q-12 2 -17 11t-9 23q0 5 1.5 16t4.5 17q8 10 16.5 15.5t25.5 5.5h17t13 1h10t15.5 0.5l17 1t14.5 0.5q22 1 40.5 2
t23.5 2l21 2l15 -3q10 -5 13 -15t3 -23q0 -8 -2.5 -13t-10.5 -12t-14 -10t-16 -3h-53q-8 -1 -15 -1h-15q-5 -3 -5 -6q0 -2 4 -9q5 -8 8 -13.5t7 -15.5q9 -22 10.5 -37t2.5 -22q-2 -4 -2.5 -20.5t-3.5 -30.5q-4 -18 -10 -30.5t-7 -14.5l-4 -4l-4 -4q-5 -9 -13.5 -17.5
t-17.5 -16t-16 -12.5t-8 -6z" />
    <glyph glyph-name="H" unicode="H" horiz-adv-x="599" 
d="M440 -83l-11 4l-10 6l-11 17q-2 2 -2 6q0 2 0.5 4t0.5 4t-2 4q-5 4 -4.5 8.5t-0.5 12.5q0 2 0.5 3.5t0.5 3.5t-0.5 2.5t-0.5 1.5q0 2 1 4q0 1 1 3q2 19 4.5 47t6 61t7 68t8.5 68q0 4 2 14q-8 -1 -15 -1.5t-15 -2.5q-31 -6 -60 -12.5t-64 -9.5q-16 -2 -36 -3t-41 -2
q0 -3 -0.5 -5.5t-0.5 -4.5q-8 -50 -11.5 -100t-4.5 -82q0 -16 1 -31.5t1 -33.5q0 -6 -0.5 -11t-1.5 -10q-1 -6 -5.5 -10.5t-10.5 -7.5t-12 -4.5t-9 -1.5q-24 0 -31 24t-10 70q0 8 -0.5 17.5t-0.5 20.5q0 22 1.5 45t4.5 43q2 17 4.5 37t5.5 41q-5 0 -8.5 -0.5t-4.5 -0.5
q-8 -2 -17 -6t-17 -4q-9 0 -14 4q-2 0 -3 1t-3 2q0 1 -1.5 1.5t-2.5 2.5l-5 4q-5 3 -9 11.5t-4 32.5q0 8 2 13t3 8q2 2 16 9.5t28 8.5q6 0 20 1t33 2q4 27 12 68t16 84.5t16.5 82.5t14.5 61q5 17 13 30.5t16 13.5q6 0 20 -2.5t22 -13.5q9 -8 14 -20t5 -20q0 -11 -4.5 -17.5
t-9.5 -20.5q-1 -6 -4 -23t-6.5 -38t-8 -42.5t-7.5 -36.5q-4 -18 -10.5 -44.5t-12.5 -55.5q17 1 33 2t30 3q33 3 62 10t64 12q9 2 18.5 3t19.5 2q0 5 2 9q2 9 4.5 23.5t5 30.5t4 32t1.5 28q0 14 -1 27.5t-1 29.5q0 14 1.5 21.5t5.5 12.5q8 11 12 14.5t15 3.5q25 0 42.5 -21
t17.5 -45q0 -10 -2 -25t-4.5 -32.5t-5.5 -35.5t-5 -35q-2 -15 -6 -41t-8.5 -56.5t-10 -62t-9.5 -58.5q-2 -13 -4.5 -31.5t-4.5 -37.5t-3.5 -37t-1.5 -30v-33q0 -21 -4.5 -40t-24.5 -39z" />
    <glyph glyph-name="I" unicode="I" horiz-adv-x="257" 
d="M155 14q1 -4 1.5 -8.5t1.5 -5.5q0 -2 -0.5 -2.5t-0.5 -2.5t1 -3q-1 -1 -1 -5q0 -20 -2.5 -32.5t-14.5 -17.5q-2 0 -2.5 -1t-2.5 -1q-2 1 -5 1t-5 2q-2 0 -5.5 0.5t-5.5 0.5q-2 1 -3.5 2t-3.5 2q-15 10 -19 24q0 1 -0.5 1.5t-0.5 1.5q-4 15 -5.5 33.5t-1.5 36.5
q0 22 1 40.5t2 30.5q0 18 1 44.5t2.5 55t3 54.5t3.5 43l5 61q-1 7 -1 11.5v9.5q0 8 0.5 15t0.5 11q0 3 2 6t2 7q2 33 7 65t22 54q25 29 56 29q11 0 19 -4t12 -15q4 -1 4 -4q0 -2 -1 -4t-1 -5q0 -4 1 -6.5t1 -3.5q0 -22 -4 -42.5t-15 -42.5l-2 -4q-2 -4 -2 -7q-1 -3 -2.5 -6
t-1.5 -8q-4 -22 -10 -64t-11.5 -87t-10 -83.5t-5.5 -53.5q-1 -7 -1 -14v-14q0 -19 1 -35.5t1 -27.5v-5q0 -2 1 -3l-2 -4z" />
    <glyph glyph-name="J" unicode="J" horiz-adv-x="463" 
d="M298 443q5 -63 10 -116t5 -108v-21q0 -42 -6.5 -91.5t-23 -91.5t-44.5 -70.5t-71 -28.5q-1 0 -1.5 -0.5t-1.5 -0.5q-3 0 -6 1l-6 2q-4 0 -7.5 1.5t-8.5 1.5q-3 0 -5 -1q-6 4 -12 5t-8 3q-3 5 -8.5 6t-10.5 5q-4 3 -8.5 5.5t-8.5 9.5q-5 8 -9 11q-14 11 -14 18q-2 4 -4 7
t-4 8q-5 13 -10.5 26t-13.5 23l2 3q0 15 -7 27q7 9 7.5 21t8.5 18q3 2 6.5 2t7.5 1q3 0 9.5 -0.5t11.5 -1.5q3 -1 7 -1q8 -7 13.5 -18t5.5 -16q0 -2 2 -3.5t3 -1.5q1 -5 2.5 -6.5t1.5 -6.5q0 -1 2 -2.5t3 -2.5q2 -6 4.5 -10t7.5 -11q3 -4 8 -10t12 -12t14.5 -10t13.5 -4
q11 0 18.5 5t12.5 13q2 2 2.5 3t2.5 3q0 1 3 4q2 2 2.5 4t2.5 4q15 26 18.5 57.5t3.5 68.5q0 35 -1 72t-3 70.5t-4 60t-3 41.5l-2 17l-3 3l-5 1q-1 0 -2 -1q-2 -2 -2 -3q-1 0 -1.5 0.5t-1.5 0.5h-3l-84 -10l-56 -11q-7 0 -13 3q-2 1 -4.5 3.5t-3.5 4.5q-2 1 -3.5 2t-2.5 1
q0 1 -0.5 2.5t-0.5 2.5l-4 5q0 2 -1 4q0 5 1 15.5t1 15.5q0 11 -4 12q2 2 2.5 4t3.5 6q9 5 18 9.5t27 4.5q6 0 20.5 1.5t32 3.5t36 4.5t32.5 5.5l83 16q50 7 95 15.5t64 14.5q16 0 22.5 -2t13.5 -9q5 -3 6.5 -5t3.5 -3q0 -2 0.5 -4t0.5 -6q0 -5 -0.5 -10.5t-0.5 -11.5
q0 -11 -7.5 -21t-20.5 -16q-8 -2 -13 -3.5t-12 -1.5z" />
    <glyph glyph-name="K" unicode="K" horiz-adv-x="514" 
d="M134 22q-1 -5 -1.5 -9.5t-3.5 -12.5q-5 -12 -14.5 -23t-25.5 -11q-7 0 -14 3q-12 5 -18.5 19.5t-9.5 28.5q-2 10 -2 20q1 5 1.5 13t2.5 11q0 2 -0.5 2.5t-0.5 2.5t0.5 2.5t0.5 2.5q7 74 14 139t18 125q13 65 23 107.5t20 77.5q1 4 4 14.5t4 16.5q0 5 3 9.5t5 8.5q1 5 1 9
t1 5q0 2 1.5 4t1.5 3v1q0 2 1 3q0 1 1 2t1 2q0 5 5 12.5t8 14.5q5 1 8 4t9 3q14 0 26 -3t23 -23q5 -10 5 -23q0 -18 -6.5 -39t-15.5 -35l-4 -12q-8 -26 -14 -57.5t-12 -68.5q-1 -8 -1 -13v-9q0 -11 5 -11q9 8 21 18.5t34 28.5q34 27 62 45.5t61 37.5q13 7 30 15t34.5 14.5
t33 10.5t26.5 4q22 0 38 -12.5t18 -21.5q1 -3 1.5 -5.5t0.5 -5.5q0 -6 -1 -11t-2 -9q0 -7 -6 -14.5t-15 -14t-19.5 -11t-20.5 -4.5q-30 -2 -66.5 -17t-68.5 -34q-27 -16 -52 -32t-48 -30q-10 -6 -13 -8t-4 -4t-1 -5q0 -11 7 -21q5 -8 19.5 -24t32.5 -33t35.5 -33t28.5 -25
q31 -26 51.5 -40.5t36.5 -21.5q22 -10 27 -19t7 -14q1 -5 1 -13q0 -15 -9 -27q-10 -12 -24.5 -17t-26.5 -5q-35 0 -64 23.5t-61 56.5q-11 11 -23.5 24.5t-24.5 28t-23 28t-19 23.5q-11 14 -19 20t-17 6q-10 0 -12 -13q-7 -52 -10.5 -94t-5.5 -61z" />
    <glyph glyph-name="L" unicode="L" horiz-adv-x="425" 
d="M395 79q0 -39 -35 -66q-23 -18 -58 -25t-72 -15q-7 -2 -19 -4t-25.5 -3.5t-27.5 -3t-24 -1.5q-14 0 -26 4.5t-20 11.5q-7 7 -13.5 20.5t-8.5 27.5q-4 23 -6.5 48.5t-3.5 54.5q-1 15 -1 28.5v24.5q0 31 0.5 56.5t3.5 58.5q2 19 4.5 39t5.5 40q1 6 2 15t2 17t2 14.5t1 8.5
q3 3 4 3q0 5 -1 5.5t-1 6.5q0 2 2 4.5t2 5.5q2 3 1.5 6.5t1.5 7.5q3 11 5.5 26.5t9.5 29.5q0 1 1.5 2t2.5 5q0 3 1 4.5t2 3.5l3 6q0 3 5 6q2 5 5 8.5t7 8.5q2 1 2.5 4.5t2.5 5.5q4 4 10 7t9 5q5 2 7 5t13 3q9 0 19 -13q2 -2 2 -5q0 -1 2 -3t2 -4q1 -2 3 -4.5t2 -3.5t0.5 -2
t0.5 -2q0 -3 -1.5 -7t-1.5 -7v-2q0 -3 1 -3l-2 -12q-5 -13 -5.5 -25t-8.5 -18q-6 -18 -8 -38t-9 -38q-3 -16 -5 -30.5t-4 -25.5q-4 -21 -8.5 -51.5t-7.5 -55.5q-3 -21 -5 -54.5t-2 -66.5q0 -21 1 -36.5t3 -29.5q0 -2 0.5 -4t0.5 -4q3 -3 13 -3q8 0 15.5 1t12.5 3q2 1 2.5 2
t1.5 1l46 9q2 0 1.5 1t2.5 1q2 0 5 1t5 1q8 2 15 4t13 4q16 4 27 10.5t19.5 12.5t16 11t18.5 5q13 0 19 -3q7 -5 14.5 -12.5t7.5 -14.5v-9z" />
    <glyph glyph-name="M" unicode="M" horiz-adv-x="730" 
d="M287 249q-18 28 -36.5 67t-33.5 73q-2 5 -3.5 8t-6.5 3q-2 -3 -4 -11.5t-4.5 -20t-5 -24t-3.5 -21.5q-4 -30 -9.5 -73.5t-10 -86.5t-8 -77.5t-3.5 -44.5q0 -14 -3.5 -23.5t-7.5 -15.5q-4 -5 -11.5 -7.5t-18.5 -4.5q-2 0 -5.5 -1t-6.5 -1q-11 0 -20 12q-2 3 -4.5 6.5
t-3.5 7.5q-3 8 -3.5 15t-0.5 12q-1 3 -1 10v6.5t1 7.5l4 33q2 14 3 32t3 35q2 18 3 38t2 38.5t1.5 34.5t1.5 28q0 11 0.5 28l1 34t0.5 32.5v23.5q0 16 -1 24.5t-2 13.5v6.5t1 7.5l4 6q2 2 3 2t2 2q4 4 7 5q3 3 6 3q6 0 9 -1l14 -16q10 25 27.5 49.5t36.5 31.5q1 0 1.5 0.5
t2.5 0.5q1 0 2 -0.5t3 -0.5q16 0 25.5 -7.5t17.5 -9.5q7 -10 15 -28t16 -39t17.5 -44t19.5 -42q6 -11 13.5 -27t16 -33.5t17 -33.5t14.5 -27q4 8 12.5 27t19 43t21 49.5t19.5 47.5q13 32 28 58.5t26 34.5t22 8q14 0 28 -7t22 -21q8 -16 12 -38.5t9 -46.5q5 -26 11 -66
t12 -82t11 -79t9 -57q5 -28 10.5 -48t11.5 -35.5t12.5 -29t14.5 -28.5q5 -5 10.5 -9.5t10.5 -6.5q2 -7 8.5 -15t12.5 -22q0 -2 -0.5 -4t-0.5 -4q0 -4 0.5 -7t0.5 -5q0 -3 -2 -5q1 -2 1 -6q0 -3 -0.5 -6.5t-0.5 -7.5q-1 -4 -2 -6t-3 -4q-1 -2 -1 -4q0 -3 -1 -4q-2 -1 -4 -1
t-3 -2q-8 -8 -20 -8q-11 0 -27 6t-28 12q-3 2 -5 7t-5 7q-3 3 -5 4.5t-5 5.5q-5 8 -12 15.5t-10 15.5q-7 17 -14 46.5t-15 55.5l-9 35q-7 29 -11.5 63.5t-8.5 71t-8 72.5t-9 68q-2 8 -3 8q-2 0 -2.5 -2.5t-2.5 -4.5q-9 -17 -21.5 -42t-26 -51.5t-27.5 -52t-26 -42.5
q-9 -14 -20.5 -18.5t-22.5 -4.5q-9 0 -20 7t-19 19q-7 11 -12 19.5l-10 17t-11.5 18.5t-15.5 25z" />
    <glyph glyph-name="N" unicode="N" horiz-adv-x="560" 
d="M494 336v-52.5t-0.5 -58.5t-0.5 -60v-56v-47t1 -32q-9 -16 -18 -26t-22 -10q-5 0 -11.5 1.5t-14.5 6.5q-33 20 -71 57q-6 6 -12 14t-12 15q-3 3 -7.5 8.5t-7.5 7.5q-1 2 -6 9t-10 9q-3 3 -5.5 7t-4.5 5q0 2 -7 12.5t-24 37.5q-6 10 -14 23t-16.5 27t-16.5 27t-14 24
q-10 16 -17.5 30.5t-9.5 14.5q-3 0 -3.5 -5.5t-2.5 -17.5q-2 -11 -5 -35t-6 -54.5t-6 -64.5t-6 -64t-5 -53.5t-2 -32.5q0 -2 0.5 -3t0.5 -3q0 -10 -6.5 -18t-11.5 -16q-5 -10 -13 -14t-15 -4q-2 0 -3 -0.5t-3 -0.5t-4.5 2t-10.5 9q-5 5 -13 12t-8 20q0 3 2 11q0 1 -0.5 2
t-0.5 2q0 5 1.5 11t1.5 11q2 6 2 9.5v5.5t-0.5 2.5t-0.5 1.5q2 4 1.5 9.5t0.5 10.5l2 22q2 22 5.5 48t5.5 55q3 34 6.5 74.5t8 79t9.5 71.5t11 53q3 12 9.5 22t20.5 10q15 0 31 -9.5t39 -44.5q24 -36 48.5 -75t49 -77t48.5 -73t45 -62q3 -4 7.5 -8.5t9.5 -4.5t5 7
q-2 30 -4.5 77t-2.5 98v31q0 29 1 50t2.5 37.5t3.5 30.5t4 30q2 15 8.5 31t17.5 27q5 5 13 8q5 2 11 2.5t11 0.5q8 0 12 -2.5t9 -8.5q8 -9 12 -23t4 -30q0 -13 -4 -29.5t-8.5 -35.5t-8.5 -40t-5 -43v-26z" />
    <glyph glyph-name="O" unicode="O" horiz-adv-x="568" 
d="M444 467q2 -3 5 -4.5t5 -5.5q3 -5 6.5 -5.5t5.5 -5.5q4 -2 11 -11q2 -5 4.5 -9.5t13.5 -20.5q1 -5 4 -11q2 -2 5.5 -7t5.5 -8q2 -5 3.5 -7.5t3.5 -6.5q2 -3 3 -10.5t2 -10.5q0 -2 0.5 -4.5t1.5 -3.5q14 -44 14 -91q0 -58 -16.5 -106.5t-49.5 -84t-81.5 -55.5t-112.5 -20
q-49 0 -87 17t-66 43.5t-47 58.5t-31 62q-2 6 -4 14q0 3 -1 8.5t-1 8.5t-0.5 5.5t-0.5 5.5q0 4 1.5 5.5t1.5 5.5q0 43 12.5 84t34 77.5t51 67.5t63.5 55q14 10 29 17t32 11q3 3 7 5q0 7 3 10t19 8q14 0 28.5 -4t17.5 -8h4q2 0 3.5 0.5t3.5 0.5q-1 0 -1 -1v-4q1 -2 7 -1.5
t8 -0.5l15 -8q6 -3 10.5 -7t9.5 -6q6 -4 11 -10t8 -8q4 -4 6 -5.5t7 -7.5zM320 433q-5 2 -9 3.5t-7 3.5q-30 -4 -60.5 -25.5t-55.5 -53t-40.5 -70.5t-15.5 -78q0 -29 13 -55t35 -45.5t49.5 -31t56.5 -11.5q37 0 68 11.5t53 33t34.5 53t12.5 72.5q0 59 -29 109l-5 7.5t-5 8.5
q-2 3 -6.5 6.5t-6.5 6.5q-3 4 -4.5 6.5t-3.5 6.5l-4.5 4.5t-3.5 4.5q-2 5 -13.5 11t-18.5 10z" />
    <glyph glyph-name="P" unicode="P" horiz-adv-x="414" 
d="M86 -36q-3 5 -4.5 10t-3.5 7v1q0 1 0.5 1.5t0.5 1.5q0 5 -1.5 9t-2.5 9t-2 22t-2 37t-2 38.5t-1 26.5q0 15 -2 49.5t-5 75t-5.5 80.5t-3.5 65q0 5 -1 8.5t-1 6.5q0 5 2.5 15t17.5 24q4 4 5.5 6.5t6.5 8.5q2 3 6.5 6.5t6.5 5.5q1 2 2.5 3.5l3.5 3.5q8 9 17 18.5t20 18.5
q30 24 68 43.5t82 19.5q33 0 59 -12q2 -1 2.5 -2t2.5 -1q1 -2 5 -4q5 -4 6 -5q2 -1 3.5 -2t3.5 -2q6 -3 9 -9q8 -13 16.5 -31.5t8.5 -39.5q0 -44 -25.5 -81.5t-63 -68t-80.5 -53t-79 -35.5l-4 -9q0 -1 -0.5 -2t-0.5 -2t0.5 -2t0.5 -3v-13q2 -14 3.5 -26t1.5 -18q0 -17 1 -35
t1 -33q0 -10 1 -21.5t1 -21.5q0 -5 1 -13.5t4 -16.5q3 -13 2.5 -20.5t1.5 -14.5q-2 -5 -2 -15.5t-6 -19.5q-2 -3 -3.5 -4t-3.5 -3q-4 -5 -10.5 -7t-12.5 -4l-5 -2.5t-4 -0.5q-3 1 -5 2.5t-6 3.5t-10.5 8.5t-8.5 9.5zM312 488q-5 4 -7.5 3.5t-4.5 0.5q-2 0 -4.5 0.5t-5.5 0.5
q-35 0 -68.5 -14t-59.5 -36q1 -1 -3 -3.5t-6 -4.5q-1 -2 -3.5 -4.5l-3.5 -3.5l-7 -7l-5 -8q0 -2 0.5 -3t0.5 -3q0 -17 1.5 -31.5t3.5 -34.5q2 -9 3 -11t5 -7q12 0 41 17t60 41t54.5 49.5t23.5 41.5q0 8 -8 14q-2 2 -4 2t-3 1z" />
    <glyph glyph-name="Q" unicode="Q" horiz-adv-x="628" 
d="M466 -200q-4 1 -4 2t-10 1q-28 0 -49 8.5t-41 25.5q-31 26 -51.5 62.5t-31.5 71.5q-51 1 -95 17t-76 43.5t-50 65.5t-18 85q0 63 19 116t44 101q27 51 61 87.5t58 52.5q19 13 37 20t35 7q5 0 7.5 -0.5t5.5 -1.5q1 -2 4 -3t5 -2q0 -2 1 -3t1 -3q2 0 2.5 -1.5t2.5 -3.5
q0 -3 5 -8q2 -8 14 -15q40 -23 84.5 -66t81.5 -92.5t61 -99.5t24 -88q0 -36 -16.5 -67.5t-45.5 -57t-68.5 -44.5t-84.5 -29q16 -40 35 -65q7 -8 13.5 -15.5t17.5 -11.5q5 1 12 0.5t9 3.5q9 -5 18.5 -10.5t11.5 -10.5q1 -2 2 -5q2 -6 2 -10q2 -5 4.5 -11t2.5 -10
q-2 -3 -4.5 -11.5t-5.5 -14.5q-5 -7 -16 -7.5t-14 -2.5zM309 446q-3 2 -5.5 2.5t-4.5 2.5q-2 1 -3.5 0.5t-3.5 1.5q-7 0 -10 0.5t-8 0.5q-17 -8 -34.5 -25t-26.5 -30q-8 -12 -22.5 -36.5t-28.5 -53.5t-24.5 -60t-10.5 -56q0 -26 6.5 -47t22.5 -36.5t42.5 -25t65.5 -12.5
q0 30 0.5 56t0.5 44q0 16 9.5 30t16.5 14q8 0 16.5 -1t19.5 -9q15 -11 21.5 -18.5t6.5 -20.5q0 -12 -1 -28.5t-5 -28.5q0 -16 3 -35q30 4 58 12.5t50 21t35 29.5t13 38q0 28 -20 65t-49.5 75t-64.5 72.5t-65 57.5z" />
    <glyph glyph-name="R" unicode="R" horiz-adv-x="478" 
d="M432 -16q-4 -2 -10 -3t-11 -3h-2q-1 0 -2.5 0.5t-2.5 0.5q-2 0 -2.5 -0.5t-1.5 -0.5h-2q0 1 -4.5 1.5t-5.5 1.5q-5 1 -9 1h-5q-2 2 -6 4.5t-6 3.5q-2 5 -4.5 6.5t-4.5 3.5t-5 2.5t-7 3.5q-10 7 -23.5 18.5t-27.5 22.5t-26.5 21t-19.5 16q-21 15 -46.5 28t-45.5 20
q-1 -9 -1 -19q-1 -8 -1 -17v-14v-22t-0.5 -16.5t-1.5 -15t-2 -17.5q-1 -3 -1.5 -8.5t-0.5 -7.5q-2 -2 -3 -6t-3 -7q-1 -6 -3.5 -10.5t-2.5 -8.5q-3 -4 -12.5 -10t-16.5 -6q-10 0 -15.5 4t-9.5 10q-8 15 -10 36t-4 53q-2 35 -3 83t-1 104q0 51 2 112t10 119q11 13 21.5 26
t28.5 32q26 26 59 44t78 18q38 0 70.5 -11t56.5 -31.5t38 -48.5t14 -61q0 -27 -8.5 -49.5t-22.5 -41.5t-34 -36t-42 -33q-23 -16 -48 -30t-33 -18q-8 -5 -15 -7.5t-12 -4.5q0 -2 5 -5.5t10 -6.5q26 -17 52 -35.5t40 -27.5q21 -14 47 -34t43 -44q2 -2 5.5 -8t6.5 -8
q1 -5 6.5 -11t5.5 -15t-1.5 -11t-1.5 -10q-2 -6 -4.5 -9t-4.5 -7zM176 470q-2 -19 -5.5 -38t-5.5 -40q-2 -12 -3.5 -29t-3.5 -32q-2 -18 -3 -36q8 0 22.5 3.5t31 9.5t34.5 14t34 18q29 18 52 42.5t23 50.5q0 32 -29 46.5t-68 14.5q-22 0 -43 -7.5t-36 -16.5z" />
    <glyph glyph-name="S" unicode="S" horiz-adv-x="378" 
d="M49 -9q0 2 -0.5 2.5t-0.5 1.5q0 3 1.5 4t1.5 5q0 2 -0.5 3l-1.5 3q-1 1 -0.5 3t-3.5 2q2 9 4.5 13.5t4.5 11.5q8 5 16.5 8.5t21.5 3.5q11 0 31 -5q22 -4 45 -8t36 -4q19 0 22.5 10t3.5 21q0 7 -8.5 23t-20.5 36t-26 41.5t-25 39.5l-13 26q-3 5 -5.5 8t-5.5 8
q-1 2 -1.5 5.5t-2.5 5.5q-2 4 -3.5 8t-3.5 8q-11 26 -18.5 53t-7.5 51q0 32 10 64t43 61q11 10 23 18t29 16l11 5q12 5 26 9t24 6q8 2 14 3t25 1t36.5 -13.5t17.5 -34.5q0 -11 -4.5 -20.5t-10 -17.5t-10 -13t-5.5 -7q-8 0 -11 -3q-2 1 -6 1.5t-5 0.5q-2 -1 -12 -1
q-6 0 -13.5 2t-15.5 2q-31 0 -56 -16.5t-25 -45.5q0 -30 15 -70t45 -86q33 -51 58.5 -92t25.5 -78q0 -45 -29.5 -75t-70.5 -42q-2 -1 -8.5 -3.5t-9.5 -3.5q-2 -1 -6.5 -1h-15.5q-2 0 -4.5 -0.5t-6.5 -0.5q-8 0 -19.5 0.5t-23 1.5t-21.5 2.5t-15 2.5t-15 8t-15 15q-1 1 -1 4
q0 1 0.5 1.5t0.5 2.5t-1 3z" />
    <glyph glyph-name="T" unicode="T" horiz-adv-x="504" 
d="M288 135q0 -9 0.5 -17t0.5 -15t-0.5 -11.5t-0.5 -6.5v-30t-1 -31q0 -12 1 -15q1 -1 1 -3t-0.5 -3.5t-0.5 -3.5q0 -3 1 -4q1 -2 1 -11q-1 -14 -10 -25t-23 -19q-13 0 -23.5 2.5t-15.5 11.5q-3 10 -7.5 19t-7.5 19q-2 9 -3.5 18.5t-2.5 21t-1.5 27t-0.5 37.5q0 7 0.5 20
t0.5 27.5t0.5 27.5t0.5 19q0 3 0.5 15.5t1 31.5t1 42.5t1.5 49.5q2 35 3.5 68.5t5.5 59.5q-18 -3 -31 -5.5t-25.5 -5t-25.5 -5t-31 -6.5q-36 -8 -52.5 -10.5t-27.5 -2.5q-8 0 -11.5 2t-8.5 2q-6 4 -8.5 9.5t-3.5 8.5q0 4 0.5 8t0.5 9q0 2 1.5 7t2.5 6q4 5 7 12.5t14 9.5
q26 6 61 13.5t72.5 15t73.5 14.5t64 12q25 4 55.5 8.5t58 9t49.5 7.5t31 4q5 0 6 -1t5 -2t7.5 -2.5t5.5 -1.5t2.5 0.5t2.5 0.5q1 0 3 -2q3 -1 5.5 -4.5t5.5 -4.5q2 -1 2 -3t3 -3q0 -2 1.5 -3t1.5 -4q1 -1 1 -4t1 -4t-0.5 -2.5t-1.5 -3.5q-1 -4 -1.5 -7t-0.5 -6q0 -1 2 -7
l1 -15q-2 -2 -10 -4t-11 -4q-8 -2 -23.5 -3.5t-34.5 -3.5t-38.5 -3.5t-34.5 -3.5q-24 -3 -41 -6.5t-24 -3.5q-4 0 -7 -1t-5 -2q-5 -37 -7.5 -80t-4.5 -77q-2 -41 -2 -58.5v-28.5v-30t1 -27z" />
    <glyph glyph-name="U" unicode="U" horiz-adv-x="554" 
d="M501 497q1 -2 1 -6t-0.5 -9t-1.5 -10q-2 -14 -3 -23.5t-1 -21.5q1 -10 1.5 -27t0.5 -37q0 -22 -1 -46.5t-6 -47.5q-3 -19 -11.5 -46t-21.5 -57.5t-31.5 -62t-42.5 -58.5q-14 -16 -31.5 -31.5t-38 -27.5t-44 -19t-48.5 -7q-46 0 -76 26.5t-47 66t-24 86t-7 86.5
q0 5 -1 8.5t-1 8.5q0 2 0.5 7t1.5 10q0 2 -1 3.5t-1 3.5q0 1 0.5 4.5t0.5 6.5t-1 3q-1 3 -1 8q0 1 0.5 3t0.5 4q0 3 -1 3q2 2 2 11.5v12.5q0 49 2 86t3 57q0 4 -1 12.5t-1 19.5q0 22 7 35q8 14 15.5 18.5t14.5 4.5q32 0 41 -14.5t9 -41.5q0 -10 -0.5 -26.5t-1 -33.5
t-1.5 -32.5t-1 -22.5q-2 -16 -3.5 -32t-1.5 -39q0 -5 0.5 -11.5t2.5 -11.5q-5 -7 -5 -21q1 -17 3.5 -38t5.5 -50q2 -20 6.5 -42.5t13 -41t21 -30.5t30.5 -12q30 0 58 13t51 42q26 32 45.5 77.5t23.5 101.5q3 42 3 94q0 40 -3 75q-2 24 -5.5 44.5t-3.5 41.5q0 11 4.5 23.5
t12.5 19.5q14 11 23 11q24 0 40 -18.5t24 -36.5q5 -13 5 -19q0 -2 -0.5 -4.5t-0.5 -4.5q0 -3 1 -5z" />
    <glyph glyph-name="V" unicode="V" horiz-adv-x="582" 
d="M554 515q2 -24 2 -29v-6q0 -10 -4 -19t-10.5 -20t-15.5 -26.5t-18 -37.5q-12 -29 -28.5 -64t-32.5 -70q-26 -58 -50.5 -110.5t-42.5 -94.5q-17 -37 -31.5 -51.5l-22.5 -22.5q-8 0 -18 -1.5t-16 -1.5t-10.5 4t-9.5 6q-5 3 -11 8t-11 7q-5 9 -15 20q-5 6 -9 10.5t-8 10.5
q-5 8 -10 17t-9 17q-8 17 -17.5 41t-18.5 51.5t-17.5 56t-15.5 55.5q-14 49 -24 94t-18 82q-2 6 -4.5 14.5t-4.5 11.5q-2 5 -2.5 15t-2.5 15q-6 16 -6 24q-2 6 -3.5 17.5t-3.5 15.5q4 4 4.5 14.5t2.5 16.5q5 0 16 5t20 5q10 0 26.5 -5t24.5 -27q3 -2 5 -7t3 -10
q2 -5 4 -14.5t3 -14.5q0 -6 2 -18t2 -26q8 -38 17 -81t19 -84q9 -38 18.5 -67t11.5 -40q1 -7 6 -19t10 -24.5t9 -22t5 -12.5q6 -16 17 -29q5 -6 8 -8.5t9 -4.5q5 0 9.5 4t12.5 20q3 6 11 24t18.5 41.5t21 48.5t18.5 45q10 25 22 52t23.5 53t20.5 49t13 40q5 13 10.5 28
t12 28t14.5 21.5t19 8.5q26 0 35.5 -7.5t14.5 -21.5z" />
    <glyph glyph-name="W" unicode="W" horiz-adv-x="734" 
d="M510 -14q-15 2 -35.5 25t-42 54.5t-42.5 65.5t-36 60q-4 8 -9 8q-2 0 -6 -9q-12 -24 -29.5 -53.5t-37 -58t-38 -52.5t-31.5 -37q-6 -5 -18 -8.5t-18 -3.5q-17 0 -32 17t-28 44.5t-23 64t-17 75.5q-8 43 -12 91t-6 92.5t-2.5 79.5t-0.5 52v9q0 6 0.5 15.5t1.5 17.5
q0 9 -0.5 15.5t-0.5 17.5q0 5 1 10l2 10q2 8 3 17t3 17q2 10 5 14q7 11 11 14t12 3q3 0 6.5 -0.5t8.5 -0.5q23 0 38 -17.5t15 -49.5q0 -8 -2 -16t-4.5 -17t-5 -20.5t-3.5 -27.5q0 -11 -0.5 -22.5t-0.5 -23.5q0 -32 1 -68t3 -69.5t4.5 -62t5.5 -45.5q5 -26 10 -47.5t10 -38.5
q2 -5 3.5 -8.5t5.5 -3.5q5 0 9 4t6 8q20 34 43.5 77t43.5 78q11 20 23 34.5t33 14.5q11 0 19.5 -3.5t17.5 -12.5t18.5 -23.5t23.5 -36.5q10 -16 17 -27t13.5 -22.5t15 -25t20.5 -34.5q14 -24 22 -24q2 2 4 4.5t5 10.5q3 3 5 10q2 2 3 7.5t3 10.5q2 2 3 6.5t3 8.5
q15 42 31.5 99t31.5 125q5 25 9 43t8 29q2 3 3.5 9t3 12.5t3.5 12.5t4 8q5 5 8.5 7t8.5 4q2 -1 10 -1q5 0 10 -0.5t10 -3.5q9 -3 14 -8.5t8 -11.5t5 -12.5t5 -10.5q0 -9 -2 -13l-1 -3q-2 -6 -3.5 -17t-3.5 -15q-4 -9 -5.5 -17t-6.5 -25q-9 -36 -20.5 -71t-24 -72t-27.5 -78
t-32 -89q-6 -17 -10.5 -29t-8.5 -21t-8 -16.5t-8 -16.5q-5 -7 -14 -8.5t-18 -3.5z" />
    <glyph glyph-name="X" unicode="X" horiz-adv-x="542" 
d="M269 194l-2 4q-2 4 -2 5q-1 1 -2 1t-1 2l-3 8l-4 7q-17 -17 -33.5 -37.5t-37.5 -52.5q-20 -32 -31 -56t-19 -49q-2 -7 -3.5 -13.5t-3.5 -12.5q0 -2 -0.5 -5t-0.5 -7q-4 -23 -18.5 -28t-31.5 -5q-18 0 -29 14.5t-11 31.5v15t1 11l4 14q3 14 7.5 27t12 27t17.5 30t24 37
q20 32 49.5 67.5t59.5 70.5q-9 19 -21 45.5t-24 52.5t-21.5 47.5t-12.5 29.5q-5 12 -10 22.5t-10 21.5q-2 6 -5 11t-5 14q-2 8 -2 12t1 5.5l3 4.5q2 6 6 10q1 2 7 6l3 3t4 1q28 0 39.5 -5t23.5 -15q8 -9 11.5 -18.5t5.5 -13.5l71 -166q22 22 48 48.5t50 52t44 47t31 34.5
q2 2 3 4t3 4t10.5 6.5t14.5 4.5q7 0 11 -4l10 -5q9 -7 15.5 -16t6.5 -17t-1.5 -20t-5.5 -17q-9 -10 -36 -37.5t-59 -60t-62 -62.5t-43 -45q0 -4 1 -6l11 -21q24 -48 48.5 -98.5t48.5 -95.5q1 -2 3 -6.5t2 -6.5q2 -2 4.5 -3t4.5 -3l3 -3q2 -4 4 -7t2 -7q1 -5 2 -8t1 -8
q-2 -5 -4.5 -16.5t-8.5 -16.5q-13 -13 -27 -13q-8 0 -16 1.5t-13 6.5t-9 12.5t-9 16.5q-2 3 -8.5 15t-14.5 28t-17.5 34.5t-17.5 35.5z" />
    <glyph glyph-name="Y" unicode="Y" horiz-adv-x="462" 
d="M126 -11q13 40 28.5 76t26.5 61q6 14 11.5 29.5t9.5 25.5q-8 15 -18 34t-19.5 37.5t-19 36t-15.5 31.5q-3 5 -3.5 8.5t-2.5 7.5q-3 6 -6 11t-5 8l-11 25q-2 3 -2.5 6t-2.5 5q-11 23 -22.5 39.5t-27.5 36.5q-13 17 -18.5 23.5t-7.5 13.5q-2 6 -2 9q0 5 2 15q0 2 2 10
q3 6 7.5 10.5l7.5 7.5h18t18 2q19 -3 37 -21q8 -8 14 -17t12 -19l9 -15q10 -20 11 -28q3 -2 8 -11t8 -17q7 -16 17 -37t21 -43.5t22 -45.5t20 -42q14 29 27 62.5t23 56.5q11 26 26.5 59.5t23.5 64.5q4 7 7.5 16.5t7.5 18.5t8 15t9 6q9 0 10 -1t13 -1q2 0 5 -2t11 -8
q5 -4 8.5 -10.5t5.5 -13t3 -12t1 -7.5q0 -11 -4 -26.5t-10 -31.5q-4 -5 -13 -22.5t-20 -42.5t-24 -53.5t-26 -54.5q-11 -22 -24.5 -52.5t-28 -63.5t-28.5 -65.5t-25 -57.5q-1 -5 -4.5 -13.5t-8.5 -18t-10.5 -19t-9.5 -15.5q-7 -11 -9 -20t-7 -15q-7 -7 -12 -10.5t-16 -3.5
q-10 0 -17.5 4.5t-12.5 10.5q-5 2 -7.5 7.5t-4.5 8.5q2 6 2 7q0 2 -0.5 4.5t-0.5 4.5q0 5 1 8z" />
    <glyph glyph-name="Z" unicode="Z" horiz-adv-x="498" 
d="M463 91q0 -1 0.5 -2t0.5 -2q1 -2 1 -6q0 -2 -0.5 -4.5t-0.5 -4.5q0 -7 -3.5 -12.5t-8.5 -11.5q-8 -9 -17 -18t-25 -17q-21 -11 -46.5 -20t-51.5 -17q-84 -27 -158 -27q-29 0 -50.5 5.5t-40.5 27.5q-9 11 -15.5 24.5t-10.5 27.5q6 20 18 45.5t28.5 53.5t36 57.5t39.5 57.5
q41 57 79 106t71 94q5 6 8 11.5t5 7.5q0 2 0.5 4t0.5 3q-2 2 -8 2q-8 -1 -30.5 -5t-44.5 -8q-21 -4 -44.5 -6.5t-51.5 -2.5q-41 0 -62 20q-8 8 -12.5 15t-4.5 20q0 8 1 12.5t3 9.5q1 4 3.5 6.5l4.5 4.5q5 5 9 6q4 2 7.5 3t9.5 1t12.5 -2.5t14.5 -4.5q2 0 3 -0.5t3 -0.5
q12 -3 23 -3q10 0 25 1.5t43 3.5q14 1 35.5 3t44.5 4t45.5 4.5t37.5 4.5q6 -2 11 -3t15 -9q11 -10 17 -16.5t11 -13.5q1 -5 1 -13q0 -10 -1 -12q-29 -45 -53.5 -80.5t-47.5 -66t-45.5 -59.5t-46.5 -61q-32 -42 -53 -71.5t-31 -46.5q-11 -17 -18 -31t-12 -25q0 -7 5 -12
q2 -1 5 -1h14q25 0 52 4.5t53 11.5t50.5 16.5t44.5 20.5q15 8 26.5 18.5t29.5 10.5q30 0 43 -26z" />
    <glyph glyph-name="bracketleft" unicode="[" horiz-adv-x="399" 
d="M181 -70q21 0 35.5 1t35.5 4q4 1 14 2.5t15 1.5q2 0 4 -0.5t5 -0.5q3 -1 7 -1q5 0 10.5 -4.5t7.5 -9.5q2 -4 4 -9t2 -10q0 -14 -2 -20t-9 -15q-4 -4 -10 -6q-4 -2 -6 -2q-23 0 -54.5 -6.5t-58.5 -6.5q-22 0 -42 3.5t-38 20.5q-5 5 -12.5 22t-9.5 38q-1 11 -1.5 28.5
t-0.5 39.5q0 27 0.5 57.5t1 57.5t1 47.5t0.5 28.5v23.5t1 26.5q0 15 1 30q1 20 4 63t6.5 91.5t6 94t2.5 69.5q0 32 16 47.5t33 15.5h203q11 0 19.5 -5.5t14.5 -13.5q2 -3 2.5 -7t1.5 -7q1 -4 1 -8q0 -10 -10 -25t-31 -16q-5 0 -12.5 1.5t-13.5 1.5q-9 0 -25 2.5t-32 2.5
q-8 -1 -15 -1h-24q-5 0 -19.5 1t-19.5 1q-3 0 -7 -6.5t-5 -10.5q-3 -8 -3.5 -16t-1.5 -17q0 -2 -0.5 -10.5t-1.5 -19l-2 -21t-1 -17.5q0 -5 -1.5 -19t-2.5 -29t-2 -29t-1 -19t-0.5 -21t-0.5 -36.5t-0.5 -40.5t-0.5 -33v-24.5t-0.5 -45.5t-0.5 -55.5t-0.5 -56t-0.5 -45.5v-24
q0 -2 -0.5 -7.5t-0.5 -13.5t1 -17t4 -15h20z" />
    <glyph glyph-name="backslash" unicode="\" horiz-adv-x="500" 
d="M156 380q-2 5 -7 11.5t-7 9.5q-3 4 -6 9t-5 9q-6 8 -10 17q-14 23 -27 44.5t-25 40.5q-9 8 -13 16q-4 5 -10.5 15.5t-8.5 15.5q-7 14 -7 28q0 7 2.5 13t11.5 17q5 6 12.5 11t22.5 5q12 0 25 -14t18 -25l14 -28q16 -32 34.5 -59.5t35.5 -58.5l169 -316q6 -11 18 -36
t25.5 -53t25.5 -52t17 -32q6 -9 7 -16t1 -18q-5 -13 -11 -27t-15 -18q-3 -1 -10 -1q-17 0 -21 6q-3 2 -8 6t-7 7q-3 5 -8 17t-9 20q-3 6 -7.5 13t-6.5 10z" />
    <glyph glyph-name="bracketright" unicode="]" horiz-adv-x="366" 
d="M154 -226q-15 -3 -31 -6t-31 -5q-3 -1 -7 -1q-3 -1 -7 -1h-6q-14 0 -27 8t-13 25q0 5 0.5 10.5t4.5 13.5q2 4 13.5 14.5t20.5 12.5q5 1 16.5 3.5t25 5t26.5 4.5t21 3l11 187q2 39 4 69t3.5 55t3 48t3.5 47q4 56 10.5 111.5t9.5 94.5q1 5 1.5 16.5t0.5 21.5q0 5 0.5 20
t0.5 20q-5 0 -16 2t-23.5 4.5t-24 5t-18.5 3.5q-5 1 -16.5 2t-24 2t-24 2t-17.5 3q-11 4 -14 12.5t-3 16.5q0 5 2 16.5t2 13.5q0 5 6.5 11.5t13.5 8.5q2 2 6 2h9q2 0 6 -0.5t9 -0.5q5 -1 11 -1l27 -7q3 0 15 -2t26.5 -4.5t27.5 -4.5t18 -3q3 -1 10.5 -3t16 -4.5t16 -4.5
t11.5 -2q8 -3 18.5 -12.5t10.5 -20.5v-36q0 -17 -2 -41.5t-4 -43.5q-2 -21 -6 -60.5t-8 -84.5q-3 -37 -6.5 -83.5t-6.5 -91t-5 -81t-2 -52.5q0 -15 -1.5 -43.5t-3 -58t-2.5 -54.5t-1 -32q0 -5 -4 -10t-9 -10q-5 -3 -11 -7t-10 -6q-8 -5 -19 -8t-21 -6z" />
    <glyph glyph-name="asciicircum" unicode="^" horiz-adv-x="439" 
d="M401 370q-7 -7 -22 -7q-19 0 -30 8t-21.5 19.5t-19.5 22.5q-10 14 -20.5 26t-20.5 25q-8 11 -20 27t-23 21q-3 2 -9 2q-8 0 -14 -5.5t-14 -15.5q-3 -3 -11 -13.5t-17 -23t-17 -23.5t-10 -14q-7 -11 -18 -24t-16 -21q-9 -13 -16 -15.5t-25 -2.5q-7 0 -21 7q-6 5 -10.5 11
t-4.5 9q0 1 -0.5 1.5t-0.5 2.5l2 4l1 5q0 6 -2 8q5 9 15 26.5t26 34.5q14 16 28.5 33.5t27.5 34.5q12 16 26.5 36t27.5 36q8 11 18.5 18t26.5 7q13 0 22.5 -9.5t18.5 -23.5q7 -11 20 -26.5t25 -33.5q14 -20 29 -37.5t32 -34.5q15 -15 31.5 -33t22.5 -33q1 -2 1 -4
q0 -4 -8 -17z" />
    <glyph glyph-name="underscore" unicode="_" horiz-adv-x="653" 
d="M110 -130q-7 0 -19 -3.5t-17 -3.5q-6 2 -15 4.5t-14 6.5q-2 2 -4 2q-3 0 -4 2q-2 6 -3.5 9.5t-1.5 6.5q0 2 0.5 3t0.5 3q1 5 1.5 11t7.5 11q5 5 13.5 8t16.5 6q4 1 12 2.5t17 3t17.5 3t13.5 2.5q4 0 16.5 0.5t27.5 1t29.5 1t21.5 0.5h11t16.5 -0.5t16 -0.5h10.5
q12 0 23 -0.5t18 -0.5q8 0 23 -0.5t31.5 -1t31.5 -1.5t22 -1q21 -2 39 -3t33 -1q21 0 35 0.5t22 0.5q8 -1 15.5 -4t13.5 -7t12 -11q2 -3 5.5 -6.5l5.5 -5.5q3 -4 6 -6q0 -3 1 -6q2 -6 2 -10q0 -6 -6 -10q-3 -2 -5 -3q-8 -8 -21 -11t-21 -3q-3 0 -8.5 0.5t-10.5 0.5
q-6 0 -12 1q-7 0 -18.5 0.5t-24.5 0.5h-25t-20 1q-11 0 -22 1q-10 1 -21.5 1.5t-22.5 0.5q-7 1 -19 1.5t-24.5 1t-23.5 1t-16 0.5q-22 0 -34 -1.5t-20 -1.5q-11 0 -19 1.5t-14 1.5q-4 0 -15.5 1t-25 2t-25 2t-15.5 1z" />
    <glyph glyph-name="grave" unicode="`" 
d="M183 510q7 -8 15.5 -15.5t16 -15.5t12.5 -17t5 -20q0 -14 -11 -20t-26 -6q-18 0 -34 7l-8 4q-4 3 -8 5l-6 5q-10 9 -21 17.5t-22 16.5q-1 2 -5 6q-14 12 -22 28t-8 33q0 11 3.5 21t11.5 19q2 1 3.5 2t3.5 2q2 2 7 4l9 2q3 0 5.5 0.5t4.5 0.5q15 -2 24.5 -12t16.5 -22
l4 -8q3 -6 6.5 -12t8.5 -11l6 -8z" />
    <glyph glyph-name="a" unicode="a" horiz-adv-x="442" 
d="M285 -11q-1 8 -1 20.5v22.5q0 9 -2.5 11.5t-4.5 2.5q-4 0 -7 -3l-7 -7q-9 -9 -25.5 -21t-35.5 -22.5t-40 -17.5t-39 -7t-31.5 8t-23 21.5t-14 30.5t-4.5 36q0 17 3 34q3 11 7.5 24.5t12.5 29.5q1 2 3.5 6t4.5 8q3 4 6 9q15 25 40 50t54.5 45.5t58.5 33t51 12.5
q15 0 28.5 -3t26.5 -14q8 -7 14.5 -17.5t6.5 -22.5q0 -5 -3 -11q-2 -39 -4 -72q-2 -29 -2.5 -56.5t-0.5 -41.5q0 -31 2.5 -56t5.5 -36q0 -8 -0.5 -14t-3.5 -11q-2 -4 -5 -8t-8 -7q-4 -2 -7 -2q-4 0 -7 1t-7 1q-7 -1 -7 -3q-22 0 -26 13t-9 33zM302 211q-4 0 -7 3
q-4 2 -5.5 4.5t-4.5 4.5q-14 0 -40.5 -18.5t-53.5 -44t-47 -52.5t-20 -45q0 -12 11 -12q6 0 18.5 4.5t29.5 15.5q13 8 29.5 19t33 24.5t30.5 29t22 33.5q2 13 3 18.5t1 15.5z" />
    <glyph glyph-name="b" unicode="b" horiz-adv-x="446" 
d="M74 -35q-7 5 -12.5 7.5t-9.5 7.5q-5 6 -7.5 13t-2.5 11q2 3 3.5 6t2.5 10q1 10 5.5 42.5t10.5 76t13 93.5t13 94.5t11 78.5t7 46q3 17 6 40t8 44q0 2 1.5 5.5t1.5 5.5t-2 2t-2 3q4 0 4 4q2 5 2 17.5t2 23.5q2 9 4 16.5t4 15.5q4 25 8.5 43.5t15.5 37.5q6 0 9.5 0.5
t7.5 2.5q1 1 4 2.5t6 1.5q2 0 3 -1q3 -4 16.5 -12.5t17.5 -16.5q2 -2 3 -13.5t3 -14.5q0 -3 1.5 -5t1.5 -5q0 -14 -7 -27t-12 -30q-1 -5 -1 -14q0 -10 -1 -15q-3 -17 -8 -39t-9 -45l-23 -135q-2 -11 -3.5 -27t-3.5 -34.5t-3.5 -38t-3.5 -35.5q0 -9 3 -9q1 0 3 2
q18 18 48 38.5t60 33.5q5 2 8 3t5 3q6 -2 7 -2q2 0 3.5 0.5t3.5 1.5l10 2.5t10 1.5q38 0 58 -27q12 -16 16.5 -36.5t4.5 -48.5q0 -20 -9 -50.5t-25 -49.5q-5 -6 -8 -12.5t-8 -11.5q-7 -7 -22 -19t-19 -16q-5 -2 -10 -6l-10 -8q-2 -1 -4 -2.5t-5 -2.5q-2 -2 -6 -3.5t-6 -1.5
q-7 -3 -12 -5t-13 -4q-6 -2 -12 -6t-11 -6q-2 0 -6.5 -2t-6.5 -3q-2 1 -6 1q-5 0 -9.5 -1t-9.5 -3l-57 -17q-5 -2 -11.5 -2.5t-9.5 -0.5q-6 0 -10 7q-2 4 -5 6t-3 5zM157 55q12 0 40 8t59 27q12 7 24 17t21.5 20.5t15.5 20.5t6 19v10t-1 8q-5 7 -10.5 9t-11.5 2
q-8 0 -22.5 -9t-30.5 -21t-31 -25t-22 -21q-17 -18 -30 -32.5t-17 -24.5q0 -5 2 -8h8z" />
    <glyph glyph-name="c" unicode="c" horiz-adv-x="375" 
d="M324 274q-4 1 -10 1q-11 0 -11 -4v-2q0 -1 1 -1q-11 -4 -32 -4q-28 0 -54 -12t-46 -30.5t-32 -41t-12 -43.5q0 -29 16 -40.5t47 -11.5q19 0 32 5t23 11t18.5 11.5t19.5 6.5q2 0 3 -0.5t2 -0.5t5 2q2 0 2.5 -1t3.5 -1q4 -2 5 -6.5t5 -9.5t7 -10t3 -12q0 -13 -6.5 -28
t-21 -28t-38.5 -21.5t-60 -8.5q-29 0 -48 6t-36 18q-1 1 -4 5.5t-5 4.5q0 2 -1 3t-2 3l-3 3l-2 2h-1q-1 0 -1.5 1t-1.5 1q-2 0 -4 2q-1 1 -1.5 -0.5t-1.5 -0.5q-30 36 -30 95v11.5t1 11.5l3 16q7 35 26 68t46 58t59 40t67 15t51 -15t20 -33l3 -9t5 -8q-3 -2 -7.5 -5.5
t-7.5 -3.5z" />
    <glyph glyph-name="d" unicode="d" horiz-adv-x="418" 
d="M341 -110q-2 -9 -8 -12.5t-20 -3.5q-13 0 -22.5 12.5t-16 31t-9.5 38.5t-3 35q0 14 1 28.5t1 31.5v4l-55 -52q-23 -23 -47 -38t-49 -15t-45.5 21t-20.5 66q0 40 12.5 83.5t33.5 79.5t48 59.5t57 23.5q7 2 9 4q0 -1 2 -3q2 2 6 2q1 0 7 -2q4 -2 8 -5q4 -4 10 -6
q5 -2 9.5 -4.5t9.5 -10.5q2 -3 4 -4.5t5 -3.5q0 14 1 26.5t4 24.5q0 2 0.5 2.5t0.5 2.5q0 5 -1 7q2 11 1.5 20.5t0.5 22.5q0 4 -1 4q0 2 1 8t1 10q2 33 4 77.5t13 90.5q3 8 5 19.5t5.5 23t8 21t12.5 14.5q7 4 14 4q14 0 24 -9.5t11 -17.5q0 -2 -0.5 -3t-0.5 -2q0 -2 0.5 -3
t1.5 -4l2 -17l-3 -75q-2 -10 -3 -18t-1 -18q-2 -19 -2 -37.5t-2 -32.5q-5 -19 -7 -35q-8 -32 -9.5 -66t-10.5 -66q-3 -27 -5 -56t-2 -52q0 -65 5 -109.5t5 -58.5q0 -11 4 -17t4 -14q0 -2 -1 -6.5t-2 -6.5zM253 169q-4 -2 -8 -2q-5 0 -11 2q-6 0 -8.5 2t-4.5 3q-3 2 -3 4.5
t-2 4.5q-2 3 -7 3q-10 0 -26 -15.5t-31 -37t-26 -44.5t-11 -38t13 -15q8 0 25 8.5t36 25t37 40.5t29 56z" />
    <glyph glyph-name="e" unicode="e" horiz-adv-x="429" 
d="M125 72h-19.5h-13.5t-13 0.5t-17 1.5q-16 2 -23.5 8.5t-11.5 15.5q-4 6 -4.5 7.5t-0.5 2.5t0.5 1.5t0.5 2.5q-1 1 -1 3q0 3 2 7q-1 1 -1 3t0.5 3t0.5 3q0 1 -0.5 2t-0.5 2q3 13 16.5 22t27.5 9q16 0 30 -2.5t25 -2.5q1 40 11 75.5t28 62t44.5 42t61.5 15.5q8 0 14.5 -1.5
t8.5 -3.5l16 -6q5 -2 10.5 -4t8.5 -6q6 -4 10 -10q5 -6 10 -13q13 -20 13 -49q0 -24 -11.5 -49t-30.5 -47.5t-44.5 -41t-53.5 -31.5q18 -20 49 -20q26 0 45 3.5t41 3.5q6 0 12.5 -1.5t9.5 -2.5q0 -2 4 -5t7 -9q1 -2 1 -4t-1 -3.5t-1 -3.5t1 -3q-2 -2 -2 -8q0 -4 1 -6
q-2 -2 -4.5 -6t-2.5 -8q0 -3 1 -4q-4 -2 -24 -17q-5 -4 -7 -5l-6 -3q-2 -1 -4.5 -1t-4.5 -1q-4 0 -5 -1q-1 0 -1.5 0.5t-1.5 0.5t-1.5 -0.5t-1.5 -0.5q-2 1 -4 1.5t-7 0.5t-8.5 -0.5t-7.5 -1.5t-9.5 -1.5t-15.5 -0.5q-38 0 -74.5 22t-56.5 63h-14zM268 266q-2 1 -6 1
q-14 0 -26.5 -14.5t-20.5 -31.5q-4 -10 -7.5 -22t-5.5 -27q12 1 25 8.5t24.5 18t19 23t7.5 25.5q0 10 -6 16z" />
    <glyph glyph-name="f" unicode="f" horiz-adv-x="420" 
d="M93 -39q2 6 2 10l2 4t1 4q-2 3 -3 3q0 2 -0.5 3t-0.5 3t1 5q5 35 7 65t5 50l3 21q-2 0 -3 -0.5t-3 -0.5t-3 -0.5t-3 -0.5t-4 -0.5t-2 -2.5q-2 1 -5 1h-7q-20 0 -29 8.5t-11 19.5q-2 6 -2 8v4q0 2 1 2.5t1 2.5t1 3.5t1 3.5q0 14 10.5 24t30.5 14q14 2 38 8q5 35 10 71.5
t12 71.5q5 27 16 65.5t27 70.5q33 70 86 118q27 26 55.5 40.5t63.5 14.5q10 0 15.5 -4t12.5 -14q3 -5 3 -9t4 -5q0 -1 -0.5 -1.5t-0.5 -2.5q2 -2 2 -8.5t1 -8.5q0 -6 -5 -13t-12 -13t-15.5 -10t-15.5 -4q-5 0 -11.5 1t-11.5 1q-16 -4 -40.5 -28.5t-44.5 -56.5
q-12 -20 -19.5 -40.5t-12.5 -34.5q-10 -32 -19 -83t-16 -100l63 13q16 3 33.5 6t35 5.5t33 4t27.5 1.5q16 0 28.5 -10.5t16.5 -24.5q0 -2 0.5 -2.5t0.5 -2.5q0 -4 -1 -7t-2 -7q-1 -5 -2.5 -8.5t-3.5 -8.5q-2 -6 -12 -13t-44 -7h-10t-12 1q-3 0 -12 0.5t-23 0.5q-22 0 -57 -9
t-71 -20q-3 -29 -9 -76.5t-14 -99t-16.5 -99t-16.5 -75.5q-14 -50 -27.5 -67t-31.5 -17q-13 0 -28 3t-22 14q-4 7 -6 19q0 2 1 3.5t1 3.5t-2 4q0 4 2 4q0 1 -0.5 2t-0.5 2q0 11 9 17q2 2 5.5 4t8 7t9.5 14.5t10 25.5q6 19 11 45.5t10 55.5z" />
    <glyph glyph-name="g" unicode="g" horiz-adv-x="373" 
d="M74 199q5 25 20 52q21 39 50 66q3 3 7 4t7 3q2 2 3.5 4.5t3.5 4.5q33 22 69 22q26 0 40.5 -5t26.5 -16q9 -9 11.5 -22.5t2.5 -26.5q0 -14 -5 -27.5t-19 -21.5q-5 -3 -7 -3q5 -3 9.5 -9.5t4.5 -14.5q0 -9 -2 -22t-3 -16q-1 -4 -1.5 -18.5t-0.5 -31.5q0 -28 0.5 -56
t0.5 -57q0 -26 -1 -51t-4 -50q-2 -10 -3.5 -18t-3.5 -19v-5q0 -2 1 -3q-2 -5 -2 -10.5t-4 -16.5q-3 -8 -8.5 -17t-10.5 -22q0 -4 0.5 -6.5t0.5 -5.5t-2 -9l-3 -3t-1 -4q-2 0 -2.5 -3.5t-1.5 -5.5q-1 0 -2 -5t-2 -5q-1 -10 -3 -12q-3 -4 -8.5 -10t-10.5 -12t-7.5 -12.5
t-4.5 -9.5q-4 -2 -5.5 -3t-4.5 -5l-4.5 -4.5l-4.5 -4.5q-2 -4 -6.5 -5t-7.5 -5q-4 -5 -7.5 -7t-11.5 -8t-23.5 -14.5t-36.5 -8.5q-3 0 -9 -0.5t-12 -1.5q-11 -2 -19 -3t-14 -1q-4 0 -12 4q-1 0 -4.5 1t-6.5 3q-2 1 -9.5 10.5t-11.5 9.5q-2 0 -2 -2q-2 3 -2 13q0 9 -1 12
q0 3 -0.5 6.5t-0.5 6.5q0 8 5 13q2 1 8 1t14 -1.5t21 -1.5q5 0 10 0.5t12 1.5q16 3 37.5 9t36.5 23q14 11 23 34t19 43q3 5 6 11q0 2 1 5t2 5q2 3 5 10t5.5 16t4.5 18t3 16q3 10 5 22t5 25q0 2 -0.5 3t-0.5 3v3q3 3 4 12.5t1 22.5q0 23 -2 50t-2 40v11.5t1 15.5
q-16 -19 -36 -32t-44 -13q-19 0 -32.5 8.5t-21.5 22.5t-12 30.5t-4 33.5q0 21 4 40zM245 247q0 5 -1.5 12t-10.5 7q-18 0 -36 -11.5t-32 -28t-23 -36.5t-9 -36q0 -14 11 -14q17 0 35.5 15t36.5 36q14 17 20.5 28.5t6.5 23.5q0 2 2 4z" />
    <glyph glyph-name="h" unicode="h" horiz-adv-x="474" 
d="M381 -49q-1 -1 -4 -1q-6 0 -14 2l-8 2q-3 0 -6.5 2t-5.5 5q-5 4 -11.5 10t-7.5 8q-8 12 -12 27t-4 35q0 15 3 39t3 37q0 5 -4 5q-5 0 -11 -3.5t-12 -7.5q-7 -4 -14 -10q-5 -3 -9 -7q-4 -3 -9.5 -7.5t-11.5 -9.5q-2 -1 -6 -5q-20 -15 -39.5 -32t-42.5 -29q-2 -2 -4 -2.5
t-4 -2.5q-2 -1 -3.5 -2t-3.5 -2q-6 -4 -14.5 -8t-15.5 -4t-16 7q-6 4 -11 15q-2 5 -3.5 9.5t-3.5 9.5l-3 15q0 5 -0.5 10t-1.5 10l-2 22q0 6 -0.5 11.5t-0.5 10.5q-1 6 -1 10.5v9.5v14q0 48 9 94.5t20 94.5l3 10q6 27 12.5 54t13.5 53q2 5 3 10.5t2 10.5q2 8 4 22q5 22 8 45
t6 43l3 21q1 8 2 17t3 17q2 5 2.5 10t2.5 9q2 5 3 8.5t3 5.5q3 5 8 9t13 4q4 0 5.5 -2t3.5 -4t4 -2.5t4 -2.5l9 -8q5 -5 6 -10t3 -11q4 -6 4 -15q0 -3 -0.5 -6t-0.5 -7q1 -5 1 -9.5v-10.5q0 -8 0.5 -15.5t0.5 -15.5v-8t-1 -8q-1 -3 -1 -9q-10 -67 -24 -133q0 -4 -2 -10
l-38 -173q-4 -19 -5 -32t-1 -20q0 -5 2 -11.5t6 -6.5q3 0 9 1.5t16 10.5l11 10q24 18 43 37.5t33 30.5q11 11 17 15.5t8 6.5q12 11 25.5 16.5t22.5 5.5q8 0 16.5 -4.5t16.5 -11.5q12 -11 15 -31q0 -13 -1.5 -25t-1.5 -35q0 -2 -0.5 -10t-0.5 -18.5v-21.5v-19q0 -19 0.5 -38
t0.5 -49v-37q0 -11 -2 -17q0 -2 -2 -6t-3 -5t-1 -2z" />
    <glyph glyph-name="i" unicode="i" horiz-adv-x="253" 
d="M171 172q-2 -2 -3 -10.5t-2 -10.5q-3 -6 -4 -18t-3 -20t-4 -16.5t-2 -15.5q-2 -8 -3.5 -13.5t-2 -11t-0.5 -12v-16.5q0 -3 4 -4.5t8 -5.5q6 -6 6 -18q0 -22 -11 -31.5t-29 -9.5q-17 0 -33.5 18.5t-18.5 47.5q-1 5 -1 10.5v11.5q0 14 1.5 21.5t2.5 15.5q1 9 4 33t7 50.5
t7.5 49.5t4.5 30q1 4 3.5 12.5t5.5 17t5.5 15t4.5 6.5q4 4 10.5 5.5t13.5 1.5q10 0 16 -3q7 -5 11 -14t16 -19q0 -15 -2.5 -27t-4.5 -24zM200 521q-23 0 -38 20.5t-15 41.5q0 18 11.5 33.5t39.5 15.5q15 0 23.5 -5t13 -13t5.5 -18.5t1 -20.5q-1 -22 -9 -38t-32 -16z" />
    <glyph glyph-name="j" unicode="j" horiz-adv-x="333" 
d="M272 260q0 -8 -3 -26.5t-6 -41t-6 -45.5t-3 -38q-2 -15 -4.5 -39t-5.5 -50.5t-6.5 -52.5t-7.5 -44q-8 -39 -19 -72.5t-20 -53.5q-23 -50 -61 -86q-16 -16 -43 -30t-57 -14q-17 0 -28.5 9t-22.5 26q-12 20 -18 40q-2 5 -3.5 9t-2.5 9q-1 4 -1.5 7t-0.5 8q-1 2 -1 10
q0 3 -0.5 6t-0.5 6q0 33 7 63.5t18 50.5q8 19 18.5 32.5t21.5 23.5q6 6 15.5 11.5t26.5 5.5q5 0 9 -3t6 -5q1 -1 2 -1q3 -3 3 -2q2 -1 4.5 -3t2.5 -4q0 -1 1 -1.5t1 -1.5q0 -2 1 -2.5t1 -1.5t-2 -3q1 -2 0.5 -2.5t1.5 -2.5q0 -2 0.5 -5t2.5 -4q-2 -2 -2 -4q-1 -2 -1 -3
q0 -2 -2 -5t-4 -7q-8 -10 -19 -20.5t-14 -15.5q-2 -2 -6 -9t-6 -13q-3 -8 -5 -17l-2 -10q-2 -5 -3 -13.5t-2 -17.5t-1.5 -17t-0.5 -11q0 -8 3.5 -16.5t11.5 -8.5q9 0 18.5 4.5t14.5 8.5q21 17 37.5 46.5t28.5 59.5q11 26 18 55t13 62q5 22 9 58.5t7 78.5q1 14 3 38.5t3.5 50
t3 46.5t1.5 29q0 6 3 13t3 10q2 0 4.5 3t3.5 5q2 2 1.5 2.5t1.5 1.5q1 1 5 1q1 0 1.5 0.5t2.5 0.5q3 0 3 -2q1 3 4 3q1 0 1 0.5t2 0.5q5 0 12 -5.5t13 -10.5t10.5 -16t4.5 -19v-19zM345 518q-8 -4 -16.5 -7t-15.5 -3q-11 0 -20 6t-14 12q-3 5 -6.5 12t-5.5 10
q-4 6 -4.5 13.5t-0.5 13.5q0 9 3 15q2 4 4 7q4 5 11.5 13t15.5 8q14 0 28 -9q4 -2 11 -9t11 -12q3 -3 6 -9l6 -12q2 -4 2.5 -6.5t0.5 -7.5q0 -23 -16 -35z" />
    <glyph glyph-name="k" unicode="k" horiz-adv-x="462" 
d="M381 -18q-4 -2 -7.5 -4t-5.5 -4q-5 -3 -9 -3q-8 0 -14.5 3.5t-7.5 5.5q-11 0 -16.5 7.5t-13.5 13.5q-22 15 -56 44.5t-80 75.5q-5 5 -14.5 11t-13.5 6q-2 -5 -2 -8v-8q0 -17 1 -28.5t2 -20.5t2 -17t1 -17q0 -19 -9 -32q-11 -14 -36 -14h-6q-14 2 -18.5 14t-6.5 24
t-3 34.5t-1 39.5q0 16 2 43t4.5 58.5t6 65t6.5 63t6 52t4 33.5q2 22 6.5 52.5t9.5 59.5q2 9 2.5 12t2.5 11l3 18q0 6 0.5 16.5t0.5 14.5q0 8 4 15q5 8 11.5 11.5t9.5 7.5q5 0 6 -1q3 1 9.5 4t10.5 3q3 0 10 -1t14 -5.5t12 -14t5 -26.5v-9.5t-2 -12.5l-19 -109
q-2 -11 -3.5 -18t-3.5 -12q0 -4 -1 -15.5t-2 -20.5q-2 -5 -3 -5t-3 -5t-3 -13t-3 -12q-4 -26 -7.5 -47.5t-5.5 -32.5q21 6 48 14.5t56 20.5q20 8 44 19.5t36 17.5q15 8 30 14.5t25 6.5t12 -2t13 -5q1 -3 5 -9t8 -9q0 -2 0.5 -4t0.5 -4q0 -1 -0.5 -2t-0.5 -3t1 -4
q-1 -5 -2.5 -7.5t-1.5 -5.5q-1 -2 -2.5 -3t-3.5 -3q-1 -3 -4 -4.5t-5 -3.5q-9 -8 -31.5 -19t-49.5 -23t-54 -22.5t-45 -16.5q-38 -11 -38 -15q1 -4 13 -16t30.5 -28.5t41 -36t43 -37.5t37 -33.5t23.5 -24.5q5 -7 5 -9t2.5 -5.5t4.5 -6.5q-2 -4 -2 -9v-3q0 -1 1 -2
q-2 -2 -2.5 -4t-1.5 -4l-5 -7z" />
    <glyph glyph-name="l" unicode="l" horiz-adv-x="250" 
d="M133 582q1 4 2 6.5t3 5.5q1 2 1 5q0 2 -0.5 4t-0.5 4q0 3 1 5q8 13 17.5 20t17.5 7q9 0 18 -4t17 -10t14 -12t9 -10q1 -2 1 -7t-1 -9t-1 -11t-4.5 -16t-7.5 -16q-4 -8 -11 -35.5t-14 -59.5q-2 -12 -4 -22.5t-4 -23.5q0 -3 -0.5 -6.5t-1.5 -11.5t-3 -22.5t-6 -39.5
q-5 -34 -9 -67.5t-7 -62.5t-4.5 -51.5t-1.5 -34.5q0 -30 2 -50t5 -34t5 -26.5t2 -27.5t-8 -20q-4 -2 -12 -2q-4 0 -14 2q-12 4 -21 4q-4 0 -8.5 4.5t-7.5 8.5q-2 3 -4.5 8t-2.5 8q-2 2 -4 4.5t-3 6.5q-3 11 -3.5 26t-0.5 38v73q0 40 2 78t6.5 76.5t11.5 80t16 88.5
q5 23 9 52t7 53z" />
    <glyph glyph-name="m" unicode="m" horiz-adv-x="698" 
d="M656 5q-5 -39 -43 -39q-3 0 -6 -0.5t-6 -0.5t-6 4q-4 0 -8.5 2t-7.5 2q-2 2 -3 4t-3 4q-8 5 -13 17q-3 4 -5 8.5t-4 8.5q-5 11 -7 19.5t-3.5 18.5t-1.5 22v30v9q-1 4 -5 5.5t-6 1.5t-12.5 -8.5t-27 -23t-36.5 -32.5t-40 -37l-18.5 -18.5t-31.5 -10.5q-5 0 -16.5 3
t-15.5 6l-4 3q-6 12 -11 25.5t-7 42.5q-1 9 -1.5 19t-0.5 21v11.5t-2 11.5t-4 5q-7 0 -10 -1q-5 -2 -9 -5t-12 -11q-12 -11 -27 -25.5t-34 -33.5q-21 -21 -38.5 -39.5t-24.5 -29.5q-2 -4 -4 -9.5t-3 -8.5q-2 -4 -3 -7t-3 -5q-5 -5 -11 -6.5t-14 -1.5q-17 0 -33.5 18
t-16.5 47q0 14 3 35.5t7 44t8.5 44.5t7.5 37q3 14 6.5 33t7 37t6 33t2.5 21q0 8 -3 22q2 7 5 10q6 7 10.5 10.5t11.5 3.5q9 0 17 -3q16 -6 25 -21t13 -32l1 -5q-2 -6 -2 -8v-4q0 -1 1 -2q0 -22 -4 -41t-11 -45q-2 -10 -4.5 -21.5t-2.5 -16.5t5 -5t9 4l7 7q26 32 53 60.5
t54 53.5q10 9 16 12.5t14 3.5q24 0 41 -13.5t21 -23.5q5 -14 7 -23t2 -18q0 -14 -0.5 -31.5t-0.5 -29.5q0 -10 3.5 -13.5t8.5 -3.5q1 0 7 4.5t13.5 10.5t16 13t14.5 13q27 23 50.5 43t34.5 29q9 8 15 10.5t16 2.5q9 0 18.5 -8t17.5 -19t13 -23t5 -21q0 -16 -2 -36t-2 -38
q0 -7 1.5 -20.5t3.5 -16.5q1 -11 7 -20.5t14 -20.5l7 -8l4 -3q-1 0 -1 -1v-2q0 -2 0.5 -2.5t0.5 -2.5v-12z" />
    <glyph glyph-name="n" unicode="n" horiz-adv-x="465" 
d="M329 289q8 4 21 4q3 0 9 -0.5t11 -3.5q12 -7 20.5 -19t11.5 -20q4 -8 5 -17t1 -21q0 -13 -6.5 -36.5t-9.5 -43.5q-3 -19 -6.5 -44.5t-5.5 -41.5q-2 -23 -4.5 -36.5t-7.5 -21.5t-13.5 -13.5t-16.5 -5.5q-11 0 -21.5 15t-14.5 26q-1 3 -1 8.5t-1 12.5q0 4 -0.5 9t-0.5 10
q0 13 3 34q1 8 3.5 19t5.5 21.5t6 19t4 11.5q0 8 -4 8q-3 0 -10 -7l-54.5 -54.5l-48.5 -48.5l-33 -33t-22 -24q-4 -5 -12 -12.5t-20 -7.5q-8 0 -14.5 6t-11.5 13q-10 14 -16.5 32t-6.5 45v10.5t-1 6.5q1 5 1 16t2 23q2 20 4.5 55t6.5 74q2 12 2.5 28t3.5 25q2 8 8 9.5
t11 6.5q3 1 8 1q18 0 32 -14q13 -7 17 -14q4 -5 6.5 -13.5t2.5 -15.5q0 -2 -0.5 -3t-0.5 -2q-2 0 -2 -3q-2 -23 -3.5 -44.5t-5.5 -40.5q-3 -14 -5 -24t-2 -12q0 -5 2 -5q1 0 2.5 0.5t4.5 2.5t8 7.5t13 14.5q10 12 24.5 27.5t31 31.5t35 32t38.5 28z" />
    <glyph glyph-name="o" unicode="o" horiz-adv-x="399" 
d="M270 -28q-3 0 -7.5 -2.5t-8.5 -2.5q-4 -4 -8 -7t-13 -5q-12 -6 -26 -10t-32 -4q-32 0 -54.5 12t-36.5 31t-20.5 41.5t-6.5 43.5q0 19 2 35.5t7 33.5q2 8 4 14t5 14l10 24q1 3 2.5 8t4.5 10q4 10 11 20q21 35 48 54t56 19q1 -1 2.5 -1t3.5 -1t3.5 -1t2.5 -1q2 -2 5 -2
q0 -2 3 -6q18 -5 38.5 -21.5t37.5 -39.5t28 -51.5t11 -57.5q0 -45 -18 -81.5t-47 -60.5zM207 202q-2 -2 -3 -2q-2 -1 -4.5 -2t-4.5 -1q-5 -1 -9 -1t-9 -5q-6 -2 -9 -5.5t-11 -15.5q-14 -15 -19 -40.5t-5 -48.5q0 -25 13 -38.5t36 -13.5q38 0 65.5 22.5t27.5 67.5
q0 34 -18.5 58t-47.5 27z" />
    <glyph glyph-name="p" unicode="p" horiz-adv-x="427" 
d="M84 -310q-8 0 -12 7q-3 7 -4 15.5t-1 16.5q0 38 -2.5 75t-5 71.5t-5 64.5t-2.5 54q0 18 2.5 27.5t6.5 15t9 8.5t11 8q5 41 9 69t7 43q27 131 73.5 194t111.5 63q31 0 54.5 -15t39.5 -40q2 -4 5 -10.5t3 -9.5q3 -4 6.5 -11t5.5 -18q2 -9 3 -19t1 -20q0 -45 -23.5 -82.5
t-59.5 -66.5t-79.5 -49.5t-82.5 -31.5q-1 -65 -1 -122t-2.5 -103.5t-9 -79.5t-18.5 -49q-5 -7 -15 -10q-2 -1 -5 -2t-5 -1q-5 0 -8.5 3t-6.5 5zM306 332q-11 11 -28 11t-33 -16t-30.5 -44.5t-26.5 -67.5t-20 -85q0 -1 -0.5 -1.5t-0.5 -1.5q74 25 114 67t40 97q0 6 -2 12
l-4 12q-2 3 -2.5 6.5t-2.5 5.5z" />
    <glyph glyph-name="q" unicode="q" horiz-adv-x="420" 
d="M145 -421q0 7 2 14.5t5 19.5q7 39 21 95t30 116t31 116t26 94q3 10 3 16q0 3 -3 3q-2 0 -4.5 -1.5t-8.5 -7.5q-28 -27 -62 -50t-72 -23q-31 0 -51 23t-20 63t17 83.5t45.5 79t65 58.5t76.5 23q49 0 73 -21.5t24 -42.5q0 -4 -0.5 -6.5t-0.5 -5.5q2 0 4 -0.5t5 -0.5
q3 -1 9 -7.5t12 -15.5q2 -4 4 -7.5t4 -8.5q3 -8 3 -17q0 -5 -4.5 -10t-6.5 -10t-2 -9.5t-3 -7.5q-4 -10 -10.5 -33.5t-14 -52.5t-15 -58.5t-14.5 -50.5q-4 -11 -10.5 -36t-15 -57t-17.5 -68.5t-17.5 -71.5t-16 -66.5t-11.5 -53.5q-3 -15 -3 -23q0 -5 0.5 -7t0.5 -3
q0 -14 -12.5 -21.5t-23.5 -7.5q-17 0 -30 8.5t-13 35.5zM292 197q-6 0 -7 6q-2 5 -6.5 9t-14.5 4q-21 0 -47.5 -15t-49 -37t-38 -48t-15.5 -47q0 -12 10 -12q20 0 49 21q14 10 29 22t28 23t23.5 20.5t15.5 14.5l17 17t7 13t-1 9z" />
    <glyph glyph-name="r" unicode="r" horiz-adv-x="378" 
d="M128 -20q-4 -2 -9 -3.5t-7 -1.5q-3 -3 -3 -2h-4q-2 0 -6 2q-7 3 -12.5 9t-8.5 9q-10 7 -10 31q0 16 2 35.5t5 38t5 33.5t2 23q0 6 -1 18t-2.5 26.5t-4 29.5t-5.5 29q-1 5 -1.5 9.5t-0.5 8.5q0 9 4 17.5t9 15t10 11t8 7.5q7 0 13 -0.5t14 -4.5q13 -7 21 -23t10 -30
q2 -9 2 -15v-14v-22q0 -9 3 -9t9 7.5t14 19.5t17.5 25.5t20.5 25.5q23 26 49.5 45.5t56.5 19.5q11 0 24 -4.5t21 -12.5q2 -2 4.5 -2t2.5 -3q0 -2 -1 -3q2 -2 4 -9t2 -12q0 -2 -0.5 -2.5t-0.5 -1.5q1 -1 1 -5v-7q0 -13 -10 -21q-5 -9 -17.5 -12t-27.5 -3q-11 0 -27 -9.5
t-33.5 -25.5t-35 -37.5t-32.5 -44.5q-17 -25 -28.5 -51.5t-20 -48t-14 -36.5t-8.5 -18z" />
    <glyph glyph-name="s" unicode="s" horiz-adv-x="341" 
d="M35 2q0 6 -1 8q0 8 -2 9q2 4 7 8t6 9q3 3 9 4.5t9 1.5q11 0 30.5 -4t37.5 -4q26 0 34 4t8 14q0 14 -8.5 35.5t-23.5 53.5q-11 24 -23 54t-12 53q0 24 9 44.5t24.5 35.5t36.5 23t44 8q3 1 6.5 1t5.5 2q3 0 6.5 0.5t7.5 0.5q18 0 34 -7q3 -2 11 -5t11 -5q2 -2 5.5 -6
t6.5 -10q-2 -4 -2.5 -13t-0.5 -14t-2 -13q-3 -9 -14.5 -18.5t-28.5 -9.5q-21 0 -32 3.5t-26 3.5q-18 0 -18 -19q0 -16 8 -34.5t19 -46.5q11 -31 23 -61t12 -61q0 -42 -29 -73t-92 -31q-49 0 -69.5 17.5t-26.5 41.5z" />
    <glyph glyph-name="t" unicode="t" horiz-adv-x="343" 
d="M82 -10q0 2 -0.5 3t-0.5 3t-1.5 3.5t-1.5 3.5l1 5q-2 10 -2 22q0 54 9 107t23 103q-5 2 -8.5 2.5t-6.5 3.5q-4 5 -6 14.5t-2 18.5q0 10 3 16q2 6 4 8t4 5l9 7q4 1 6.5 1t5.5 2l8 2t7 1q5 12 11 29t11 35t9.5 34.5t7.5 28.5q6 29 13 50t15 35q13 19 25 19q6 0 15 -1.5
t13 -3.5q3 -1 8 -6q3 -3 3.5 -5.5t2.5 -7.5q1 -3 1.5 -5.5t0.5 -5.5q0 -6 -1 -13t-1 -15t-7 -30t-16 -48t-17.5 -50t-11.5 -35l-4 -8h9q7 -1 12 -1h10q9 0 15 0.5t13 0.5q13 0 31 -1t30 -1q6 0 13.5 -5t11.5 -8q18 -15 18 -38q0 -17 -7.5 -28t-31.5 -11q-20 0 -39.5 2
t-53.5 5q-12 2 -27 2h-29q-8 -31 -13.5 -61t-9.5 -54.5t-6 -40.5t-2 -19q0 -7 0.5 -23t2.5 -26q5 -7 8 -9.5t5 -7.5q3 -5 3 -15q0 -4 -1 -8t-3 -9q-4 -11 -17.5 -18.5t-27.5 -7.5q-10 4 -14.5 7t-11.5 11q-8 10 -13 24z" />
    <glyph glyph-name="u" unicode="u" horiz-adv-x="477" 
d="M390 10q-2 -5 -6 -10.5t-10 -10.5q-8 -6 -14.5 -10.5t-15.5 -4.5q-7 0 -14 3q-10 3 -14 13.5t-4 24.5q0 5 0.5 10t1.5 11q2 12 5 28.5t6 30.5q4 19 7 30t3 22q0 4 -2 4q-4 0 -8.5 -7t-14.5 -20q-15 -20 -32 -38t-43 -41q-24 -21 -51 -38.5t-59 -17.5q-30 0 -46.5 23.5
t-16.5 53.5q0 10 1.5 23t3 27t3.5 26.5t2 20.5q2 13 6 34t4 35l5 34q2 10 2.5 18.5t2.5 15.5q1 4 1 7.5v6.5q0 8 4 9q6 5 16 8q7 3 13 2.5t8 1.5q11 0 21 -14t12 -25q1 -3 1 -8.5v-12.5q0 -17 -2 -33t-5 -34q-2 -8 -4.5 -20l-5 -24t-4 -21.5t-1.5 -13.5q0 -6 2.5 -10.5
t10.5 -4.5q9 0 27 13t38.5 31.5t40 39t31.5 36.5q19 25 31.5 41t22.5 25q10 10 30 10q10 0 17.5 -8t12.5 -16q8 -13 8 -28.5t2 -31.5q0 -4 -2 -8t-2 -8q-1 -11 -2 -26t-2 -33q-5 -54 -9.5 -85.5t-11.5 -51.5z" />
    <glyph glyph-name="v" unicode="v" horiz-adv-x="475" 
d="M158 -62q-9 0 -18 7l-15 12q-3 2 -10.5 12.5t-12.5 26.5q-9 28 -14.5 58.5t-10.5 61.5t-10.5 61.5t-14.5 57.5q0 14 9 24t17 10q4 0 9.5 -0.5t10.5 -3.5q5 -2 13.5 -6.5t11.5 -8.5q8 -8 11 -20t6 -28q1 -8 3.5 -22.5t5.5 -32t6.5 -35.5t7.5 -32q2 -5 4.5 -8.5t6.5 -3.5
q2 0 5 1t5 3q13 19 29.5 44t26.5 42q7 13 18.5 31.5t24 38t26 37.5t24.5 30q16 17 31 25.5t44 8.5q11 0 19.5 -5t13.5 -12l4.5 -7.5t2.5 -4.5l1 -2q0 -2 -0.5 -3t-0.5 -3t1.5 -6t3.5 -5q-1 0 -1.5 -4.5t-0.5 -8.5q0 -11 -10 -21.5t-31 -18.5q-14 -1 -28 -20
q-12 -15 -26.5 -36t-30 -44.5l-31 -47t-30.5 -43.5q-26 -34 -44 -51.5t-26 -27.5q-12 -15 -18 -17.5t-11 -2.5h-7z" />
    <glyph glyph-name="w" unicode="w" horiz-adv-x="699" 
d="M306 198q2 2 4 3l4 2q4 2 8 2q10 0 23.5 -2.5t23.5 -17.5q3 -5 8 -15.5t10 -23.5t10 -27.5t9 -26.5q5 -14 9 -29t10 -26q6 -13 14 -13q10 0 15 3q17 10 29 24t20.5 28.5t14.5 29.5t11 27q7 18 13.5 38t10.5 39.5t6.5 36t2.5 25.5v6.5t1 6.5q0 2 0.5 4t0.5 4q0 4 1 6
q2 2 2 6q0 2 -1 3q2 1 4.5 2.5t4.5 3.5q1 2 6.5 5t12.5 3q31 0 47 -23t16 -48q0 -23 -6 -40t-11 -39q-2 -5 -3.5 -8.5t-1.5 -6.5q0 -1 0.5 -1.5t0.5 -1.5q-3 -3 -4 -7t-2 -9q-1 -3 -5.5 -10.5t-6.5 -10.5q-1 -3 -1 -8q0 -4 -1 -5q0 -2 -0.5 -5t-1.5 -5q-5 -3 -7 -8
q-19 -39 -44 -73.5t-56 -60.5q-23 -21 -32 -24q-4 -5 -16.5 -9.5t-17.5 -4.5q-7 0 -15 2t-18 8q-9 5 -18.5 14.5t-19.5 23.5q-12 18 -20.5 35t-16.5 35q-2 4 -5 8.5t-10 4.5q-2 0 -4.5 -1.5t-6.5 -6.5q-12 -17 -28.5 -34t-34 -32t-34.5 -27.5t-31 -19.5q-4 -2 -7.5 -2.5
t-6.5 -0.5h-6t-5 -1q-2 3 -13.5 5t-17.5 2l-7 7t-10 15q-11 20 -17 43t-8 37q-2 13 -5 35.5t-5 45.5t-3.5 43t-1.5 28q0 12 -1.5 26.5t-1.5 31.5q0 21 4 40q3 16 14 28l8 9q4 4 10 6q2 1 6.5 2t6.5 1q3 0 7.5 -5t9.5 -7q9 -6 15 -11t9 -11.5t4.5 -16t1.5 -24.5
q0 -23 -1 -34.5t-2.5 -19l-3 -15t-2.5 -22.5q-1 -5 -1 -11v-12q0 -23 2.5 -46t4.5 -41q1 -5 3.5 -10t6.5 -5q11 0 23.5 11t29.5 29q21 22 40 51.5t33 53.5q2 5 4.5 6.5t4.5 4.5z" />
    <glyph glyph-name="x" unicode="x" horiz-adv-x="453" 
d="M232 103q-1 0 -6 7q-8 -5 -10 -5q-4 -2 -11.5 -7t-11.5 -8q-16 -11 -31 -24.5t-26 -22.5q-15 -13 -28 -24.5t-16 -14.5q-8 -3 -13 -3q-9 0 -13.5 4.5l-8.5 8.5q-4 8 -6.5 20.5t-4.5 14.5q0 2 0.5 3t0.5 3q0 1 -0.5 1.5t-0.5 2.5q1 2 1 4t1 5q5 5 18 17.5t28 24.5
q17 14 36 27t33 24l26 23q-7 14 -16 28t-15 21q-22 24 -38 48t-16 35q0 10 1.5 17.5t8.5 14.5q8 8 14 10t11 2q7 0 21 -3.5t31 -24.5q6 -8 11 -18.5t12 -21.5q6 -11 11.5 -23.5t12.5 -23.5q2 -3 3 -7t3 -7q2 -4 4 -7q4 1 8.5 6t9.5 9q1 1 11 10.5t21.5 21l21 21l10.5 10.5
q7 8 19 21t20 13t14 -0.5t12 -5.5q12 -9 16.5 -19.5t4.5 -19.5q0 -21 -7.5 -28.5t-17.5 -20.5q-5 -7 -16.5 -16.5t-25.5 -20.5t-28.5 -21.5t-24.5 -18.5l-4.5 -4.5t-6.5 -5.5q2 -4 4.5 -7t3.5 -4q14 -21 24 -32.5t23 -25.5q8 -8 12.5 -16.5t6.5 -14.5q1 -3 1.5 -5t0.5 -4
t-0.5 -5t-0.5 -7q0 -7 -1.5 -10t-5.5 -7q-5 -5 -10.5 -9t-20.5 -4q-16 0 -23 7l-15 15q-9 10 -16 20.5t-11 17.5q-5 10 -9.5 17t-10.5 15z" />
    <glyph glyph-name="y" unicode="y" horiz-adv-x="426" 
d="M329 -104q-9 -45 -24.5 -86t-41.5 -83q-4 -6 -10 -13t-11 -13q-3 -3 -5.5 -5t-6.5 -7q-8 -10 -16 -23t-16 -21q-36 -37 -80.5 -58.5t-99.5 -21.5q-28 0 -42 11q-5 4 -6 5t-2 9q-2 1 -1.5 6t-2.5 7q1 1 1 3t-2 4q-1 1 -1 2q2 2 2 4q0 1 -0.5 1.5t-0.5 1.5q1 2 1.5 4.5
t5.5 5.5q0 4 3.5 5t3.5 7q5 4 11 7t10 3q10 0 15 -1t8.5 -1h7.5q38 0 69.5 18t56.5 45q23 25 40 53t28 53q2 5 5 9.5t5 9.5q3 12 8.5 28t10.5 31l10 35v4t2 10q8 32 12.5 60.5t9.5 49.5q5 23 6.5 30.5t1.5 10.5q0 4 -3 4q-4 0 -7 -5t-17 -25q-8 -11 -20.5 -27t-29 -31
t-36 -26t-39.5 -11q-38 0 -54 26.5t-16 59.5q0 32 2.5 55t4.5 37q2 8 1.5 18t1.5 19q0 5 -0.5 10t-0.5 10q0 9 -0.5 16t-1.5 12t-1 9.5v9.5q2 10 4 15q3 5 5 10t6 9q0 4 5 4q4 0 10 2q5 1 14 1l11 -5q7 -4 13.5 -10t9.5 -16q6 -24 6 -35q-1 -10 -4.5 -24.5t-3.5 -25.5
q-1 -7 -2 -18t-2.5 -23t-2.5 -23.5t-1 -19.5q0 -21 11 -21q10 0 24 9t28 23t28 32.5t24 37.5q11 20 21.5 35.5t28.5 15.5q7 0 16.5 -2.5t17.5 -10.5q14 -13 19 -26t5 -37q0 -7 -1.5 -25.5t-4.5 -43.5t-8 -55.5t-11 -61.5z" />
    <glyph glyph-name="z" unicode="z" horiz-adv-x="466" 
d="M152 5q-9 2 -19 8t-17 16l-13 27q-2 4 -3.5 9.5t-1.5 12.5v11q0 10 8.5 20.5t15.5 17.5q3 4 11 11t17 15t18 15.5t14 11.5q12 10 30.5 24t29.5 24l11.5 11.5t9.5 17.5h-76h-15t-14 -1h-6.5t-7.5 -1q-2 0 -5 -1t-5 -1q-14 -2 -26 -5q-14 -5 -27.5 -10.5t-26.5 -5.5
q-10 0 -18 5q-4 2 -5.5 6t-3.5 9l-5 5t-3 8q0 2 0.5 2.5t0.5 2.5t-3 4q4 4 3.5 16t4.5 17q4 4 10 7q5 2 12.5 4t17.5 4t22 3.5t25 3.5l45 5q8 1 21 1h21q5 0 19 1t22 1q18 0 27 0.5t15 0.5q5 -1 14 -2.5t18.5 -4.5t18 -7t13.5 -9q11 -13 14.5 -22.5t3.5 -23.5q0 -8 -2 -17
t-7 -19q-5 -11 -20 -25.5t-30 -28.5q-9 -8 -22.5 -19.5t-27.5 -22.5t-26 -20.5t-17 -13.5q-7 -5 -7 -10q0 -2 1 -3q0 -1 1 -1q9 0 33.5 -1t43.5 -1q26 0 44 3t35 6q5 1 8 3t8 3l13 4q10 2 15 2q3 0 5 1.5t4 1.5q1 -2 3 -2q1 0 1.5 1t2.5 1q3 0 5 -1q2 -5 4 -5t7 -3
q2 -2 6 -9t4 -11q0 -8 -0.5 -13.5t-0.5 -10.5q0 -11 -4 -18.5t-12 -14.5q-5 -5 -17 -12q-16 -8 -29 -8h-234z" />
    <glyph glyph-name="braceleft" unicode="{" horiz-adv-x="510" 
d="M351 -255q-23 0 -44.5 2.5t-41.5 11.5q-18 8 -34.5 23t-25.5 31q-4 6 -7 13.5t-5 14.5q-2 6 -3.5 12.5t-1.5 12.5q0 5 -0.5 9t-0.5 9q-2 23 -2 46v46v65q0 20 -4 42t-14 40q-9 17 -22 24.5t-30 12.5q-11 3 -22 6.5t-20 11.5q-6 7 -6 19q0 16 9.5 31t22.5 15q3 0 11 2
t17 4.5t17 5t11 4.5q17 10 24 17.5t11 12.5q6 9 10 21t4 24v88q0 38 3 69t11 55q7 20 16.5 33.5t14.5 19.5q12 15 28 32.5t35 28.5q11 6 20 9.5t20 3.5h18.5t18.5 -2q6 -1 12.5 -2.5t9.5 -3.5q4 -3 4 -8q0 -2 -0.5 -3.5t-0.5 -3.5t0.5 -4.5t0.5 -4.5q0 -6 -1 -15t-5 -15
q-7 -13 -14.5 -16t-17.5 -3q-6 0 -12 0.5t-9 0.5h-9t-8 -2q-17 -5 -25 -14.5t-13 -23.5q-8 -24 -12.5 -45.5t-6.5 -47.5q-1 -12 -1.5 -27.5t-0.5 -27.5q0 -17 0.5 -32.5t0.5 -31.5q0 -3 -0.5 -11t-2 -18t-3.5 -19.5t-5 -14.5q0 -3 -3 -9t-7 -13t-8 -13.5t-7 -9.5
q-6 -8 -17.5 -17t-11.5 -12q0 -4 11.5 -15t19.5 -30q7 -17 9.5 -31.5t4.5 -42.5q1 -14 1 -40.5v-55.5v-106q0 -19 11 -32.5t21 -18.5q2 -2 5.5 -2.5t6.5 -1.5l8 -2q10 -2 25 -2q7 0 13 0.5t14 0.5q11 0 31.5 1.5t43.5 1.5q5 0 12.5 -1t17.5 -1q13 -1 22.5 -13t9.5 -28
q0 -19 -18 -29q-14 -8 -30.5 -9.5t-32.5 -1.5h-71z" />
    <glyph glyph-name="bar" unicode="|" horiz-adv-x="311" 
d="M172 -45l-4 -2q-4 -2 -9 -2q-2 0 -3.5 0.5t-3.5 0.5q-1 0 -2 -0.5t-3 -0.5q-7 1 -9.5 2t-9.5 9q-4 3 -5.5 3.5t-6.5 8.5q-2 5 -3 7t-3 7l-2 19q-1 5 -1 9.5v8.5q-2 19 -3 41t-1 41v19.5v16t0.5 15.5t0.5 19q2 46 5.5 92t5.5 92v11.5t1 11.5v11.5t1 7.5q0 9 0.5 12.5
l1.5 10.5q0 7 -1 15.5t-1 19.5v14q0 3 0.5 7.5t0.5 9.5q0 8 -1 12q2 2 1.5 7t0.5 10v11t1 11q1 33 6 66q2 22 6.5 38t20.5 24q8 1 12.5 1.5t9.5 0.5t10 -0.5t13 -1.5q7 -10 8.5 -21.5t1.5 -23.5v-23q0 -6 -2 -20.5t-3 -18.5q-2 -14 -2.5 -39t-2.5 -47l-3 -22v-10t2 -7
q-3 -16 -3 -25t-1 -27q-1 -2 -1 -8.5v-14.5q-1 -5 -1 -10.5v-11.5q-2 -61 -7 -122t-5 -123q0 -15 1 -29.5t1 -29.5q0 -7 3 -16q2 -10 2 -18q0 -5 0.5 -8.5t0.5 -11.5q0 -7 -0.5 -9.5t-2.5 -6.5q-2 -2 -2.5 -4t-2.5 -4z" />
    <glyph glyph-name="braceright" unicode="}" horiz-adv-x="526" 
d="M165 -272q-18 0 -29.5 1.5t-22.5 3.5q-16 3 -26.5 6.5t-23.5 6.5q-10 2 -19 11l-7 9l-6 13q-2 11 -2.5 13.5t-0.5 3.5q0 5 5 10q4 4 7 5t11 1h22.5h45.5t47.5 -0.5t29.5 -0.5t17 1.5t24 7.5q13 6 22.5 18t15 26.5t8.5 29.5t3 26t0.5 29t1 36.5t0.5 34.5v24q0 15 0.5 33
t1.5 35t2 30.5t2 19.5q2 15 5.5 28.5t5.5 19.5q1 2 2 6t1 7t-1 4l-18 10t-13 7q-18 12 -28 29q-13 21 -18 52t-5 56t1 50t5 57q2 15 3.5 29.5t1.5 23.5t0.5 16t0.5 12q0 14 -1.5 28t-7.5 28t-18 21.5t-33 11.5l-14 3q-11 2 -23.5 4.5t-20.5 7.5q-5 4 -9.5 10t-6.5 14
q-3 7 -3 15q0 5 3 10.5t9 9.5q2 3 5.5 4t8.5 3q2 0 4 1t4 1q1 1 2 1t3 1h6q13 0 32 -6t36 -11q23 -8 45 -24.5t36 -38.5q9 -23 12 -39.5t3 -33.5q0 -28 -2.5 -56.5t-3.5 -45.5q-2 -41 -2 -64.5v-40.5q0 -32 11.5 -54t46.5 -32q6 -2 26.5 -4.5t40.5 -2.5q8 -1 17 -9t11 -14
q1 -2 2 -6q1 -3 2 -7t1 -8q0 -5 -1.5 -9.5t-3.5 -9.5q-3 -7 -13.5 -14t-18.5 -8q-5 0 -16 -1t-16 -1q-3 -2 -5 -5q-5 -5 -6 -9q-3 -8 -6 -28t-5 -57q-1 -19 -1.5 -43t-1 -49t-0.5 -49v-44q0 -46 -7.5 -67t-11.5 -31q-15 -34 -42 -53.5t-58 -30.5q-11 -4 -27.5 -6.5
t-21.5 -2.5h-32z" />
    <glyph glyph-name="asciitilde" unicode="~" horiz-adv-x="679" 
d="M431 106q-9 -3 -19 -3q-26 2 -43 21.5t-32 36.5q-16 18 -30 37t-30 36q-6 6 -14 10.5t-15 4.5q-3 0 -6 -3t-10 -6q-11 -7 -24 -17.5t-27 -21.5t-29.5 -22.5t-28.5 -23.5q-13 -13 -25.5 -26.5t-28.5 -21.5q-3 -1 -5.5 -2t-5.5 -1q-20 0 -28.5 3t-13.5 15q-4 8 -4 18
q0 6 1.5 11t3.5 10q2 4 4 6q7 8 15 15.5t16 14.5q3 3 9 7l48 39q23 19 45.5 39t48.5 34q12 7 23.5 9.5t22.5 2.5q25 0 47 -12t42 -32q14 -15 26.5 -31t26.5 -31q5 -6 14 -14.5t17 -8.5q3 0 4 1q17 8 32 18.5t31 19.5q17 9 33 18t32 20q11 8 22 16.5t24 14.5q5 2 9 3t9 2
q2 0 3.5 0.5t3.5 0.5q17 0 24 -6.5t14 -17.5q0 -2 1.5 -4.5t1.5 -6.5q-2 -11 -6 -19.5t-13 -14.5q-20 -13 -41.5 -20.5t-41.5 -21.5q-17 -11 -33.5 -24.5t-33.5 -27.5q-16 -12 -32.5 -22.5t-33.5 -21.5z" />
    <glyph glyph-name="Euro" unicode="&#x20ac;" horiz-adv-x="651" 
d="M549 54q2 2 6 3t5 1q10 0 16.5 -12.5t6.5 -19.5q1 -2 1 -6q-1 -10 -5.5 -18.5t-11.5 -15.5q-17 -19 -42 -28t-49 -12q-6 -1 -12 -1.5t-13 -0.5q-6 0 -12.5 0.5t-12.5 0.5q-29 2 -56.5 10t-52.5 22q-9 4 -18 11q-60 41 -84 120q-16 -1 -33.5 -1.5t-33 -0.5h-26h-13.5
q-11 0 -26 11.5t-23 19.5q-5 5 -5 15t-4 14q-1 1 -1 3q0 4 7 7.5t16 6.5t16.5 4.5t9.5 1.5q8 1 16.5 1.5t16.5 0.5q5 0 9 -0.5t9 -0.5q3 0 7.5 0.5t7.5 0.5l35 2v49h-6q-20 -2 -42 -5.5t-60 -3.5q-26 0 -39 6t-18 17q-2 8 -2 14q0 5 2 14t12 14q1 2 8.5 5t17 5.5t20 4.5
t18.5 3q11 2 42 5l62 6q2 9 5 18l6 18q6 17 12 33t14 32q11 23 23 44.5t26 41.5q10 14 28 33t41.5 35.5t51.5 28t58 11.5q22 0 45 -6.5t31 -30.5l3 -12q-1 -4 -1 -7.5v-6.5q-3 -4 -4.5 -7.5t-3.5 -6.5q-13 -10 -28 -14t-31 -6.5t-31.5 -6t-29.5 -12.5q-26 -17 -46.5 -43
t-37.5 -53q-4 -5 -7 -11t-7 -13l-24 -49q4 1 14 1q7 1 13.5 2t12.5 1q16 3 31 3q23 5 47 7t47 4q9 2 19.5 3.5t24.5 1.5q11 0 21 -3.5t18 -13.5q1 -1 3 -4t5 -8t7 -12q-4 -3 -4 -9q0 -2 0.5 -5t0.5 -5q0 -11 -10.5 -21t-22.5 -10q-8 0 -15 2.5t-15 2.5q-7 0 -24 -2
t-40.5 -4.5t-50.5 -6t-55 -6.5l-53 -5q-2 -8 -2 -15.5v-14.5v-17q15 2 33.5 4.5t36 4.5t32 3.5t21.5 1.5q19 0 27.5 -9t8.5 -17q0 -17 -13.5 -32t-29.5 -20q-5 -2 -15.5 -4.5t-25 -5.5t-31 -6t-31.5 -6q1 -6 5 -12q3 -7 8 -14q6 -8 10 -11q4 -7 12 -10q5 -2 11.5 -7t11.5 -7
q8 -4 16.5 -8.5t16.5 -7.5q12 -5 23 -6q22 -6 45 -6t44 4.5t35 10.5q8 3 11 6z" />
    <glyph glyph-name="quotesinglbase" unicode="&#x201a;" horiz-adv-x="262" 
d="M92 -143q-5 1 -10 12.5t-5 17.5q0 8 0.5 16t1.5 10l6 38q2 8 1.5 17.5t0.5 17.5v8q1 3 1 10v11q-1 8 -2.5 26t-4.5 34q0 2 -0.5 4t-0.5 4q0 23 17 42t40 19q3 0 9 -2t9 -4l8 -6q14 -14 15 -25q1 -8 1.5 -16.5t0.5 -17.5q0 -21 -2.5 -41t-4.5 -40q-2 -24 -3.5 -35.5
t-4.5 -25.5q-6 -24 -15.5 -45.5t-20.5 -27.5q-8 -3 -12 -3z" />
    <glyph glyph-name="florin" unicode="&#x192;" horiz-adv-x="420" 
d="M154 -118q-8 -40 -19 -78t-34 -77q-4 -6 -10 -13t-11 -13q-3 -3 -5.5 -5t-6.5 -7q-8 -10 -15.5 -23t-15.5 -21q-36 -37 -74.5 -58.5t-93.5 -21.5q-28 0 -42 11q-5 4 -6 5t-2 9q-2 1 -1.5 6t-2.5 7q1 1 1 3t-2 4q-1 1 -1 2q2 2 2 4q0 1 -0.5 1.5t-0.5 1.5q1 2 1.5 4.5
t5.5 5.5q0 4 3.5 5t3.5 7q5 4 11 7t10 3q10 0 15 -1t8.5 -1h7.5q32 0 60 16t50.5 40t39 52.5t26.5 53.5q12 30 20 63.5t10 68.5l7 18q2 6 2 10l2 4t1 4q-2 3 -3 3q0 2 -0.5 3t-0.5 3t1 5q5 35 7 65t5 50l3 21q-2 0 -3 -0.5t-3 -0.5t-3 -0.5t-3 -0.5t-4 -0.5t-2 -2.5
q-2 1 -5 1h-7q-20 0 -29 8.5t-11 19.5q-2 6 -2 8v4q0 2 1 2.5t1 2.5t1 3.5t1 3.5q0 14 10.5 24t30.5 14q14 2 38 8q5 35 10 71.5t12 71.5q5 27 16 65.5t27 70.5q33 70 86 118q27 26 55.5 40.5t63.5 14.5q10 0 15.5 -4t12.5 -14q3 -5 3 -9t4 -5q0 -1 -0.5 -1.5t-0.5 -2.5
q2 -2 2 -8.5t1 -8.5q0 -6 -5 -13t-12 -13t-15.5 -10t-15.5 -4q-5 0 -11.5 1t-11.5 1q-16 -4 -40.5 -28.5t-44.5 -56.5q-12 -20 -19.5 -40.5t-12.5 -34.5q-10 -32 -19 -83t-16 -100l63 13q16 3 33.5 6t35 5.5t33 4t27.5 1.5q16 0 28.5 -10.5t16.5 -24.5q0 -2 0.5 -2.5
t0.5 -2.5q0 -4 -1 -7t-2 -7q-1 -5 -2.5 -8.5t-3.5 -8.5q-2 -6 -12 -13t-44 -7h-10t-12 1q-3 0 -12 0.5t-23 0.5q-22 0 -57 -9t-71 -20q-2 -21 -6 -53.5t-9 -69.5t-11 -75.5t-13 -72.5z" />
    <glyph glyph-name="quotedblbase" unicode="&#x201e;" horiz-adv-x="403" 
d="M298 -143q-7 -10 -15 -18t-19 -13q-2 0 -4.5 -1t-4.5 -1t-3.5 -0.5t-3.5 -0.5q-5 0 -9 2q-10 2 -15 10.5t-5 16.5q0 2 0.5 3t0.5 3l5 24q3 12 7 22.5t11 24.5q2 2 2 4.5t2 5.5l2 4t1 4q1 2 2 4.5t1 4.5q7 20 12 44q0 3 0.5 5.5t0.5 5.5l2 32q1 18 2.5 33t9.5 30
q1 2 2.5 3.5l3.5 3.5q6 4 10 5h5q13 0 23.5 -6.5t17.5 -17t10.5 -23.5t3.5 -25q0 -7 -1 -11q0 -2 0.5 -2t0.5 -2q0 -1 -0.5 -2t-0.5 -2q-1 -9 -4 -17q-8 -27 -14 -55t-17 -54q-4 -9 -8.5 -19t-9.5 -19q-2 -2 -4 -6zM98 -160q-2 0 -2.5 -0.5t-2.5 -0.5q-5 0 -8.5 1.5
t-8.5 1.5q-2 0 -3.5 1.5t-3.5 1.5q-5 5 -8 13q-3 5 -3 10t-1 11q0 13 3 25q1 16 8 35q5 16 12 32t13 36l2 9q0 3 3 14l6 31q3 13 3 20q2 14 5.5 25.5t13.5 19.5q5 4 8 5.5t10 1.5q11 0 20 -4.5t14 -13.5l8 -16q1 -5 1.5 -10.5t0.5 -10.5q0 -21 -5 -42t-10 -41l-2 -10
q-5 -19 -11 -40.5t-13 -41.5l-5 -12.5l-6 -15t-6 -13.5t-5 -9q-6 -6 -12 -8z" />
    <glyph glyph-name="ellipsis" unicode="&#x2026;" horiz-adv-x="600" 
d="M124 -38q-10 -8 -24 -12.5t-29 -4.5t-27 6q-13 8 -18.5 21t-5.5 27q0 10 1 15q5 28 24 46q14 13 29 13q16 0 30.5 -10t24.5 -23q14 -20 14 -40q0 -23 -19 -38zM568 -55q0 -6 -4.5 -11.5t-10.5 -10.5t-13 -8.5t-11 -3.5q-4 -1 -11 -1q-11 0 -22 4t-19 13q-9 12 -9 24
q0 5 2 13q2 7 6 17.5t9 20t12.5 16.5t17.5 7q13 0 28 -12t21 -23q4 -8 5 -15.5t1 -15.5zM362 -21q0 -1 -0.5 -1.5t-0.5 -2.5q-7 -17 -22 -25q-13 -5 -25 -5.5t-26 -0.5q-9 0 -14 2.5t-12 8.5q-8 6 -10.5 16.5t-2.5 20.5q0 6 0.5 10t1.5 9q0 4 1 6q5 14 15.5 25.5t23.5 16.5
q6 2 10 2q5 0 8.5 -2t11.5 -5q20 -10 30.5 -32.5t10.5 -42.5z" />
    <glyph glyph-name="dagger" unicode="&#x2020;" horiz-adv-x="540" 
d="M194 401q-1 20 -1.5 44t-0.5 49q0 7 1 11v10q0 19 5 32q6 16 18 32t29 16q9 0 17 -4l8 -4q4 -3 7.5 -6t5.5 -12q2 -6 3.5 -16t1.5 -16q0 -17 -1.5 -30t-3 -27.5t-3 -32t-1.5 -42.5q10 0 15 1q68 3 139 9q6 1 12.5 1.5t14.5 0.5q20 0 38.5 -6.5t23.5 -27.5q3 -8 3 -14
q0 -17 -17.5 -26.5t-36.5 -13.5t-38 -4t-39 -1q-29 -2 -61 -2.5t-54 -1.5q0 -71 4 -141.5t18 -138.5q5 -23 7 -37.5t2 -33.5q0 -20 -5.5 -39t-21.5 -33q-6 -2 -8 -2q-24 0 -36 20q-10 20 -14.5 40.5t-7.5 41.5q0 3 -0.5 5.5t-0.5 5.5q-4 36 -6.5 72t-4.5 73l-9 163
q-5 0 -8.5 -0.5t-5.5 -0.5h-5q-17 -1 -37.5 -4t-38.5 -5h-17q-8 0 -16.5 0.5t-16.5 4.5q-16 9 -16 35q0 5 1 8q4 17 15 26t25.5 13.5t31 5t30.5 0.5h11z" />
    <glyph glyph-name="daggerdbl" unicode="&#x2021;" horiz-adv-x="548" 
d="M363 415h23.5t26.5 1q15 0 30 1q3 0 7 0.5t8 0.5q13 0 25.5 -0.5t23 -4.5t18.5 -11.5t11 -21.5q0 -6 1 -9q1 -4 1 -10q0 -11 -11 -21q-11 -9 -23.5 -11t-27.5 -2q-2 0 -5 0.5t-6 0.5q-8 1 -15 1.5t-15 0.5q-19 0 -37 -1.5t-36 -1.5q-2 0 -3.5 -0.5t-3.5 -0.5
q-12 -1 -23.5 -1h-22.5q-1 -14 -2 -26.5t-1 -15.5q-2 -11 -2.5 -30.5t-2.5 -36.5l81 -3q9 0 20 -0.5t22 -0.5q16 0 31.5 -1t29 -5.5t22.5 -13.5t12 -25v-12q-1 -3 -1.5 -6t-3.5 -6q-11 -13 -25 -17.5t-29 -4.5q-20 0 -39.5 4t-37.5 4h-10q-8 1 -16 1h-14h-17.5t-27.5 -1
q-2 -26 -4 -43.5t-2 -40.5q0 -5 0.5 -7.5t0.5 -9.5q0 -4 -0.5 -27t-0.5 -47q0 -5 -1 -7q-1 -5 -1 -15q0 -8 0.5 -15.5t0.5 -15.5q0 -18 -3.5 -34.5t-17.5 -28.5q-5 -3 -7 -3h-41l-8 8q0 2 -4 8q-1 3 -2 5.5t-3 5.5q-3 7 -3 22q0 9 0.5 17t0.5 17v8t2 9q1 2 1 4t-0.5 2.5
t-0.5 2.5t1 4q2 10 2 12q0 3 -1 4v164h-27.5t-41.5 1h-8q-11 0 -21 -1t-21 -1q-16 0 -28 4q-22 8 -22 27q0 5 3 13q0 2 1 4.5t2 4.5q8 14 20 21t26.5 10t30 3.5t29.5 1.5q3 1 9 1l53 2l5 48q0 2 -0.5 4t-0.5 6q0 6 1 10t1 17q0 3 0.5 8t0.5 11h-55q-20 0 -39 -4t-39 -4
q-15 0 -28 3q-15 4 -19 17t-4 28q0 5 2 9q7 17 23.5 26t36.5 9h6.5t6.5 -1q3 1 11 1q11 0 25.5 0.5t28.5 1.5h13.5t13.5 1q3 -1 11 -1q7 0 11 1q1 13 2 30.5t2 37t2.5 39.5t3.5 38q1 1 1 3q0 1 -0.5 1.5t-0.5 1.5q1 15 3.5 29t8 25.5t14.5 19t23 10.5q4 1 12 1q10 0 18.5 -5
t13.5 -13q6 -11 6 -22t1 -22q0 -2 -0.5 -3t-0.5 -3q0 -3 1 -4q-6 -37 -8.5 -65.5t-6.5 -57.5q0 -1 -0.5 -6.5t-1 -12t-1 -12t-0.5 -7.5l47 2v0z" />
    <glyph glyph-name="circumflex" unicode="&#x2c6;" 
d="M187 562q2 0 4 0.5t4 0.5q22 0 45 -26q10 -11 20 -25.5t18 -29.5t13 -29.5t5 -25.5q0 -2 -0.5 -4.5t-0.5 -4.5q-4 -4 -6.5 -10t-12.5 -6q-2 0 -3 0.5t-2 0.5q-12 3 -24.5 15.5t-26.5 25.5q-11 10 -20.5 19.5t-20.5 10.5q-8 -5 -20.5 -16t-26 -22t-27.5 -20.5t-24 -12.5
q-2 0 -2.5 -0.5t-2.5 -0.5q-11 0 -14.5 3t-8.5 8q0 2 -0.5 4.5t-0.5 4.5q0 13 8 27.5t20 32.5q15 23 33 44.5t41 27.5z" />
    <glyph glyph-name="perthousand" unicode="&#x2030;" horiz-adv-x="807" 
d="M144 6q-9 -13 -17.5 -26t-22.5 -13q-2 0 -10 0.5t-10 0.5q-11 0 -17.5 8t-6.5 22q0 6 1 9t1 5q7 23 19.5 42.5t26.5 39.5q16 22 31 43.5t30 44.5q15 24 31.5 50t33.5 55l121 204q5 9 11 19.5t13.5 20t16 16t19.5 8.5h9q17 -4 24.5 -14.5t7.5 -25.5q0 -10 -2 -15
q-2 -11 -8.5 -16.5t-13.5 -13.5q-15 -15 -25 -31q-12 -16 -23.5 -37.5t-22.5 -38.5q-18 -27 -35 -54.5t-35 -54.5q-10 -16 -17 -33.5t-18 -34.5t-22 -35.5t-24 -35.5q-17 -27 -34 -57.5t-32 -51.5zM735 20q-15 -14 -39.5 -23t-50.5 -9q-18 0 -34 5.5t-27 18.5
q-17 21 -18.5 51t-2.5 56q0 2 -0.5 3.5t-0.5 3.5q-2 3 -1.5 4t-2.5 6q-3 4 -3 15q0 10 2 19t8 17q8 11 19.5 18t24.5 11q10 4 20.5 5t21.5 1q22 0 37.5 -5t33.5 -15q10 -5 21.5 -14t19.5 -17q10 -10 13.5 -21t3.5 -24v-7q-1 -25 -9 -49q-2 -7 -6 -13.5t-8 -12.5
q-8 -13 -22 -24zM91 524q0 8 1 15t6 17q6 11 17 19t25 16q5 2 16 6t16 4q48 0 74 -33q10 -12 18.5 -28t8.5 -33v-11.5t-1 -10.5q-5 -33 -21 -60q-9 -16 -24.5 -31.5t-31.5 -24.5q-12 -8 -30 -13t-38 -5t-38.5 7.5t-26.5 24.5q-10 20 -10 39q0 25 13 49q7 14 14 26t12 27z
M461 7q-13 -8 -27 -12.5t-28 -4.5q-4 0 -8 0.5t-9 1.5q-21 4 -41 16.5t-30 32.5q-8 18 -13.5 42.5t-5.5 47.5v13t2 12q0 2 0.5 3.5t0.5 3.5q5 14 14 25t20 22q9 9 24 14t28 6h10q13 0 25.5 -1.5t23.5 -6.5q14 -6 25 -16t21 -21q9 -11 11 -25t6 -28q2 -10 2 -16
q0 -13 -3 -26.5t-7 -24.5q-6 -17 -15.5 -32.5t-25.5 -25.5zM724 111q0 9 -4 14q-8 11 -17.5 18.5t-17.5 9.5q-4 1 -8 1h-7q-11 0 -18 -2.5t-13 -7.5q-7 -5 -12.5 -16.5t-5.5 -19.5v-8q0 -8 1 -15.5t5 -14.5q9 -13 28 -13q12 0 24.5 4.5t22 12t16 17.5t6.5 20zM153 419
q25 8 42 28t17 48q0 3 0.5 6t0.5 5q0 7 -6 11l-2.5 2.5t-4.5 0.5q-12 0 -26 -6t-22 -11q-15 -10 -31 -30.5t-17 -39.5q0 -5 1 -7q3 -6 10 -8.5t15 -2.5q7 0 12.5 1t10.5 3zM456 96q1 4 1 12q0 20 -13 34.5t-34 18.5q-2 0 -3 0.5t-3 0.5q-11 0 -16.5 -6.5t-10.5 -16.5
q-10 -20 -10 -44q0 -7 1 -11q3 -13 12.5 -18.5t21.5 -5.5q17 0 34 10t20 26z" />
    <glyph glyph-name="Scaron" unicode="&#x160;" horiz-adv-x="378" 
d="M45 0zM49 -9q0 2 -0.5 2.5t-0.5 1.5q0 3 1.5 4t1.5 5q0 2 -0.5 3l-1.5 3q-1 1 -0.5 3t-3.5 2q2 9 4.5 13.5t4.5 11.5q8 5 16.5 8.5t21.5 3.5q11 0 31 -5q22 -4 45 -8t36 -4q19 0 22.5 10t3.5 21q0 7 -8.5 23t-20.5 36t-26 41.5t-25 39.5l-13 26q-3 5 -5.5 8t-5.5 8
q-1 2 -1.5 5.5t-2.5 5.5q-2 4 -3.5 8t-3.5 8q-11 26 -18.5 53t-7.5 51q0 32 10 64t43 61q11 10 23 18t29 16l11 5q12 5 26 9t24 6q8 2 14 3t25 1t36.5 -13.5t17.5 -34.5q0 -11 -4.5 -20.5t-10 -17.5t-10 -13t-5.5 -7q-8 0 -11 -3q-2 1 -6 1.5t-5 0.5q-2 -1 -12 -1
q-6 0 -13.5 2t-15.5 2q-31 0 -56 -16.5t-25 -45.5q0 -30 15 -70t45 -86q33 -51 58.5 -92t25.5 -78q0 -45 -29.5 -75t-70.5 -42q-2 -1 -8.5 -3.5t-9.5 -3.5q-2 -1 -6.5 -1h-15.5q-2 0 -4.5 -0.5t-6.5 -0.5q-8 0 -19.5 0.5t-23 1.5t-21.5 2.5t-15 2.5t-15 8t-15 15q-1 1 -1 4
q0 1 0.5 1.5t0.5 2.5t-1 3zM241 697q2 2 4.5 5t4.5 5q7 12 13.5 19.5t10.5 14.5l10.5 14t6.5 7l9 6q8 5 17 5q12 0 22 -9t10 -25q0 -15 -10 -27.5t-20 -22.5q-17 -19 -32 -36.5t-35 -34.5q-12 -5 -19 -5q-26 0 -40 21q-3 5 -8.5 10t-8.5 11q-11 13 -16 21.5t-15 22.5
q-4 3 -6 6t-7 8q-7 7 -9 10t-4 5q-2 4 -5 7q-2 5 -3.5 10t-1.5 11q0 17 11 25q10 7 24 7q11 0 15.5 -1.5t12.5 -8.5q21 -20 35 -40t32 -38z" />
    <glyph glyph-name="guilsinglleft" unicode="&#x2039;" horiz-adv-x="392" 
d="M358 -26q-5 -6 -11.5 -8t-13.5 -2q-10 0 -19 3q-32 11 -66 18t-67 14q-32 7 -63.5 16t-62.5 17q-9 2 -16 12.5t-7 21.5v19q1 15 5.5 22.5t17.5 17.5l65 51q27 22 55.5 41.5t55.5 41.5q11 10 26.5 21.5t29.5 11.5q5 0 10.5 -7.5t10.5 -10.5q2 -3 4 -7t3.5 -12.5t1.5 -15.5
q0 -2 -1 -5t-3 -11q-8 -18 -25 -27t-33 -18q-18 -10 -35 -20t-34 -23q-11 -8 -23.5 -16.5t-20.5 -15.5q-4 -3 -7 -6q-6 -6 -6 -8t2 -4q1 -1 2 -1q3 -2 10 -3.5t9 -2.5l130 -28q14 -3 29 -5.5t29 -9.5q8 -5 17 -16t9 -23q0 -7 -2 -10l-6 -12v0z" />
    <glyph glyph-name="OE" unicode="&#x152;" horiz-adv-x="820" 
d="M773 149q-1 -6 -1 -13t-2 -15q-7 -31 -37 -54.5t-66.5 -39.5t-73 -24t-57.5 -8q-32 0 -54.5 17t-33.5 42q-32 -29 -76.5 -44.5t-101.5 -15.5q-49 0 -87 17t-66 43.5t-47 58.5t-31 62q-2 6 -4 14q0 3 -1 8.5t-1 8.5t-0.5 5.5t-0.5 5.5q0 4 1.5 5.5t1.5 5.5q0 43 12.5 84
t34 77.5t51 67.5t63.5 55q14 10 29 17t32 11q3 3 7 5q0 7 3 10t19 8q14 0 27.5 -3.5t17.5 -7.5q1 -1 4 -1q1 0 2.5 0.5t3.5 0.5q3 0 3 -1t-0.5 -2t-0.5 -2q1 -2 6.5 -1.5t7.5 -0.5l15 -8q6 -3 10.5 -7t9.5 -6q6 -4 11 -10t8 -8q1 -2 2 -2.5t2 -1.5q5 8 18 11q41 11 82.5 25
t84.5 24q17 4 34.5 7t32.5 5q20 0 31 -4t16 -11q1 -1 3 -7t2 -8q1 -1 1 -3t-0.5 -3t-0.5 -2q0 -2 -0.5 -5t-0.5 -5q-3 -8 -14.5 -20.5t-24.5 -12.5q-32 -2 -62.5 -6t-55.5 -11q-9 -3 -16 -6t-15 -6q2 -27 4 -60t2 -59v-31q17 4 41 8.5t49 10.5q17 4 38.5 9.5t42 10t36 7.5
t20.5 3q16 0 26 -17q4 -8 4 -17q0 -2 -0.5 -2.5t-0.5 -2.5q0 -1 -2 -7q-1 -4 -1.5 -7.5t-3.5 -6.5q-5 -5 -10 -9t-12 -8q-17 -10 -30 -10q-9 0 -29 -4.5t-42.5 -10t-43 -11t-32.5 -8.5q-14 -3 -27 -5.5t-24 -5.5q-3 -41 -8 -78.5t-5 -56.5q1 -3 4 -5q5 -5 19 -5q6 0 15 1.5
t26 7.5q7 3 19.5 7.5t27.5 10.5t29.5 13t24.5 14q5 3 8 6l5 5q1 2 5 7t6 11q4 9 13 14l8 3l4 -2q1 1 2.5 1.5t2.5 2.5q2 -2 3 -2q2 0 2 0.5t2 0.5t6.5 -3t6.5 -5q12 -10 12 -26v-4zM312 448q-5 2 -9 3.5t-7 3.5q-30 -4 -60.5 -25.5t-55.5 -53t-40.5 -70.5t-15.5 -78
q0 -29 13 -55t35 -45.5t49.5 -31t56.5 -11.5q66 0 110.5 35t54.5 100l3 43q-3 54 -29 101l-5 7.5t-5 8.5q-2 3 -6.5 6.5t-6.5 6.5q-3 4 -4.5 6.5t-3.5 6.5l-4.5 4.5t-3.5 4.5q-2 5 -13.5 11t-18.5 10z" />
    <glyph glyph-name="glyph141" horiz-adv-x="0" 
 />
    <glyph glyph-name="quoteleft" unicode="&#x2018;" horiz-adv-x="158" 
d="M82 349q-12 5 -18 18t-14 38q-3 8 -5 17l-4 18q-5 23 -8 50t-3 50v9.5t1 9.5q3 27 15 43q6 6 12.5 8t12.5 2t14 -2q17 -7 19 -38q3 -10 6 -23.5t5 -25.5q1 -7 2.5 -21t4.5 -23q3 -11 6.5 -23t10.5 -31q4 -11 6.5 -21t2.5 -20q0 -7 -1 -10q-1 -6 -5 -12.5t-9 -11.5
q-5 -8 -9.5 -10t-10.5 -2q-4 0 -9.5 1t-10.5 3q-4 2 -7 4.5t-4 2.5z" />
    <glyph glyph-name="quoteright" unicode="&#x2019;" horiz-adv-x="197" 
d="M27 366q18 20 27.5 45.5t14.5 51.5l2 9q6 31 6 64q0 2 0.5 4t0.5 4q0 6 1 12t3 12q5 14 16.5 22.5t25.5 8.5q8 0 14 -3l8 -4q5 -3 8.5 -7.5t5.5 -9.5q7 -15 7 -36q0 -17 -4 -29l-2 -7q-3 -13 -5.5 -25.5t-4.5 -23.5q-2 -8 -5 -16l-6 -16l-3 -10q-6 -26 -20.5 -49
t-34.5 -41q-2 -2 -10 -6t-10 -4t-3 -0.5t-3 -0.5h-3q-2 0 -4 1l-4 2q-25 7 -25 30q0 2 0.5 3.5t0.5 3.5q0 4 2 10z" />
    <glyph glyph-name="quotedblleft" unicode="&#x201c;" horiz-adv-x="349" 
d="M79 303q-8 -3 -15 -3q-12 0 -19 9t-11 21q0 1 -1 3q-2 4 -2 8q-1 4 -1 12q0 18 6 35q1 2 1.5 5t2.5 5q6 26 21.5 57t29.5 56q4 6 5 9q10 17 19 28t24 25l8 7q2 2 6.5 2.5t7.5 2.5q8 2 11 2q15 0 23 -9t8 -24v-6q0 -7 -1 -10q0 -4 -0.5 -7t-0.5 -5v-5q0 -4 -4.5 -14
t-9.5 -19q-2 -2 -2.5 -4t-2.5 -4q-9 -13 -18.5 -28.5t-18 -32t-16 -33t-13.5 -31.5q-3 -5 -4 -11q-6 -11 -12.5 -23.5t-20.5 -17.5zM221 417q0 3 2 9q2 5 3.5 9t3.5 8q1 3 3 7t10 16q23 33 63 63l10 5q3 1 6.5 2t7.5 1q5 0 7 -1q4 -2 7 -4q14 -11 14 -31q0 -14 -6 -29.5
t-14 -26.5l-2 -4t-3 -4q-6 -9 -13 -18t-14 -19q-9 -15 -13 -30l-3 -8q-4 -13 -9 -22q-8 -14 -25 -19l-8 -2q-10 0 -15 2l-4 2t-4 3q-5 5 -6.5 10.5t-3.5 11.5q-1 0 -1 1v3q-1 5 -1 15q0 24 8 50z" />
    <glyph glyph-name="quotedblright" unicode="&#x201d;" horiz-adv-x="376" 
d="M98 315q-8 -13 -20.5 -20t-24.5 -7t-20.5 6.5t-11.5 23.5v4q0 4 0.5 9t2.5 8q2 2 5.5 11.5t5.5 11.5l19 33q9 18 19 36t15 39q2 9 4 20t4 20q1 8 3 17t4 15t6 12.5t10 11.5q8 5 21 5q2 0 4.5 0.5t4.5 0.5q9 0 12 -3q11 -11 17.5 -22.5t6.5 -31.5q0 -19 -7 -40t-17 -40
q0 -3 -2.5 -9.5t-6 -14l-7 -15t-6.5 -12.5q-11 -20 -21 -37.5t-20 -31.5zM294 303q-2 -3 -5 -7q-6 -8 -10 -12q-4 -3 -7.5 -7t-5.5 -6q-13 -10 -26 -10q-25 0 -34 26q-1 4 -1.5 6.5t-0.5 7.5q1 11 10 21.5t15 21.5t12 28t8 25q3 12 7 28.5t4 27.5q0 3 0.5 10.5t1 15.5
t1 15.5t0.5 10.5q0 38 37 38q14 0 30 -15t16 -43q0 -18 -2.5 -35.5t-8.5 -46.5q-5 -17 -11 -32.5t-8 -26.5q-2 -8 -9 -21.5t-13 -19.5z" />
    <glyph glyph-name="bullet" unicode="&#x2022;" horiz-adv-x="243" 
d="M63 141q0 19 12 34q2 2 4 5.5t4 4.5q4 4 5 5.5t6 3.5q2 2 5 3.5l5 2.5l10 2t10 1q6 0 15.5 -6.5t18.5 -17t16 -23.5t7 -25q0 -6 -2 -14q0 -3 -2 -7q-1 -3 -2.5 -6.5t-3.5 -7.5q-2 -3 -6 -7l-7 -7q-13 -11 -25 -11q-3 0 -6.5 0.5t-5.5 0.5l-12 3q-2 2 -4.5 3.5t-5.5 3.5
q-14 8 -19.5 19t-13.5 24q-3 6 -3 11v5v0z" />
    <glyph glyph-name="endash" unicode="&#x2013;" horiz-adv-x="595" 
d="M367 256q11 0 26.5 0.5t30 1t26 1t14.5 0.5q12 0 23.5 3t17.5 5q5 2 10.5 3t15.5 1q5 0 11 -4.5t11 -10.5q4 -4 7 -12.5t3 -14.5q0 -21 -7 -32q-6 -6 -14.5 -9.5t-17.5 -5.5q-14 -3 -29 -4t-26 -1q-6 0 -23.5 -1.5t-37.5 -3.5t-36.5 -3.5t-19.5 -1.5q-11 0 -26 1.5
t-35 1.5q-5 0 -10.5 -0.5t-10.5 -0.5q-4 0 -10 -0.5t-13 -0.5q-13 0 -26.5 0.5t-21.5 0.5q-14 0 -29.5 -1t-29 -2t-23.5 -2t-13 -1q-5 -1 -16 -3.5t-17 -2.5q-5 0 -13.5 1.5t-13.5 5.5q-5 5 -5.5 8t-3.5 10l-2 6q-1 3 -1 10q0 6 0.5 9.5t2.5 7.5q4 5 9.5 7t12.5 5q3 0 12 3
t19.5 6t20 6t12.5 3t11 1t16.5 2.5t16.5 2.5t11 1l66 3z" />
    <glyph glyph-name="emdash" unicode="&#x2014;" horiz-adv-x="889" 
d="M110 160q-10 0 -20.5 -3.5t-15.5 -3.5q-6 2 -15 4.5t-14 6.5q-5 5 -9 14.5t-4 14.5q0 2 0.5 3t0.5 3q1 5 1.5 11t7.5 11q5 5 13.5 8t16.5 6q4 1 12 2.5t17 3t17.5 3t13.5 2.5q3 0 13 0.5t23 1l26 1t23 0.5h16q14 0 34 0.5t39.5 1t35.5 1t23 0.5h27.5t29.5 -0.5t25 -0.5
h14h21t37 -0.5t45 -1t45 -1t36.5 -1t20.5 -0.5q21 -2 39 -3t33 -1q21 0 35 0.5t22 0.5q8 -1 16 -4t13 -7q6 -4 12 -11q2 -3 5.5 -6.5l5.5 -5.5q3 -4 6 -6q0 -2 1 -5q2 -6 2 -11q0 -6 -6 -14q-3 -4 -5 -8q-8 -8 -21 -11t-21 -3q-3 0 -8.5 0.5t-10.5 0.5q-6 0 -12 1
q-7 0 -18.5 0.5t-24.5 0.5h-25t-20 1q-11 0 -22 1q-10 1 -21.5 1.5t-22.5 0.5q-7 1 -34 3t-58 4t-57 4t-31 2q-11 0 -30.5 -0.5t-39.5 -1t-36 -1t-20 -0.5h-21t-31.5 -0.5t-30.5 -0.5h-17q-5 0 -16.5 -0.5t-24.5 -1t-24.5 -1t-15.5 -0.5z" />
    <glyph glyph-name="tilde" unicode="&#x2dc;" 
d="M60 409q-7 -4 -17 -4q-8 0 -16 3t-13 10q-2 2 -2.5 4.5t-1.5 4.5q-1 3 -1 9q0 3 2 9l3 10q5 10 12 18.5t14 16.5l6 7l9 8q12 10 25 14t27 4q26 0 58 -10.5t85 -25.5q2 0 4 -0.5t4 -0.5q2 -1 3.5 -2t3.5 -1h2q1 0 1 1q12 8 23 21.5t25 13.5q6 0 14 -5q12 -8 12 -25
q0 -14 -7 -29t-13 -26l-5 -7q-13 -14 -29.5 -19t-34.5 -5q-12 0 -23.5 2t-22.5 5q-2 0 -3.5 0.5t-3.5 0.5l-15 4q-12 4 -24 7.5t-24 6.5l-10 2q-5 1 -10.5 2.5t-10.5 1.5q-6 0 -9 -2q-8 -3 -14.5 -10.5t-15.5 -9.5z" />
    <glyph glyph-name="trademark" unicode="&#x2122;" horiz-adv-x="862" 
d="M516 316q0 -21 -9 -36t-29 -15q-5 0 -13 2h-10l-4 8q-7 13 -9.5 25t-2.5 26q0 11 1.5 22t2.5 22l3 10q0 2 0.5 4.5t0.5 3.5q1 3 1 7q5 35 9 72.5t6 82.5q1 15 2.5 28.5t6 24t13.5 16.5t24 6q17 0 29 -11t22 -26l62 -91q5 -5 6 -5q5 0 12 7q17 13 33.5 30.5t35.5 38.5
l3.5 3.5l3.5 3.5q7 11 16.5 22.5t21.5 16.5q2 2 2.5 2t2.5 1q20 -1 31 -15t15 -31v-9q3 -29 3.5 -54.5t0.5 -53.5v-136q0 -7 0.5 -13t0.5 -11q0 -11 -3 -20q-2 -10 -8.5 -20.5t-18.5 -10.5q-4 -1 -11 -1q-16 0 -23 10.5t-9.5 25.5t-2.5 32t-1 29v7q0 5 -0.5 10t-0.5 9
q0 3 -0.5 5.5t-0.5 5.5q-1 22 -1 44.5v46.5q-9 -5 -21.5 -13.5t-23.5 -17.5l-13 -8q-14 -9 -27 -18t-28 -11h-11q-9 0 -14 4q-2 1 -6 5q-6 5 -10.5 12t-9.5 14q-2 3 -6 8.5t-8 10.5q-4 6 -9 14q-3 2 -6 2q-2 0 -2 -4q-2 -22 -5 -43q-2 -18 -5.5 -37t-5.5 -32q0 -2 -0.5 -8.5
t-2.5 -14.5v-14zM199 260q-2 5 -5 9.5t-5 9.5l-3 9q-3 15 -4.5 28t-2 25t-1 24.5t-1.5 27.5v9q-1 14 -1 28v29v10q0 5 0.5 7t0.5 7q0 3 -0.5 8t-0.5 8v6q0 11 0.5 20t0.5 17l-82 -4q-14 -3 -28 -3q-23 0 -34 10l-7 6q-5 8 -7 14.5t-2 15.5q0 14 13 27t31 13q2 0 12 -0.5
t15 -0.5h119q63 0 128 6q5 0 9 1q5 1 9 1h9q10 0 19 -2t18 -9q4 -2 5 -6q2 -1 2.5 -2t1.5 -2t1 -2q1 -6 4 -10t3 -9q0 -8 -7 -15l-8 -8q-5 -3 -10 -4.5t-10 -3.5l-8 -2q-25 -2 -51.5 -2.5t-52.5 -4.5l-15 -2l-3 -25q-2 -5 -2 -10.5v-10.5t0.5 -10t0.5 -10q0 -7 -1 -9t-1 -9
v-42v-28t2 -32q2 -10 2 -18q2 -9 3 -20t1 -22t-2 -21t-7 -21q-2 -2 -2.5 -4.5t-2.5 -3.5q-4 -1 -7.5 -1.5t-8.5 -0.5q-15 0 -22 10z" />
    <glyph glyph-name="scaron" unicode="&#x161;" horiz-adv-x="341" 
d="M32 0zM35 2q0 6 -1 8q0 8 -2 9q2 4 7 8t6 9q3 3 9 4.5t9 1.5q11 0 30.5 -4t37.5 -4q26 0 34 4t8 14q0 14 -8.5 35.5t-23.5 53.5q-11 24 -23 54t-12 53q0 24 9 44.5t24.5 35.5t36.5 23t44 8q3 1 6.5 1t5.5 2q3 0 6.5 0.5t7.5 0.5q18 0 34 -7q3 -2 11 -5t11 -5q2 -2 5.5 -6
t6.5 -10q-2 -4 -2.5 -13t-0.5 -14t-2 -13q-3 -9 -14.5 -18.5t-28.5 -9.5q-21 0 -32 3.5t-26 3.5q-18 0 -18 -19q0 -16 8 -34.5t19 -46.5q11 -31 23 -61t12 -61q0 -42 -29 -73t-92 -31q-49 0 -69.5 17.5t-26.5 41.5zM231 500q2 2 4.5 5t4.5 5q7 12 13.5 19.5t10.5 14.5
l10.5 14t6.5 7l9 6q8 5 17 5q12 0 22 -9t10 -25q0 -15 -10 -27.5t-20 -22.5q-17 -19 -32 -36.5t-35 -34.5q-12 -5 -19 -5q-26 0 -40 21q-3 5 -8.5 10t-8.5 11q-11 13 -16 21.5t-15 22.5q-4 3 -6 6t-7 8q-7 7 -9 10t-4 5q-2 4 -5 7q-2 5 -3.5 10t-1.5 11q0 17 11 25
q10 7 24 7q11 0 15.5 -1.5t12.5 -8.5q21 -20 35 -40t32 -38z" />
    <glyph glyph-name="guilsinglright" unicode="&#x203a;" horiz-adv-x="368" 
d="M327 99q-17 -17 -37.5 -28t-39.5 -24q-6 -4 -9 -5q-13 -8 -26.5 -15t-27.5 -14l-67 -31l-7 -5q-2 -2 -5.5 -3.5t-6.5 -2.5q-6 -2 -8 -2q-3 -1 -8 -1q-13 0 -22.5 8.5t-9.5 23.5v12q0 12 10 22q2 1 6 5q31 14 61.5 26.5t60.5 28.5l6 3q11 7 26 14.5t16 15.5
q-9 17 -29 28.5t-39 23.5l-36 18l-28 12l-20 12q-2 1 -6 5q-2 2 -3 5t-2 5q0 2 -0.5 3.5t-0.5 3.5v7q0 5 1 7q0 2 2 6q2 7 6 11l11 10q6 3 12 3q5 0 7 -1q3 0 7 -2q4 -1 7.5 -2.5t7.5 -3.5q8 -4 15 -8t14 -6l27 -13q10 -5 19.5 -11.5t18.5 -12.5q10 -6 19.5 -11.5
t17.5 -12.5q0 -1 4 -4t9 -7t13 -10q15 -6 28 -19l6 -6t5 -7q4 -12 4 -22q0 -6 -1 -10.5t-2 -9.5z" />
    <glyph glyph-name="oe" unicode="&#x153;" horiz-adv-x="794" 
d="M270 39q-3 0 -7.5 -2.5t-8.5 -2.5q-4 -4 -8 -7t-13 -5q-12 -6 -26 -10t-32 -4q-32 0 -54.5 12t-36.5 31t-20.5 41.5t-6.5 43.5q0 19 2 35.5t7 33.5q2 8 4 14t5 14l10 24q1 3 2.5 8t4.5 10q4 10 11 20q21 35 48 54t56 19q1 -1 2.5 -1t3.5 -1t3.5 -1t2.5 -1t5 -1
q-1 -1 -1 -2v-1q0 -3 4 -4q18 -5 38.5 -21.5t37.5 -39.5t28 -51.5t11 -57.5v-6.5t-1 -6.5q15 -2 33 -4t36 -3.5t34.5 -3t27.5 -1.5q12 0 16 1q1 40 10.5 76.5t27.5 64.5t44.5 44.5t61.5 16.5q8 0 14.5 -1.5t8.5 -3.5l16 -6q5 -2 10.5 -4t8.5 -6q6 -4 10 -10q5 -6 10 -13
q13 -21 13 -44q0 -26 -11 -51t-29.5 -48t-44 -42.5t-55.5 -32.5q18 -20 49 -20q26 0 45 3.5t41 3.5q6 0 12.5 -1.5t9.5 -2.5q1 -2 6.5 -6t5.5 -12q0 -3 -1 -4.5t-1 -3.5t1 -3q-2 -2 -2 -7q0 -4 1 -6q-1 -2 -4 -6.5t-3 -8.5v-2q0 -1 1 -1q-2 0 -6 -3.5t-9.5 -7.5t-11.5 -8.5
t-10 -5.5q-2 -1 -4.5 -1t-4.5 -1q-4 0 -5 -1q-1 0 -1.5 0.5t-1.5 0.5t-1.5 -0.5t-1.5 -0.5q-4 2 -8 2q-7 0 -11 -0.5t-8 -1.5t-9.5 -1.5t-15.5 -0.5q-38 0 -74.5 22t-56.5 63h-14q-11 0 -33.5 1.5t-48 3.5t-50 5.5t-38.5 6.5q-16 -31 -43 -53zM207 269q-2 -2 -3 -2
q-2 -1 -4.5 -2t-4.5 -1q-5 -1 -9 -1t-9 -5q-6 -2 -9 -5.5t-11 -15.5q-14 -15 -19 -40.5t-5 -48.5q0 -25 13 -38.5t36 -13.5q38 0 65.5 22.5t27.5 67.5q0 34 -18.5 58t-47.5 27zM633 274q-2 1 -6 1q-14 0 -26.5 -14.5t-20.5 -31.5q-4 -10 -7.5 -22t-5.5 -27q12 1 25 8.5
t24.5 18t19 23t7.5 25.5q0 10 -6 16z" />
    <glyph glyph-name="Ydieresis" unicode="&#x178;" horiz-adv-x="462" 
d="M19 0zM126 -11q13 40 28.5 76t26.5 61q6 14 11.5 29.5t9.5 25.5q-8 15 -18 34t-19.5 37.5t-19 36t-15.5 31.5q-3 5 -3.5 8.5t-2.5 7.5q-3 6 -6 11t-5 8l-11 25q-2 3 -2.5 6t-2.5 5q-11 23 -22.5 39.5t-27.5 36.5q-13 17 -18.5 23.5t-7.5 13.5q-2 6 -2 9q0 5 2 15
q0 2 2 10q3 6 7.5 10.5l7.5 7.5h18t18 2q19 -3 37 -21q8 -8 14 -17t12 -19l9 -15q10 -20 11 -28q3 -2 8 -11t8 -17q7 -16 17 -37t21 -43.5t22 -45.5t20 -42q14 29 27 62.5t23 56.5q11 26 26.5 59.5t23.5 64.5q4 7 7.5 16.5t7.5 18.5t8 15t9 6q9 0 10 -1t13 -1q2 0 5 -2
t11 -8q5 -4 8.5 -10.5t5.5 -13t3 -12t1 -7.5q0 -11 -4 -26.5t-10 -31.5q-4 -5 -13 -22.5t-20 -42.5t-24 -53.5t-26 -54.5q-11 -22 -24.5 -52.5t-28 -63.5t-28.5 -65.5t-25 -57.5q-1 -5 -4.5 -13.5t-8.5 -18t-10.5 -19t-9.5 -15.5q-7 -11 -9 -20t-7 -15q-7 -7 -12 -10.5
t-16 -3.5q-10 0 -17.5 4.5t-12.5 10.5q-5 2 -7.5 7.5t-4.5 8.5q2 6 2 7q0 2 -0.5 4.5t-0.5 4.5q0 5 1 8zM346 651q-11 -26 -34 -40q-3 -2 -9 -4q-3 -1 -8 -1t-7 1q-8 1 -13 8q-4 2 -6.5 5.5t-4.5 7.5t-2.5 8t-1.5 9q0 11 1 16v10q0 6 1 8l5 9q1 4 5 6q3 2 4 3l3 3q2 0 3 1.5
t3 2.5q4 2 8 2l7 2h13l10 -4t10 -7q4 -3 7 -7q1 -5 3.5 -9t3.5 -9q1 -3 1 -8t-2 -13zM184 638q-4 -12 -13.5 -17.5t-20.5 -5.5t-21.5 6t-15.5 17l-3 8q0 1 -0.5 3t-0.5 5v8q0 5 1 9l3 8q2 6 4 9q1 4 5 6q8 9 14 12q7 4 18 4q3 0 9 -2q10 -3 17 -11q1 -3 5 -7q3 -4 5 -12
q2 -6 2 -11q0 -3 -0.5 -4.5t-0.5 -3.5t-0.5 -3.5t-0.5 -3.5q-2 -4 -2 -7z" />
    <glyph glyph-name="uni00A0" unicode="&#xa0;" horiz-adv-x="380" 
 />
    <glyph glyph-name="exclamdown" unicode="&#xa1;" horiz-adv-x="285" 
d="M106 -197q-6 2 -10 5q-4 2 -7 5t-3 6q0 5 -1 9q-1 3 -2.5 6t-3.5 3q1 2 1 5q0 4 -1.5 7.5t-1.5 8.5q0 8 1 14.5t1 12.5q0 2 1.5 12t3.5 21t3.5 21t1.5 12q0 3 1.5 10t3 14.5t3 14.5t1.5 9q0 3 1.5 11t3 18.5t3.5 21.5t4 19q0 2 2.5 13.5t5.5 24.5l8 34q3 14 6.5 30.5
t6 31t4.5 26t2 14.5q0 6 3 12q1 4 3 7q1 4 3 8q2 3 3.5 6.5t5.5 7.5q5 2 11.5 3.5t9.5 1.5q5 0 9.5 -5t9.5 -10q4 -3 6.5 -8t3.5 -8t1 -9v-6q0 -5 -1 -11t-3 -7q0 -7 -5 -20q-1 -8 -2.5 -24t-1.5 -21q-2 -10 -5.5 -32t-8 -50t-9.5 -58.5t-9 -56t-6.5 -43.5t-2.5 -21
q-1 -17 -2 -29.5t-1 -17.5t-1.5 -16.5t-2.5 -14.5q-2 -7 -6 -12.5t-9 -5.5q-2 -2 -4.5 -2t-4.5 -1q-3 -1 -5 -1l-1 1q-1 0 -3 0.5t-4 0.5zM210 369q-8 -5 -14 -7t-15 -2q-12 0 -16 3q-2 2 -6 4t-6 7q-4 3 -6 16q-1 3 -1 7.5v7.5q0 7 2 13.5t6 14.5q2 3 7.5 9t10.5 9q5 1 9 1
h9q19 0 30 -20q2 -5 4 -12t2 -13q0 -2 1 -4q0 -2 0.5 -4t0.5 -5q0 -12 -5 -17l-4 -4q-6 -4 -9 -4z" />
    <glyph glyph-name="cent" unicode="&#xa2;" horiz-adv-x="501" 
d="M404 65q-5 -3 -11 -6q-5 -2 -12.5 -4.5t-15.5 -4.5t-18 -3.5t-19 -2.5q-11 -2 -22 -2l-28 -2q-5 -1 -10.5 -1h-8.5l-3 -55q-2 -20 -2 -42t-3 -41.5t-10.5 -34t-24.5 -18.5q-26 0 -32 16t-6 34q0 16 1 31.5t3 49.5q0 2 -0.5 5.5t-0.5 5.5l4 54q-11 2 -22 7.5t-19 11.5
l-11 8q-12 7 -24 16.5t-21 25.5t-15 40t-6 59q0 18 1 33t5 32t10.5 37.5t18.5 47.5q6 13 18 35.5t31.5 46.5t46 45t60.5 30q7 17 14.5 46t12.5 61q2 14 10 29.5t23 20.5q7 3 17 3q3 0 10.5 -1.5t11.5 -6.5q8 -12 11.5 -22t3.5 -24q0 -8 -2.5 -18.5t-5.5 -17.5l-6 -15
q-7 -17 -11.5 -30.5l-7.5 -22.5q12 -2 23.5 -5.5t22.5 -8.5l4 -2q19 -11 31.5 -25.5t12.5 -34.5l-2 -15q-4 -9 -13.5 -14.5t-19.5 -5.5q-3 0 -11 2t-36 13l-16 4t-17 4l-3 -10q-5 -15 -8.5 -32t-6.5 -35l-9 -54q-5 -45 -14 -88t-11 -90h25h7.5t12.5 1q15 1 26.5 3.5
t22.5 4.5t22 3.5t26 1.5q8 0 16 -5.5t8 -22.5t-7 -26t-21 -19zM238 409q-28 -26 -46 -48.5t-28 -45t-14 -45.5t-4 -51q0 -29 7.5 -51.5t37.5 -36.5l7 44q2 20 5 39t7 39l11 67z" />
    <glyph glyph-name="sterling" unicode="&#xa3;" horiz-adv-x="632" 
d="M553 289q3 -6 3 -12q0 -16 -14 -28.5t-28 -12.5q-5 0 -7 0.5t-4 0.5q-13 2 -36.5 5t-36.5 4q-38 2 -76.5 3t-77.5 2l-14 -72q-2 -8 -4.5 -19.5t-5.5 -23t-6 -20t-5 -9.5q4 0 9.5 0.5t13.5 0.5q6 0 12.5 -0.5t14.5 -1.5q27 -3 53 -11.5t50.5 -16.5t48 -14.5t45.5 -6.5
q16 0 26 5q2 1 12.5 6t11.5 5q14 -5 23 -16t9 -26q0 -8 -1 -12t-3.5 -9.5t-4.5 -10.5q-3 -7 -11.5 -10.5t-18.5 -6.5q-13 -5 -30 -5q-32 0 -56.5 5t-47.5 11q-13 3 -21.5 5.5t-15.5 4l-14 3t-17 3.5q-17 4 -38 6t-47 2q-17 0 -35 -4.5t-36 -10.5t-34.5 -10.5t-29.5 -4.5
q-17 0 -24 10.5t-7 26.5q0 8 2 13.5t4 10.5q5 9 13.5 14.5t16.5 10.5q19 12 29 25.5t16 29t9.5 33.5t8.5 39q3 11 6 24.5t5 27.5q-35 0 -69 -1t-69 -4h-7q-8 0 -14 2t-11 9q-10 15 -10 30q0 7 1.5 14t6.5 12q20 10 55.5 16t86.5 6h46q11 44 26.5 88.5t40.5 80.5
q28 41 65.5 63t86.5 22q11 0 21.5 -2.5t21.5 -4.5q10 -2 19.5 -5.5t18.5 -6.5q13 -5 19.5 -12t6.5 -21q0 -15 -10.5 -26.5t-21.5 -16.5t-28 -5q-16 0 -27 2t-25 3q-14 0 -26.5 -3.5t-23.5 -11.5q-14 -10 -19 -15t-15 -19q-16 -23 -24.5 -52t-15.5 -60q13 0 27 -0.5t28 -0.5
q32 0 68 -0.5t68 -5.5q20 -3 39 -10.5t29 -27.5z" />
    <glyph glyph-name="currency" unicode="&#xa4;" horiz-adv-x="658" 
d="M396 87q-26 -11 -54 -14t-58 -3q-13 0 -27.5 1t-29 4t-27 9t-21.5 16q-8 -9 -14.5 -14t-21.5 -24l-21 -26l-13 -12q-8 -7 -14.5 -8t-14.5 -1q-16 0 -23.5 6.5t-7.5 24.5q0 16 9.5 28t20.5 26q14 14 23.5 27t32.5 34q-8 17 -11 36.5t-3 39.5q0 36 7 70.5t35 71.5l-10 20
q-5 11 -11 21.5t-15 23.5q-8 10 -16 23t-8 27v7q11 24 28 24q5 0 17 -6.5t25 -27.5l34 -57q20 15 42.5 26.5t54.5 11.5q22 0 42 -5.5t39 -19.5q8 -6 17.5 -14t20.5 -21l71 65q17 18 35 32.5t41 14.5q31 0 31 -32q0 -10 -7 -20t-18 -20.5t-24.5 -21t-26.5 -20.5
q-8 -6 -16 -13t-16 -18l-28 -27q16 -30 22.5 -59.5t6.5 -63.5q0 -8 -1 -20.5t-4.5 -26.5t-10 -28.5t-16.5 -26.5l-4 -3q6 -11 14 -25t15 -27.5t12 -26t5 -20.5q0 -11 -6 -19t-15 -8q-23 0 -34 12t-24 32zM300 157q19 0 41 3t40.5 12t31 26.5t12.5 46.5q0 31 -15.5 65
t-58.5 69q-1 1 -4 1q-4 0 -8.5 -3.5t-11.5 -3.5q-6 0 -14 1t-36 5q-2 0 -15 -6t-27.5 -21t-26.5 -41.5t-12 -66.5q0 -8 2.5 -23t12.5 -29t31 -24.5t58 -10.5z" />
    <glyph glyph-name="yen" unicode="&#xa5;" horiz-adv-x="611" 
d="M237 293q1 5 1 8.5v6.5l-90 135q-2 3 -9.5 15t-16 26t-16.5 28l-12 21q-6 10 -16 27t-10 28q0 3 -1 9t-1 11q0 8 6 17t11 14q4 3 9.5 6t13.5 3q5 0 9.5 -1.5t8.5 -3.5l8 -4q2 -2 6 -5q2 -2 5 -5.5t5 -5.5l10 -20t17.5 -34.5t18.5 -36t12 -24.5q9 -19 16.5 -31.5t15.5 -24
t17.5 -24.5t22.5 -32q6 -7 11.5 -13t8.5 -6t9.5 3.5t12.5 8t11.5 9t7.5 5.5q17 13 35 24.5t37 22.5q23 14 44.5 26t43.5 25q15 8 26.5 11.5t28.5 3.5q18 0 31.5 -9.5t13.5 -30.5v-8q0 -11 -4.5 -18.5t-12.5 -14.5q-11 -9 -26.5 -15t-28.5 -12q-32 -17 -65.5 -35.5
t-63.5 -39.5q-12 -8 -31 -18t-30 -19q12 0 25 0.5t28 0.5h29q20 0 39.5 -3.5t33.5 -18.5q11 -13 11 -33q0 -11 -4 -18q-6 -9 -15.5 -12t-20.5 -3q-5 0 -9.5 0.5t-9.5 0.5q-21 2 -42.5 3t-43.5 1h-43q-7 -36 -10.5 -57.5t-5.5 -31.5q-5 -21 -7.5 -41.5t-4.5 -33.5
q-1 -11 -3.5 -25t-7 -27t-12.5 -21.5t-20 -8.5q-11 0 -22 7l-8 5q-9 11 -11 21t-2 24q0 24 5 51t8 48q0 3 2 13.5t4 23.5t4 25.5t3 19.5v3.5t1 7.5q-11 0 -19 -0.5t-29 -2.5q-23 -2 -44.5 -3.5t-44.5 -1.5q-15 0 -28 3q-26 6 -26 32q0 12 4 20q7 13 17.5 19.5t23.5 9.5
q7 2 18.5 2h19.5l59 -2h58z" />
    <glyph glyph-name="brokenbar" unicode="&#xa6;" horiz-adv-x="292" 
d="M163 372q-6 -6 -18 -6q-11 0 -20.5 4.5t-11.5 12.5q-1 2 -2 6l-2 6t-1 6q0 9 1.5 31t1.5 39v24.5t0.5 33t0.5 30v15.5l3 66q0 5 4 10.5t7 11.5t12.5 8t17.5 2q14 0 24 -10.5t10 -26.5v-5q-2 -7 -3 -12t-1.5 -9.5t-0.5 -6.5q-2 -12 -4 -35.5t-3.5 -47t-2.5 -42.5t-1 -23
q0 -10 2.5 -27t3.5 -27q-2 -3 -3 -6q-3 -6 -3 -11zM105 204q0 10 3 20.5t14 14.5q3 0 9.5 -0.5t14 -2t13.5 -3t8 -3.5q1 -1 4 -5.5t4 -13.5v-33q-2 -14 -3 -31.5t-2 -37t-1 -38.5v-35v-29.5t1 -16.5q-1 -12 -2.5 -21t-2.5 -17q-5 -5 -9 -6.5t-21 -1.5q-20 5 -26 23.5
t-6 38.5v122q0 22 1 37t1 26v13z" />
    <glyph glyph-name="section" unicode="&#xa7;" horiz-adv-x="441" 
d="M179 -55q0 -1 3 -1q2 0 4 0.5t4 0.5t5.5 -2.5t6.5 -3.5q1 -1 2 -1t3 -2q7 -3 10 -3q8 -4 11 -4q8 0 11 7t3 16q0 12 -5.5 25.5t-13.5 26.5q-8 15 -16 24.5t-19 21.5q-22 24 -42.5 49.5t-37 50.5t-26.5 49t-10 45q0 16 1.5 26.5t4.5 23.5q2 16 11.5 33t23.5 33t31.5 30
t36.5 25q-5 14 -8.5 27.5t-3.5 25.5q0 37 17 61.5t31 36.5q17 16 40 23.5t47 7.5q23 0 38.5 -4t31.5 -15q8 -5 11.5 -14.5t3.5 -17.5q0 -6 -2.5 -13.5t-7 -14t-11.5 -11.5t-17 -5q-4 0 -11 1t-12 3q-2 1 -7 4.5t-8 4.5q-5 1 -8 2t-14 1q-14 0 -23 -10.5t-9 -28.5
q0 -23 9.5 -43.5t15.5 -28.5q11 -18 24.5 -38t25 -41t19 -43t7.5 -45q0 -20 -8 -40.5t-22 -38.5t-33 -33t-41 -25q20 -23 35 -44t22 -35q9 -17 12 -30.5t3 -36.5q0 -22 -9.5 -40.5t-24 -32.5t-31.5 -22.5t-31 -8.5q-12 0 -23.5 1t-22.5 3l-11 4q-2 1 -4.5 1.5t-5.5 3.5
q-11 5 -16 12q-12 12 -15 23q0 5 0.5 10t0.5 10l3 8q2 5 5 7q2 0 2.5 2.5t2.5 2.5h1q1 0 2 -1q0 3 1 3t1.5 -1t1.5 -1q2 0 2 3q3 -3 4 -3q3 0 8 5q1 0 1.5 -0.5t1.5 -0.5q2 0 3.5 1.5t2.5 1.5v-1q0 -1 0.5 -1t0.5 -1zM213 175q23 8 39.5 22t16.5 40q0 18 -10 35.5t-25 43.5
q-3 4 -5.5 8.5t-6.5 9.5l-19 -11q-16 -8 -32.5 -23t-16.5 -42q0 -23 12.5 -45t29.5 -44z" />
    <glyph glyph-name="dieresis" unicode="&#xa8;" 
d="M295 442q-11 -26 -34 -40q-3 -2 -9 -4q-3 -1 -8 -1t-7 1q-8 1 -13 8q-4 2 -6.5 5.5t-4.5 7.5t-2.5 8t-1.5 9q0 11 1 16v10q0 6 1 8l5 9q1 4 5 6q3 2 4 3l3 3q2 0 3 1.5t3 2.5q4 2 8 2l7 2h13l10 -4t10 -7q4 -3 7 -7q1 -5 3.5 -9t3.5 -9q1 -3 1 -8t-2 -13zM133 429
q-4 -12 -13.5 -17.5t-20.5 -5.5t-21.5 6t-15.5 17l-3 8q0 1 -0.5 3t-0.5 5v8q0 5 1 9l3 8q2 6 4 9q1 4 5 6q8 9 14 12q7 4 18 4q3 0 9 -2q10 -3 17 -11q1 -3 5 -7q3 -4 5 -12q2 -6 2 -11q0 -3 -0.5 -4.5t-0.5 -3.5t-0.5 -3.5t-0.5 -3.5q-2 -4 -2 -7z" />
    <glyph glyph-name="copyright" unicode="&#xa9;" horiz-adv-x="715" 
d="M524 34q-39 -32 -86 -48.5t-95 -16.5q-23 0 -45.5 2t-45.5 6q-24 4 -48 16.5t-45.5 30.5t-38.5 40t-28 45l-13 26q-7 21 -12 37.5t-8.5 32t-5 32.5t-1.5 39q0 24 3 48q6 38 17.5 68.5t31.5 62.5q29 46 77.5 78.5t99.5 46.5q33 10 62 15t63 5q21 0 39 -2t46 -10
q24 -6 41.5 -14.5t37.5 -23.5q18 -14 32 -29.5t23 -35.5q10 -21 17 -38.5t11.5 -35t7 -37t2.5 -46.5q0 -33 -6.5 -65.5t-17.5 -63t-25 -57t-30 -47.5q-17 -23 -31 -36t-29 -25zM378 518q-22 -10 -46.5 -13.5t-50.5 -5.5q-7 0 -11 -1q-45 -8 -78 -44t-47 -78q-17 -48 -17 -96
q0 -31 3 -53t9 -45q5 -19 12.5 -35t23.5 -33q14 -15 28 -24.5t28 -15.5l10 -4q42 -19 89 -19q71 0 118.5 26.5t79.5 65.5q27 33 40.5 76t13.5 87q0 11 0.5 20t0.5 17q0 10 -1 15q-2 14 -4.5 25.5t-4.5 19.5q-2 16 -6.5 25.5t-10.5 18.5q-10 17 -27.5 31.5t-34.5 22.5
q-12 6 -23.5 9.5t-23.5 5.5t-26 3t-33 1zM458 166q-1 -3 -5 -7q-18 -15 -42.5 -15.5t-46.5 -2.5l-18 -2t-16 -1q-13 0 -25 1.5t-28 6.5q-9 3 -20 11t-21 19.5t-17 25.5t-8 29v15q1 17 5.5 32t12.5 30q7 14 13 24.5t14 21.5q16 22 35.5 41.5t42.5 33.5q8 5 17 9t18 4
q2 0 3.5 -0.5t3.5 -0.5q8 -2 18 -8.5t12 -14.5q3 -9 3 -25q0 -12 -3 -18q-2 -4 -5 -8q-5 -7 -10 -7q-21 -4 -44.5 -22.5t-39.5 -37.5q-8 -10 -12.5 -22.5t-4.5 -25.5q0 -4 2 -10q5 -15 28 -18t46 -3h58q14 0 24 -5t14 -23q2 -8 2 -11q0 -10 -6 -16z" />
    <glyph glyph-name="ordfeminine" unicode="&#xaa;" horiz-adv-x="335" 
d="M90 480q-5 1 -6.5 1t-7.5 2l-6 4q-1 1 -4 3.5t-3 4.5l1 3q-2 1 -5.5 4.5t-3.5 8.5q0 16 9.5 21t20.5 12l10 6q16 9 38 18t45 9q48 0 74 -26t26 -71v-11q2 -26 2 -51.5v-52.5v-46q0 -16 1 -22t1 -8v-18q0 -1 0.5 -3t0.5 -3q0 -8 -3.5 -11.5l-6.5 -6.5l-2 -9q-1 0 -3 1
q-2 0 -3.5 0.5t-3.5 0.5q-7 0 -9.5 -3t-2.5 -4q0 2 -2 2q-1 0 -1.5 -0.5t-2.5 -0.5q-1 1 -3 3.5t-7 6.5l-5 7l-6 15q0 4 -1.5 7t-1.5 7l-17 -14q-4 -1 -10 -5l-14 -6q-4 -2 -5 -3t-3 -1q-1 0 -3 0.5t-3 0.5q-4 -2 -5 -2t-1.5 0.5t-1.5 0.5q-5 0 -11.5 -0.5t-11.5 -0.5
q-8 0 -14.5 0.5t-12.5 4.5l-8 3q-11 4 -25 14l-17 22q-14 23 -14 52q0 15 3 29t13 26l19 19q3 3 9 7l10 6l34 14q9 2 21 4t29 2q3 0 7 -0.5t8 -0.5q4 -1 10 -1l14 -1v13q0 8 -1 17t-5.5 17t-14 13.5t-27.5 5.5q-16 0 -29.5 -8.5t-26.5 -19.5q-3 -3 -7.5 -4.5t-7.5 -1.5
q-1 1 -3 1t-2 -2q-1 1 -3 1t-2 -2zM217 376q0 13 -40 13q-19 0 -34 -4l-10 -3q-6 -2 -9 -4l-15 -9l-4 -6q-4 -7 -4 -15q0 -9 6 -14.5t14 -7.5l9 -3q6 -2 11 -1.5t11 -1.5q4 1 7.5 1h6.5l12 2q17 4 25.5 10t13.5 11v32z" />
    <glyph glyph-name="guillemotleft" unicode="&#xab;" horiz-adv-x="586" 
d="M268 239q-5 -9 -14.5 -16.5t-17.5 -14.5t-17 -14t-23 -20l-46 -39q-5 -5 -5 -7t2 -4t10 -6q15 -8 26 -12t18 -8l4 -2t4 -1q4 -3 10 -3q3 -2 9 -4q10 -6 24.5 -9t27.5 -7.5t22.5 -12.5t9.5 -23v-9q0 -11 -6 -17q-3 -5 -8.5 -7t-16.5 -2q-12 2 -24.5 7t-23.5 9l-30 9
q-29 7 -57.5 13.5t-55.5 17.5l-18 6q-10 2 -17 6l-7 5q-4 5 -7 10t-4 11v9.5t2 9.5q5 20 21.5 35t31.5 26q26 20 46 36t37 33q11 10 19.5 16.5t13.5 11.5q4 4 6 5q6 8 14.5 10.5t16.5 2.5q3 0 5.5 -0.5t5.5 -0.5l6 -7l6 -12q0 -4 2.5 -7t2.5 -7q0 -2 -1 -3zM408 145
q3 -4 9.5 -9.5t11.5 -7.5q14 -8 31 -14q15 -6 33.5 -13.5t25.5 -23.5q2 -3 3.5 -12t1.5 -18q0 -7 -1.5 -12t-6.5 -5q-3 0 -7 -1l-8 -2q-4 -2 -10 -3q-14 3 -26.5 9t-23.5 13l-16 9q-3 2 -9 4t-12 3.5t-12 5.5q-17 11 -34 19.5t-34 19.5q-2 2 -4.5 3.5t-3.5 4.5q-2 4 -4 10
t-2 11q0 4 2 10q1 5 4 9.5t5 9.5l6 8q12 15 29 30l33.5 33.5t34.5 32.5q10 8 21 14.5t22 6.5q15 0 26 -12q9 -11 9 -24q0 -14 -9 -26.5t-23 -18.5l-4 -2q-6 -5 -15.5 -14t-18.5 -18t-16 -17.5t-8 -12.5z" />
    <glyph glyph-name="logicalnot" unicode="&#xac;" horiz-adv-x="568" 
d="M409 9q-1 3 -1 6.5v5.5q0 7 1 12.5t3 12.5q6 23 10.5 52t4.5 52q0 4 1 11t1 14v7.5t-1 6.5q-35 5 -64 7t-63 2q-11 0 -23 -0.5t-25 -0.5q-23 -1 -46 -2.5t-46 -1.5h-43q-23 0 -42.5 1.5t-33.5 6.5t-22 14.5t-8 26.5q0 16 17.5 19t37.5 3q34 0 69.5 1t76.5 1q17 0 33 0.5
t33 0.5q8 0 16 -0.5t16 -0.5q18 -1 29.5 -1t22 -0.5t22.5 -1.5t30 -2q11 -1 23.5 -3t24 -6.5t19.5 -13t10 -22.5q4 -20 4 -46q0 -27 -4 -54t-9 -52q-2 -10 -4 -25t-7 -28.5t-13.5 -23t-22.5 -9.5t-19 9t-8 22z" />
    <glyph glyph-name="uni00AD" unicode="&#xad;" horiz-adv-x="472" 
d="M267 207q17 0 40 0.5t49 0.5q18 0 32.5 -1t22.5 -8q5 -4 7 -13t2 -14q0 -12 -4.5 -18t-15.5 -13q-8 -5 -14 -8t-11 -6q-4 -2 -17 -4t-28 -3.5t-28.5 -2.5t-19.5 -1q-7 -1 -15 -1h-30q-6 0 -20 -0.5t-30 -1.5t-30.5 -2t-20.5 -1q-11 -1 -22 -1.5t-28 -0.5q-9 0 -15.5 4.5
t-10.5 11.5t-6 14t-2 13q0 7 2 17l2 8q2 5 4.5 11.5t10.5 11.5q2 1 9 2.5t17 3t21 2t21 0.5h128z" />
    <glyph glyph-name="registered" unicode="&#xae;" horiz-adv-x="645" 
d="M610 436q4 -14 4.5 -28.5t0.5 -26.5q0 -10 -0.5 -15.5t-1 -10.5t-1 -10.5t-0.5 -15.5q0 -25 -12.5 -52t-30 -51.5t-36.5 -44.5t-33 -30q-20 -14 -47 -26t-57 -21t-60 -14t-55 -5q-37 0 -68 13.5t-56 33.5t-44 42t-32 40q-15 21 -25 39t-16 37t-8 41t-2 51q0 28 7.5 55.5
t25.5 53.5q15 22 28 41t38 33q20 12 47.5 24t61.5 23q27 8 51.5 16.5t52.5 8.5q5 0 10 -2t10 -2q36 -2 75 -11.5t72.5 -28.5t58.5 -47t33 -67zM511 516q-13 12 -30.5 22t-37 17.5t-39.5 12t-38 6.5q-9 -5 -25.5 -11t-30.5 -6q-7 0 -24.5 -4.5t-36.5 -7.5q-15 -3 -30 -8
t-28.5 -12t-24 -13.5t-16.5 -12.5q-5 -8 -14.5 -20.5t-18.5 -33.5q-6 -14 -10 -33t-4 -30q0 -40 8.5 -72t26.5 -55q10 -13 22.5 -30t29.5 -32.5t39.5 -26.5t52.5 -11q15 0 39.5 5t51.5 13t53.5 19.5t45.5 25.5q16 12 31.5 26.5t27.5 31t19 35t7 38.5q0 24 -7 64t-24 76
l-6 14t-9 13zM232 410q-4 4 -6.5 8.5t-2.5 15.5t4 16t12 11l3 3q9 7 20.5 13.5t23 11.5t21.5 9t16 5q3 0 13 2t20 2q34 0 55 -22.5t21 -54.5q0 -38 -20.5 -66t-49.5 -38l-13 -4l26 -17q13 -8 20.5 -19t7.5 -28q0 -22 -26 -22q-14 0 -26 8.5t-20 13.5l-35 20q2 -10 2 -17
t-0.5 -13.5t-3.5 -12.5q-5 -12 -21 -12q-12 0 -19.5 12.5t-12.5 27.5t-7 29t-2 24v94zM356 440q-12 0 -29 -4.5t-34 -10.5q0 -1 -0.5 -3.5t-0.5 -5.5q0 -2 0.5 -3t0.5 -3v-45q18 3 38 11q17 7 30.5 18t13.5 28q0 18 -19 18z" />
    <glyph glyph-name="macron" unicode="&#xaf;" 
d="M245 521q18 0 32.5 -1t22.5 -8q5 -4 7 -13t2 -14q0 -12 -4.5 -18t-15.5 -13q-8 -5 -14 -8t-11 -6q-11 -5 -29.5 -8t-39 -4t-39 -1.5t-29.5 -0.5q-11 -1 -22 -1.5t-28 -0.5q-9 0 -15.5 4.5t-10.5 11.5t-6 14t-2 13q0 7 2 17l2 8q2 5 4.5 11.5t10.5 11.5q2 1 9 2.5t17 3
t21 2t21 0.5z" />
    <glyph glyph-name="degree" unicode="&#xb0;" horiz-adv-x="333" 
d="M55 510q2 7 6 13t9 12q-2 5 -2 10v10q0 7 3.5 14t10.5 12t22 5q5 0 11.5 -1t14.5 -1q14 -2 31 -3.5t27 -7.5q13 -6 22 -11.5t14 -11.5q8 -11 13 -18.5t9 -17.5q4 -9 4.5 -19t0.5 -18q0 -49 -22 -78q-13 -17 -26 -24t-26 -12q-11 -4 -25.5 -7.5t-28.5 -3.5q-21 0 -37 6
t-27 23q-7 10 -12 26t-5 35q0 9 1 18.5t3 18.5q2 8 3.5 15t5.5 16zM186 497q-10 14 -23 16q-5 0 -7 0.5t-4 0.5q-17 0 -30 -11q-6 -5 -12 -15q-4 -7 -6.5 -15t-2.5 -13v-24q0 -5 5 -9.5t13 -4.5q30 0 50 13t20 48q0 8 -3 14z" />
    <glyph glyph-name="plusminus" unicode="&#xb1;" horiz-adv-x="603" 
d="M375 258q23 1 44.5 2t26.5 1q6 0 22 -3t23 -9q14 -8 20 -19t6 -25q0 -5 -3.5 -13t-5.5 -8q-2 -2 -7.5 -4.5t-10.5 -4.5q-11 -5 -25.5 -6t-34.5 -1q-11 0 -28 1.5t-36 3.5q-4 -37 -7.5 -70.5t-8.5 -67.5q0 -1 -0.5 -1.5t-0.5 -1.5q14 -1 25.5 -1.5t14.5 -0.5q9 0 26 -1
t36 -2.5t36 -2.5t26 -1q6 0 18.5 -6t14.5 -13q5 -10 5 -17v-6.5t-1 -8.5q0 -5 -2.5 -11t-13.5 -16q-4 -4 -12.5 -6t-19.5 -2q-9 0 -26.5 1t-40 2.5t-48.5 3t-52 2.5q-8 -11 -16.5 -15.5t-20.5 -6.5h-6.5t-6.5 1q-4 0 -7 1q-18 9 -24 22q-7 0 -12 0.5t-10 0.5t-10 1
q-18 0 -30.5 1t-18.5 1q-7 0 -18 -1t-22.5 -2t-22 -2t-16.5 -1q-15 0 -25 7t-14 17q-2 5 -2.5 12t-0.5 13q0 8 5 18t13 13l8 4q3 2 5.5 3.5t4.5 1.5q3 0 12.5 0.5t21 1.5t21 1.5t12.5 0.5q12 0 41.5 -1.5t56.5 -3.5q2 17 5 32t5 24q2 20 5 42t5 45q-20 -1 -47 -1h-51h-58
l-17 8q-11 12 -14.5 17.5t-3.5 16.5q0 17 3 25.5t6 13.5l9 8q3 4 13 6.5t12 2.5q6 0 29 -2.5t49.5 -6t49 -6t28.5 -2.5q4 35 7.5 68t8.5 62q1 6 3.5 17.5t5.5 15.5q2 5 7.5 12t9.5 10q11 9 27 11q3 0 6 -0.5t5 -0.5q3 -1 4 -1q7 0 14.5 -11t9.5 -16q1 -2 3 -10t2 -13
q0 -6 -0.5 -11.5t-1.5 -11.5q0 -3 -1.5 -14.5t-3.5 -24t-4 -23.5t-2 -14z" />
    <glyph glyph-name="twosuperior" unicode="&#xb2;" 
d="M41 334zM137 413q5 0 25.5 1t37.5 1q12 0 26.5 -1t27.5 -3q18 -2 36.5 -14t18.5 -37q0 -11 -9 -18.5t-23 -7.5q-7 0 -10.5 2.5t-8.5 5t-14.5 5t-27.5 2.5q-17 0 -37.5 -2t-40 -4t-36 -4t-25.5 -2q-17 0 -26.5 11.5t-9.5 24.5q0 22 22.5 54t50.5 70q9 12 20 26t21.5 28.5
t17.5 27t7 21.5q0 7 -8 7q-18 0 -36 -10.5t-41 -10.5q-14 0 -19.5 10.5t-5.5 21.5t3.5 17.5t10.5 11.5q7 6 25 10q11 2 31 5t38 3q42 0 56.5 -19t14.5 -48q0 -11 -5.5 -27t-11.5 -27q-4 -7 -17 -24.5t-28 -37.5t-29 -38.5t-20 -27.5z" />
    <glyph glyph-name="threesuperior" unicode="&#xb3;" 
d="M48 327zM282 432q0 -20 -15 -39t-38.5 -33.5t-52 -23.5t-55.5 -9q-28 0 -50.5 10t-22.5 33q0 15 7.5 24t15.5 9q9 0 20.5 -3t25.5 -3q18 0 34.5 2t29.5 5.5t21 9.5t8 15q0 13 -29 24q-14 5 -29 14t-15 27t18 35t37 31q14 10 22.5 19.5t8.5 14.5q0 7 -5.5 9t-23.5 2
q-20 0 -35 -6t-19 -11q-4 -4 -8.5 -5t-9.5 -1q-40 0 -40 29q0 12 8.5 22t22.5 17t32 11t37 4q56 0 81 -19t25 -48q0 -11 -6 -22.5t-15.5 -23.5t-20 -22.5t-19.5 -17.5q-8 -6 -8 -13q0 -1 4.5 -3.5t10.5 -6t12.5 -7.5t11.5 -7q11 -8 17.5 -15.5t6.5 -27.5z" />
    <glyph glyph-name="acute" unicode="&#xb4;" 
d="M125 404q-6 2 -8.5 3t-7.5 6q-3 3 -4 3t-3 4q0 2 -0.5 4t-0.5 4q1 8 4 15.5t11 11.5q23 13 37.5 32.5t28.5 42.5l4 8q2 4 3 7t3 7t4 14l3 5q5 3 5 7q7 1 7 8q1 0 1.5 -0.5t1.5 -0.5q5 0 5 7q2 -1 4 -1q4 0 6 6q6 0 9 2q4 0 8 2h9q5 0 8 -1q4 -2 4.5 -1t3.5 -3l6 -8
q2 -2 2.5 -3.5t1.5 -3.5l2 -4t1 -4q3 -9 3 -20q0 -10 -1 -15t-2 -9t-3 -9q-1 -2 -2 -4.5t-1 -4.5q-2 -2 -2.5 -3.5t-1.5 -3.5q-3 -3 -4 -7l-11 -16q-12 -15 -26 -29t-30 -25l-9 -6q-29 -16 -58 -19z" />
    <glyph glyph-name="mu" unicode="&#xb5;" horiz-adv-x="466" 
d="M91 280q0 9 -0.5 14.5t-0.5 10.5v7t2 9q3 9 10 16q4 2 8 2.5t9 1.5l5 2.5t7 1.5q3 0 4.5 -0.5t3.5 -2.5q2 0 4 2q3 -5 15 -8t15 -9q2 -4 2.5 -7t0.5 -7q0 -5 -1 -10.5t-1 -14.5v-6.5t1 -8.5q0 -2 -0.5 -4.5t-0.5 -4.5q-2 -17 -6.5 -41.5t-4.5 -44.5q0 -42 14 -60.5
t43 -18.5q22 0 45 8.5t34 36.5q11 26 13 59.5t4 55.5q0 2 0.5 4.5t0.5 4.5q1 4 1 8v6q2 18 4 33t10 23q5 6 14 7t19 1q8 0 17 -3.5t14 -3.5q7 -2 9.5 -5t2.5 -14q-3 -22 -5.5 -40.5t-5.5 -36.5q0 -2 -0.5 -3.5t-0.5 -3.5q-2 -9 -4 -26.5t-4 -37.5t-3.5 -39t-1.5 -31
q0 -25 8 -46q9 -21 14.5 -30.5t5.5 -17.5q0 -10 -10 -19q-3 -2 -6 -2.5t-7 -2.5t-6.5 -1.5t-6.5 -0.5q-2 -1 -6.5 -2.5t-6.5 -1.5q-20 0 -31 7t-20 36q-2 6 -2 12v4.5t1 5.5q-14 -11 -30 -20q-14 -8 -31.5 -13.5t-34.5 -5.5q-18 0 -31.5 4.5t-23.5 9.5q-11 6 -20 15
q-1 -2 -1 -4q-1 -2 -1 -4v-4q0 -3 -0.5 -11.5t-1.5 -17.5q-1 -10 -4 -25t-6 -31t-6 -30.5t-4 -23.5q-2 -8 -2 -16t-1 -11q-5 -18 -16.5 -25.5t-27.5 -7.5t-26 10t-10 27q0 8 3 13t3 10q0 2 -0.5 6t-0.5 8q0 14 5.5 30t7.5 30l22 119q8 42 11 85.5t7 89.5q1 6 1 15v15z" />
    <glyph glyph-name="paragraph" unicode="&#xb6;" horiz-adv-x="558" 
d="M343 547q-20 -1 -39 -5t-35 -9l-7 -3q2 -2 5 -12t5 -16q5 -14 6.5 -35t1.5 -55q0 -56 -2 -113.5t-2 -129.5v-21.5t-1 -21.5v-16q-1 -3 -1 -9q-1 -8 -1 -15v-15q0 -15 0.5 -29t0.5 -28q0 -19 -1 -37t-5 -35q-3 -17 -10.5 -22t-11.5 -7q-5 -3 -11 -3q-11 0 -15 3.5
t-15 12.5q-11 8 -17 30t-6 53q0 10 0.5 44.5t1 76.5t1.5 84t1 67q0 3 0.5 26.5t0.5 59.5v9q0 11 0.5 23t0.5 23q0 18 -3 38q-2 5 -2 11t-2 11t-4.5 11t-7.5 12q-5 -2 -15 -5t-15 -4q-4 -1 -11 -1h-9t-8 2q-15 5 -27 14q-13 9 -17.5 27t-8.5 32q-1 4 -1 8v14q1 7 5.5 16
t11.5 18t15.5 16t18.5 10q5 2 15 2h8q9 0 17.5 0.5t16.5 0.5h19t30 0.5t32 0.5h25q5 0 15 -0.5t17 -0.5q3 0 5.5 -0.5t5.5 -0.5q2 0 5 -0.5t5 -0.5q53 -3 90 -23.5t57 -55.5q2 -2 2 -4.5t1 -5.5q2 -5 3 -10t3 -10q2 -6 2 -10q5 -21 9.5 -42t4.5 -43v-35q0 -11 -2 -31t-7 -40
q0 -3 -2 -9q-6 -26 -9.5 -52.5t-7.5 -53.5l-2 -11q-4 -27 -5.5 -54t-2.5 -54q0 -6 -1 -9v-29.5t-1 -28.5v-60v-6.5t-2 -6.5q-5 -10 -13 -14q-10 -5 -23 -5q-21 0 -35 14q-8 6 -11 17q-4 9 -5 19t-1 20v29q0 38 3 75.5t7 75.5l2 11v8q1 2 1 7q2 8 3 15t3 15l3 11q1 5 2 9.5
t3 9.5q0 3 2 9q4 12 3.5 24t2.5 24q0 2 0.5 4.5t0.5 5.5q4 21 5 42.5t1 42.5v35q0 20 -5.5 36.5t-20.5 29.5l-8 4q-8 4 -20 4h-11z" />
    <glyph glyph-name="periodcentered" unicode="&#xb7;" horiz-adv-x="222" 
d="M151 108q-6 -9 -15 -16t-21 -7q-19 1 -38 16.5t-23 34.5q-1 5 -1 15q0 13 3.5 26t10.5 23.5t17 17t24 6.5q7 0 16 -3q14 -4 22.5 -14t13.5 -22t7 -22.5t2 -14.5q0 -8 -6.5 -21.5t-11.5 -18.5z" />
    <glyph glyph-name="cedilla" unicode="&#xb8;" 
d="M126 -99q-19 0 -24 17q-3 6 -3 11q-1 2 -1 7v10q2 14 3.5 31.5t3.5 28.5q2 13 11.5 19.5t19.5 6.5t19.5 -6t9.5 -20q0 -11 -2 -23t-2 -24q19 7 36 7q7 0 10 -1q24 -5 36 -21.5t12 -36.5q0 -26 -17 -46q-3 -3 -6 -6.5t-7 -5.5l-7 -5q-7 -4 -6 -5q-2 0 -4 -0.5t-2 -3.5
q-7 0 -7 -3l-9 -2q-8 -2 -8 -4h-8q-8 -1 -13 -4q0 2 -3 2q-2 0 -3 -1q-1 1 -4 1q-2 0 -3.5 -0.5t-3.5 -0.5q0 2 -7 3q0 1 -7 4q0 1 -5 6q0 2 -3 7q-1 3 -1 8q0 9 4 14q8 12 26.5 15t32.5 6l5 4q4 7 4 12q0 8 -3.5 9.5t-9.5 1.5t-9 -1q-11 -1 -20.5 -5t-20.5 -6h-4z" />
    <glyph glyph-name="onesuperior" unicode="&#xb9;" 
d="M78 287zM184 586q-10 -2 -21 -6t-20 -7q-10 -3 -19.5 -8.5t-19.5 -5.5q-3 0 -9 2q-11 5 -14 13.5t-3 19.5q0 7 4 17.5t12 15.5t23 10.5t29 10.5q21 7 46 11.5t41 4.5q15 0 26 -8q9 -8 9 -25q0 -9 -2 -18.5t-4 -16.5q-5 -17 -12.5 -33.5t-13.5 -33.5q-6 -18 -10 -32
t-10 -33q-3 -9 -6 -22t-5.5 -27t-4 -27.5t-1.5 -23.5q0 -8 2.5 -22.5t2.5 -21.5t-4 -13q-2 -3 -4 -5q-3 -5 -13 -10t-18 -5q-6 0 -8 1q-5 2 -13 5.5t-8 8.5q0 4 -2 8t-3 8q-2 5 -2 10.5v13.5q1 16 3 30t4 30q4 23 8.5 41t10.5 40q4 14 9 28.5t10 28.5q3 9 7 22.5t10 24.5z
" />
    <glyph glyph-name="ordmasculine" unicode="&#xba;" horiz-adv-x="399" 
d="M269 277q-3 0 -7 -2.5t-9 -2.5q-4 -5 -7.5 -7t-12.5 -4q-11 -6 -25 -10t-31 -4q-31 0 -53 11.5t-35.5 29.5t-19.5 40t-6 42q0 14 0.5 24.5t2.5 19.5t4.5 18t7.5 20l9 23l2.5 7.5t4.5 9.5q4 10 11 20q20 33 46 51.5t54 18.5q1 -1 2.5 -1t3.5 -1t3 -1t2 -1t5 -1l-1 -3
q0 -2 4 -4q18 -5 37.5 -20.5t36 -38t27 -49.5t10.5 -55q0 -44 -15.5 -73t-44.5 -52zM205 487q-2 -2 -3 -2l-4 -2t-5 -1q-4 -1 -8 -1t-9 -5q-6 -2 -9 -5.5t-10 -14.5q-14 -15 -17 -33t-3 -41q0 -24 12.5 -37t34.5 -13q18 0 33.5 3.5t27.5 12t18.5 23t6.5 36.5q0 32 -18 55.5
t-45 26.5z" />
    <glyph glyph-name="guillemotright" unicode="&#xbb;" horiz-adv-x="644" 
d="M516 95q-22 -14 -43 -24l-41 -20q-7 -3 -13.5 -5.5t-12.5 -6.5l-9 -4q-7 -3 -13.5 -6t-13.5 -7l-8 -4q-10 -5 -19.5 -10t-20.5 -5q-12 0 -21 10.5t-9 21.5q0 6 1 8q2 16 14 26t25 15l59 26q2 0 3.5 1t3.5 2q11 4 18 9.5t18 10.5l9 4q6 3 12.5 6t12.5 7l18 9q7 6 7 10
q0 5 -14 15t-31 20q-16 10 -24.5 16.5t-21.5 14.5q-15 11 -22 19.5t-7 27.5q1 14 8.5 24t24.5 10q10 0 17 -6.5t14 -11.5q8 -6 16 -10t16 -9l68 -37q14 -8 28.5 -15.5t24.5 -21.5q12 -14 12 -31q0 -5 -1 -8q0 -4 -2 -8q-6 -10 -15.5 -17.5t-19.5 -14t-20 -12.5t-19 -14z
M64 59l2 7l3 8q2 4 4 6q2 3 5 5q5 6 12.5 9.5t15.5 8.5q19 10 33 18t26 16q4 3 12 7.5t16 10t14 10t6 7.5q0 1 -1 2l-6 6q-3 3 -9 6.5t-10 6.5q-8 6 -18 10t-19 9q-10 4 -25 12t-29 19t-24 24.5t-10 27.5q0 13 13 26q8 8 18 8q14 0 27.5 -10.5t24.5 -16.5q33 -20 66 -39
t68 -36q11 -5 21.5 -12.5t17.5 -18.5t7 -22q0 -10 -5.5 -18t-15.5 -16q-37 -31 -77 -54t-81 -49q-4 -2 -7 -4t-7 -4l-21 -10q-7 -2 -7 -3q-2 0 -3 0.5t-2 0.5t-1 -0.5t-1 -0.5h-1q-2 0 -2.5 0.5t-1.5 0.5t-3 -2q-3 2 -5 3l-4 2l-5 4l-5 8l-4 9q0 3 -1 7q0 4 -1 7v4z" />
    <glyph glyph-name="onequarter" unicode="&#xbc;" horiz-adv-x="647" 
d="M55 0zM55 122q0 12 5.5 19.5t14.5 15.5q10 8 19 16.5t20 15.5q8 6 16 10.5t16 11.5q14 12 29 22.5t30 21.5q10 8 30.5 24t46 36t54 42t54 42t46 36t30.5 24l26 20t27 20q8 6 19.5 14t23.5 8h5t5 -1q11 -4 17.5 -14.5t6.5 -22.5q0 -9 -6.5 -16t-15 -13t-18 -11t-15.5 -9
l-77 -58q-16 -12 -32.5 -24t-30.5 -26t-30.5 -25t-32.5 -23l-42 -33q-36 -29 -72.5 -56.5t-71.5 -56.5q-13 -9 -27 -21.5t-28 -18.5l-9 -3t-9 -2q-12 1 -17.5 12.5t-6.5 22.5zM217 586q-10 -2 -21 -6t-20 -7q-10 -3 -19.5 -8.5t-19.5 -5.5q-3 0 -9 2q-11 5 -14 13.5t-3 19.5
q0 7 4 17.5t12 15.5t23 10.5t29 10.5q21 7 46 11.5t41 4.5q15 0 26 -8q9 -8 9 -25q0 -9 -2 -18.5t-4 -16.5q-5 -17 -12.5 -33.5t-13.5 -33.5q-6 -18 -10 -32t-10 -33q-3 -9 -6 -22t-5.5 -27t-4 -27.5t-1.5 -23.5q0 -8 2.5 -22.5t2.5 -21.5t-4 -13q-2 -3 -4 -5q-3 -5 -13 -10
t-18 -5q-6 0 -8 1q-5 2 -13 5.5t-8 8.5q0 4 -2 8t-3 8q-2 5 -2 10.5v13.5q1 16 3 30t4 30q4 23 8.5 41t10.5 40q4 14 9 28.5t10 28.5q3 9 7 22.5t10 24.5zM656 152q0 -15 -7.5 -22.5t-19 -10.5t-24.5 -3.5t-23 -1.5l-39 -4q-2 -14 -4 -32t-4 -35.5t-3 -32t-1 -20.5
q0 -16 -8 -29.5t-24 -13.5t-20 15t-4 35q0 7 0.5 19t1.5 26.5t2 30t3 29.5q-22 -3 -41 -4.5t-28 -1.5q-23 0 -37.5 16.5t-14.5 36.5q0 11 4.5 25t11.5 28t13.5 27.5t11.5 22.5l24 50q3 8 10 11.5t13 3.5q15 0 23 -11.5t8 -23.5q0 -8 -4.5 -16t-10.5 -17q-8 -12 -13.5 -19.5
t-10.5 -16.5q-5 -10 -9 -21t-4 -16q0 -3 1.5 -6t4.5 -3q5 1 18.5 2t38.5 4q4 24 8.5 49.5t7.5 36.5q2 8 9 14.5t15 6.5q3 0 8.5 -2t11 -6t10 -10.5t4.5 -15.5q0 -7 -3 -25.5t-7 -38.5q16 2 29.5 4t23.5 2q18 0 33 -9.5t15 -26.5z" />
    <glyph glyph-name="onehalf" unicode="&#xbd;" horiz-adv-x="647" 
d="M55 0zM55 122q0 12 5.5 19.5t14.5 15.5q10 8 19 16.5t20 15.5q8 6 16 10.5t16 11.5q14 12 29 22.5t30 21.5q10 8 30.5 24t46 36t54 42t54 42t46 36t30.5 24l26 20t27 20q8 6 19.5 14t23.5 8h5t5 -1q11 -4 17.5 -14.5t6.5 -22.5q0 -9 -6.5 -16t-15 -13t-18 -11t-15.5 -9
l-77 -58q-16 -12 -32.5 -24t-30.5 -26t-30.5 -25t-32.5 -23l-42 -33q-36 -29 -72.5 -56.5t-71.5 -56.5q-13 -9 -27 -21.5t-28 -18.5l-9 -3t-9 -2q-12 1 -17.5 12.5t-6.5 22.5zM217 586q-10 -2 -21 -6t-20 -7q-10 -3 -19.5 -8.5t-19.5 -5.5q-3 0 -9 2q-11 5 -14 13.5t-3 19.5
q0 7 4 17.5t12 15.5t23 10.5t29 10.5q21 7 46 11.5t41 4.5q15 0 26 -8q9 -8 9 -25q0 -9 -2 -18.5t-4 -16.5q-5 -17 -12.5 -33.5t-13.5 -33.5q-6 -18 -10 -32t-10 -33q-3 -9 -6 -22t-5.5 -27t-4 -27.5t-1.5 -23.5q0 -8 2.5 -22.5t2.5 -21.5t-4 -13q-2 -3 -4 -5q-3 -5 -13 -10
t-18 -5q-6 0 -8 1q-5 2 -13 5.5t-8 8.5q0 4 -2 8t-3 8q-2 5 -2 10.5v13.5q1 16 3 30t4 30q4 23 8.5 41t10.5 40q4 14 9 28.5t10 28.5q3 9 7 22.5t10 24.5zM450 45q5 0 25.5 1t37.5 1q12 0 26.5 -1t27.5 -3q18 -2 36.5 -14t18.5 -37q0 -11 -9 -18.5t-23 -7.5q-7 0 -10.5 2.5
t-8.5 5t-14.5 5t-27.5 2.5q-17 0 -37.5 -2t-40 -4t-36 -4t-25.5 -2q-17 0 -26.5 11.5t-9.5 24.5q0 22 22.5 54t50.5 70q9 12 20 26t21.5 28.5t17.5 27t7 21.5q0 7 -8 7q-18 0 -36 -10.5t-41 -10.5q-14 0 -19.5 10.5t-5.5 21.5t3.5 17.5t10.5 11.5q7 6 25 10q11 2 31 5t38 3
q42 0 56.5 -19t14.5 -48q0 -11 -5.5 -27t-11.5 -27q-4 -7 -17 -24.5t-28 -37.5t-29 -38.5t-20 -27.5z" />
    <glyph glyph-name="threequarters" unicode="&#xbe;" horiz-adv-x="647" 
d="M55 0zM55 122q0 12 5.5 19.5t14.5 15.5q10 8 19 16.5t20 15.5q8 6 16 10.5t16 11.5q14 12 29 22.5t30 21.5q10 8 30.5 24t46 36t54 42t54 42t46 36t30.5 24l26 20t27 20q8 6 19.5 14t23.5 8h5t5 -1q11 -4 17.5 -14.5t6.5 -22.5q0 -9 -6.5 -16t-15 -13t-18 -11t-15.5 -9
l-77 -58q-16 -12 -32.5 -24t-30.5 -26t-30.5 -25t-32.5 -23l-42 -33q-36 -29 -72.5 -56.5t-71.5 -56.5q-13 -9 -27 -21.5t-28 -18.5l-9 -3t-9 -2q-12 1 -17.5 12.5t-6.5 22.5zM306 432q0 -20 -15 -39t-38.5 -33.5t-52 -23.5t-55.5 -9q-28 0 -50.5 10t-22.5 33q0 15 7.5 24
t15.5 9q9 0 20.5 -3t25.5 -3q18 0 34.5 2t29.5 5.5t21 9.5t8 15q0 13 -29 24q-14 5 -29 14t-15 27t18 35t37 31q14 10 22.5 19.5t8.5 14.5q0 7 -5.5 9t-23.5 2q-20 0 -35 -6t-19 -11q-4 -4 -8.5 -5t-9.5 -1q-40 0 -40 29q0 12 8.5 22t22.5 17t32 11t37 4q56 0 81 -19t25 -48
q0 -11 -6 -22.5t-15.5 -23.5t-20 -22.5t-19.5 -17.5q-8 -6 -8 -13q0 -1 4.5 -3.5t10.5 -6t12.5 -7.5t11.5 -7q11 -8 17.5 -15.5t6.5 -27.5zM656 152q0 -15 -7.5 -22.5t-19 -10.5t-24.5 -3.5t-23 -1.5l-39 -4q-2 -14 -4 -32t-4 -35.5t-3 -32t-1 -20.5q0 -16 -8 -29.5
t-24 -13.5t-20 15t-4 35q0 7 0.5 19t1.5 26.5t2 30t3 29.5q-22 -3 -41 -4.5t-28 -1.5q-23 0 -37.5 16.5t-14.5 36.5q0 11 4.5 25t11.5 28t13.5 27.5t11.5 22.5l24 50q3 8 10 11.5t13 3.5q15 0 23 -11.5t8 -23.5q0 -8 -4.5 -16t-10.5 -17q-8 -12 -13.5 -19.5t-10.5 -16.5
q-5 -10 -9 -21t-4 -16q0 -3 1.5 -6t4.5 -3q5 1 18.5 2t38.5 4q4 24 8.5 49.5t7.5 36.5q2 8 9 14.5t15 6.5q3 0 8.5 -2t11 -6t10 -10.5t4.5 -15.5q0 -7 -3 -25.5t-7 -38.5q16 2 29.5 4t23.5 2q18 0 33 -9.5t15 -26.5z" />
    <glyph glyph-name="questiondown" unicode="&#xbf;" horiz-adv-x="474" 
d="M170 -101q-5 -1 -10 -8.5t-10 -16.5t-9 -17.5t-5 -12.5q-5 -14 -5 -33v-9.5t1 -9.5q4 -22 15.5 -37t31.5 -20q5 -1 10.5 -1h11.5q41 4 74 27.5t62 49.5l21 20q5 5 13 11.5t14 8.5q5 2 9.5 2h9.5t15.5 -6t11.5 -11q2 -4 4 -7.5t2 -8.5q0 -3 0.5 -5.5t0.5 -7.5q0 -2 0.5 -5
t0.5 -5q0 -3 -0.5 -6t-2.5 -7q-4 -8 -13.5 -13.5t-20.5 -12.5q-5 -3 -22.5 -16t-34.5 -27q-9 -8 -22.5 -17t-31 -18t-37.5 -16.5t-41 -10.5q-5 -1 -9.5 -1h-9.5q-26 0 -49 10t-40.5 27.5t-29 41t-15.5 49.5q-3 15 -3 31q0 26 7 52t18 51q2 4 7 11t10.5 13.5t10.5 12t8 7.5
q3 3 7 6q3 2 6.5 5t7.5 6q7 5 17.5 8t22 5.5t22.5 4.5t19 4q3 16 4.5 34t3 35t2 31t0.5 20q0 7 0.5 15t2.5 15q3 10 7.5 18.5t7.5 11.5q4 4 10 7.5t11 3.5q14 0 21 -2.5t14 -10.5q11 -14 11 -32q0 -5 -5.5 -16.5t-8.5 -16.5q-2 -2 -2.5 -5.5t-1.5 -6.5l-2 -8q0 -3 -0.5 -7
t-0.5 -9q-1 -5 -1 -11q-1 -9 -1 -32t-2.5 -46.5t-9.5 -41.5t-22 -18q-20 0 -34.5 -5.5t-26.5 -13.5zM372 320q0 -16 -9 -27t-27 -11t-35 11t-18 31v9q2 20 13 33t27 13q14 0 28 -10q16 -11 18.5 -22t2.5 -27z" />
    <glyph glyph-name="Agrave" unicode="&#xc0;" horiz-adv-x="543" 
d="M56 0zM457 -69q-2 0 -3.5 -0.5t-4.5 -0.5q-2 0 -2.5 2.5t-2.5 4.5t-4.5 1.5t-3.5 0.5l-4 3l-3 4q-1 2 -2.5 3t-2.5 3q-4 9 -6.5 19.5t-6.5 21.5q0 2 -0.5 3l-1.5 3q0 1 -1 1.5t-1 1.5t0.5 2t0.5 2t-0.5 1.5t-0.5 2.5l-6 16q-6 15 -11.5 31.5t-10.5 33.5q-7 0 -8 2
q-1 1 -3 1t-4 -0.5t-4 -0.5q1 1 -1 1.5t-4 0.5h-10t-3 1q-2 0 -6.5 1.5t-8.5 2.5q-17 3 -38 5.5t-42.5 3.5t-42.5 2t-38 1h-11t-10 -1q-3 -29 -9 -59.5t-15 -54.5q0 -6 -2 -10l-3 -4q-9 -12 -16 -21.5t-18 -9.5q-16 0 -21 15t-5 35q0 14 1.5 29t3.5 29q0 1 1 1.5t1 2.5
q0 1 -0.5 1.5t-0.5 2.5q0 4 1.5 17.5t2.5 16.5q1 2 1 5q0 4 -2 6q1 3 3 6q2 2 2.5 4.5t1.5 2.5q-2 4 -2 6t1 4q1 1 1.5 1t1.5 1q1 0 1 1q0 2 -2.5 4.5l-3.5 3.5q3 3 4.5 9t1.5 11q0 2 -0.5 2t-0.5 2t1 3.5t1 2.5q0 5 1 8.5t1 8.5q0 8 1 13q0 2 1 5.5t2 5.5q0 4 -0.5 7
t-0.5 5t2 6q1 5 2 9.5t2 10.5q0 2 -0.5 3.5t-0.5 3.5t1 3q0 4 1 12.5t3 14.5q1 1 1 3t-0.5 4t-0.5 4t0.5 3t0.5 2q2 31 3 53t3 50q3 29 10 48.5t33 19.5q8 0 11 -1q2 -1 2.5 -2t2.5 -1q1 -1 1.5 -1t1.5 -2l5 -5q0 -2 1 -3t2 -3t1 -6q11 29 23 52.5t24 39.5q10 13 18 18t17 5
q14 0 22.5 -6t22.5 -31q27 -47 50.5 -106.5t44.5 -122.5t40.5 -124t38.5 -110q10 -24 17.5 -42.5t12.5 -32.5l2 -6q0 -1 0.5 -1.5t0.5 -1.5t0.5 -1.5t0.5 -1.5l2 -4q2 -5 2.5 -8.5t2.5 -8.5v-2q0 -1 0.5 -2t0.5 -2t-1 -2l-1 -1q-4 -3 -3 -5.5t-7 -2.5q-2 -2 -2 -3
q0 -8 -1.5 -7.5t-1.5 -1.5t-1.5 -2.5t-2.5 -2.5q-3 -1 -4.5 -2t-3.5 -1q-1 0 -1.5 0.5t-1.5 0.5q-2 0 -5.5 2t-5.5 2t-3 0.5t-3 0.5t-3 -0.5t-3 -0.5zM351 181q-11 37 -23 74.5t-24 72.5t-24 66.5t-25 56.5q-5 0 -10.5 -7.5t-11.5 -19.5q-12 -26 -24 -60t-21.5 -67.5
t-16.5 -61.5t-9 -40q25 -2 57 -3t67 -4q14 -1 31 -3zM227 708q7 -8 15.5 -15.5t16 -15.5t12.5 -17t5 -20q0 -14 -11 -20t-26 -6q-18 0 -34 7l-8 4q-4 3 -8 5l-6 5q-10 9 -21 17.5t-22 16.5q-1 2 -5 6q-14 12 -22 28t-8 33q0 11 3.5 21t11.5 19q2 1 3.5 2t3.5 2q2 2 7 4l9 2
q3 0 5.5 0.5t4.5 0.5q15 -2 24.5 -12t16.5 -22l4 -8q3 -6 6.5 -12t8.5 -11l6 -8z" />
    <glyph glyph-name="Aacute" unicode="&#xc1;" horiz-adv-x="543" 
d="M56 0zM457 -69q-2 0 -3.5 -0.5t-4.5 -0.5q-2 0 -2.5 2.5t-2.5 4.5t-4.5 1.5t-3.5 0.5l-4 3l-3 4q-1 2 -2.5 3t-2.5 3q-4 9 -6.5 19.5t-6.5 21.5q0 2 -0.5 3l-1.5 3q0 1 -1 1.5t-1 1.5t0.5 2t0.5 2t-0.5 1.5t-0.5 2.5l-6 16q-6 15 -11.5 31.5t-10.5 33.5q-7 0 -8 2
q-1 1 -3 1t-4 -0.5t-4 -0.5q1 1 -1 1.5t-4 0.5h-10t-3 1q-2 0 -6.5 1.5t-8.5 2.5q-17 3 -38 5.5t-42.5 3.5t-42.5 2t-38 1h-11t-10 -1q-3 -29 -9 -59.5t-15 -54.5q0 -6 -2 -10l-3 -4q-9 -12 -16 -21.5t-18 -9.5q-16 0 -21 15t-5 35q0 14 1.5 29t3.5 29q0 1 1 1.5t1 2.5
q0 1 -0.5 1.5t-0.5 2.5q0 4 1.5 17.5t2.5 16.5q1 2 1 5q0 4 -2 6q1 3 3 6q2 2 2.5 4.5t1.5 2.5q-2 4 -2 6t1 4q1 1 1.5 1t1.5 1q1 0 1 1q0 2 -2.5 4.5l-3.5 3.5q3 3 4.5 9t1.5 11q0 2 -0.5 2t-0.5 2t1 3.5t1 2.5q0 5 1 8.5t1 8.5q0 8 1 13q0 2 1 5.5t2 5.5q0 4 -0.5 7
t-0.5 5t2 6q1 5 2 9.5t2 10.5q0 2 -0.5 3.5t-0.5 3.5t1 3q0 4 1 12.5t3 14.5q1 1 1 3t-0.5 4t-0.5 4t0.5 3t0.5 2q2 31 3 53t3 50q3 29 10 48.5t33 19.5q8 0 11 -1q2 -1 2.5 -2t2.5 -1q1 -1 1.5 -1t1.5 -2l5 -5q0 -2 1 -3t2 -3t1 -6q11 29 23 52.5t24 39.5q10 13 18 18t17 5
q14 0 22.5 -6t22.5 -31q27 -47 50.5 -106.5t44.5 -122.5t40.5 -124t38.5 -110q10 -24 17.5 -42.5t12.5 -32.5l2 -6q0 -1 0.5 -1.5t0.5 -1.5t0.5 -1.5t0.5 -1.5l2 -4q2 -5 2.5 -8.5t2.5 -8.5v-2q0 -1 0.5 -2t0.5 -2t-1 -2l-1 -1q-4 -3 -3 -5.5t-7 -2.5q-2 -2 -2 -3
q0 -8 -1.5 -7.5t-1.5 -1.5t-1.5 -2.5t-2.5 -2.5q-3 -1 -4.5 -2t-3.5 -1q-1 0 -1.5 0.5t-1.5 0.5q-2 0 -5.5 2t-5.5 2t-3 0.5t-3 0.5t-3 -0.5t-3 -0.5zM351 181q-11 37 -23 74.5t-24 72.5t-24 66.5t-25 56.5q-5 0 -10.5 -7.5t-11.5 -19.5q-12 -26 -24 -60t-21.5 -67.5
t-16.5 -61.5t-9 -40q25 -2 57 -3t67 -4q14 -1 31 -3zM229 599q-6 2 -8.5 3t-7.5 6q-3 3 -4 3t-3 4q0 2 -0.5 4t-0.5 4q1 8 4 15.5t11 11.5q23 13 37.5 32.5t28.5 42.5l4 8q2 4 3 7t3 7t4 14l3 5q5 3 5 7q7 1 7 8q1 0 1.5 -0.5t1.5 -0.5q5 0 5 7q2 -1 4 -1q4 0 6 6q6 0 9 2
q4 0 8 2h9q5 0 8 -1q4 -2 4.5 -1t3.5 -3l6 -8q2 -2 2.5 -3.5t1.5 -3.5l2 -4t1 -4q3 -9 3 -20q0 -10 -1 -15t-2 -9t-3 -9q-1 -2 -2 -4.5t-1 -4.5q-2 -2 -2.5 -3.5t-1.5 -3.5q-3 -3 -4 -7l-11 -16q-12 -15 -26 -29t-30 -25l-9 -6q-29 -16 -58 -19z" />
    <glyph glyph-name="Acircumflex" unicode="&#xc2;" horiz-adv-x="543" 
d="M56 0zM457 -69q-2 0 -3.5 -0.5t-4.5 -0.5q-2 0 -2.5 2.5t-2.5 4.5t-4.5 1.5t-3.5 0.5l-4 3l-3 4q-1 2 -2.5 3t-2.5 3q-4 9 -6.5 19.5t-6.5 21.5q0 2 -0.5 3l-1.5 3q0 1 -1 1.5t-1 1.5t0.5 2t0.5 2t-0.5 1.5t-0.5 2.5l-6 16q-6 15 -11.5 31.5t-10.5 33.5q-7 0 -8 2
q-1 1 -3 1t-4 -0.5t-4 -0.5q1 1 -1 1.5t-4 0.5h-10t-3 1q-2 0 -6.5 1.5t-8.5 2.5q-17 3 -38 5.5t-42.5 3.5t-42.5 2t-38 1h-11t-10 -1q-3 -29 -9 -59.5t-15 -54.5q0 -6 -2 -10l-3 -4q-9 -12 -16 -21.5t-18 -9.5q-16 0 -21 15t-5 35q0 14 1.5 29t3.5 29q0 1 1 1.5t1 2.5
q0 1 -0.5 1.5t-0.5 2.5q0 4 1.5 17.5t2.5 16.5q1 2 1 5q0 4 -2 6q1 3 3 6q2 2 2.5 4.5t1.5 2.5q-2 4 -2 6t1 4q1 1 1.5 1t1.5 1q1 0 1 1q0 2 -2.5 4.5l-3.5 3.5q3 3 4.5 9t1.5 11q0 2 -0.5 2t-0.5 2t1 3.5t1 2.5q0 5 1 8.5t1 8.5q0 8 1 13q0 2 1 5.5t2 5.5q0 4 -0.5 7
t-0.5 5t2 6q1 5 2 9.5t2 10.5q0 2 -0.5 3.5t-0.5 3.5t1 3q0 4 1 12.5t3 14.5q1 1 1 3t-0.5 4t-0.5 4t0.5 3t0.5 2q2 31 3 53t3 50q3 29 10 48.5t33 19.5q8 0 11 -1q2 -1 2.5 -2t2.5 -1q1 -1 1.5 -1t1.5 -2l5 -5q0 -2 1 -3t2 -3t1 -6q11 29 23 52.5t24 39.5q10 13 18 18t17 5
q14 0 22.5 -6t22.5 -31q27 -47 50.5 -106.5t44.5 -122.5t40.5 -124t38.5 -110q10 -24 17.5 -42.5t12.5 -32.5l2 -6q0 -1 0.5 -1.5t0.5 -1.5t0.5 -1.5t0.5 -1.5l2 -4q2 -5 2.5 -8.5t2.5 -8.5v-2q0 -1 0.5 -2t0.5 -2t-1 -2l-1 -1q-4 -3 -3 -5.5t-7 -2.5q-2 -2 -2 -3
q0 -8 -1.5 -7.5t-1.5 -1.5t-1.5 -2.5t-2.5 -2.5q-3 -1 -4.5 -2t-3.5 -1q-1 0 -1.5 0.5t-1.5 0.5q-2 0 -5.5 2t-5.5 2t-3 0.5t-3 0.5t-3 -0.5t-3 -0.5zM351 181q-11 37 -23 74.5t-24 72.5t-24 66.5t-25 56.5q-5 0 -10.5 -7.5t-11.5 -19.5q-12 -26 -24 -60t-21.5 -67.5
t-16.5 -61.5t-9 -40q25 -2 57 -3t67 -4q14 -1 31 -3zM258 756q2 0 4 0.5t4 0.5q22 0 45 -26q10 -11 20 -25.5t18 -29.5t13 -29.5t5 -25.5q0 -2 -0.5 -4.5t-0.5 -4.5q-4 -4 -6.5 -10t-12.5 -6q-2 0 -3 0.5t-2 0.5q-12 3 -24.5 15.5t-26.5 25.5q-11 10 -20.5 19.5t-20.5 10.5
q-8 -5 -20.5 -16t-26 -22t-27.5 -20.5t-24 -12.5q-2 0 -2.5 -0.5t-2.5 -0.5q-11 0 -14.5 3t-8.5 8q0 2 -0.5 4.5t-0.5 4.5q0 13 8 27.5t20 32.5q15 23 33 44.5t41 27.5z" />
    <glyph glyph-name="Atilde" unicode="&#xc3;" horiz-adv-x="543" 
d="M56 0zM457 -69q-2 0 -3.5 -0.5t-4.5 -0.5q-2 0 -2.5 2.5t-2.5 4.5t-4.5 1.5t-3.5 0.5l-4 3l-3 4q-1 2 -2.5 3t-2.5 3q-4 9 -6.5 19.5t-6.5 21.5q0 2 -0.5 3l-1.5 3q0 1 -1 1.5t-1 1.5t0.5 2t0.5 2t-0.5 1.5t-0.5 2.5l-6 16q-6 15 -11.5 31.5t-10.5 33.5q-7 0 -8 2
q-1 1 -3 1t-4 -0.5t-4 -0.5q1 1 -1 1.5t-4 0.5h-10t-3 1q-2 0 -6.5 1.5t-8.5 2.5q-17 3 -38 5.5t-42.5 3.5t-42.5 2t-38 1h-11t-10 -1q-3 -29 -9 -59.5t-15 -54.5q0 -6 -2 -10l-3 -4q-9 -12 -16 -21.5t-18 -9.5q-16 0 -21 15t-5 35q0 14 1.5 29t3.5 29q0 1 1 1.5t1 2.5
q0 1 -0.5 1.5t-0.5 2.5q0 4 1.5 17.5t2.5 16.5q1 2 1 5q0 4 -2 6q1 3 3 6q2 2 2.5 4.5t1.5 2.5q-2 4 -2 6t1 4q1 1 1.5 1t1.5 1q1 0 1 1q0 2 -2.5 4.5l-3.5 3.5q3 3 4.5 9t1.5 11q0 2 -0.5 2t-0.5 2t1 3.5t1 2.5q0 5 1 8.5t1 8.5q0 8 1 13q0 2 1 5.5t2 5.5q0 4 -0.5 7
t-0.5 5t2 6q1 5 2 9.5t2 10.5q0 2 -0.5 3.5t-0.5 3.5t1 3q0 4 1 12.5t3 14.5q1 1 1 3t-0.5 4t-0.5 4t0.5 3t0.5 2q2 31 3 53t3 50q3 29 10 48.5t33 19.5q8 0 11 -1q2 -1 2.5 -2t2.5 -1q1 -1 1.5 -1t1.5 -2l5 -5q0 -2 1 -3t2 -3t1 -6q11 29 23 52.5t24 39.5q10 13 18 18t17 5
q14 0 22.5 -6t22.5 -31q27 -47 50.5 -106.5t44.5 -122.5t40.5 -124t38.5 -110q10 -24 17.5 -42.5t12.5 -32.5l2 -6q0 -1 0.5 -1.5t0.5 -1.5t0.5 -1.5t0.5 -1.5l2 -4q2 -5 2.5 -8.5t2.5 -8.5v-2q0 -1 0.5 -2t0.5 -2t-1 -2l-1 -1q-4 -3 -3 -5.5t-7 -2.5q-2 -2 -2 -3
q0 -8 -1.5 -7.5t-1.5 -1.5t-1.5 -2.5t-2.5 -2.5q-3 -1 -4.5 -2t-3.5 -1q-1 0 -1.5 0.5t-1.5 0.5q-2 0 -5.5 2t-5.5 2t-3 0.5t-3 0.5t-3 -0.5t-3 -0.5zM351 181q-11 37 -23 74.5t-24 72.5t-24 66.5t-25 56.5q-5 0 -10.5 -7.5t-11.5 -19.5q-12 -26 -24 -60t-21.5 -67.5
t-16.5 -61.5t-9 -40q25 -2 57 -3t67 -4q14 -1 31 -3zM153 601q-7 -4 -17 -4q-8 0 -16 3t-13 10q-2 2 -2.5 4.5t-1.5 4.5q-1 3 -1 9q0 3 2 9l3 10q5 10 12 18.5t14 16.5l6 7l9 8q12 10 25 14t27 4q26 0 58 -10.5t85 -25.5q2 0 4 -0.5t4 -0.5q2 -1 3.5 -2t3.5 -1h2q1 0 1 1
q12 8 23 21.5t25 13.5q6 0 14 -5q12 -8 12 -25q0 -14 -7 -29t-13 -26l-5 -7q-13 -14 -29.5 -19t-34.5 -5q-12 0 -23.5 2t-22.5 5q-2 0 -3.5 0.5t-3.5 0.5l-15 4q-12 4 -24 7.5t-24 6.5l-10 2q-5 1 -10.5 2.5t-10.5 1.5q-6 0 -9 -2q-8 -3 -14.5 -10.5t-15.5 -9.5z" />
    <glyph glyph-name="Adieresis" unicode="&#xc4;" horiz-adv-x="543" 
d="M56 0zM457 -69q-2 0 -3.5 -0.5t-4.5 -0.5q-2 0 -2.5 2.5t-2.5 4.5t-4.5 1.5t-3.5 0.5l-4 3l-3 4q-1 2 -2.5 3t-2.5 3q-4 9 -6.5 19.5t-6.5 21.5q0 2 -0.5 3l-1.5 3q0 1 -1 1.5t-1 1.5t0.5 2t0.5 2t-0.5 1.5t-0.5 2.5l-6 16q-6 15 -11.5 31.5t-10.5 33.5q-7 0 -8 2
q-1 1 -3 1t-4 -0.5t-4 -0.5q1 1 -1 1.5t-4 0.5h-10t-3 1q-2 0 -6.5 1.5t-8.5 2.5q-17 3 -38 5.5t-42.5 3.5t-42.5 2t-38 1h-11t-10 -1q-3 -29 -9 -59.5t-15 -54.5q0 -6 -2 -10l-3 -4q-9 -12 -16 -21.5t-18 -9.5q-16 0 -21 15t-5 35q0 14 1.5 29t3.5 29q0 1 1 1.5t1 2.5
q0 1 -0.5 1.5t-0.5 2.5q0 4 1.5 17.5t2.5 16.5q1 2 1 5q0 4 -2 6q1 3 3 6q2 2 2.5 4.5t1.5 2.5q-2 4 -2 6t1 4q1 1 1.5 1t1.5 1q1 0 1 1q0 2 -2.5 4.5l-3.5 3.5q3 3 4.5 9t1.5 11q0 2 -0.5 2t-0.5 2t1 3.5t1 2.5q0 5 1 8.5t1 8.5q0 8 1 13q0 2 1 5.5t2 5.5q0 4 -0.5 7
t-0.5 5t2 6q1 5 2 9.5t2 10.5q0 2 -0.5 3.5t-0.5 3.5t1 3q0 4 1 12.5t3 14.5q1 1 1 3t-0.5 4t-0.5 4t0.5 3t0.5 2q2 31 3 53t3 50q3 29 10 48.5t33 19.5q8 0 11 -1q2 -1 2.5 -2t2.5 -1q1 -1 1.5 -1t1.5 -2l5 -5q0 -2 1 -3t2 -3t1 -6q11 29 23 52.5t24 39.5q10 13 18 18t17 5
q14 0 22.5 -6t22.5 -31q27 -47 50.5 -106.5t44.5 -122.5t40.5 -124t38.5 -110q10 -24 17.5 -42.5t12.5 -32.5l2 -6q0 -1 0.5 -1.5t0.5 -1.5t0.5 -1.5t0.5 -1.5l2 -4q2 -5 2.5 -8.5t2.5 -8.5v-2q0 -1 0.5 -2t0.5 -2t-1 -2l-1 -1q-4 -3 -3 -5.5t-7 -2.5q-2 -2 -2 -3
q0 -8 -1.5 -7.5t-1.5 -1.5t-1.5 -2.5t-2.5 -2.5q-3 -1 -4.5 -2t-3.5 -1q-1 0 -1.5 0.5t-1.5 0.5q-2 0 -5.5 2t-5.5 2t-3 0.5t-3 0.5t-3 -0.5t-3 -0.5zM351 181q-11 37 -23 74.5t-24 72.5t-24 66.5t-25 56.5q-5 0 -10.5 -7.5t-11.5 -19.5q-12 -26 -24 -60t-21.5 -67.5
t-16.5 -61.5t-9 -40q25 -2 57 -3t67 -4q14 -1 31 -3zM394 651q-11 -26 -34 -40q-3 -2 -9 -4q-3 -1 -8 -1t-7 1q-8 1 -13 8q-4 2 -6.5 5.5t-4.5 7.5t-2.5 8t-1.5 9q0 11 1 16v10q0 6 1 8l5 9q1 4 5 6q3 2 4 3l3 3q2 0 3 1.5t3 2.5q4 2 8 2l7 2h13l10 -4t10 -7q4 -3 7 -7
q1 -5 3.5 -9t3.5 -9q1 -3 1 -8t-2 -13zM232 638q-4 -12 -13.5 -17.5t-20.5 -5.5t-21.5 6t-15.5 17l-3 8q0 1 -0.5 3t-0.5 5v8q0 5 1 9l3 8q2 6 4 9q1 4 5 6q8 9 14 12q7 4 18 4q3 0 9 -2q10 -3 17 -11q1 -3 5 -7q3 -4 5 -12q2 -6 2 -11q0 -3 -0.5 -4.5t-0.5 -3.5t-0.5 -3.5
t-0.5 -3.5q-2 -4 -2 -7z" />
    <glyph glyph-name="Aring" unicode="&#xc5;" horiz-adv-x="543" 
d="M56 0zM457 -69q-2 0 -3.5 -0.5t-4.5 -0.5q-2 0 -2.5 2.5t-2.5 4.5t-4.5 1.5t-3.5 0.5l-4 3l-3 4q-1 2 -2.5 3t-2.5 3q-4 9 -6.5 19.5t-6.5 21.5q0 2 -0.5 3l-1.5 3q0 1 -1 1.5t-1 1.5t0.5 2t0.5 2t-0.5 1.5t-0.5 2.5l-6 16q-6 15 -11.5 31.5t-10.5 33.5q-7 0 -8 2
q-1 1 -3 1t-4 -0.5t-4 -0.5q1 1 -1 1.5t-4 0.5h-10t-3 1q-2 0 -6.5 1.5t-8.5 2.5q-17 3 -38 5.5t-42.5 3.5t-42.5 2t-38 1h-11t-10 -1q-3 -29 -9 -59.5t-15 -54.5q0 -6 -2 -10l-3 -4q-9 -12 -16 -21.5t-18 -9.5q-16 0 -21 15t-5 35q0 14 1.5 29t3.5 29q0 1 1 1.5t1 2.5
q0 1 -0.5 1.5t-0.5 2.5q0 4 1.5 17.5t2.5 16.5q1 2 1 5q0 4 -2 6q1 3 3 6q2 2 2.5 4.5t1.5 2.5q-2 4 -2 6t1 4q1 1 1.5 1t1.5 1q1 0 1 1q0 2 -2.5 4.5l-3.5 3.5q3 3 4.5 9t1.5 11q0 2 -0.5 2t-0.5 2t1 3.5t1 2.5q0 5 1 8.5t1 8.5q0 8 1 13q0 2 1 5.5t2 5.5q0 4 -0.5 7
t-0.5 5t2 6q1 5 2 9.5t2 10.5q0 2 -0.5 3.5t-0.5 3.5t1 3q0 4 1 12.5t3 14.5q1 1 1 3t-0.5 4t-0.5 4t0.5 3t0.5 2q2 31 3 53t3 50q3 29 10 48.5t33 19.5q8 0 11 -1q2 -1 2.5 -2t2.5 -1q1 -1 1.5 -1t1.5 -2l5 -5q0 -2 1 -3t2 -3t1 -6q11 29 23 52.5t24 39.5q10 13 18 18t17 5
q14 0 22.5 -6t22.5 -31q27 -47 50.5 -106.5t44.5 -122.5t40.5 -124t38.5 -110q10 -24 17.5 -42.5t12.5 -32.5l2 -6q0 -1 0.5 -1.5t0.5 -1.5t0.5 -1.5t0.5 -1.5l2 -4q2 -5 2.5 -8.5t2.5 -8.5v-2q0 -1 0.5 -2t0.5 -2t-1 -2l-1 -1q-4 -3 -3 -5.5t-7 -2.5q-2 -2 -2 -3
q0 -8 -1.5 -7.5t-1.5 -1.5t-1.5 -2.5t-2.5 -2.5q-3 -1 -4.5 -2t-3.5 -1q-1 0 -1.5 0.5t-1.5 0.5q-2 0 -5.5 2t-5.5 2t-3 0.5t-3 0.5t-3 -0.5t-3 -0.5zM351 181q-11 37 -23 74.5t-24 72.5t-24 66.5t-25 56.5q-5 0 -10.5 -7.5t-11.5 -19.5q-12 -26 -24 -60t-21.5 -67.5
t-16.5 -61.5t-9 -40q25 -2 57 -3t67 -4q14 -1 31 -3zM331 656q-5 -9 -8 -17l-12 -14l-7 -5q-5 -2 -8 -6q-21 -9 -44 -9q-8 0 -13.5 2t-12.5 4l-9 3q-5 2 -8.5 3.5t-6.5 3.5l-8 6l-6 7q-4 4 -4 6q-8 12 -9.5 25t-1.5 27q2 5 2 9t1 8v7q2 20 12.5 39.5t30.5 30.5q1 0 5 2
q20 10 40 10q14 0 23 -4q21 -11 34 -32t16 -44q1 -2 1 -8q0 -3 -0.5 -7t-0.5 -8q-2 -21 -6 -39zM281 672q1 1 4 6q2 2 2.5 6.5t0.5 8.5q0 11 -3 20q-1 3 -5 7q-2 4 -6 6t-5 2q-6 2 -7 2q-3 1 -10 1q-15 0 -24 -12t-9 -26v-10q2 -13 13.5 -18.5t22.5 -5.5q2 0 4 0.5t4 0.5
q4 2 7.5 3.5t7.5 3.5z" />
    <glyph glyph-name="AE" unicode="&#xc6;" horiz-adv-x="770" 
d="M713 200q1 0 2 -0.5t2 -0.5t1.5 -0.5t1.5 -0.5q2 -2 4.5 -3t4.5 -3q5 -5 10 -15q4 -8 4 -17q0 -4 -0.5 -7.5t-0.5 -7.5q0 -15 -9.5 -26.5t-26.5 -28.5q-37 -35 -84 -54t-100 -19q-24 0 -50.5 5t-47.5 20q-27 20 -40.5 50t-18.5 65q-2 0 -6 1.5t-8 2.5q-13 3 -30.5 4
t-40.5 1q-20 0 -42.5 -0.5t-40.5 -1.5h-11t-10 -1q-16 -28 -30 -62.5t-28 -58.5q-1 -3 -2 -5.5t-2 -4.5l-4 -4q-9 -14 -19 -18.5t-21 -4.5q-13 0 -17.5 8.5t-4.5 22.5q0 15 4.5 33.5t9.5 35.5q0 2 1.5 2t1.5 2t-1 3q0 2 1 9t2 10l2 6q0 1 -0.5 2t-0.5 3q3 3 5 6q2 2 3 4.5
t2 2.5q0 3 -2 5q2 1 1.5 2t0.5 3q1 1 1.5 1t1.5 1q1 0 2 1q0 2 -2 4.5t-3 3.5q3 3 6.5 10t3.5 11q0 7 3 9q1 5 2 8.5t3 8.5q1 5 1 7t2 6q0 2 1.5 5.5t3.5 5.5q1 7 1 11t3 7q2 5 3 8t3 8q2 2 1.5 7t1.5 7q1 4 4 12.5t5 14.5q2 2 2 6.5t2 9.5q4 15 8.5 25t9 18.5t9 17.5
t8.5 23q8 29 18 48.5t36 19.5q8 0 11 -1q2 -1 2 -2t2 -1q1 -1 1.5 -1t1.5 -2l4 -5q0 -3 1 -5t1 -7q19 23 30 36t26 29q6 6 15 15.5t20.5 17.5t24 14t24.5 6q9 0 16 -4t12.5 -8.5t9.5 -8.5t7 -4q11 4 34 9t49.5 9.5t51.5 8t40 3.5t31 -2.5t29.5 -8t22 -15t8.5 -22.5
q0 -8 -4.5 -17t-8.5 -13q-10 -10 -20 -13.5t-18 -3.5h-10q-8 0 -18.5 2.5t-18.5 4.5q-9 2 -15.5 3t-20.5 1q-15 0 -32 -6t-26 -16q0 -7 -2 -27t-5 -35q-4 -17 -8.5 -29.5t-5.5 -32.5q15 0 32 0.5t34 1.5t32.5 1.5t26.5 0.5q15 0 25 -3t16 -6q7 -4 13.5 -11.5t6.5 -18.5
q0 -17 -9.5 -23.5t-17.5 -9.5q-5 -2 -13.5 -4t-18.5 -4t-19.5 -3.5t-15.5 -2.5q-5 0 -14.5 -1t-19.5 -2t-19 -2.5l-15 -2.5q-8 -2 -25 -3t-25 -1q0 -1 -1 -9.5t-2 -20t-2 -24.5t-1 -23q0 -16 1.5 -32t7.5 -29t17.5 -21t32.5 -8q16 0 41 5q33 6 62.5 17.5t59.5 43.5q3 3 5 6
l4 6q2 4 4 6q1 1 1.5 2t2.5 2l6 7q3 2 4.5 4t5.5 2q1 0 2 0.5t3 0.5h4zM363 245q6 61 23 126l3 12q2 6 3.5 15.5t3.5 22.5l2 30q0 14 -6 24.5t-17 13.5q-10 0 -21 -7.5t-21 -18t-18 -21t-12 -16.5q-18 -27 -36 -58.5t-32.5 -58.5t-24 -44.5l-9.5 -17.5q12 0 37 1.5t54 1.5
q8 0 20 -0.5t20 -1.5z" />
    <glyph glyph-name="Ccedilla" unicode="&#xc7;" horiz-adv-x="516" 
d="M263 -114q-19 0 -24 17q-3 6 -3 11q-1 2 -1 7v10q1 12 2 26.5t3 25.5q-48 4 -85 24t-61.5 51t-37 69.5t-12.5 80.5q0 63 13 119.5t39 102.5q4 4 5.5 12t6.5 10q6 4 11 14.5t9 14.5q4 1 9 6t7 9q4 0 5.5 3.5t3.5 5.5q2 0 4.5 2t4.5 4q3 2 10 6.5t9 8.5q6 2 12 3.5t10 1.5
q2 4 7.5 6.5t12.5 7.5q11 0 16 1.5t10 1.5q8 4 26 7.5t33 3.5q23 0 46 -8.5t37 -22.5q21 -21 21 -44q0 -11 -6 -27q-1 -4 -5 -12q-5 -8 -15.5 -11.5t-21.5 -3.5t-15.5 0.5t-10.5 5.5q-4 3 -7.5 4.5t-6.5 3.5q-14 7 -25 7q-2 0 -4.5 -1t-4.5 -1l-8 3l-9 -4q-8 0 -11 -1
q-35 -8 -59.5 -30t-41 -53t-24 -69t-7.5 -78q0 -65 38.5 -103t109.5 -38q23 0 46.5 2.5t45 6t39.5 6t30 2.5q23 0 29.5 -9.5t6.5 -26.5q0 -1 -2 -10.5t-3 -10.5q-7 -8 -15.5 -14t-19.5 -12l-9 -4.5t-8 -4.5q-2 -2 -4.5 -2t-4.5 -2q-3 0 -4.5 -0.5t-4.5 -0.5q-4 -2 -10.5 -3
t-10.5 -1q-5 -3 -9.5 -3.5t-10.5 -1.5q-5 -2 -16 -3t-18 -2q-6 0 -12 -0.5t-12 -0.5q-1 -8 -2 -17.5t-1 -19.5q19 7 36 7q7 0 10 -1q24 -5 36 -21.5t12 -36.5q0 -26 -17 -46q-3 -3 -6 -6.5t-7 -5.5l-7 -5q-7 -4 -6 -5q-2 0 -4 -0.5t-2 -3.5q-7 0 -7 -3l-9 -2q-8 -2 -8 -4h-8
q-8 -1 -13 -4q0 2 -3 2q-2 0 -3 -1q-1 1 -4 1q-2 0 -3.5 -0.5t-3.5 -0.5q0 2 -7 3q0 1 -7 4q0 1 -5 6q0 2 -3 7q-1 3 -1 8q0 9 4 14q8 12 26.5 15t32.5 6l5 4q4 7 4 12q0 8 -3.5 9.5t-9.5 1.5t-9 -1q-11 -1 -20.5 -5t-20.5 -6h-4z" />
    <glyph glyph-name="Egrave" unicode="&#xc8;" horiz-adv-x="476" 
d="M65 0zM416 153q1 0 2 -0.5t2 -0.5t1.5 -0.5t1.5 -0.5q2 -2 4.5 -3t4.5 -3q5 -5 10 -15q4 -8 4 -17q0 -4 -0.5 -7.5t-0.5 -7.5q0 -15 -9.5 -27t-26.5 -28q-37 -35 -92 -56t-108 -21q-24 0 -44.5 7.5t-41.5 22.5q-18 13 -29.5 31.5t-17.5 39.5t-8.5 44.5t-2.5 47.5
q0 39 6.5 81t17.5 84l3 12q2 6 3.5 15.5t3.5 22.5l5 39q-1 0 -1.5 0.5t-4.5 0.5q-2 0 -3.5 1t-3.5 2q-1 0 -2.5 1t-2.5 1q0 1 -1 3t-1 5q0 4 -3 5q-2 3 -2.5 8t-3.5 5q-1 0 -1 3t-1 2q1 2 1 5q0 2 -0.5 4t-0.5 4q0 10 1 14q2 3 6.5 8.5t9.5 7.5q2 7 9 9t12 7q10 4 20.5 10
t24.5 8q6 3 10 3q22 8 45.5 13t48.5 5q8 0 16 -0.5t15 -1.5q8 -1 16 -1q11 0 26.5 -3t29.5 -9t24 -16t10 -23q0 -8 -4.5 -17t-8.5 -13q-10 -10 -20 -13.5t-18 -3.5h-10q-8 0 -18.5 2.5t-18.5 4.5q-10 2 -19 2h-23q-15 0 -29 -5t-23 -15q0 -7 -2 -27t-5 -35
q-4 -17 -8.5 -29.5t-5.5 -32.5q36 0 69.5 2t55.5 2q15 0 25 -3t16 -6q7 -4 13.5 -11.5t6.5 -18.5q0 -17 -9.5 -23.5t-17.5 -9.5q-5 -2 -13.5 -4t-18.5 -4t-19.5 -3.5t-15.5 -2.5q-5 0 -14.5 -1t-19.5 -2t-19 -2.5l-15 -2.5q-8 -2 -25 -3t-25 -1q0 -1 -1 -9.5t-2 -20
t-2 -24.5t-1 -23q0 -16 1.5 -32t7.5 -29t17.5 -21t32.5 -8q9 0 22 1.5t30 6.5q8 2 21.5 7t28 12t28.5 15t23 16l13.5 13.5t5.5 6.5q2 4 4 6q1 1 1.5 2t2.5 2q4 7 8 9q1 0 3 2t5 2q1 0 2 0.5t3 0.5h4zM247 708q7 -8 15.5 -15.5t16 -15.5t12.5 -17t5 -20q0 -14 -11 -20t-26 -6
q-18 0 -34 7l-8 4q-4 3 -8 5l-6 5q-10 9 -21 17.5t-22 16.5q-1 2 -5 6q-14 12 -22 28t-8 33q0 11 3.5 21t11.5 19q2 1 3.5 2t3.5 2q2 2 7 4l9 2q3 0 5.5 0.5t4.5 0.5q15 -2 24.5 -12t16.5 -22l4 -8q3 -6 6.5 -12t8.5 -11l6 -8z" />
    <glyph glyph-name="Eacute" unicode="&#xc9;" horiz-adv-x="476" 
d="M65 0zM416 153q1 0 2 -0.5t2 -0.5t1.5 -0.5t1.5 -0.5q2 -2 4.5 -3t4.5 -3q5 -5 10 -15q4 -8 4 -17q0 -4 -0.5 -7.5t-0.5 -7.5q0 -15 -9.5 -27t-26.5 -28q-37 -35 -92 -56t-108 -21q-24 0 -44.5 7.5t-41.5 22.5q-18 13 -29.5 31.5t-17.5 39.5t-8.5 44.5t-2.5 47.5
q0 39 6.5 81t17.5 84l3 12q2 6 3.5 15.5t3.5 22.5l5 39q-1 0 -1.5 0.5t-4.5 0.5q-2 0 -3.5 1t-3.5 2q-1 0 -2.5 1t-2.5 1q0 1 -1 3t-1 5q0 4 -3 5q-2 3 -2.5 8t-3.5 5q-1 0 -1 3t-1 2q1 2 1 5q0 2 -0.5 4t-0.5 4q0 10 1 14q2 3 6.5 8.5t9.5 7.5q2 7 9 9t12 7q10 4 20.5 10
t24.5 8q6 3 10 3q22 8 45.5 13t48.5 5q8 0 16 -0.5t15 -1.5q8 -1 16 -1q11 0 26.5 -3t29.5 -9t24 -16t10 -23q0 -8 -4.5 -17t-8.5 -13q-10 -10 -20 -13.5t-18 -3.5h-10q-8 0 -18.5 2.5t-18.5 4.5q-10 2 -19 2h-23q-15 0 -29 -5t-23 -15q0 -7 -2 -27t-5 -35
q-4 -17 -8.5 -29.5t-5.5 -32.5q36 0 69.5 2t55.5 2q15 0 25 -3t16 -6q7 -4 13.5 -11.5t6.5 -18.5q0 -17 -9.5 -23.5t-17.5 -9.5q-5 -2 -13.5 -4t-18.5 -4t-19.5 -3.5t-15.5 -2.5q-5 0 -14.5 -1t-19.5 -2t-19 -2.5l-15 -2.5q-8 -2 -25 -3t-25 -1q0 -1 -1 -9.5t-2 -20
t-2 -24.5t-1 -23q0 -16 1.5 -32t7.5 -29t17.5 -21t32.5 -8q9 0 22 1.5t30 6.5q8 2 21.5 7t28 12t28.5 15t23 16l13.5 13.5t5.5 6.5q2 4 4 6q1 1 1.5 2t2.5 2q4 7 8 9q1 0 3 2t5 2q1 0 2 0.5t3 0.5h4zM176 599q-6 2 -8.5 3t-7.5 6q-3 3 -4 3t-3 4q0 2 -0.5 4t-0.5 4
q1 8 4 15.5t11 11.5q23 13 37.5 32.5t28.5 42.5l4 8q2 4 3 7t3 7t4 14l3 5q5 3 5 7q7 1 7 8q1 0 1.5 -0.5t1.5 -0.5q5 0 5 7q2 -1 4 -1q4 0 6 6q6 0 9 2q4 0 8 2h9q5 0 8 -1q4 -2 4.5 -1t3.5 -3l6 -8q2 -2 2.5 -3.5t1.5 -3.5l2 -4t1 -4q3 -9 3 -20q0 -10 -1 -15t-2 -9t-3 -9
q-1 -2 -2 -4.5t-1 -4.5q-2 -2 -2.5 -3.5t-1.5 -3.5q-3 -3 -4 -7l-11 -16q-12 -15 -26 -29t-30 -25l-9 -6q-29 -16 -58 -19z" />
    <glyph glyph-name="Ecircumflex" unicode="&#xca;" horiz-adv-x="476" 
d="M65 0zM416 153q1 0 2 -0.5t2 -0.5t1.5 -0.5t1.5 -0.5q2 -2 4.5 -3t4.5 -3q5 -5 10 -15q4 -8 4 -17q0 -4 -0.5 -7.5t-0.5 -7.5q0 -15 -9.5 -27t-26.5 -28q-37 -35 -92 -56t-108 -21q-24 0 -44.5 7.5t-41.5 22.5q-18 13 -29.5 31.5t-17.5 39.5t-8.5 44.5t-2.5 47.5
q0 39 6.5 81t17.5 84l3 12q2 6 3.5 15.5t3.5 22.5l5 39q-1 0 -1.5 0.5t-4.5 0.5q-2 0 -3.5 1t-3.5 2q-1 0 -2.5 1t-2.5 1q0 1 -1 3t-1 5q0 4 -3 5q-2 3 -2.5 8t-3.5 5q-1 0 -1 3t-1 2q1 2 1 5q0 2 -0.5 4t-0.5 4q0 10 1 14q2 3 6.5 8.5t9.5 7.5q2 7 9 9t12 7q10 4 20.5 10
t24.5 8q6 3 10 3q22 8 45.5 13t48.5 5q8 0 16 -0.5t15 -1.5q8 -1 16 -1q11 0 26.5 -3t29.5 -9t24 -16t10 -23q0 -8 -4.5 -17t-8.5 -13q-10 -10 -20 -13.5t-18 -3.5h-10q-8 0 -18.5 2.5t-18.5 4.5q-10 2 -19 2h-23q-15 0 -29 -5t-23 -15q0 -7 -2 -27t-5 -35
q-4 -17 -8.5 -29.5t-5.5 -32.5q36 0 69.5 2t55.5 2q15 0 25 -3t16 -6q7 -4 13.5 -11.5t6.5 -18.5q0 -17 -9.5 -23.5t-17.5 -9.5q-5 -2 -13.5 -4t-18.5 -4t-19.5 -3.5t-15.5 -2.5q-5 0 -14.5 -1t-19.5 -2t-19 -2.5l-15 -2.5q-8 -2 -25 -3t-25 -1q0 -1 -1 -9.5t-2 -20
t-2 -24.5t-1 -23q0 -16 1.5 -32t7.5 -29t17.5 -21t32.5 -8q9 0 22 1.5t30 6.5q8 2 21.5 7t28 12t28.5 15t23 16l13.5 13.5t5.5 6.5q2 4 4 6q1 1 1.5 2t2.5 2q4 7 8 9q1 0 3 2t5 2q1 0 2 0.5t3 0.5h4zM251 756q2 0 4 0.5t4 0.5q22 0 45 -26q10 -11 20 -25.5t18 -29.5
t13 -29.5t5 -25.5q0 -2 -0.5 -4.5t-0.5 -4.5q-4 -4 -6.5 -10t-12.5 -6q-2 0 -3 0.5t-2 0.5q-12 3 -24.5 15.5t-26.5 25.5q-11 10 -20.5 19.5t-20.5 10.5q-8 -5 -20.5 -16t-26 -22t-27.5 -20.5t-24 -12.5q-2 0 -2.5 -0.5t-2.5 -0.5q-11 0 -14.5 3t-8.5 8q0 2 -0.5 4.5
t-0.5 4.5q0 13 8 27.5t20 32.5q15 23 33 44.5t41 27.5z" />
    <glyph glyph-name="Edieresis" unicode="&#xcb;" horiz-adv-x="476" 
d="M65 0zM416 153q1 0 2 -0.5t2 -0.5t1.5 -0.5t1.5 -0.5q2 -2 4.5 -3t4.5 -3q5 -5 10 -15q4 -8 4 -17q0 -4 -0.5 -7.5t-0.5 -7.5q0 -15 -9.5 -27t-26.5 -28q-37 -35 -92 -56t-108 -21q-24 0 -44.5 7.5t-41.5 22.5q-18 13 -29.5 31.5t-17.5 39.5t-8.5 44.5t-2.5 47.5
q0 39 6.5 81t17.5 84l3 12q2 6 3.5 15.5t3.5 22.5l5 39q-1 0 -1.5 0.5t-4.5 0.5q-2 0 -3.5 1t-3.5 2q-1 0 -2.5 1t-2.5 1q0 1 -1 3t-1 5q0 4 -3 5q-2 3 -2.5 8t-3.5 5q-1 0 -1 3t-1 2q1 2 1 5q0 2 -0.5 4t-0.5 4q0 10 1 14q2 3 6.5 8.5t9.5 7.5q2 7 9 9t12 7q10 4 20.5 10
t24.5 8q6 3 10 3q22 8 45.5 13t48.5 5q8 0 16 -0.5t15 -1.5q8 -1 16 -1q11 0 26.5 -3t29.5 -9t24 -16t10 -23q0 -8 -4.5 -17t-8.5 -13q-10 -10 -20 -13.5t-18 -3.5h-10q-8 0 -18.5 2.5t-18.5 4.5q-10 2 -19 2h-23q-15 0 -29 -5t-23 -15q0 -7 -2 -27t-5 -35
q-4 -17 -8.5 -29.5t-5.5 -32.5q36 0 69.5 2t55.5 2q15 0 25 -3t16 -6q7 -4 13.5 -11.5t6.5 -18.5q0 -17 -9.5 -23.5t-17.5 -9.5q-5 -2 -13.5 -4t-18.5 -4t-19.5 -3.5t-15.5 -2.5q-5 0 -14.5 -1t-19.5 -2t-19 -2.5l-15 -2.5q-8 -2 -25 -3t-25 -1q0 -1 -1 -9.5t-2 -20
t-2 -24.5t-1 -23q0 -16 1.5 -32t7.5 -29t17.5 -21t32.5 -8q9 0 22 1.5t30 6.5q8 2 21.5 7t28 12t28.5 15t23 16l13.5 13.5t5.5 6.5q2 4 4 6q1 1 1.5 2t2.5 2q4 7 8 9q1 0 3 2t5 2q1 0 2 0.5t3 0.5h4zM364 651q-11 -26 -34 -40q-3 -2 -9 -4q-3 -1 -8 -1t-7 1q-8 1 -13 8
q-4 2 -6.5 5.5t-4.5 7.5t-2.5 8t-1.5 9q0 11 1 16v10q0 6 1 8l5 9q1 4 5 6q3 2 4 3l3 3q2 0 3 1.5t3 2.5q4 2 8 2l7 2h13l10 -4t10 -7q4 -3 7 -7q1 -5 3.5 -9t3.5 -9q1 -3 1 -8t-2 -13zM202 638q-4 -12 -13.5 -17.5t-20.5 -5.5t-21.5 6t-15.5 17l-3 8q0 1 -0.5 3t-0.5 5v8
q0 5 1 9l3 8q2 6 4 9q1 4 5 6q8 9 14 12q7 4 18 4q3 0 9 -2q10 -3 17 -11q1 -3 5 -7q3 -4 5 -12q2 -6 2 -11q0 -3 -0.5 -4.5t-0.5 -3.5t-0.5 -3.5t-0.5 -3.5q-2 -4 -2 -7z" />
    <glyph glyph-name="Igrave" unicode="&#xcc;" horiz-adv-x="257" 
d="M66 0zM155 14q1 -4 1.5 -8.5t1.5 -5.5q0 -2 -0.5 -2.5t-0.5 -2.5t1 -3q-1 -1 -1 -5q0 -20 -2.5 -32.5t-14.5 -17.5q-2 0 -2.5 -1t-2.5 -1q-2 1 -5 1t-5 2q-2 0 -5.5 0.5t-5.5 0.5q-2 1 -3.5 2t-3.5 2q-15 10 -19 24q0 1 -0.5 1.5t-0.5 1.5q-4 15 -5.5 33.5t-1.5 36.5
q0 22 1 40.5t2 30.5q0 18 1 44.5t2.5 55t3 54.5t3.5 43l5 61q-1 7 -1 11.5v9.5q0 8 0.5 15t0.5 11q0 3 2 6t2 7q2 33 7 65t22 54q25 29 56 29q11 0 19 -4t12 -15q4 -1 4 -4q0 -2 -1 -4t-1 -5q0 -4 1 -6.5t1 -3.5q0 -22 -4 -42.5t-15 -42.5l-2 -4q-2 -4 -2 -7q-1 -3 -2.5 -6
t-1.5 -8q-4 -22 -10 -64t-11.5 -87t-10 -83.5t-5.5 -53.5q-1 -7 -1 -14v-14q0 -19 1 -35.5t1 -27.5v-5q0 -2 1 -3l-2 -4zM188 708q7 -8 15.5 -15.5t16 -15.5t12.5 -17t5 -20q0 -14 -11 -20t-26 -6q-18 0 -34 7l-8 4q-4 3 -8 5l-6 5q-10 9 -21 17.5t-22 16.5q-1 2 -5 6
q-14 12 -22 28t-8 33q0 11 3.5 21t11.5 19q2 1 3.5 2t3.5 2q2 2 7 4l9 2q3 0 5.5 0.5t4.5 0.5q15 -2 24.5 -12t16.5 -22l4 -8q3 -6 6.5 -12t8.5 -11l6 -8z" />
    <glyph glyph-name="Iacute" unicode="&#xcd;" horiz-adv-x="257" 
d="M80 0zM155 14q1 -4 1.5 -8.5t1.5 -5.5q0 -2 -0.5 -2.5t-0.5 -2.5t1 -3q-1 -1 -1 -5q0 -20 -2.5 -32.5t-14.5 -17.5q-2 0 -2.5 -1t-2.5 -1q-2 1 -5 1t-5 2q-2 0 -5.5 0.5t-5.5 0.5q-2 1 -3.5 2t-3.5 2q-15 10 -19 24q0 1 -0.5 1.5t-0.5 1.5q-4 15 -5.5 33.5t-1.5 36.5
q0 22 1 40.5t2 30.5q0 18 1 44.5t2.5 55t3 54.5t3.5 43l5 61q-1 7 -1 11.5v9.5q0 8 0.5 15t0.5 11q0 3 2 6t2 7q2 33 7 65t22 54q25 29 56 29q11 0 19 -4t12 -15q4 -1 4 -4q0 -2 -1 -4t-1 -5q0 -4 1 -6.5t1 -3.5q0 -22 -4 -42.5t-15 -42.5l-2 -4q-2 -4 -2 -7q-1 -3 -2.5 -6
t-1.5 -8q-4 -22 -10 -64t-11.5 -87t-10 -83.5t-5.5 -53.5q-1 -7 -1 -14v-14q0 -19 1 -35.5t1 -27.5v-5q0 -2 1 -3l-2 -4zM118 599q-6 2 -8.5 3t-7.5 6q-3 3 -4 3t-3 4q0 2 -0.5 4t-0.5 4q1 8 4 15.5t11 11.5q23 13 37.5 32.5t28.5 42.5l4 8q2 4 3 7t3 7t4 14l3 5q5 3 5 7
q7 1 7 8q1 0 1.5 -0.5t1.5 -0.5q5 0 5 7q2 -1 4 -1q4 0 6 6q6 0 9 2q4 0 8 2h9q5 0 8 -1q4 -2 4.5 -1t3.5 -3l6 -8q2 -2 2.5 -3.5t1.5 -3.5l2 -4t1 -4q3 -9 3 -20q0 -10 -1 -15t-2 -9t-3 -9q-1 -2 -2 -4.5t-1 -4.5q-2 -2 -2.5 -3.5t-1.5 -3.5q-3 -3 -4 -7l-11 -16
q-12 -15 -26 -29t-30 -25l-9 -6q-29 -16 -58 -19z" />
    <glyph glyph-name="Icircumflex" unicode="&#xce;" horiz-adv-x="257" 
d="M66 0zM155 14q1 -4 1.5 -8.5t1.5 -5.5q0 -2 -0.5 -2.5t-0.5 -2.5t1 -3q-1 -1 -1 -5q0 -20 -2.5 -32.5t-14.5 -17.5q-2 0 -2.5 -1t-2.5 -1q-2 1 -5 1t-5 2q-2 0 -5.5 0.5t-5.5 0.5q-2 1 -3.5 2t-3.5 2q-15 10 -19 24q0 1 -0.5 1.5t-0.5 1.5q-4 15 -5.5 33.5t-1.5 36.5
q0 22 1 40.5t2 30.5q0 18 1 44.5t2.5 55t3 54.5t3.5 43l5 61q-1 7 -1 11.5v9.5q0 8 0.5 15t0.5 11q0 3 2 6t2 7q2 33 7 65t22 54q25 29 56 29q11 0 19 -4t12 -15q4 -1 4 -4q0 -2 -1 -4t-1 -5q0 -4 1 -6.5t1 -3.5q0 -22 -4 -42.5t-15 -42.5l-2 -4q-2 -4 -2 -7q-1 -3 -2.5 -6
t-1.5 -8q-4 -22 -10 -64t-11.5 -87t-10 -83.5t-5.5 -53.5q-1 -7 -1 -14v-14q0 -19 1 -35.5t1 -27.5v-5q0 -2 1 -3l-2 -4zM201 756q2 0 4 0.5t4 0.5q22 0 45 -26q10 -11 20 -25.5t18 -29.5t13 -29.5t5 -25.5q0 -2 -0.5 -4.5t-0.5 -4.5q-4 -4 -6.5 -10t-12.5 -6q-2 0 -3 0.5
t-2 0.5q-12 3 -24.5 15.5t-26.5 25.5q-11 10 -20.5 19.5t-20.5 10.5q-8 -5 -20.5 -16t-26 -22t-27.5 -20.5t-24 -12.5q-2 0 -2.5 -0.5t-2.5 -0.5q-11 0 -14.5 3t-8.5 8q0 2 -0.5 4.5t-0.5 4.5q0 13 8 27.5t20 32.5q15 23 33 44.5t41 27.5z" />
    <glyph glyph-name="Idieresis" unicode="&#xcf;" horiz-adv-x="257" 
d="M73 0zM155 14q1 -4 1.5 -8.5t1.5 -5.5q0 -2 -0.5 -2.5t-0.5 -2.5t1 -3q-1 -1 -1 -5q0 -20 -2.5 -32.5t-14.5 -17.5q-2 0 -2.5 -1t-2.5 -1q-2 1 -5 1t-5 2q-2 0 -5.5 0.5t-5.5 0.5q-2 1 -3.5 2t-3.5 2q-15 10 -19 24q0 1 -0.5 1.5t-0.5 1.5q-4 15 -5.5 33.5t-1.5 36.5
q0 22 1 40.5t2 30.5q0 18 1 44.5t2.5 55t3 54.5t3.5 43l5 61q-1 7 -1 11.5v9.5q0 8 0.5 15t0.5 11q0 3 2 6t2 7q2 33 7 65t22 54q25 29 56 29q11 0 19 -4t12 -15q4 -1 4 -4q0 -2 -1 -4t-1 -5q0 -4 1 -6.5t1 -3.5q0 -22 -4 -42.5t-15 -42.5l-2 -4q-2 -4 -2 -7q-1 -3 -2.5 -6
t-1.5 -8q-4 -22 -10 -64t-11.5 -87t-10 -83.5t-5.5 -53.5q-1 -7 -1 -14v-14q0 -19 1 -35.5t1 -27.5v-5q0 -2 1 -3l-2 -4zM310 651q-11 -26 -34 -40q-3 -2 -9 -4q-3 -1 -8 -1t-7 1q-8 1 -13 8q-4 2 -6.5 5.5t-4.5 7.5t-2.5 8t-1.5 9q0 11 1 16v10q0 6 1 8l5 9q1 4 5 6
q3 2 4 3l3 3q2 0 3 1.5t3 2.5q4 2 8 2l7 2h13l10 -4t10 -7q4 -3 7 -7q1 -5 3.5 -9t3.5 -9q1 -3 1 -8t-2 -13zM148 638q-4 -12 -13.5 -17.5t-20.5 -5.5t-21.5 6t-15.5 17l-3 8q0 1 -0.5 3t-0.5 5v8q0 5 1 9l3 8q2 6 4 9q1 4 5 6q8 9 14 12q7 4 18 4q3 0 9 -2q10 -3 17 -11
q1 -3 5 -7q3 -4 5 -12q2 -6 2 -11q0 -3 -0.5 -4.5t-0.5 -3.5t-0.5 -3.5t-0.5 -3.5q-2 -4 -2 -7z" />
    <glyph glyph-name="Eth" unicode="&#xd0;" horiz-adv-x="469" 
d="M85 99q-2 6 -1.5 17.5t-3.5 16.5q0 3 0.5 6.5t0.5 7.5q0 11 -1 20t-3 11q-1 1 0.5 1t1.5 3t-1 6t-1 7t1 6h-5q-10 -1 -20.5 -1.5t-25.5 -0.5q-17 0 -24 14.5t-7 24.5q0 5 2 15l2 8q1 5 3.5 10.5t9.5 10.5q5 3 23.5 5t36.5 3l1 30q0 8 -0.5 17t-1.5 16l-1 18v89
q-11 0 -14 3q-4 5 -8 12t-4 16q0 5 0.5 8.5t0.5 5.5q0 10 5.5 15.5l16.5 16.5q11 8 18 10.5t14 2.5q12 0 39 -5.5t53 -17.5q49 -23 90.5 -60t72 -82t47.5 -94t17 -95q0 -52 -21 -94.5t-66 -77.5q-34 -26 -70 -34t-81 -8q-27 0 -40.5 1t-17.5 2q-2 2 -8 4t-9 5q-4 1 -6 2.5
t-8 5.5q-12 8 -15 16.5t-3 22.5t6 23q2 0 4.5 1t4.5 1zM161 433q0 -11 0.5 -21.5t0.5 -15.5q-1 -19 -2 -39.5t-1 -50.5v-15q5 1 24 1q17 0 30 -1t21 -8q5 -3 6.5 -11t1.5 -13q0 -11 -4 -17t-14 -12q-7 -5 -12.5 -7.5t-10.5 -5.5q-5 -2 -15.5 -5t-20.5 -5q0 -4 0.5 -8t1.5 -9
v-9.5t-1 -8.5q1 -3 1 -8t1 -7q0 -2 -0.5 -3.5t-0.5 -3.5q0 -3 0.5 -6.5t0.5 -8.5q0 -7 1 -15.5t1 -14.5q0 -2 -0.5 -3.5t-0.5 -2.5q1 -3 1 -6t-1 -6q0 -3 1 -5q0 -7 1 -11q8 0 15.5 -0.5t17.5 -0.5q24 0 47 4t40 17q23 17 35.5 43t12.5 61t-15 71t-39.5 68.5t-55.5 58
t-62 38.5z" />
    <glyph glyph-name="Ntilde" unicode="&#xd1;" horiz-adv-x="560" 
d="M50 0zM494 336v-52.5t-0.5 -58.5t-0.5 -60v-56v-47t1 -32q-9 -16 -18 -26t-22 -10q-5 0 -11.5 1.5t-14.5 6.5q-33 20 -71 57q-6 6 -12 14t-12 15q-3 3 -7.5 8.5t-7.5 7.5q-1 2 -6 9t-10 9q-3 3 -5.5 7t-4.5 5q0 2 -7 12.5t-24 37.5q-6 10 -14 23t-16.5 27t-16.5 27
t-14 24q-10 16 -17.5 30.5t-9.5 14.5q-3 0 -3.5 -5.5t-2.5 -17.5q-2 -11 -5 -35t-6 -54.5t-6 -64.5t-6 -64t-5 -53.5t-2 -32.5q0 -2 0.5 -3t0.5 -3q0 -10 -6.5 -18t-11.5 -16q-5 -10 -13 -14t-15 -4q-2 0 -3 -0.5t-3 -0.5t-4.5 2t-10.5 9q-5 5 -13 12t-8 20q0 3 2 11
q0 1 -0.5 2t-0.5 2q0 5 1.5 11t1.5 11q2 6 2 9.5v5.5t-0.5 2.5t-0.5 1.5q2 4 1.5 9.5t0.5 10.5l2 22q2 22 5.5 48t5.5 55q3 34 6.5 74.5t8 79t9.5 71.5t11 53q3 12 9.5 22t20.5 10q15 0 31 -9.5t39 -44.5q24 -36 48.5 -75t49 -77t48.5 -73t45 -62q3 -4 7.5 -8.5t9.5 -4.5
t5 7q-2 30 -4.5 77t-2.5 98v31q0 29 1 50t2.5 37.5t3.5 30.5t4 30q2 15 8.5 31t17.5 27q5 5 13 8q5 2 11 2.5t11 0.5q8 0 12 -2.5t9 -8.5q8 -9 12 -23t4 -30q0 -13 -4 -29.5t-8.5 -35.5t-8.5 -40t-5 -43v-26zM188 601q-7 -4 -17 -4q-8 0 -16 3t-13 10q-2 2 -2.5 4.5
t-1.5 4.5q-1 3 -1 9q0 3 2 9l3 10q5 10 12 18.5t14 16.5l6 7l9 8q12 10 25 14t27 4q26 0 58 -10.5t85 -25.5q2 0 4 -0.5t4 -0.5q2 -1 3.5 -2t3.5 -1h2q1 0 1 1q12 8 23 21.5t25 13.5q6 0 14 -5q12 -8 12 -25q0 -14 -7 -29t-13 -26l-5 -7q-13 -14 -29.5 -19t-34.5 -5
q-12 0 -23.5 2t-22.5 5q-2 0 -3.5 0.5t-3.5 0.5l-15 4q-12 4 -24 7.5t-24 6.5l-10 2q-5 1 -10.5 2.5t-10.5 1.5q-6 0 -9 -2q-8 -3 -14.5 -10.5t-15.5 -9.5z" />
    <glyph glyph-name="Ograve" unicode="&#xd2;" horiz-adv-x="568" 
d="M40 0zM444 467q2 -3 5 -4.5t5 -5.5q3 -5 6.5 -5.5t5.5 -5.5q4 -2 11 -11q2 -5 4.5 -9.5t13.5 -20.5q1 -5 4 -11q2 -2 5.5 -7t5.5 -8q2 -5 3.5 -7.5t3.5 -6.5q2 -3 3 -10.5t2 -10.5q0 -2 0.5 -4.5t1.5 -3.5q14 -44 14 -91q0 -58 -16.5 -106.5t-49.5 -84t-81.5 -55.5
t-112.5 -20q-49 0 -87 17t-66 43.5t-47 58.5t-31 62q-2 6 -4 14q0 3 -1 8.5t-1 8.5t-0.5 5.5t-0.5 5.5q0 4 1.5 5.5t1.5 5.5q0 43 12.5 84t34 77.5t51 67.5t63.5 55q14 10 29 17t32 11q3 3 7 5q0 7 3 10t19 8q14 0 28.5 -4t17.5 -8h4q2 0 3.5 0.5t3.5 0.5q-1 0 -1 -1v-4
q1 -2 7 -1.5t8 -0.5l15 -8q6 -3 10.5 -7t9.5 -6q6 -4 11 -10t8 -8q4 -4 6 -5.5t7 -7.5zM320 433q-5 2 -9 3.5t-7 3.5q-30 -4 -60.5 -25.5t-55.5 -53t-40.5 -70.5t-15.5 -78q0 -29 13 -55t35 -45.5t49.5 -31t56.5 -11.5q37 0 68 11.5t53 33t34.5 53t12.5 72.5q0 59 -29 109
l-5 7.5t-5 8.5q-2 3 -6.5 6.5t-6.5 6.5q-3 4 -4.5 6.5t-3.5 6.5l-4.5 4.5t-3.5 4.5q-2 5 -13.5 11t-18.5 10zM318 708q7 -8 15.5 -15.5t16 -15.5t12.5 -17t5 -20q0 -14 -11 -20t-26 -6q-18 0 -34 7l-8 4q-4 3 -8 5l-6 5q-10 9 -21 17.5t-22 16.5q-1 2 -5 6q-14 12 -22 28
t-8 33q0 11 3.5 21t11.5 19q2 1 3.5 2t3.5 2q2 2 7 4l9 2q3 0 5.5 0.5t4.5 0.5q15 -2 24.5 -12t16.5 -22l4 -8q3 -6 6.5 -12t8.5 -11l6 -8z" />
    <glyph glyph-name="Oacute" unicode="&#xd3;" horiz-adv-x="568" 
d="M40 0zM444 467q2 -3 5 -4.5t5 -5.5q3 -5 6.5 -5.5t5.5 -5.5q4 -2 11 -11q2 -5 4.5 -9.5t13.5 -20.5q1 -5 4 -11q2 -2 5.5 -7t5.5 -8q2 -5 3.5 -7.5t3.5 -6.5q2 -3 3 -10.5t2 -10.5q0 -2 0.5 -4.5t1.5 -3.5q14 -44 14 -91q0 -58 -16.5 -106.5t-49.5 -84t-81.5 -55.5
t-112.5 -20q-49 0 -87 17t-66 43.5t-47 58.5t-31 62q-2 6 -4 14q0 3 -1 8.5t-1 8.5t-0.5 5.5t-0.5 5.5q0 4 1.5 5.5t1.5 5.5q0 43 12.5 84t34 77.5t51 67.5t63.5 55q14 10 29 17t32 11q3 3 7 5q0 7 3 10t19 8q14 0 28.5 -4t17.5 -8h4q2 0 3.5 0.5t3.5 0.5q-1 0 -1 -1v-4
q1 -2 7 -1.5t8 -0.5l15 -8q6 -3 10.5 -7t9.5 -6q6 -4 11 -10t8 -8q4 -4 6 -5.5t7 -7.5zM320 433q-5 2 -9 3.5t-7 3.5q-30 -4 -60.5 -25.5t-55.5 -53t-40.5 -70.5t-15.5 -78q0 -29 13 -55t35 -45.5t49.5 -31t56.5 -11.5q37 0 68 11.5t53 33t34.5 53t12.5 72.5q0 59 -29 109
l-5 7.5t-5 8.5q-2 3 -6.5 6.5t-6.5 6.5q-3 4 -4.5 6.5t-3.5 6.5l-4.5 4.5t-3.5 4.5q-2 5 -13.5 11t-18.5 10zM241 599q-6 2 -8.5 3t-7.5 6q-3 3 -4 3t-3 4q0 2 -0.5 4t-0.5 4q1 8 4 15.5t11 11.5q23 13 37.5 32.5t28.5 42.5l4 8q2 4 3 7t3 7t4 14l3 5q5 3 5 7q7 1 7 8
q1 0 1.5 -0.5t1.5 -0.5q5 0 5 7q2 -1 4 -1q4 0 6 6q6 0 9 2q4 0 8 2h9q5 0 8 -1q4 -2 4.5 -1t3.5 -3l6 -8q2 -2 2.5 -3.5t1.5 -3.5l2 -4t1 -4q3 -9 3 -20q0 -10 -1 -15t-2 -9t-3 -9q-1 -2 -2 -4.5t-1 -4.5q-2 -2 -2.5 -3.5t-1.5 -3.5q-3 -3 -4 -7l-11 -16q-12 -15 -26 -29
t-30 -25l-9 -6q-29 -16 -58 -19z" />
    <glyph glyph-name="Ocircumflex" unicode="&#xd4;" horiz-adv-x="568" 
d="M40 0zM444 467q2 -3 5 -4.5t5 -5.5q3 -5 6.5 -5.5t5.5 -5.5q4 -2 11 -11q2 -5 4.5 -9.5t13.5 -20.5q1 -5 4 -11q2 -2 5.5 -7t5.5 -8q2 -5 3.5 -7.5t3.5 -6.5q2 -3 3 -10.5t2 -10.5q0 -2 0.5 -4.5t1.5 -3.5q14 -44 14 -91q0 -58 -16.5 -106.5t-49.5 -84t-81.5 -55.5
t-112.5 -20q-49 0 -87 17t-66 43.5t-47 58.5t-31 62q-2 6 -4 14q0 3 -1 8.5t-1 8.5t-0.5 5.5t-0.5 5.5q0 4 1.5 5.5t1.5 5.5q0 43 12.5 84t34 77.5t51 67.5t63.5 55q14 10 29 17t32 11q3 3 7 5q0 7 3 10t19 8q14 0 28.5 -4t17.5 -8h4q2 0 3.5 0.5t3.5 0.5q-1 0 -1 -1v-4
q1 -2 7 -1.5t8 -0.5l15 -8q6 -3 10.5 -7t9.5 -6q6 -4 11 -10t8 -8q4 -4 6 -5.5t7 -7.5zM320 433q-5 2 -9 3.5t-7 3.5q-30 -4 -60.5 -25.5t-55.5 -53t-40.5 -70.5t-15.5 -78q0 -29 13 -55t35 -45.5t49.5 -31t56.5 -11.5q37 0 68 11.5t53 33t34.5 53t12.5 72.5q0 59 -29 109
l-5 7.5t-5 8.5q-2 3 -6.5 6.5t-6.5 6.5q-3 4 -4.5 6.5t-3.5 6.5l-4.5 4.5t-3.5 4.5q-2 5 -13.5 11t-18.5 10zM323 756q2 0 4 0.5t4 0.5q22 0 45 -26q10 -11 20 -25.5t18 -29.5t13 -29.5t5 -25.5q0 -2 -0.5 -4.5t-0.5 -4.5q-4 -4 -6.5 -10t-12.5 -6q-2 0 -3 0.5t-2 0.5
q-12 3 -24.5 15.5t-26.5 25.5q-11 10 -20.5 19.5t-20.5 10.5q-8 -5 -20.5 -16t-26 -22t-27.5 -20.5t-24 -12.5q-2 0 -2.5 -0.5t-2.5 -0.5q-11 0 -14.5 3t-8.5 8q0 2 -0.5 4.5t-0.5 4.5q0 13 8 27.5t20 32.5q15 23 33 44.5t41 27.5z" />
    <glyph glyph-name="Otilde" unicode="&#xd5;" horiz-adv-x="568" 
d="M40 0zM444 467q2 -3 5 -4.5t5 -5.5q3 -5 6.5 -5.5t5.5 -5.5q4 -2 11 -11q2 -5 4.5 -9.5t13.5 -20.5q1 -5 4 -11q2 -2 5.5 -7t5.5 -8q2 -5 3.5 -7.5t3.5 -6.5q2 -3 3 -10.5t2 -10.5q0 -2 0.5 -4.5t1.5 -3.5q14 -44 14 -91q0 -58 -16.5 -106.5t-49.5 -84t-81.5 -55.5
t-112.5 -20q-49 0 -87 17t-66 43.5t-47 58.5t-31 62q-2 6 -4 14q0 3 -1 8.5t-1 8.5t-0.5 5.5t-0.5 5.5q0 4 1.5 5.5t1.5 5.5q0 43 12.5 84t34 77.5t51 67.5t63.5 55q14 10 29 17t32 11q3 3 7 5q0 7 3 10t19 8q14 0 28.5 -4t17.5 -8h4q2 0 3.5 0.5t3.5 0.5q-1 0 -1 -1v-4
q1 -2 7 -1.5t8 -0.5l15 -8q6 -3 10.5 -7t9.5 -6q6 -4 11 -10t8 -8q4 -4 6 -5.5t7 -7.5zM320 433q-5 2 -9 3.5t-7 3.5q-30 -4 -60.5 -25.5t-55.5 -53t-40.5 -70.5t-15.5 -78q0 -29 13 -55t35 -45.5t49.5 -31t56.5 -11.5q37 0 68 11.5t53 33t34.5 53t12.5 72.5q0 59 -29 109
l-5 7.5t-5 8.5q-2 3 -6.5 6.5t-6.5 6.5q-3 4 -4.5 6.5t-3.5 6.5l-4.5 4.5t-3.5 4.5q-2 5 -13.5 11t-18.5 10zM191 601q-7 -4 -17 -4q-8 0 -16 3t-13 10q-2 2 -2.5 4.5t-1.5 4.5q-1 3 -1 9q0 3 2 9l3 10q5 10 12 18.5t14 16.5l6 7l9 8q12 10 25 14t27 4q26 0 58 -10.5
t85 -25.5q2 0 4 -0.5t4 -0.5q2 -1 3.5 -2t3.5 -1h2q1 0 1 1q12 8 23 21.5t25 13.5q6 0 14 -5q12 -8 12 -25q0 -14 -7 -29t-13 -26l-5 -7q-13 -14 -29.5 -19t-34.5 -5q-12 0 -23.5 2t-22.5 5q-2 0 -3.5 0.5t-3.5 0.5l-15 4q-12 4 -24 7.5t-24 6.5l-10 2q-5 1 -10.5 2.5
t-10.5 1.5q-6 0 -9 -2q-8 -3 -14.5 -10.5t-15.5 -9.5z" />
    <glyph glyph-name="Odieresis" unicode="&#xd6;" horiz-adv-x="568" 
d="M40 0zM444 467q2 -3 5 -4.5t5 -5.5q3 -5 6.5 -5.5t5.5 -5.5q4 -2 11 -11q2 -5 4.5 -9.5t13.5 -20.5q1 -5 4 -11q2 -2 5.5 -7t5.5 -8q2 -5 3.5 -7.5t3.5 -6.5q2 -3 3 -10.5t2 -10.5q0 -2 0.5 -4.5t1.5 -3.5q14 -44 14 -91q0 -58 -16.5 -106.5t-49.5 -84t-81.5 -55.5
t-112.5 -20q-49 0 -87 17t-66 43.5t-47 58.5t-31 62q-2 6 -4 14q0 3 -1 8.5t-1 8.5t-0.5 5.5t-0.5 5.5q0 4 1.5 5.5t1.5 5.5q0 43 12.5 84t34 77.5t51 67.5t63.5 55q14 10 29 17t32 11q3 3 7 5q0 7 3 10t19 8q14 0 28.5 -4t17.5 -8h4q2 0 3.5 0.5t3.5 0.5q-1 0 -1 -1v-4
q1 -2 7 -1.5t8 -0.5l15 -8q6 -3 10.5 -7t9.5 -6q6 -4 11 -10t8 -8q4 -4 6 -5.5t7 -7.5zM320 433q-5 2 -9 3.5t-7 3.5q-30 -4 -60.5 -25.5t-55.5 -53t-40.5 -70.5t-15.5 -78q0 -29 13 -55t35 -45.5t49.5 -31t56.5 -11.5q37 0 68 11.5t53 33t34.5 53t12.5 72.5q0 59 -29 109
l-5 7.5t-5 8.5q-2 3 -6.5 6.5t-6.5 6.5q-3 4 -4.5 6.5t-3.5 6.5l-4.5 4.5t-3.5 4.5q-2 5 -13.5 11t-18.5 10zM425 651q-11 -26 -34 -40q-3 -2 -9 -4q-3 -1 -8 -1t-7 1q-8 1 -13 8q-4 2 -6.5 5.5t-4.5 7.5t-2.5 8t-1.5 9q0 11 1 16v10q0 6 1 8l5 9q1 4 5 6q3 2 4 3l3 3
q2 0 3 1.5t3 2.5q4 2 8 2l7 2h13l10 -4t10 -7q4 -3 7 -7q1 -5 3.5 -9t3.5 -9q1 -3 1 -8t-2 -13zM263 638q-4 -12 -13.5 -17.5t-20.5 -5.5t-21.5 6t-15.5 17l-3 8q0 1 -0.5 3t-0.5 5v8q0 5 1 9l3 8q2 6 4 9q1 4 5 6q8 9 14 12q7 4 18 4q3 0 9 -2q10 -3 17 -11q1 -3 5 -7
q3 -4 5 -12q2 -6 2 -11q0 -3 -0.5 -4.5t-0.5 -3.5t-0.5 -3.5t-0.5 -3.5q-2 -4 -2 -7z" />
    <glyph glyph-name="multiply" unicode="&#xd7;" horiz-adv-x="550" 
d="M406 31q-5 4 -9 7.5t-8 8.5q-22 29 -47.5 66t-51.5 73l-9 11l-24 -20q-6 -6 -11 -10.5t-12 -10.5q-8 -7 -15 -14.5t-9 -9.5l-61 -63l-7 -9q-9 -13 -22.5 -22.5t-32.5 -9.5q-2 0 -6 2q-5 0 -9 3q-8 5 -11.5 13.5t-3.5 16.5q0 6 1 9q0 7 1 10q10 16 23 32t26 30.5
t25.5 27.5t22.5 22q16 16 26 25.5t23 20.5l25 23q-9 14 -17 25l-16 22t-17 23t-21 29q-10 13 -18 25t-14 25l-4 9q-2 5 -3 10.5t-1 10.5q0 21 20 37l8 4q3 1 8 1q13 0 25 -17.5t23 -33.5q14 -20 22.5 -32.5t15.5 -23.5l11 -15q5 -7 15 -20.5t22 -30.5l50 34q17 11 30.5 21.5
t32.5 21.5q2 2 4 2.5t4 2.5q8 5 19 9.5t19 4.5q11 0 19.5 -4t14.5 -18q2 -6 4 -10q2 -8 2 -13q0 -17 -14 -28t-37 -25l-97 -68l13 -16l5 -9l29 -39q16 -19 30.5 -38.5t24.5 -41.5l4 -9q4 -7 7 -14t3 -15q0 -9 -8 -19l-7 -6q-7 -5 -14 -6t-15 -1z" />
    <glyph glyph-name="Oslash" unicode="&#xd8;" horiz-adv-x="568" 
d="M380 553q6 -3 10.5 -7t9.5 -6q5 8 9.5 16t9.5 17l13 26q5 11 17.5 24t23.5 13q14 0 21 -4.5t12 -10.5q8 -11 10.5 -16.5t2.5 -11.5q0 -8 -2 -13.5t-4 -13.5l-18 -29q-2 -4 -7 -9l-6 -6q1 2 -7 -11t-17 -28q6 -2 8 -6q4 -2 11 -11q2 -5 4.5 -9.5t13.5 -20.5q1 -5 4 -11
q2 -2 5.5 -7t5.5 -8q2 -5 3.5 -7.5t3.5 -6.5q2 -3 3 -10.5t2 -10.5q0 -2 0.5 -4.5t1.5 -3.5q14 -44 14 -91q0 -58 -16.5 -106.5t-49.5 -84t-81.5 -55.5t-112.5 -20q-37 0 -67 9l-10 -20q-2 -3 -3.5 -8.5t-2.5 -11.5q-2 -8 -8 -19t-8 -16q-2 -3 -7 -6.5t-8 -5.5q-2 -7 -27 -7
q-8 0 -14.5 4.5t-11.5 11.5t-8 14t-3 13q0 16 12 32q4 6 12 21t18 35q-35 28 -58 64.5t-37 70.5q-2 6 -4 14q0 3 -1 8.5t-1 8.5t-0.5 5.5t-0.5 5.5q0 4 1.5 5.5t1.5 5.5q0 43 12.5 84t34 77.5t51 67.5t63.5 55q14 10 29 17t32 11q3 3 7 5q0 7 3 10t19 8q14 0 28 -3.5
t17 -7.5q1 -1 3 -1t3.5 0.5t4.5 0.5q0 -3 -1 -3q1 -2 7.5 -2.5t8.5 -1.5zM300 362q5 11 12 24t13.5 25.5t13 23.5t10.5 19l-29 10q-5 2 -9 3.5t-7 3.5q-30 -4 -60.5 -25.5t-55.5 -53t-40.5 -70.5t-15.5 -78q0 -30 14 -56.5t37 -46.5l11 22zM409 402l-9 -13l-145 -285
q15 -3 31 -3q37 0 68 11.5t53 33t34.5 53t12.5 72.5q0 59 -29 109l-5 7.5t-5 8.5z" />
    <glyph glyph-name="Ugrave" unicode="&#xd9;" horiz-adv-x="554" 
d="M65 0zM501 497q1 -2 1 -6t-0.5 -9t-1.5 -10q-2 -14 -3 -23.5t-1 -21.5q1 -10 1.5 -27t0.5 -37q0 -22 -1 -46.5t-6 -47.5q-3 -19 -11.5 -46t-21.5 -57.5t-31.5 -62t-42.5 -58.5q-14 -16 -31.5 -31.5t-38 -27.5t-44 -19t-48.5 -7q-46 0 -76 26.5t-47 66t-24 86t-7 86.5
q0 5 -1 8.5t-1 8.5q0 2 0.5 7t1.5 10q0 2 -1 3.5t-1 3.5q0 1 0.5 4.5t0.5 6.5t-1 3q-1 3 -1 8q0 1 0.5 3t0.5 4q0 3 -1 3q2 2 2 11.5v12.5q0 49 2 86t3 57q0 4 -1 12.5t-1 19.5q0 22 7 35q8 14 15.5 18.5t14.5 4.5q32 0 41 -14.5t9 -41.5q0 -10 -0.5 -26.5t-1 -33.5
t-1.5 -32.5t-1 -22.5q-2 -16 -3.5 -32t-1.5 -39q0 -5 0.5 -11.5t2.5 -11.5q-5 -7 -5 -21q1 -17 3.5 -38t5.5 -50q2 -20 6.5 -42.5t13 -41t21 -30.5t30.5 -12q30 0 58 13t51 42q26 32 45.5 77.5t23.5 101.5q3 42 3 94q0 40 -3 75q-2 24 -5.5 44.5t-3.5 41.5q0 11 4.5 23.5
t12.5 19.5q14 11 23 11q24 0 40 -18.5t24 -36.5q5 -13 5 -19q0 -2 -0.5 -4.5t-0.5 -4.5q0 -3 1 -5zM271 708q7 -8 15.5 -15.5t16 -15.5t12.5 -17t5 -20q0 -14 -11 -20t-26 -6q-18 0 -34 7l-8 4q-4 3 -8 5l-6 5q-10 9 -21 17.5t-22 16.5q-1 2 -5 6q-14 12 -22 28t-8 33
q0 11 3.5 21t11.5 19q2 1 3.5 2t3.5 2q2 2 7 4l9 2q3 0 5.5 0.5t4.5 0.5q15 -2 24.5 -12t16.5 -22l4 -8q3 -6 6.5 -12t8.5 -11l6 -8z" />
    <glyph glyph-name="Uacute" unicode="&#xda;" horiz-adv-x="554" 
d="M65 0zM501 497q1 -2 1 -6t-0.5 -9t-1.5 -10q-2 -14 -3 -23.5t-1 -21.5q1 -10 1.5 -27t0.5 -37q0 -22 -1 -46.5t-6 -47.5q-3 -19 -11.5 -46t-21.5 -57.5t-31.5 -62t-42.5 -58.5q-14 -16 -31.5 -31.5t-38 -27.5t-44 -19t-48.5 -7q-46 0 -76 26.5t-47 66t-24 86t-7 86.5
q0 5 -1 8.5t-1 8.5q0 2 0.5 7t1.5 10q0 2 -1 3.5t-1 3.5q0 1 0.5 4.5t0.5 6.5t-1 3q-1 3 -1 8q0 1 0.5 3t0.5 4q0 3 -1 3q2 2 2 11.5v12.5q0 49 2 86t3 57q0 4 -1 12.5t-1 19.5q0 22 7 35q8 14 15.5 18.5t14.5 4.5q32 0 41 -14.5t9 -41.5q0 -10 -0.5 -26.5t-1 -33.5
t-1.5 -32.5t-1 -22.5q-2 -16 -3.5 -32t-1.5 -39q0 -5 0.5 -11.5t2.5 -11.5q-5 -7 -5 -21q1 -17 3.5 -38t5.5 -50q2 -20 6.5 -42.5t13 -41t21 -30.5t30.5 -12q30 0 58 13t51 42q26 32 45.5 77.5t23.5 101.5q3 42 3 94q0 40 -3 75q-2 24 -5.5 44.5t-3.5 41.5q0 11 4.5 23.5
t12.5 19.5q14 11 23 11q24 0 40 -18.5t24 -36.5q5 -13 5 -19q0 -2 -0.5 -4.5t-0.5 -4.5q0 -3 1 -5zM236 599q-6 2 -8.5 3t-7.5 6q-3 3 -4 3t-3 4q0 2 -0.5 4t-0.5 4q1 8 4 15.5t11 11.5q23 13 37.5 32.5t28.5 42.5l4 8q2 4 3 7t3 7t4 14l3 5q5 3 5 7q7 1 7 8q1 0 1.5 -0.5
t1.5 -0.5q5 0 5 7q2 -1 4 -1q4 0 6 6q6 0 9 2q4 0 8 2h9q5 0 8 -1q4 -2 4.5 -1t3.5 -3l6 -8q2 -2 2.5 -3.5t1.5 -3.5l2 -4t1 -4q3 -9 3 -20q0 -10 -1 -15t-2 -9t-3 -9q-1 -2 -2 -4.5t-1 -4.5q-2 -2 -2.5 -3.5t-1.5 -3.5q-3 -3 -4 -7l-11 -16q-12 -15 -26 -29t-30 -25l-9 -6
q-29 -16 -58 -19z" />
    <glyph glyph-name="Ucircumflex" unicode="&#xdb;" horiz-adv-x="554" 
d="M65 0zM501 497q1 -2 1 -6t-0.5 -9t-1.5 -10q-2 -14 -3 -23.5t-1 -21.5q1 -10 1.5 -27t0.5 -37q0 -22 -1 -46.5t-6 -47.5q-3 -19 -11.5 -46t-21.5 -57.5t-31.5 -62t-42.5 -58.5q-14 -16 -31.5 -31.5t-38 -27.5t-44 -19t-48.5 -7q-46 0 -76 26.5t-47 66t-24 86t-7 86.5
q0 5 -1 8.5t-1 8.5q0 2 0.5 7t1.5 10q0 2 -1 3.5t-1 3.5q0 1 0.5 4.5t0.5 6.5t-1 3q-1 3 -1 8q0 1 0.5 3t0.5 4q0 3 -1 3q2 2 2 11.5v12.5q0 49 2 86t3 57q0 4 -1 12.5t-1 19.5q0 22 7 35q8 14 15.5 18.5t14.5 4.5q32 0 41 -14.5t9 -41.5q0 -10 -0.5 -26.5t-1 -33.5
t-1.5 -32.5t-1 -22.5q-2 -16 -3.5 -32t-1.5 -39q0 -5 0.5 -11.5t2.5 -11.5q-5 -7 -5 -21q1 -17 3.5 -38t5.5 -50q2 -20 6.5 -42.5t13 -41t21 -30.5t30.5 -12q30 0 58 13t51 42q26 32 45.5 77.5t23.5 101.5q3 42 3 94q0 40 -3 75q-2 24 -5.5 44.5t-3.5 41.5q0 11 4.5 23.5
t12.5 19.5q14 11 23 11q24 0 40 -18.5t24 -36.5q5 -13 5 -19q0 -2 -0.5 -4.5t-0.5 -4.5q0 -3 1 -5zM285 756q2 0 4 0.5t4 0.5q22 0 45 -26q10 -11 20 -25.5t18 -29.5t13 -29.5t5 -25.5q0 -2 -0.5 -4.5t-0.5 -4.5q-4 -4 -6.5 -10t-12.5 -6q-2 0 -3 0.5t-2 0.5
q-12 3 -24.5 15.5t-26.5 25.5q-11 10 -20.5 19.5t-20.5 10.5q-8 -5 -20.5 -16t-26 -22t-27.5 -20.5t-24 -12.5q-2 0 -2.5 -0.5t-2.5 -0.5q-11 0 -14.5 3t-8.5 8q0 2 -0.5 4.5t-0.5 4.5q0 13 8 27.5t20 32.5q15 23 33 44.5t41 27.5z" />
    <glyph glyph-name="Udieresis" unicode="&#xdc;" horiz-adv-x="554" 
d="M65 0zM501 497q1 -2 1 -6t-0.5 -9t-1.5 -10q-2 -14 -3 -23.5t-1 -21.5q1 -10 1.5 -27t0.5 -37q0 -22 -1 -46.5t-6 -47.5q-3 -19 -11.5 -46t-21.5 -57.5t-31.5 -62t-42.5 -58.5q-14 -16 -31.5 -31.5t-38 -27.5t-44 -19t-48.5 -7q-46 0 -76 26.5t-47 66t-24 86t-7 86.5
q0 5 -1 8.5t-1 8.5q0 2 0.5 7t1.5 10q0 2 -1 3.5t-1 3.5q0 1 0.5 4.5t0.5 6.5t-1 3q-1 3 -1 8q0 1 0.5 3t0.5 4q0 3 -1 3q2 2 2 11.5v12.5q0 49 2 86t3 57q0 4 -1 12.5t-1 19.5q0 22 7 35q8 14 15.5 18.5t14.5 4.5q32 0 41 -14.5t9 -41.5q0 -10 -0.5 -26.5t-1 -33.5
t-1.5 -32.5t-1 -22.5q-2 -16 -3.5 -32t-1.5 -39q0 -5 0.5 -11.5t2.5 -11.5q-5 -7 -5 -21q1 -17 3.5 -38t5.5 -50q2 -20 6.5 -42.5t13 -41t21 -30.5t30.5 -12q30 0 58 13t51 42q26 32 45.5 77.5t23.5 101.5q3 42 3 94q0 40 -3 75q-2 24 -5.5 44.5t-3.5 41.5q0 11 4.5 23.5
t12.5 19.5q14 11 23 11q24 0 40 -18.5t24 -36.5q5 -13 5 -19q0 -2 -0.5 -4.5t-0.5 -4.5q0 -3 1 -5zM389 651q-11 -26 -34 -40q-3 -2 -9 -4q-3 -1 -8 -1t-7 1q-8 1 -13 8q-4 2 -6.5 5.5t-4.5 7.5t-2.5 8t-1.5 9q0 11 1 16v10q0 6 1 8l5 9q1 4 5 6q3 2 4 3l3 3q2 0 3 1.5
t3 2.5q4 2 8 2l7 2h13l10 -4t10 -7q4 -3 7 -7q1 -5 3.5 -9t3.5 -9q1 -3 1 -8t-2 -13zM227 638q-4 -12 -13.5 -17.5t-20.5 -5.5t-21.5 6t-15.5 17l-3 8q0 1 -0.5 3t-0.5 5v8q0 5 1 9l3 8q2 6 4 9q1 4 5 6q8 9 14 12q7 4 18 4q3 0 9 -2q10 -3 17 -11q1 -3 5 -7q3 -4 5 -12
q2 -6 2 -11q0 -3 -0.5 -4.5t-0.5 -3.5t-0.5 -3.5t-0.5 -3.5q-2 -4 -2 -7z" />
    <glyph glyph-name="Yacute" unicode="&#xdd;" horiz-adv-x="462" 
d="M19 0zM126 -11q13 40 28.5 76t26.5 61q6 14 11.5 29.5t9.5 25.5q-8 15 -18 34t-19.5 37.5t-19 36t-15.5 31.5q-3 5 -3.5 8.5t-2.5 7.5q-3 6 -6 11t-5 8l-11 25q-2 3 -2.5 6t-2.5 5q-11 23 -22.5 39.5t-27.5 36.5q-13 17 -18.5 23.5t-7.5 13.5q-2 6 -2 9q0 5 2 15
q0 2 2 10q3 6 7.5 10.5l7.5 7.5h18t18 2q19 -3 37 -21q8 -8 14 -17t12 -19l9 -15q10 -20 11 -28q3 -2 8 -11t8 -17q7 -16 17 -37t21 -43.5t22 -45.5t20 -42q14 29 27 62.5t23 56.5q11 26 26.5 59.5t23.5 64.5q4 7 7.5 16.5t7.5 18.5t8 15t9 6q9 0 10 -1t13 -1q2 0 5 -2
t11 -8q5 -4 8.5 -10.5t5.5 -13t3 -12t1 -7.5q0 -11 -4 -26.5t-10 -31.5q-4 -5 -13 -22.5t-20 -42.5t-24 -53.5t-26 -54.5q-11 -22 -24.5 -52.5t-28 -63.5t-28.5 -65.5t-25 -57.5q-1 -5 -4.5 -13.5t-8.5 -18t-10.5 -19t-9.5 -15.5q-7 -11 -9 -20t-7 -15q-7 -7 -12 -10.5
t-16 -3.5q-10 0 -17.5 4.5t-12.5 10.5q-5 2 -7.5 7.5t-4.5 8.5q2 6 2 7q0 2 -0.5 4.5t-0.5 4.5q0 5 1 8zM198 599q-6 2 -8.5 3t-7.5 6q-3 3 -4 3t-3 4q0 2 -0.5 4t-0.5 4q1 8 4 15.5t11 11.5q23 13 37.5 32.5t28.5 42.5l4 8q2 4 3 7t3 7t4 14l3 5q5 3 5 7q7 1 7 8
q1 0 1.5 -0.5t1.5 -0.5q5 0 5 7q2 -1 4 -1q4 0 6 6q6 0 9 2q4 0 8 2h9q5 0 8 -1q4 -2 4.5 -1t3.5 -3l6 -8q2 -2 2.5 -3.5t1.5 -3.5l2 -4t1 -4q3 -9 3 -20q0 -10 -1 -15t-2 -9t-3 -9q-1 -2 -2 -4.5t-1 -4.5q-2 -2 -2.5 -3.5t-1.5 -3.5q-3 -3 -4 -7l-11 -16q-12 -15 -26 -29
t-30 -25l-9 -6q-29 -16 -58 -19z" />
    <glyph glyph-name="Thorn" unicode="&#xde;" horiz-adv-x="480" 
d="M344 170q-38 -33 -76.5 -45.5t-76.5 -12.5h-14q-1 2 -2.5 2t-3.5 1q-6 1 -10.5 1t-8.5 2l-1 -9q2 -6 2 -12v-12q0 -8 -0.5 -17t-1.5 -17t-1.5 -24t-3.5 -33t-9 -29.5t-18 -12.5q-13 0 -28 9.5t-15 22.5q0 1 -0.5 1.5t-0.5 1.5q-3 11 -3.5 43t-0.5 63q0 56 1 96.5t2.5 75
t4 67l5.5 71.5q4 40 10 77.5t11 77.5q1 12 5 26.5t10 29t13 26.5t16 18q16 13 29 13q6 0 15 -3q17 -5 22.5 -18.5t5.5 -22.5q0 -18 -12 -44.5t-18 -62.5l-8 -48q23 32 57 58t79 26q41 0 70.5 -22t46.5 -60q1 -2 1.5 -3.5t2.5 -3.5q1 -2 1 -6q5 -17 9 -33.5t4 -33.5v-8t-1 -8
q0 -3 0.5 -6t0.5 -6q-4 -29 -15.5 -58.5t-29.5 -58.5l-4 -5q-9 -20 -22 -38t-32 -31zM154 232q-1 -6 -1 -12v-12q2 -8 6 -14q6 -8 14.5 -10.5t18.5 -2.5q19 1 39 10.5t31 17.5q13 10 24 21t22 23q26 29 42.5 66t16.5 75q0 6 -0.5 12.5t-1.5 12.5q-3 21 -17.5 37.5
t-36.5 16.5q-5 0 -13 -2q-17 -5 -31.5 -15t-27 -23t-23 -27t-17.5 -26q-17 -27 -30 -52t-13 -36l-2 -54v-6z" />
    <glyph glyph-name="germandbls" unicode="&#xdf;" horiz-adv-x="527" 
d="M118 587q0 21 17.5 34.5t36.5 13.5q14 0 19 -1q3 0 6 -0.5t5 -0.5q14 -3 28 -7t28 -9l9 -3q50 -23 84 -66l6 -9q11 -18 15 -35t4 -33q0 -18 -7 -31.5t-15 -24.5t-15 -19.5t-7 -15.5q0 -17 21 -47t51 -76q16 -25 29.5 -44.5t23.5 -36.5t15 -33.5t5 -34.5q0 -52 -41 -85
q-17 -15 -41.5 -26.5t-47.5 -12.5q-5 0 -14.5 -0.5t-35.5 -0.5q-25 0 -47 5.5t-34 30.5q-2 5 -5.5 8t-3.5 8q0 2 1 5t1 6q0 1 -0.5 4t-4.5 3q2 9 4.5 13.5t4.5 11.5q8 5 16.5 8.5t21.5 3.5q11 0 31 -5q22 -4 45 -8t36 -4q19 0 22.5 10t3.5 21q0 7 -8.5 23t-20.5 36t-26 41.5
t-25 39.5q-5 11 -11 20.5t-11 19.5q-3 7 -5.5 15.5t-7.5 13.5q-9 10 -17.5 29.5t-8.5 32.5q0 12 7 22.5t15.5 22t15.5 24t7 28.5q0 15 -10 25.5t-23.5 17.5t-27.5 10.5t-23 3.5q-14 0 -20 -6.5t-9 -17.5q-5 -14 -5.5 -32.5t-0.5 -36.5v-19.5t1 -17.5q2 -31 3 -60t1 -57
q0 -58 -2.5 -109.5t-3.5 -98.5v-11q-1 -6 -1 -12v-12q0 -12 0.5 -24.5t0.5 -24.5q0 -20 -3.5 -38t-14.5 -35l-8 -7q-9 -8 -21 -9q-2 -1 -7 -1t-10.5 0.5t-9.5 3.5q-8 7 -15.5 28t-7.5 42q1 4 1 10q0 28 1 59.5t1 54.5q0 14 3 29q0 2 -0.5 7t-0.5 7q1 23 1 42v41q0 2 -0.5 5
t-0.5 5v28.5t1 28.5q1 3 1 9q0 37 2.5 79.5t6.5 84.5v8q2 14 2 27.5t2 29.5q1 10 3.5 16t4.5 12q3 5 6 11t8 11v8z" />
    <glyph glyph-name="agrave" unicode="&#xe0;" horiz-adv-x="442" 
d="M50 0zM285 -11q-1 8 -1 20.5v22.5q0 9 -2.5 11.5t-4.5 2.5q-4 0 -7 -3l-7 -7q-9 -9 -25.5 -21t-35.5 -22.5t-40 -17.5t-39 -7t-31.5 8t-23 21.5t-14 30.5t-4.5 36q0 17 3 34q3 11 7.5 24.5t12.5 29.5q1 2 3.5 6t4.5 8q3 4 6 9q15 25 40 50t54.5 45.5t58.5 33t51 12.5
q15 0 28.5 -3t26.5 -14q8 -7 14.5 -17.5t6.5 -22.5q0 -5 -3 -11q-2 -39 -4 -72q-2 -29 -2.5 -56.5t-0.5 -41.5q0 -31 2.5 -56t5.5 -36q0 -8 -0.5 -14t-3.5 -11q-2 -4 -5 -8t-8 -7q-4 -2 -7 -2q-4 0 -7 1t-7 1q-7 -1 -7 -3q-22 0 -26 13t-9 33zM302 211q-4 0 -7 3
q-4 2 -5.5 4.5t-4.5 4.5q-14 0 -40.5 -18.5t-53.5 -44t-47 -52.5t-20 -45q0 -12 11 -12q6 0 18.5 4.5t29.5 15.5q13 8 29.5 19t33 24.5t30.5 29t22 33.5q2 13 3 18.5t1 15.5zM290 510q7 -8 15.5 -15.5t16 -15.5t12.5 -17t5 -20q0 -14 -11 -20t-26 -6q-18 0 -34 7l-8 4
q-4 3 -8 5l-6 5q-10 9 -21 17.5t-22 16.5q-1 2 -5 6q-14 12 -22 28t-8 33q0 11 3.5 21t11.5 19q2 1 3.5 2t3.5 2q2 2 7 4l9 2q3 0 5.5 0.5t4.5 0.5q15 -2 24.5 -12t16.5 -22l4 -8q3 -6 6.5 -12t8.5 -11l6 -8z" />
    </font>
</defs>
</svg>
